<svg width="158" height="48" viewBox="0 0 158 48" fill="none" xmlns="http://www.w3.org/2000/svg">
<path d="M5.30005 4.98547C4.74776 4.98547 4.30005 5.43319 4.30005 5.98547C4.30005 6.53776 4.74776 6.98547 5.30005 6.98547V4.98547ZM9.88512 5.98547L10.8503 5.72406C10.7323 5.28816 10.3367 4.98547 9.88512 4.98547V5.98547ZM17.3359 33.4959L16.3706 33.7573C16.5009 34.2383 16.9654 34.55 17.4599 34.4882L17.3359 33.4959ZM40.2612 30.6303L40.3853 31.6225C40.81 31.5694 41.1538 31.252 41.2405 30.8329L40.2612 30.6303ZM43.7 14.0094L44.6793 14.212C44.7402 13.9174 44.6654 13.6111 44.4755 13.3779C44.2856 13.1447 44.0008 13.0094 43.7 13.0094V14.0094ZM12.0583 14.0094L11.093 14.2708L12.0583 14.0094ZM5.30005 6.98547H9.88512V4.98547H5.30005V6.98547ZM17.4599 34.4882L40.3853 31.6225L40.1372 29.638L17.2118 32.5037L17.4599 34.4882ZM41.2405 30.8329L44.6793 14.212L42.7208 13.8068L39.282 30.4276L41.2405 30.8329ZM8.9199 6.24689L11.093 14.2708L13.0235 13.7479L10.8503 5.72406L8.9199 6.24689ZM11.093 14.2708L16.3706 33.7573L18.3011 33.2345L13.0235 13.7479L11.093 14.2708ZM43.7 13.0094H12.0583V15.0094H43.7V13.0094ZM23.5 41C23.5 42.1046 22.6046 43 21.5 43V45C23.7092 45 25.5 43.2092 25.5 41H23.5ZM21.5 43C20.3955 43 19.5 42.1046 19.5 41H17.5C17.5 43.2092 19.2909 45 21.5 45V43ZM19.5 41C19.5 39.8955 20.3955 39 21.5 39V37C19.2909 37 17.5 38.7909 17.5 41H19.5ZM21.5 39C22.6046 39 23.5 39.8955 23.5 41H25.5C25.5 38.7909 23.7092 37 21.5 37V39ZM39.5 41C39.5 42.1046 38.6046 43 37.5 43V45C39.7092 45 41.5 43.2092 41.5 41H39.5ZM37.5 43C36.3955 43 35.5 42.1046 35.5 41H33.5C33.5 43.2092 35.2909 45 37.5 45V43ZM35.5 41C35.5 39.8955 36.3955 39 37.5 39V37C35.2909 37 33.5 38.7909 33.5 41H35.5ZM37.5 39C38.6046 39 39.5 39.8955 39.5 41H41.5C41.5 38.7909 39.7092 37 37.5 37V39Z" fill="#6290F2"/>
<path d="M65.2926 15.9545V30.5H63.098V15.9545H65.2926ZM70.4418 24.0227V30.5H68.3182V19.5909H70.3565V21.3665H70.4915C70.7424 20.7888 71.1354 20.3248 71.6705 19.9744C72.2102 19.6241 72.8897 19.4489 73.7088 19.4489C74.4522 19.4489 75.1032 19.6051 75.6619 19.9176C76.2206 20.2254 76.6539 20.6847 76.9616 21.2955C77.2694 21.9062 77.4233 22.6615 77.4233 23.5611V30.5H75.2997V23.8168C75.2997 23.026 75.0938 22.4081 74.6818 21.9631C74.2699 21.5133 73.7041 21.2884 72.9844 21.2884C72.492 21.2884 72.054 21.3949 71.6705 21.608C71.2917 21.821 70.991 22.1335 70.7685 22.5455C70.5507 22.9527 70.4418 23.4451 70.4418 24.0227ZM89.2131 19.5909L85.2571 30.5H82.9844L79.0213 19.5909H81.3011L84.0639 27.9858H84.1776L86.9332 19.5909H89.2131ZM95.5394 30.7202C94.4646 30.7202 93.5389 30.4905 92.7624 30.0312C91.9906 29.5672 91.3941 28.9162 90.9727 28.0781C90.556 27.2353 90.3477 26.2481 90.3477 25.1165C90.3477 23.9991 90.556 23.0142 90.9727 22.1619C91.3941 21.3097 91.9812 20.6444 92.734 20.1662C93.4916 19.688 94.377 19.4489 95.3903 19.4489C96.0058 19.4489 96.6024 19.5507 97.18 19.7543C97.7577 19.9579 98.2762 20.2775 98.7354 20.7131C99.1947 21.1487 99.5569 21.7145 99.8221 22.4105C100.087 23.1018 100.22 23.9422 100.22 24.9318V25.6847H91.5479V24.0938H98.1388C98.1388 23.535 98.0252 23.0402 97.7979 22.6094C97.5707 22.1738 97.2511 21.8305 96.8391 21.5795C96.4319 21.3286 95.9537 21.2031 95.4045 21.2031C94.8079 21.2031 94.2871 21.3499 93.842 21.6435C93.4016 21.9323 93.0607 22.3111 92.8192 22.7798C92.5825 23.2438 92.4641 23.7481 92.4641 24.2926V25.5355C92.4641 26.2647 92.592 26.8849 92.8477 27.3963C93.1081 27.9077 93.4703 28.2983 93.9343 28.5682C94.3983 28.8333 94.9405 28.9659 95.5607 28.9659C95.9632 28.9659 96.3301 28.9091 96.6616 28.7955C96.993 28.6771 97.2795 28.5019 97.521 28.2699C97.7624 28.0379 97.9471 27.7514 98.0749 27.4105L100.085 27.7727C99.9239 28.3646 99.6351 28.883 99.2184 29.3281C98.8065 29.7685 98.288 30.1117 97.663 30.358C97.0427 30.5994 96.3349 30.7202 95.5394 30.7202ZM104.7 24.0227V30.5H102.576V19.5909H104.614V21.3665H104.749C105 20.7888 105.393 20.3248 105.928 19.9744C106.468 19.6241 107.147 19.4489 107.967 19.4489C108.71 19.4489 109.361 19.6051 109.92 19.9176C110.478 20.2254 110.912 20.6847 111.219 21.2955C111.527 21.9062 111.681 22.6615 111.681 23.5611V30.5H109.558V23.8168C109.558 23.026 109.352 22.4081 108.94 21.9631C108.528 21.5133 107.962 21.2884 107.242 21.2884C106.75 21.2884 106.312 21.3949 105.928 21.608C105.549 21.821 105.249 22.1335 105.026 22.5455C104.808 22.9527 104.7 23.4451 104.7 24.0227ZM119.621 19.5909V21.2955H113.663V19.5909H119.621ZM115.261 16.9773H117.384V27.2969C117.384 27.7088 117.446 28.0189 117.569 28.2273C117.692 28.4309 117.851 28.5705 118.045 28.6463C118.244 28.7173 118.459 28.7528 118.691 28.7528C118.862 28.7528 119.011 28.741 119.138 28.7173C119.266 28.6937 119.366 28.6747 119.437 28.6605L119.82 30.4148C119.697 30.4621 119.522 30.5095 119.295 30.5568C119.067 30.6089 118.783 30.6373 118.442 30.642C117.884 30.6515 117.363 30.5521 116.88 30.3438C116.397 30.1354 116.006 29.8134 115.708 29.3778C115.41 28.9422 115.261 28.3954 115.261 27.7372V16.9773ZM126.449 30.7202C125.426 30.7202 124.533 30.4858 123.771 30.017C123.009 29.5483 122.417 28.8925 121.995 28.0497C121.574 27.2069 121.363 26.2221 121.363 25.0952C121.363 23.9635 121.574 22.974 121.995 22.1264C122.417 21.2789 123.009 20.6207 123.771 20.152C124.533 19.6832 125.426 19.4489 126.449 19.4489C127.471 19.4489 128.364 19.6832 129.126 20.152C129.888 20.6207 130.48 21.2789 130.902 22.1264C131.323 22.974 131.534 23.9635 131.534 25.0952C131.534 26.2221 131.323 27.2069 130.902 28.0497C130.48 28.8925 129.888 29.5483 129.126 30.017C128.364 30.4858 127.471 30.7202 126.449 30.7202ZM126.456 28.9375C127.118 28.9375 127.668 28.7623 128.103 28.4119C128.539 28.0616 128.861 27.5952 129.069 27.0128C129.282 26.4304 129.389 25.7888 129.389 25.0881C129.389 24.392 129.282 23.7528 129.069 23.1705C128.861 22.5833 128.539 22.1122 128.103 21.7571C127.668 21.402 127.118 21.2244 126.456 21.2244C125.788 21.2244 125.234 21.402 124.794 21.7571C124.358 22.1122 124.034 22.5833 123.821 23.1705C123.612 23.7528 123.508 24.392 123.508 25.0881C123.508 25.7888 123.612 26.4304 123.821 27.0128C124.034 27.5952 124.358 28.0616 124.794 28.4119C125.234 28.7623 125.788 28.9375 126.456 28.9375ZM133.904 30.5V19.5909H135.957V21.3239H136.07C136.269 20.7367 136.62 20.2751 137.121 19.9389C137.628 19.598 138.201 19.4276 138.84 19.4276C138.973 19.4276 139.129 19.4323 139.309 19.4418C139.494 19.4512 139.638 19.4631 139.742 19.4773V21.5085C139.657 21.4848 139.505 21.4588 139.288 21.4304C139.07 21.3973 138.852 21.3807 138.634 21.3807C138.132 21.3807 137.685 21.4872 137.292 21.7003C136.904 21.9086 136.596 22.1998 136.369 22.5739C136.141 22.9432 136.028 23.3646 136.028 23.8381V30.5H133.904ZM143.254 34.5909C142.937 34.5909 142.648 34.5649 142.388 34.5128C142.127 34.4654 141.933 34.4134 141.805 34.3565L142.317 32.6165C142.705 32.7206 143.051 32.7656 143.354 32.7514C143.657 32.7372 143.924 32.6236 144.156 32.4105C144.393 32.1974 144.601 31.8494 144.781 31.3665L145.044 30.642L141.053 19.5909H143.325L146.088 28.0568H146.202L148.964 19.5909H151.244L146.749 31.956C146.54 32.5241 146.275 33.0047 145.953 33.3977C145.631 33.7955 145.248 34.0938 144.803 34.2926C144.357 34.4915 143.841 34.5909 143.254 34.5909Z" fill="#6290F2"/>
</svg>
