<svg width="130" height="48" viewBox="0 0 130 48" fill="none" xmlns="http://www.w3.org/2000/svg">
<path d="M31.2 16.8001V10.8001C31.2 6.82365 27.9765 3.6001 24 3.6001C20.0236 3.6001 16.8 6.82365 16.8 10.8001V16.8001M9.45459 44.4001H38.5455C41.1161 44.4001 43.2 42.3549 43.2 39.8321L40.2182 15.6C40.2182 13.0772 38.1343 11.032 35.5637 11.032H11.8546C9.28396 11.032 7.20005 13.0772 7.20005 15.6L4.80005 39.8321C4.80005 42.3549 6.88396 44.4001 9.45459 44.4001Z" stroke="#6290F2" stroke-width="2" stroke-linecap="round" stroke-linejoin="round"/>
<path d="M75.233 23.2273C75.233 24.7803 74.9489 26.1155 74.3807 27.233C73.8125 28.3456 73.0336 29.2027 72.044 29.804C71.0592 30.4006 69.9394 30.6989 68.6847 30.6989C67.4252 30.6989 66.3007 30.4006 65.3111 29.804C64.3262 29.2027 63.5497 28.3433 62.9815 27.2259C62.4134 26.1084 62.1293 24.7756 62.1293 23.2273C62.1293 21.6742 62.4134 20.3414 62.9815 19.2287C63.5497 18.1113 64.3262 17.2543 65.3111 16.6577C66.3007 16.0563 67.4252 15.7557 68.6847 15.7557C69.9394 15.7557 71.0592 16.0563 72.044 16.6577C73.0336 17.2543 73.8125 18.1113 74.3807 19.2287C74.9489 20.3414 75.233 21.6742 75.233 23.2273ZM73.0597 23.2273C73.0597 22.0436 72.8679 21.0469 72.4844 20.2372C72.1056 19.4228 71.5848 18.8073 70.9219 18.3906C70.2637 17.9692 69.518 17.7585 68.6847 17.7585C67.8466 17.7585 67.0985 17.9692 66.4403 18.3906C65.7822 18.8073 65.2614 19.4228 64.8778 20.2372C64.4991 21.0469 64.3097 22.0436 64.3097 23.2273C64.3097 24.411 64.4991 25.41 64.8778 26.2244C65.2614 27.0341 65.7822 27.6496 66.4403 28.071C67.0985 28.4877 67.8466 28.696 68.6847 28.696C69.518 28.696 70.2637 28.4877 70.9219 28.071C71.5848 27.6496 72.1056 27.0341 72.4844 26.2244C72.8679 25.41 73.0597 24.411 73.0597 23.2273ZM77.7987 30.5V19.5909H79.8512V21.3239H79.9648C80.1637 20.7367 80.5141 20.2751 81.016 19.9389C81.5226 19.598 82.0955 19.4276 82.7347 19.4276C82.8673 19.4276 83.0236 19.4323 83.2035 19.4418C83.3881 19.4512 83.5326 19.4631 83.6367 19.4773V21.5085C83.5515 21.4848 83.4 21.4588 83.1822 21.4304C82.9644 21.3973 82.7466 21.3807 82.5288 21.3807C82.0269 21.3807 81.5794 21.4872 81.1864 21.7003C80.7982 21.9086 80.4904 22.1998 80.2631 22.5739C80.0359 22.9432 79.9222 23.3646 79.9222 23.8381V30.5H77.7987ZM89.1676 30.7131C88.2869 30.7131 87.5009 30.4882 86.8097 30.0384C86.1231 29.5838 85.5833 28.9375 85.1903 28.0994C84.8021 27.2566 84.608 26.2457 84.608 25.0668C84.608 23.8878 84.8045 22.8793 85.1974 22.0412C85.5952 21.2031 86.1397 20.5616 86.831 20.1165C87.5223 19.6714 88.3059 19.4489 89.1818 19.4489C89.8589 19.4489 90.4034 19.5625 90.8153 19.7898C91.232 20.0123 91.554 20.2727 91.7812 20.571C92.0133 20.8693 92.1932 21.1321 92.321 21.3594H92.4489V15.9545H94.5724V30.5H92.4986V28.8026H92.321C92.1932 29.0346 92.0085 29.2997 91.767 29.598C91.5303 29.8963 91.2036 30.1567 90.7869 30.3793C90.3703 30.6018 89.8305 30.7131 89.1676 30.7131ZM89.6364 28.902C90.2472 28.902 90.7633 28.741 91.1847 28.419C91.6108 28.0923 91.9328 27.6402 92.1506 27.0625C92.3731 26.4848 92.4844 25.8125 92.4844 25.0455C92.4844 24.2879 92.3755 23.625 92.1577 23.0568C91.9399 22.4886 91.6203 22.0459 91.1989 21.7287C90.7775 21.4115 90.2566 21.2528 89.6364 21.2528C88.9972 21.2528 88.4645 21.4186 88.0384 21.75C87.6122 22.0814 87.2902 22.5336 87.0724 23.1065C86.8594 23.6795 86.7528 24.3258 86.7528 25.0455C86.7528 25.7746 86.8617 26.4304 87.0795 27.0128C87.2973 27.5952 87.6193 28.0568 88.0455 28.3977C88.4763 28.7339 89.0066 28.902 89.6364 28.902ZM102.305 30.7202C101.23 30.7202 100.305 30.4905 99.5281 30.0312C98.7563 29.5672 98.1597 28.9162 97.7383 28.0781C97.3216 27.2353 97.1133 26.2481 97.1133 25.1165C97.1133 23.9991 97.3216 23.0142 97.7383 22.1619C98.1597 21.3097 98.7468 20.6444 99.4996 20.1662C100.257 19.688 101.143 19.4489 102.156 19.4489C102.771 19.4489 103.368 19.5507 103.946 19.7543C104.523 19.9579 105.042 20.2775 105.501 20.7131C105.96 21.1487 106.323 21.7145 106.588 22.4105C106.853 23.1018 106.985 23.9422 106.985 24.9318V25.6847H98.3136V24.0938H104.904C104.904 23.535 104.791 23.0402 104.564 22.6094C104.336 22.1738 104.017 21.8305 103.605 21.5795C103.198 21.3286 102.719 21.2031 102.17 21.2031C101.574 21.2031 101.053 21.3499 100.608 21.6435C100.167 21.9323 99.8263 22.3111 99.5849 22.7798C99.3481 23.2438 99.2298 23.7481 99.2298 24.2926V25.5355C99.2298 26.2647 99.3576 26.8849 99.6133 27.3963C99.8737 27.9077 100.236 28.2983 100.7 28.5682C101.164 28.8333 101.706 28.9659 102.326 28.9659C102.729 28.9659 103.096 28.9091 103.427 28.7955C103.759 28.6771 104.045 28.5019 104.287 28.2699C104.528 28.0379 104.713 27.7514 104.841 27.4105L106.85 27.7727C106.69 28.3646 106.401 28.883 105.984 29.3281C105.572 29.7685 105.054 30.1117 104.429 30.358C103.808 30.5994 103.1 30.7202 102.305 30.7202ZM109.342 30.5V19.5909H111.394V21.3239H111.508C111.707 20.7367 112.057 20.2751 112.559 19.9389C113.066 19.598 113.638 19.4276 114.278 19.4276C114.41 19.4276 114.567 19.4323 114.746 19.4418C114.931 19.4512 115.076 19.4631 115.18 19.4773V21.5085C115.094 21.4848 114.943 21.4588 114.725 21.4304C114.507 21.3973 114.29 21.3807 114.072 21.3807C113.57 21.3807 113.122 21.4872 112.729 21.7003C112.341 21.9086 112.033 22.1998 111.806 22.5739C111.579 22.9432 111.465 23.3646 111.465 23.8381V30.5H109.342ZM125.192 22.2543L123.267 22.5952C123.187 22.349 123.059 22.1146 122.884 21.892C122.713 21.6695 122.481 21.4872 122.188 21.3452C121.894 21.2031 121.527 21.1321 121.087 21.1321C120.486 21.1321 119.984 21.267 119.581 21.5369C119.179 21.8021 118.978 22.1454 118.978 22.5668C118.978 22.9313 119.113 23.2249 119.382 23.4474C119.652 23.67 120.088 23.8523 120.689 23.9943L122.422 24.392C123.426 24.6241 124.174 24.9815 124.667 25.4645C125.159 25.9474 125.405 26.5748 125.405 27.3466C125.405 28 125.216 28.5824 124.837 29.0938C124.463 29.6004 123.94 29.9981 123.267 30.2869C122.6 30.5758 121.826 30.7202 120.945 30.7202C119.723 30.7202 118.727 30.4598 117.955 29.9389C117.183 29.4134 116.71 28.6676 116.534 27.7017L118.587 27.3892C118.715 27.9242 118.978 28.3291 119.375 28.6037C119.773 28.8736 120.292 29.0085 120.931 29.0085C121.627 29.0085 122.183 28.8641 122.6 28.5753C123.016 28.2817 123.225 27.9242 123.225 27.5028C123.225 27.1619 123.097 26.8755 122.841 26.6435C122.59 26.4115 122.204 26.2363 121.684 26.1179L119.837 25.7131C118.819 25.4811 118.066 25.1117 117.578 24.6051C117.096 24.0985 116.854 23.4569 116.854 22.6804C116.854 22.0365 117.034 21.473 117.394 20.9901C117.754 20.5071 118.251 20.1307 118.885 19.8608C119.52 19.5862 120.247 19.4489 121.066 19.4489C122.245 19.4489 123.173 19.7045 123.85 20.2159C124.527 20.7225 124.974 21.402 125.192 22.2543Z" fill="#6290F2"/>
</svg>
