<svg width="144" height="49" viewBox="0 0 144 49" fill="none" xmlns="http://www.w3.org/2000/svg">
<path d="M6.47534 39.5C9.12616 35.0785 14.9359 32.0524 23.9999 32.0524C33.0639 32.0524 38.8736 35.0785 41.5244 39.5M31.1999 16.7C31.1999 20.6765 27.9763 23.9 23.9999 23.9C20.0234 23.9 16.7999 20.6765 16.7999 16.7C16.7999 12.7235 20.0234 9.5 23.9999 9.5C27.9763 9.5 31.1999 12.7235 31.1999 16.7Z" stroke="#6290F2" stroke-width="2" stroke-linecap="round"/>
<path d="M64.7926 16.4545V31H62.598V16.4545H64.7926ZM69.9418 24.5227V31H67.8182V20.0909H69.8565V21.8665H69.9915C70.2424 21.2888 70.6354 20.8248 71.1705 20.4744C71.7102 20.1241 72.3897 19.9489 73.2088 19.9489C73.9522 19.9489 74.6032 20.1051 75.1619 20.4176C75.7206 20.7254 76.1539 21.1847 76.4616 21.7955C76.7694 22.4062 76.9233 23.1615 76.9233 24.0611V31H74.7997V24.3168C74.7997 23.526 74.5938 22.9081 74.1818 22.4631C73.7699 22.0133 73.2041 21.7884 72.4844 21.7884C71.992 21.7884 71.554 21.8949 71.1705 22.108C70.7917 22.321 70.491 22.6335 70.2685 23.0455C70.0507 23.4527 69.9418 23.9451 69.9418 24.5227ZM88.7131 20.0909L84.7571 31H82.4844L78.5213 20.0909H80.8011L83.5639 28.4858H83.6776L86.4332 20.0909H88.7131ZM94.9329 31.2202C93.9102 31.2202 93.0176 30.9858 92.2553 30.517C91.493 30.0483 90.9012 29.3925 90.4798 28.5497C90.0584 27.7069 89.8477 26.7221 89.8477 25.5952C89.8477 24.4635 90.0584 23.474 90.4798 22.6264C90.9012 21.7789 91.493 21.1207 92.2553 20.652C93.0176 20.1832 93.9102 19.9489 94.9329 19.9489C95.9556 19.9489 96.8481 20.1832 97.6104 20.652C98.3728 21.1207 98.9646 21.7789 99.386 22.6264C99.8074 23.474 100.018 24.4635 100.018 25.5952C100.018 26.7221 99.8074 27.7069 99.386 28.5497C98.9646 29.3925 98.3728 30.0483 97.6104 30.517C96.8481 30.9858 95.9556 31.2202 94.9329 31.2202ZM94.94 29.4375C95.6029 29.4375 96.1521 29.2623 96.5877 28.9119C97.0233 28.5616 97.3453 28.0952 97.5536 27.5128C97.7667 26.9304 97.8732 26.2888 97.8732 25.5881C97.8732 24.892 97.7667 24.2528 97.5536 23.6705C97.3453 23.0833 97.0233 22.6122 96.5877 22.2571C96.1521 21.902 95.6029 21.7244 94.94 21.7244C94.2724 21.7244 93.7184 21.902 93.2781 22.2571C92.8424 22.6122 92.5181 23.0833 92.305 23.6705C92.0967 24.2528 91.9925 24.892 91.9925 25.5881C91.9925 26.2888 92.0967 26.9304 92.305 27.5128C92.5181 28.0952 92.8424 28.5616 93.2781 28.9119C93.7184 29.2623 94.2724 29.4375 94.94 29.4375ZM102.388 31V20.0909H104.512V31H102.388ZM103.461 18.4077C103.092 18.4077 102.774 18.2846 102.509 18.0384C102.249 17.7874 102.119 17.4891 102.119 17.1435C102.119 16.7931 102.249 16.4948 102.509 16.2486C102.774 15.9976 103.092 15.8722 103.461 15.8722C103.83 15.8722 104.145 15.9976 104.406 16.2486C104.671 16.4948 104.803 16.7931 104.803 17.1435C104.803 17.4891 104.671 17.7874 104.406 18.0384C104.145 18.2846 103.83 18.4077 103.461 18.4077ZM111.964 31.2202C110.908 31.2202 109.999 30.9811 109.237 30.5028C108.479 30.0199 107.897 29.3546 107.49 28.5071C107.083 27.6596 106.879 26.6889 106.879 25.5952C106.879 24.4872 107.087 23.5095 107.504 22.6619C107.921 21.8097 108.508 21.1444 109.265 20.6662C110.023 20.188 110.915 19.9489 111.943 19.9489C112.771 19.9489 113.51 20.1027 114.159 20.4105C114.807 20.7135 115.331 21.1397 115.728 21.6889C116.131 22.2382 116.37 22.8797 116.446 23.6136H114.379C114.265 23.1023 114.005 22.6619 113.598 22.2926C113.195 21.9233 112.655 21.7386 111.978 21.7386C111.386 21.7386 110.868 21.8949 110.423 22.2074C109.983 22.5152 109.639 22.9555 109.393 23.5284C109.147 24.0966 109.024 24.7689 109.024 25.5455C109.024 26.3409 109.145 27.0275 109.386 27.6051C109.627 28.1828 109.968 28.6302 110.409 28.9474C110.854 29.2647 111.377 29.4233 111.978 29.4233C112.381 29.4233 112.745 29.3499 113.072 29.2031C113.404 29.0516 113.681 28.8362 113.903 28.5568C114.13 28.2775 114.289 27.9413 114.379 27.5483H116.446C116.37 28.2538 116.14 28.8835 115.757 29.4375C115.373 29.9915 114.859 30.4271 114.216 30.7443C113.576 31.0616 112.826 31.2202 111.964 31.2202ZM123.418 31.2202C122.344 31.2202 121.418 30.9905 120.641 30.5312C119.87 30.0672 119.273 29.4162 118.852 28.5781C118.435 27.7353 118.227 26.7481 118.227 25.6165C118.227 24.4991 118.435 23.5142 118.852 22.6619C119.273 21.8097 119.86 21.1444 120.613 20.6662C121.371 20.188 122.256 19.9489 123.269 19.9489C123.885 19.9489 124.481 20.0507 125.059 20.2543C125.637 20.4579 126.155 20.7775 126.614 21.2131C127.074 21.6487 127.436 22.2145 127.701 22.9105C127.966 23.6018 128.099 24.4422 128.099 25.4318V26.1847H119.427V24.5938H126.018C126.018 24.035 125.904 23.5402 125.677 23.1094C125.45 22.6738 125.13 22.3305 124.718 22.0795C124.311 21.8286 123.833 21.7031 123.283 21.7031C122.687 21.7031 122.166 21.8499 121.721 22.1435C121.281 22.4323 120.94 22.8111 120.698 23.2798C120.461 23.7438 120.343 24.2481 120.343 24.7926V26.0355C120.343 26.7647 120.471 27.3849 120.727 27.8963C120.987 28.4077 121.349 28.7983 121.813 29.0682C122.277 29.3333 122.819 29.4659 123.44 29.4659C123.842 29.4659 124.209 29.4091 124.54 29.2955C124.872 29.1771 125.158 29.0019 125.4 28.7699C125.641 28.5379 125.826 28.2514 125.954 27.9105L127.964 28.2727C127.803 28.8646 127.514 29.383 127.097 29.8281C126.685 30.2685 126.167 30.6117 125.542 30.858C124.922 31.0994 124.214 31.2202 123.418 31.2202ZM138.63 22.7543L136.705 23.0952C136.624 22.849 136.497 22.6146 136.321 22.392C136.151 22.1695 135.919 21.9872 135.625 21.8452C135.332 21.7031 134.965 21.6321 134.525 21.6321C133.923 21.6321 133.421 21.767 133.019 22.0369C132.616 22.3021 132.415 22.6454 132.415 23.0668C132.415 23.4313 132.55 23.7249 132.82 23.9474C133.09 24.17 133.525 24.3523 134.127 24.4943L135.86 24.892C136.864 25.1241 137.612 25.4815 138.104 25.9645C138.596 26.4474 138.843 27.0748 138.843 27.8466C138.843 28.5 138.653 29.0824 138.275 29.5938C137.9 30.1004 137.377 30.4981 136.705 30.7869C136.037 31.0758 135.263 31.2202 134.382 31.2202C133.161 31.2202 132.164 30.9598 131.392 30.4389C130.621 29.9134 130.147 29.1676 129.972 28.2017L132.025 27.8892C132.152 28.4242 132.415 28.8291 132.813 29.1037C133.211 29.3736 133.729 29.5085 134.368 29.5085C135.064 29.5085 135.621 29.3641 136.037 29.0753C136.454 28.7817 136.662 28.4242 136.662 28.0028C136.662 27.6619 136.534 27.3755 136.279 27.1435C136.028 26.9115 135.642 26.7363 135.121 26.6179L133.275 26.2131C132.257 25.9811 131.504 25.6117 131.016 25.1051C130.533 24.5985 130.292 23.9569 130.292 23.1804C130.292 22.5365 130.471 21.973 130.831 21.4901C131.191 21.0071 131.688 20.6307 132.323 20.3608C132.957 20.0862 133.684 19.9489 134.503 19.9489C135.682 19.9489 136.61 20.2045 137.287 20.7159C137.964 21.2225 138.412 21.902 138.63 22.7543Z" fill="#6290F2"/>
</svg>
