<svg width="99" height="40" viewBox="0 0 99 40" fill="none" xmlns="http://www.w3.org/2000/svg">
<rect width="99" height="40" rx="4" fill="#1366D9"/>
<path d="M17.9787 25H16.348L20.0121 14.8182H21.7869L25.451 25H23.8203L20.9418 16.6676H20.8622L17.9787 25ZM18.2521 21.0128H23.5419V22.3054H18.2521V21.0128ZM29.5376 25.1491C28.9212 25.1491 28.371 24.9917 27.8871 24.6768C27.4065 24.3587 27.0286 23.9062 26.7536 23.3196C26.4818 22.7296 26.3459 22.022 26.3459 21.1967C26.3459 20.3714 26.4834 19.6655 26.7585 19.0788C27.0369 18.4922 27.4181 18.0431 27.902 17.7315C28.3859 17.42 28.9344 17.2642 29.5476 17.2642C30.0215 17.2642 30.4027 17.3438 30.6911 17.5028C30.9827 17.6586 31.2081 17.8409 31.3672 18.0497C31.5296 18.2585 31.6555 18.4425 31.745 18.6016H31.8345V14.8182H33.321V25H31.8693V23.8118H31.745C31.6555 23.9742 31.5263 24.1598 31.3572 24.3686C31.1915 24.5774 30.9628 24.7597 30.6712 24.9155C30.3795 25.0713 30.0017 25.1491 29.5376 25.1491ZM29.8658 23.8814C30.2933 23.8814 30.6546 23.7687 30.9496 23.5433C31.2479 23.3146 31.4732 22.9981 31.6257 22.5938C31.7815 22.1894 31.8594 21.7187 31.8594 21.1818C31.8594 20.6515 31.7831 20.1875 31.6307 19.7898C31.4782 19.392 31.2545 19.0821 30.9595 18.8601C30.6645 18.638 30.3 18.527 29.8658 18.527C29.4183 18.527 29.0455 18.643 28.7472 18.875C28.4489 19.107 28.2235 19.4235 28.071 19.8246C27.9219 20.2256 27.8473 20.678 27.8473 21.1818C27.8473 21.6922 27.9235 22.1513 28.076 22.5589C28.2285 22.9666 28.4538 23.2898 28.7521 23.5284C29.0537 23.7637 29.425 23.8814 29.8658 23.8814ZM38.3013 25.1491C37.6848 25.1491 37.1346 24.9917 36.6507 24.6768C36.1702 24.3587 35.7923 23.9062 35.5172 23.3196C35.2454 22.7296 35.1096 22.022 35.1096 21.1967C35.1096 20.3714 35.2471 19.6655 35.5222 19.0788C35.8006 18.4922 36.1818 18.0431 36.6657 17.7315C37.1496 17.42 37.6981 17.2642 38.3113 17.2642C38.7852 17.2642 39.1664 17.3438 39.4547 17.5028C39.7464 17.6586 39.9718 17.8409 40.1309 18.0497C40.2933 18.2585 40.4192 18.4425 40.5087 18.6016H40.5982V14.8182H42.0847V25H40.633V23.8118H40.5087C40.4192 23.9742 40.29 24.1598 40.1209 24.3686C39.9552 24.5774 39.7265 24.7597 39.4348 24.9155C39.1432 25.0713 38.7653 25.1491 38.3013 25.1491ZM38.6294 23.8814C39.057 23.8814 39.4183 23.7687 39.7132 23.5433C40.0115 23.3146 40.2369 22.9981 40.3894 22.5938C40.5452 22.1894 40.623 21.7187 40.623 21.1818C40.623 20.6515 40.5468 20.1875 40.3944 19.7898C40.2419 19.392 40.0182 19.0821 39.7232 18.8601C39.4282 18.638 39.0636 18.527 38.6294 18.527C38.182 18.527 37.8091 18.643 37.5108 18.875C37.2125 19.107 36.9872 19.4235 36.8347 19.8246C36.6855 20.2256 36.611 20.678 36.611 21.1818C36.611 21.6922 36.6872 22.1513 36.8397 22.5589C36.9921 22.9666 37.2175 23.2898 37.5158 23.5284C37.8174 23.7637 38.1886 23.8814 38.6294 23.8814ZM53.584 17.4929C53.531 17.0223 53.3122 16.6577 52.9277 16.3991C52.5433 16.1373 52.0594 16.0064 51.476 16.0064C51.0584 16.0064 50.6971 16.0727 50.3922 16.2053C50.0873 16.3345 49.8503 16.5135 49.6813 16.7422C49.5156 16.9676 49.4327 17.2244 49.4327 17.5128C49.4327 17.7547 49.4891 17.9635 49.6017 18.1392C49.7177 18.3149 49.8685 18.4624 50.0542 18.5817C50.2431 18.6977 50.4453 18.7955 50.6607 18.875C50.8761 18.9512 51.0833 19.0142 51.2821 19.0639L52.2765 19.3224C52.6013 19.402 52.9344 19.5097 53.2757 19.6456C53.6171 19.7815 53.9337 19.9605 54.2253 20.1825C54.517 20.4046 54.7523 20.6797 54.9313 21.0078C55.1136 21.3359 55.2047 21.7287 55.2047 22.1861C55.2047 22.7628 55.0556 23.2749 54.7573 23.7223C54.4623 24.1697 54.0331 24.5227 53.4696 24.7812C52.9095 25.0398 52.2317 25.169 51.4363 25.169C50.6739 25.169 50.0144 25.0481 49.4576 24.8061C48.9007 24.5642 48.4649 24.2211 48.15 23.777C47.8352 23.3295 47.6612 22.7992 47.628 22.1861H49.1692C49.199 22.554 49.3184 22.8606 49.5272 23.1058C49.7393 23.3478 50.0094 23.5284 50.3375 23.6477C50.669 23.7637 51.0319 23.8217 51.4263 23.8217C51.8605 23.8217 52.2466 23.7538 52.5847 23.6179C52.9261 23.4787 53.1945 23.2865 53.3901 23.0412C53.5856 22.7926 53.6834 22.5026 53.6834 22.1712C53.6834 21.8696 53.5972 21.6226 53.4249 21.4304C53.2559 21.2382 53.0255 21.0791 52.7338 20.9531C52.4455 20.8272 52.119 20.7161 51.7544 20.62L50.5513 20.2919C49.736 20.0698 49.0897 19.7434 48.6124 19.3125C48.1384 18.8816 47.9015 18.3116 47.9015 17.6023C47.9015 17.0156 48.0605 16.5036 48.3787 16.0661C48.6969 15.6286 49.1278 15.2888 49.6713 15.0469C50.2149 14.8016 50.8281 14.679 51.5108 14.679C52.2002 14.679 52.8084 14.8 53.3354 15.0419C53.8657 15.2839 54.2833 15.617 54.5882 16.0412C54.8932 16.4621 55.0523 16.946 55.0655 17.4929H53.584ZM60.4858 17.3636V18.5568H56.3146V17.3636H60.4858ZM57.4332 15.5341H58.9197V22.7578C58.9197 23.0462 58.9628 23.2633 59.049 23.4091C59.1352 23.5516 59.2462 23.6494 59.3821 23.7024C59.5213 23.7521 59.6721 23.777 59.8345 23.777C59.9538 23.777 60.0582 23.7687 60.1477 23.7521C60.2372 23.7356 60.3068 23.7223 60.3565 23.7124L60.625 24.9403C60.5388 24.9735 60.4162 25.0066 60.2571 25.0398C60.098 25.0762 59.8991 25.0961 59.6605 25.0994C59.2694 25.1061 58.9048 25.0365 58.5668 24.8906C58.2287 24.7448 57.9553 24.5194 57.7464 24.2145C57.5376 23.9096 57.4332 23.5268 57.4332 23.0661V15.5341ZM65.2647 25.1541C64.5488 25.1541 63.9241 24.9901 63.3904 24.6619C62.8568 24.3338 62.4425 23.8748 62.1475 23.2848C61.8526 22.6948 61.7051 22.0054 61.7051 21.2166C61.7051 20.4245 61.8526 19.7318 62.1475 19.1385C62.4425 18.5452 62.8568 18.0845 63.3904 17.7564C63.9241 17.4283 64.5488 17.2642 65.2647 17.2642C65.9806 17.2642 66.6054 17.4283 67.139 17.7564C67.6726 18.0845 68.0869 18.5452 68.3819 19.1385C68.6769 19.7318 68.8244 20.4245 68.8244 21.2166C68.8244 22.0054 68.6769 22.6948 68.3819 23.2848C68.0869 23.8748 67.6726 24.3338 67.139 24.6619C66.6054 24.9901 65.9806 25.1541 65.2647 25.1541ZM65.2697 23.9062C65.7337 23.9062 66.1182 23.7836 66.4231 23.5384C66.728 23.2931 66.9534 22.9666 67.0993 22.5589C67.2484 22.1513 67.323 21.7022 67.323 21.2116C67.323 20.7244 67.2484 20.277 67.0993 19.8693C66.9534 19.4583 66.728 19.1286 66.4231 18.88C66.1182 18.6314 65.7337 18.5071 65.2697 18.5071C64.8024 18.5071 64.4146 18.6314 64.1064 18.88C63.8014 19.1286 63.5744 19.4583 63.4252 19.8693C63.2794 20.277 63.2065 20.7244 63.2065 21.2116C63.2065 21.7022 63.2794 22.1513 63.4252 22.5589C63.5744 22.9666 63.8014 23.2931 64.1064 23.5384C64.4146 23.7836 64.8024 23.9062 65.2697 23.9062ZM70.4837 25V17.3636H71.9205V18.5767H72C72.1392 18.1657 72.3845 17.8426 72.7358 17.6072C73.0904 17.3686 73.4915 17.2493 73.9389 17.2493C74.0317 17.2493 74.1411 17.2526 74.267 17.2592C74.3963 17.2659 74.4974 17.2741 74.5703 17.2841V18.706C74.5107 18.6894 74.4046 18.6712 74.2521 18.6513C74.0997 18.6281 73.9472 18.6165 73.7947 18.6165C73.4434 18.6165 73.1302 18.6911 72.8551 18.8402C72.5833 18.986 72.3679 19.1899 72.2088 19.4517C72.0497 19.7102 71.9702 20.0052 71.9702 20.3366V25H70.4837ZM78.8745 25.1541C78.1221 25.1541 77.4741 24.9934 76.9306 24.6719C76.3903 24.3471 75.9727 23.8913 75.6777 23.3047C75.3861 22.7147 75.2402 22.0237 75.2402 21.2315C75.2402 20.4493 75.3861 19.7599 75.6777 19.1634C75.9727 18.5668 76.3837 18.1011 76.9107 17.7663C77.441 17.4316 78.0608 17.2642 78.7701 17.2642C79.2009 17.2642 79.6185 17.3355 80.0229 17.478C80.4273 17.6205 80.7902 17.8442 81.1117 18.1491C81.4332 18.4541 81.6867 18.8501 81.8723 19.3374C82.0579 19.8213 82.1507 20.4096 82.1507 21.1023V21.6293H76.0804V20.5156H80.6941C80.6941 20.1245 80.6145 19.7782 80.4554 19.4766C80.2963 19.1716 80.0726 18.9313 79.7843 18.7557C79.4992 18.58 79.1645 18.4922 78.78 18.4922C78.3624 18.4922 77.9978 18.5949 77.6863 18.8004C77.378 19.0026 77.1394 19.2678 76.9703 19.5959C76.8046 19.9207 76.7218 20.2737 76.7218 20.6548V21.5249C76.7218 22.0353 76.8113 22.4695 76.9902 22.8274C77.1725 23.1854 77.4261 23.4588 77.7509 23.6477C78.0757 23.8333 78.4552 23.9261 78.8894 23.9261C79.1711 23.9261 79.428 23.8864 79.66 23.8068C79.892 23.724 80.0925 23.6013 80.2615 23.4389C80.4306 23.2765 80.5598 23.076 80.6493 22.8374L82.0563 23.0909C81.9436 23.5052 81.7414 23.8681 81.4498 24.1797C81.1614 24.4879 80.7985 24.7282 80.361 24.9006C79.9268 25.0696 79.4313 25.1541 78.8745 25.1541Z" fill="white"/>
</svg>
