<svg width="141" height="125" viewBox="0 0 141 125" fill="none" xmlns="http://www.w3.org/2000/svg">
<ellipse cx="70.6854" cy="62.7687" rx="70.1282" ry="61.9053" fill="white"/>
<g clip-path="url(#clip0_492_2093)">
<path d="M61.3835 88.0865C63.9522 88.0865 66.0344 89.9247 66.0344 92.1921V92.7949C66.0344 93.4828 65.2145 93.93 64.5176 93.6224L61.8522 92.446C61.5571 92.3158 61.2098 92.3158 60.9148 92.446L58.2493 93.6224C57.5524 93.93 56.7325 93.4827 56.7325 92.7949V92.1921C56.7325 89.9247 58.8149 88.0865 61.3835 88.0865Z" fill="#E41F2D"/>
<path d="M79.9873 88.0865C82.5561 88.0865 84.6383 89.9247 84.6383 92.1921V92.7949C84.6383 93.4828 83.8184 93.93 83.1215 93.6224L80.4561 92.446C80.161 92.3158 79.8137 92.3158 79.5186 92.446L76.8532 93.6224C76.1563 93.93 75.3364 93.4827 75.3364 92.7949V92.1921C75.3363 89.9247 77.4186 88.0865 79.9873 88.0865Z" fill="#E41F2D"/>
<path d="M61.3835 37.4038C58.8147 37.4038 56.7325 35.5656 56.7325 33.2982V32.7424C56.7325 32.0545 57.5524 31.6073 58.2493 31.9149L60.9148 33.0913C61.2098 33.2215 61.5571 33.2215 61.8522 33.0913L64.5176 31.9149C65.2145 31.6073 66.0344 32.0546 66.0344 32.7424V33.2982C66.0345 35.5656 63.9522 37.4038 61.3835 37.4038Z" fill="#E41F2D"/>
<path d="M79.9873 37.4038C77.4186 37.4038 75.3364 35.5656 75.3364 33.2982V32.7424C75.3364 32.0545 76.1563 31.6073 76.8532 31.9149L79.5186 33.0913C79.8137 33.2215 80.161 33.2215 80.4561 33.0913L83.1215 31.9149C83.8184 31.6073 84.6383 32.0546 84.6383 32.7424V33.2982C84.6383 35.5656 82.5559 37.4038 79.9873 37.4038Z" fill="#E41F2D"/>
<path d="M61.3835 89.4082C56.2462 89.4082 52.0815 85.7319 52.0815 81.1969V79.1971L53.4512 76.9552L52.0815 75.0995V66.8802L53.4512 64.718L52.0815 62.7826V54.5634L53.4512 52.4914L52.0815 50.4658V44.2934C52.0815 39.7584 56.2462 36.0821 61.3835 36.0821C66.5208 36.0821 70.6855 39.7584 70.6855 44.2934V81.1971C70.6855 85.7319 66.5208 89.4082 61.3835 89.4082Z" fill="#FD4755"/>
<path d="M58.0708 81.1969V44.2933C58.0708 40.6832 60.71 37.6172 64.3781 36.5169C63.4383 36.235 62.4312 36.0821 61.3835 36.0821C56.2462 36.0821 52.0815 39.7584 52.0815 44.2934V50.4658L53.4512 52.4914L52.0815 54.5634V62.7826L53.4512 64.718L52.0815 66.8802V75.0995L53.4512 76.9552L52.0815 79.1971V81.1969C52.0815 85.7319 56.2462 89.4082 61.3835 89.4082C62.4312 89.4082 63.4384 89.2553 64.3781 88.9734C60.71 87.873 58.0708 84.807 58.0708 81.1969Z" fill="#EF253D"/>
<path d="M79.9875 89.4082C74.8502 89.4082 70.6855 85.7318 70.6855 81.1969V79.1971L72.0552 77.1164L70.6855 75.0994V66.8801L72.0552 64.7767L70.6855 62.7825V54.5632L72.0552 52.4106L70.6855 50.4655V44.2931C70.6855 39.7582 74.8502 36.0818 79.9875 36.0818C85.1248 36.0818 89.2895 39.7582 89.2895 44.2931V81.1968C89.2895 85.7318 85.1248 89.4082 79.9875 89.4082Z" fill="#FD4755"/>
<path d="M76.6748 81.1969V44.2933C76.6748 40.6832 79.3141 37.6172 82.9821 36.5169C82.0423 36.235 81.0352 36.0821 79.9875 36.0821C74.8502 36.0821 70.6855 39.7584 70.6855 44.2934V81.1971C70.6855 85.732 74.8502 89.4083 79.9875 89.4083C81.0352 89.4083 82.0425 89.2554 82.9821 88.9736C79.3141 87.873 76.6748 84.807 76.6748 81.1969Z" fill="#EF253D"/>
<path d="M62.3553 50.9323L52.0817 54.5634V50.4658L60.7536 47.4007C62.169 46.9004 63.7091 47.8207 63.7091 49.1665C63.709 49.9439 63.1729 50.6432 62.3553 50.9323Z" fill="#E41F2D"/>
<path d="M62.3553 63.2491L52.0817 66.8803V62.7827L60.7536 59.7176C62.169 59.2173 63.7091 60.1376 63.7091 61.4834C63.709 62.261 63.1729 62.9602 62.3553 63.2491Z" fill="#E41F2D"/>
<path d="M62.3553 75.566L52.0817 79.1971V75.0995L60.7536 72.0345C62.169 71.5342 63.7091 72.4544 63.7091 73.8002C63.709 74.5778 63.1729 75.277 62.3553 75.566Z" fill="#E41F2D"/>
<path d="M58.0708 48.3489L52.0815 50.4658V54.5634L58.0708 52.4465V48.3489Z" fill="#C41926"/>
<path d="M58.0708 60.6658L52.0815 62.7826V66.8802L58.0708 64.7634V60.6658Z" fill="#C41926"/>
<path d="M58.0708 72.9827L52.0815 75.0995V79.1971L58.0708 77.0803V72.9827Z" fill="#C41926"/>
<path d="M80.9592 50.9323L70.6855 54.5634V50.4658L79.3575 47.4007C80.7729 46.9004 82.313 47.8207 82.313 49.1665C82.313 49.9439 81.7769 50.6432 80.9592 50.9323Z" fill="#E41F2D"/>
<path d="M80.9592 63.2491L70.6855 66.8803V62.7827L79.3575 59.7176C80.7729 59.2173 82.313 60.1376 82.313 61.4834C82.313 62.261 81.7769 62.9602 80.9592 63.2491Z" fill="#E41F2D"/>
<path d="M80.9592 75.566L70.6855 79.1971V75.0995L79.3575 72.0345C80.7729 71.5342 82.313 72.4544 82.313 73.8002C82.313 74.5778 81.7769 75.277 80.9592 75.566Z" fill="#E41F2D"/>
<path d="M76.6748 48.3489L70.6855 50.4658V54.5634L76.6748 52.4465V48.3489Z" fill="#C41926"/>
<path d="M76.6748 60.6658L70.6855 62.7826V66.8802L76.6748 64.7634V60.6658Z" fill="#C41926"/>
<path d="M76.6748 72.9827L70.6855 75.0995V79.1971L76.6748 77.0803V72.9827Z" fill="#C41926"/>
</g>
<defs>
<clipPath id="clip0_492_2093">
<rect width="70.1282" height="61.9053" fill="white" transform="translate(35.6215 31.816)"/>
</clipPath>
</defs>
</svg>
