<svg width="31" height="11" viewBox="0 0 31 11" fill="none" xmlns="http://www.w3.org/2000/svg">
<path d="M9.57528 3.62926H8.02415C7.96449 3.29782 7.85346 3.00615 7.69105 2.75426C7.52865 2.50237 7.32978 2.28859 7.09446 2.11293C6.85914 1.93726 6.59564 1.80469 6.30398 1.7152C6.01563 1.62571 5.70904 1.58097 5.38423 1.58097C4.79759 1.58097 4.27225 1.72846 3.80824 2.02344C3.34754 2.31842 2.98295 2.75095 2.71449 3.32102C2.44934 3.8911 2.31676 4.58712 2.31676 5.40909C2.31676 6.23769 2.44934 6.93703 2.71449 7.5071C2.98295 8.07718 3.3492 8.50805 3.81321 8.79972C4.27723 9.09138 4.79924 9.23722 5.37926 9.23722C5.70076 9.23722 6.00568 9.19413 6.29403 9.10795C6.5857 9.01847 6.8492 8.88755 7.08452 8.7152C7.31984 8.54285 7.5187 8.33239 7.68111 8.08381C7.84683 7.83191 7.96117 7.54356 8.02415 7.21875L9.57528 7.22372C9.49242 7.72419 9.33168 8.1849 9.09304 8.60582C8.85772 9.02344 8.55445 9.38471 8.18324 9.68963C7.81534 9.99124 7.39441 10.2249 6.92045 10.3906C6.4465 10.5563 5.92945 10.6392 5.36932 10.6392C4.48769 10.6392 3.70218 10.4304 3.01278 10.0128C2.32339 9.59186 1.77983 8.99029 1.3821 8.2081C0.987689 7.4259 0.790483 6.4929 0.790483 5.40909C0.790483 4.32197 0.989347 3.38897 1.38707 2.61008C1.7848 1.82789 2.32836 1.22798 3.01776 0.810369C3.70715 0.389441 4.491 0.178977 5.36932 0.178977C5.90956 0.178977 6.41335 0.256865 6.88068 0.412642C7.35133 0.565104 7.77391 0.790483 8.14844 1.08878C8.52296 1.38376 8.83286 1.74503 9.07812 2.17258C9.32339 2.59683 9.48911 3.08239 9.57528 3.62926ZM14.5108 10.6541C13.7949 10.6541 13.1702 10.4901 12.6365 10.1619C12.1029 9.83381 11.6886 9.37476 11.3936 8.7848C11.0987 8.19484 10.9512 7.50544 10.9512 6.71662C10.9512 5.92448 11.0987 5.23177 11.3936 4.63849C11.6886 4.04522 12.1029 3.58452 12.6365 3.25639C13.1702 2.92827 13.7949 2.7642 14.5108 2.7642C15.2267 2.7642 15.8515 2.92827 16.3851 3.25639C16.9187 3.58452 17.333 4.04522 17.628 4.63849C17.923 5.23177 18.0705 5.92448 18.0705 6.71662C18.0705 7.50544 17.923 8.19484 17.628 8.7848C17.333 9.37476 16.9187 9.83381 16.3851 10.1619C15.8515 10.4901 15.2267 10.6541 14.5108 10.6541ZM14.5158 9.40625C14.9798 9.40625 15.3643 9.28362 15.6692 9.03835C15.9741 8.79309 16.1995 8.46662 16.3453 8.05895C16.4945 7.65128 16.5691 7.20218 16.5691 6.71165C16.5691 6.22443 16.4945 5.77699 16.3453 5.36932C16.1995 4.95833 15.9741 4.62855 15.6692 4.37997C15.3643 4.13139 14.9798 4.0071 14.5158 4.0071C14.0485 4.0071 13.6607 4.13139 13.3525 4.37997C13.0475 4.62855 12.8205 4.95833 12.6713 5.36932C12.5255 5.77699 12.4526 6.22443 12.4526 6.71165C12.4526 7.20218 12.5255 7.65128 12.6713 8.05895C12.8205 8.46662 13.0475 8.79309 13.3525 9.03835C13.6607 9.28362 14.0485 9.40625 14.5158 9.40625ZM25.4521 4.72798L24.1048 4.96662C24.0484 4.79427 23.9589 4.63021 23.8363 4.47443C23.717 4.31865 23.5546 4.19105 23.3491 4.09162C23.1436 3.99219 22.8867 3.94247 22.5785 3.94247C22.1576 3.94247 21.8062 4.03693 21.5245 4.22585C21.2428 4.41146 21.1019 4.65175 21.1019 4.94673C21.1019 5.20194 21.1964 5.40743 21.3853 5.56321C21.5742 5.71899 21.8791 5.84659 22.3001 5.94602L23.5131 6.22443C24.2158 6.38684 24.7395 6.63707 25.0842 6.97514C25.4289 7.31321 25.6012 7.75237 25.6012 8.29261C25.6012 8.75 25.4686 9.15767 25.2035 9.51562C24.9416 9.87027 24.5754 10.1487 24.1048 10.3509C23.6374 10.553 23.0955 10.6541 22.479 10.6541C21.6239 10.6541 20.9263 10.4718 20.386 10.1072C19.8458 9.73935 19.5143 9.21733 19.3917 8.54119L20.8285 8.32244C20.918 8.69697 21.1019 8.98035 21.3803 9.17259C21.6587 9.36151 22.0217 9.45597 22.4691 9.45597C22.9563 9.45597 23.3458 9.35488 23.6374 9.1527C23.9291 8.94721 24.0749 8.69697 24.0749 8.40199C24.0749 8.16335 23.9854 7.96283 23.8065 7.80043C23.6308 7.63802 23.3607 7.51539 22.9961 7.43253L21.7035 7.14915C20.9909 6.98674 20.4639 6.72822 20.1225 6.37358C19.7844 6.01894 19.6154 5.56984 19.6154 5.02628C19.6154 4.57552 19.7414 4.18111 19.9933 3.84304C20.2451 3.50497 20.5932 3.24148 21.0373 3.05256C21.4814 2.86032 21.9902 2.7642 22.5636 2.7642C23.3888 2.7642 24.0385 2.94318 24.5124 3.30114C24.9864 3.65578 25.2996 4.13139 25.4521 4.72798ZM30.8002 2.86364V4.05682H26.6291V2.86364H30.8002ZM27.7477 1.03409H29.2342V8.25781C29.2342 8.54616 29.2773 8.76326 29.3635 8.90909C29.4496 9.05161 29.5607 9.14938 29.6966 9.20241C29.8358 9.25213 29.9866 9.27699 30.149 9.27699C30.2683 9.27699 30.3727 9.2687 30.4622 9.25213C30.5517 9.23556 30.6213 9.2223 30.671 9.21236L30.9395 10.4403C30.8533 10.4735 30.7306 10.5066 30.5716 10.5398C30.4125 10.5762 30.2136 10.5961 29.975 10.5994C29.5839 10.6061 29.2193 10.5365 28.8812 10.3906C28.5431 10.2448 28.2697 10.0194 28.0609 9.71449C27.8521 9.40956 27.7477 9.02675 27.7477 8.56605V1.03409Z" fill="#667085"/>
</svg>
