<svg width="90" height="40" viewBox="0 0 90 40" fill="none" xmlns="http://www.w3.org/2000/svg">
<rect x="0.5" y="0.5" width="89" height="39" rx="3.5" stroke="#E8F1FD"/>
<path d="M33.1186 25V14.8182H39.5021V16.1406H34.6548V19.2429H39.169V20.5604H34.6548V23.6776H39.5618V25H33.1186ZM44.2935 25.1491C43.677 25.1491 43.1268 24.9917 42.6429 24.6768C42.1623 24.3587 41.7845 23.9062 41.5094 23.3196C41.2376 22.7296 41.1017 22.022 41.1017 21.1967C41.1017 20.3714 41.2393 19.6655 41.5144 19.0788C41.7928 18.4922 42.1739 18.0431 42.6578 17.7315C43.1417 17.42 43.6903 17.2642 44.3034 17.2642C44.7774 17.2642 45.1586 17.3438 45.4469 17.5028C45.7386 17.6586 45.964 17.8409 46.123 18.0497C46.2855 18.2585 46.4114 18.4425 46.5009 18.6016H46.5904V14.8182H48.0769V25H46.6252V23.8118H46.5009C46.4114 23.9742 46.2821 24.1598 46.1131 24.3686C45.9474 24.5774 45.7187 24.7597 45.427 24.9155C45.1354 25.0713 44.7575 25.1491 44.2935 25.1491ZM44.6216 23.8814C45.0492 23.8814 45.4105 23.7687 45.7054 23.5433C46.0037 23.3146 46.2291 22.9981 46.3816 22.5938C46.5373 22.1894 46.6152 21.7187 46.6152 21.1818C46.6152 20.6515 46.539 20.1875 46.3865 19.7898C46.2341 19.392 46.0104 19.0821 45.7154 18.8601C45.4204 18.638 45.0558 18.527 44.6216 18.527C44.1742 18.527 43.8013 18.643 43.503 18.875C43.2047 19.107 42.9793 19.4235 42.8269 19.8246C42.6777 20.2256 42.6032 20.678 42.6032 21.1818C42.6032 21.6922 42.6794 22.1513 42.8319 22.5589C42.9843 22.9666 43.2097 23.2898 43.508 23.5284C43.8096 23.7637 44.1808 23.8814 44.6216 23.8814ZM50.1985 25V17.3636H51.685V25H50.1985ZM50.9492 16.1854C50.6907 16.1854 50.4686 16.0992 50.283 15.9268C50.1007 15.7512 50.0096 15.5424 50.0096 15.3004C50.0096 15.0552 50.1007 14.8464 50.283 14.674C50.4686 14.4983 50.6907 14.4105 50.9492 14.4105C51.2077 14.4105 51.4281 14.4983 51.6104 14.674C51.796 14.8464 51.8888 15.0552 51.8888 15.3004C51.8888 15.5424 51.796 15.7512 51.6104 15.9268C51.4281 16.0992 51.2077 16.1854 50.9492 16.1854ZM57.2495 17.3636V18.5568H53.0783V17.3636H57.2495ZM54.1969 15.5341H55.6834V22.7578C55.6834 23.0462 55.7265 23.2633 55.8127 23.4091C55.8989 23.5516 56.0099 23.6494 56.1458 23.7024C56.285 23.7521 56.4358 23.777 56.5982 23.777C56.7175 23.777 56.8219 23.7687 56.9114 23.7521C57.0009 23.7356 57.0705 23.7223 57.1202 23.7124L57.3887 24.9403C57.3025 24.9735 57.1799 25.0066 57.0208 25.0398C56.8617 25.0762 56.6628 25.0961 56.4242 25.0994C56.0331 25.1061 55.6685 25.0365 55.3304 24.8906C54.9924 24.7448 54.7189 24.5194 54.5101 24.2145C54.3013 23.9096 54.1969 23.5268 54.1969 23.0661V15.5341Z" fill="#1366D9"/>
</svg>
