<svg width="144" height="48" viewBox="0 0 144 48" fill="none" xmlns="http://www.w3.org/2000/svg">
<path d="M6.47546 39C9.12629 34.5785 14.936 31.5524 24 31.5524C33.064 31.5524 38.8737 34.5785 41.5246 39M31.2 16.2C31.2 20.1765 27.9765 23.4 24 23.4C20.0236 23.4 16.8 20.1765 16.8 16.2C16.8 12.2235 20.0236 9 24 9C27.9765 9 31.2 12.2235 31.2 16.2Z" stroke="#5D6679" stroke-width="2" stroke-linecap="round"/>
<path d="M64.7926 15.9545V30.5H62.598V15.9545H64.7926ZM69.9418 24.0227V30.5H67.8182V19.5909H69.8565V21.3665H69.9915C70.2424 20.7888 70.6354 20.3248 71.1705 19.9744C71.7102 19.6241 72.3897 19.4489 73.2088 19.4489C73.9522 19.4489 74.6032 19.6051 75.1619 19.9176C75.7206 20.2254 76.1539 20.6847 76.4616 21.2955C76.7694 21.9062 76.9233 22.6615 76.9233 23.5611V30.5H74.7997V23.8168C74.7997 23.026 74.5938 22.4081 74.1818 21.9631C73.7699 21.5133 73.2041 21.2884 72.4844 21.2884C71.992 21.2884 71.554 21.3949 71.1705 21.608C70.7917 21.821 70.491 22.1335 70.2685 22.5455C70.0507 22.9527 69.9418 23.4451 69.9418 24.0227ZM88.7131 19.5909L84.7571 30.5H82.4844L78.5213 19.5909H80.8011L83.5639 27.9858H83.6776L86.4332 19.5909H88.7131ZM94.9329 30.7202C93.9102 30.7202 93.0176 30.4858 92.2553 30.017C91.493 29.5483 90.9012 28.8925 90.4798 28.0497C90.0584 27.2069 89.8477 26.2221 89.8477 25.0952C89.8477 23.9635 90.0584 22.974 90.4798 22.1264C90.9012 21.2789 91.493 20.6207 92.2553 20.152C93.0176 19.6832 93.9102 19.4489 94.9329 19.4489C95.9556 19.4489 96.8481 19.6832 97.6104 20.152C98.3728 20.6207 98.9646 21.2789 99.386 22.1264C99.8074 22.974 100.018 23.9635 100.018 25.0952C100.018 26.2221 99.8074 27.2069 99.386 28.0497C98.9646 28.8925 98.3728 29.5483 97.6104 30.017C96.8481 30.4858 95.9556 30.7202 94.9329 30.7202ZM94.94 28.9375C95.6029 28.9375 96.1521 28.7623 96.5877 28.4119C97.0233 28.0616 97.3453 27.5952 97.5536 27.0128C97.7667 26.4304 97.8732 25.7888 97.8732 25.0881C97.8732 24.392 97.7667 23.7528 97.5536 23.1705C97.3453 22.5833 97.0233 22.1122 96.5877 21.7571C96.1521 21.402 95.6029 21.2244 94.94 21.2244C94.2724 21.2244 93.7184 21.402 93.2781 21.7571C92.8424 22.1122 92.5181 22.5833 92.305 23.1705C92.0967 23.7528 91.9925 24.392 91.9925 25.0881C91.9925 25.7888 92.0967 26.4304 92.305 27.0128C92.5181 27.5952 92.8424 28.0616 93.2781 28.4119C93.7184 28.7623 94.2724 28.9375 94.94 28.9375ZM102.388 30.5V19.5909H104.512V30.5H102.388ZM103.461 17.9077C103.092 17.9077 102.774 17.7846 102.509 17.5384C102.249 17.2874 102.119 16.9891 102.119 16.6435C102.119 16.2931 102.249 15.9948 102.509 15.7486C102.774 15.4976 103.092 15.3722 103.461 15.3722C103.83 15.3722 104.145 15.4976 104.406 15.7486C104.671 15.9948 104.803 16.2931 104.803 16.6435C104.803 16.9891 104.671 17.2874 104.406 17.5384C104.145 17.7846 103.83 17.9077 103.461 17.9077ZM111.964 30.7202C110.908 30.7202 109.999 30.4811 109.237 30.0028C108.479 29.5199 107.897 28.8546 107.49 28.0071C107.083 27.1596 106.879 26.1889 106.879 25.0952C106.879 23.9872 107.087 23.0095 107.504 22.1619C107.921 21.3097 108.508 20.6444 109.265 20.1662C110.023 19.688 110.915 19.4489 111.943 19.4489C112.771 19.4489 113.51 19.6027 114.159 19.9105C114.807 20.2135 115.331 20.6397 115.728 21.1889C116.131 21.7382 116.37 22.3797 116.446 23.1136H114.379C114.265 22.6023 114.005 22.1619 113.598 21.7926C113.195 21.4233 112.655 21.2386 111.978 21.2386C111.386 21.2386 110.868 21.3949 110.423 21.7074C109.983 22.0152 109.639 22.4555 109.393 23.0284C109.147 23.5966 109.024 24.2689 109.024 25.0455C109.024 25.8409 109.145 26.5275 109.386 27.1051C109.627 27.6828 109.968 28.1302 110.409 28.4474C110.854 28.7647 111.377 28.9233 111.978 28.9233C112.381 28.9233 112.745 28.8499 113.072 28.7031C113.404 28.5516 113.681 28.3362 113.903 28.0568C114.13 27.7775 114.289 27.4413 114.379 27.0483H116.446C116.37 27.7538 116.14 28.3835 115.757 28.9375C115.373 29.4915 114.859 29.9271 114.216 30.2443C113.576 30.5616 112.826 30.7202 111.964 30.7202ZM123.418 30.7202C122.344 30.7202 121.418 30.4905 120.641 30.0312C119.87 29.5672 119.273 28.9162 118.852 28.0781C118.435 27.2353 118.227 26.2481 118.227 25.1165C118.227 23.9991 118.435 23.0142 118.852 22.1619C119.273 21.3097 119.86 20.6444 120.613 20.1662C121.371 19.688 122.256 19.4489 123.269 19.4489C123.885 19.4489 124.481 19.5507 125.059 19.7543C125.637 19.9579 126.155 20.2775 126.614 20.7131C127.074 21.1487 127.436 21.7145 127.701 22.4105C127.966 23.1018 128.099 23.9422 128.099 24.9318V25.6847H119.427V24.0938H126.018C126.018 23.535 125.904 23.0402 125.677 22.6094C125.45 22.1738 125.13 21.8305 124.718 21.5795C124.311 21.3286 123.833 21.2031 123.283 21.2031C122.687 21.2031 122.166 21.3499 121.721 21.6435C121.281 21.9323 120.94 22.3111 120.698 22.7798C120.461 23.2438 120.343 23.7481 120.343 24.2926V25.5355C120.343 26.2647 120.471 26.8849 120.727 27.3963C120.987 27.9077 121.349 28.2983 121.813 28.5682C122.277 28.8333 122.819 28.9659 123.44 28.9659C123.842 28.9659 124.209 28.9091 124.54 28.7955C124.872 28.6771 125.158 28.5019 125.4 28.2699C125.641 28.0379 125.826 27.7514 125.954 27.4105L127.964 27.7727C127.803 28.3646 127.514 28.883 127.097 29.3281C126.685 29.7685 126.167 30.1117 125.542 30.358C124.922 30.5994 124.214 30.7202 123.418 30.7202ZM138.63 22.2543L136.705 22.5952C136.624 22.349 136.497 22.1146 136.321 21.892C136.151 21.6695 135.919 21.4872 135.625 21.3452C135.332 21.2031 134.965 21.1321 134.525 21.1321C133.923 21.1321 133.421 21.267 133.019 21.5369C132.616 21.8021 132.415 22.1454 132.415 22.5668C132.415 22.9313 132.55 23.2249 132.82 23.4474C133.09 23.67 133.525 23.8523 134.127 23.9943L135.86 24.392C136.864 24.6241 137.612 24.9815 138.104 25.4645C138.596 25.9474 138.843 26.5748 138.843 27.3466C138.843 28 138.653 28.5824 138.275 29.0938C137.9 29.6004 137.377 29.9981 136.705 30.2869C136.037 30.5758 135.263 30.7202 134.382 30.7202C133.161 30.7202 132.164 30.4598 131.392 29.9389C130.621 29.4134 130.147 28.6676 129.972 27.7017L132.025 27.3892C132.152 27.9242 132.415 28.3291 132.813 28.6037C133.211 28.8736 133.729 29.0085 134.368 29.0085C135.064 29.0085 135.621 28.8641 136.037 28.5753C136.454 28.2817 136.662 27.9242 136.662 27.5028C136.662 27.1619 136.534 26.8755 136.279 26.6435C136.028 26.4115 135.642 26.2363 135.121 26.1179L133.275 25.7131C132.257 25.4811 131.504 25.1117 131.016 24.6051C130.533 24.0985 130.292 23.4569 130.292 22.6804C130.292 22.0365 130.471 21.473 130.831 20.9901C131.191 20.5071 131.688 20.1307 132.323 19.8608C132.957 19.5862 133.684 19.4489 134.503 19.4489C135.682 19.4489 136.61 19.7045 137.287 20.2159C137.964 20.7225 138.412 21.402 138.63 22.2543Z" fill="#5D6679"/>
</svg>
