<svg width="135" height="60" viewBox="0 0 135 60" fill="none" xmlns="http://www.w3.org/2000/svg">
<rect width="135" height="60" rx="30" fill="#6E8EDF"/>
<path d="M25.2614 41.5V18.2273H30.8864V36.9318H40.5682V41.5H25.2614ZM51.6278 41.8295C49.7945 41.8295 48.2188 41.4545 46.9006 40.7045C45.59 39.947 44.5786 38.8939 43.8665 37.5455C43.1619 36.1894 42.8097 34.6174 42.8097 32.8295C42.8097 31.0341 43.1619 29.4621 43.8665 28.1136C44.5786 26.7576 45.59 25.7045 46.9006 24.9545C48.2188 24.197 49.7945 23.8182 51.6278 23.8182C53.4612 23.8182 55.0331 24.197 56.3438 24.9545C57.6619 25.7045 58.6733 26.7576 59.3778 28.1136C60.09 29.4621 60.446 31.0341 60.446 32.8295C60.446 34.6174 60.09 36.1894 59.3778 37.5455C58.6733 38.8939 57.6619 39.947 56.3438 40.7045C55.0331 41.4545 53.4612 41.8295 51.6278 41.8295ZM51.6619 37.6364C52.3286 37.6364 52.893 37.4318 53.3551 37.0227C53.8172 36.6136 54.1695 36.0455 54.4119 35.3182C54.6619 34.5909 54.7869 33.75 54.7869 32.7955C54.7869 31.8258 54.6619 30.9773 54.4119 30.25C54.1695 29.5227 53.8172 28.9545 53.3551 28.5455C52.893 28.1364 52.3286 27.9318 51.6619 27.9318C50.9725 27.9318 50.3892 28.1364 49.9119 28.5455C49.4422 28.9545 49.0824 29.5227 48.8324 30.25C48.59 30.9773 48.4688 31.8258 48.4688 32.7955C48.4688 33.75 48.59 34.5909 48.8324 35.3182C49.0824 36.0455 49.4422 36.6136 49.9119 37.0227C50.3892 37.4318 50.9725 37.6364 51.6619 37.6364ZM71.429 48.4091C69.7699 48.4091 68.3494 48.178 67.1676 47.7159C65.9858 47.2538 65.0578 46.6212 64.3835 45.8182C63.7093 45.0152 63.304 44.1061 63.1676 43.0909L68.429 42.7955C68.5275 43.1515 68.7093 43.4621 68.9744 43.7273C69.2472 43.9924 69.5994 44.197 70.0312 44.3409C70.4706 44.4848 70.9858 44.5568 71.5767 44.5568C72.5085 44.5568 73.2775 44.3295 73.8835 43.875C74.4972 43.428 74.804 42.6439 74.804 41.5227V38.4545H74.6108C74.3911 38.9924 74.0578 39.4735 73.6108 39.8977C73.1638 40.322 72.607 40.6553 71.9403 40.8977C71.2813 41.1402 70.5237 41.2614 69.6676 41.2614C68.3949 41.2614 67.2282 40.9659 66.1676 40.375C65.1146 39.7765 64.2699 38.8523 63.6335 37.6023C63.0047 36.3447 62.6903 34.7273 62.6903 32.75C62.6903 30.7121 63.0161 29.0341 63.6676 27.7159C64.3191 26.3902 65.1714 25.4091 66.2244 24.7727C67.285 24.1364 68.4252 23.8182 69.6449 23.8182C70.5616 23.8182 71.3456 23.9773 71.9972 24.2955C72.6563 24.6061 73.1979 25.0076 73.6222 25.5C74.0464 25.9924 74.3684 26.5038 74.5881 27.0341H74.7472V24.0455H80.2812V41.5682C80.2812 43.0455 79.91 44.2917 79.1676 45.3068C78.4252 46.322 77.3873 47.0909 76.054 47.6136C74.7206 48.1439 73.179 48.4091 71.429 48.4091ZM71.5994 37.2159C72.2737 37.2159 72.8494 37.0379 73.3267 36.6818C73.804 36.3258 74.1714 35.8144 74.429 35.1477C74.6866 34.4811 74.8153 33.6818 74.8153 32.75C74.8153 31.803 74.6866 30.9886 74.429 30.3068C74.179 29.6174 73.8116 29.0871 73.3267 28.7159C72.8494 28.3447 72.2737 28.1591 71.5994 28.1591C70.91 28.1591 70.3267 28.3485 69.8494 28.7273C69.3722 29.1061 69.0085 29.6402 68.7585 30.3295C68.5161 31.0114 68.3949 31.8182 68.3949 32.75C68.3949 33.6818 68.5199 34.4811 68.7699 35.1477C69.0199 35.8144 69.3797 36.3258 69.8494 36.6818C70.3267 37.0379 70.91 37.2159 71.5994 37.2159ZM83.8239 41.5V24.0455H89.3807V41.5H83.8239ZM86.608 22.0114C85.8277 22.0114 85.1572 21.7538 84.5966 21.2386C84.036 20.7159 83.7557 20.0871 83.7557 19.3523C83.7557 18.625 84.036 18.0038 84.5966 17.4886C85.1572 16.9659 85.8277 16.7045 86.608 16.7045C87.3958 16.7045 88.0663 16.9659 88.6193 17.4886C89.1799 18.0038 89.4602 18.625 89.4602 19.3523C89.4602 20.0871 89.1799 20.7159 88.6193 21.2386C88.0663 21.7538 87.3958 22.0114 86.608 22.0114ZM98.4744 31.5455V41.5H92.9176V24.0455H98.2017V27.25H98.3949C98.7813 26.1818 99.4403 25.3447 100.372 24.7386C101.304 24.125 102.414 23.8182 103.702 23.8182C104.929 23.8182 105.993 24.0947 106.895 24.6477C107.804 25.1932 108.509 25.9583 109.009 26.9432C109.516 27.9205 109.766 29.0644 109.759 30.375V41.5H104.202V31.4659C104.209 30.4962 103.963 29.7386 103.463 29.1932C102.971 28.6477 102.285 28.375 101.406 28.375C100.823 28.375 100.308 28.5038 99.8608 28.7614C99.4214 29.0114 99.0805 29.3712 98.8381 29.8409C98.6032 30.3106 98.482 30.8788 98.4744 31.5455Z" fill="white"/>
</svg>
