<svg width="35" height="12" viewBox="0 0 35 12" fill="none" xmlns="http://www.w3.org/2000/svg">
<path d="M0.118608 11.5V1.31818H3.74787C4.54001 1.31818 5.19626 1.46236 5.71662 1.75071C6.23698 2.03906 6.62642 2.43347 6.88494 2.93395C7.14347 3.43111 7.27273 3.99124 7.27273 4.61435C7.27273 5.24077 7.14181 5.80421 6.87997 6.30469C6.62145 6.80185 6.23035 7.19626 5.70668 7.48793C5.18632 7.77628 4.53172 7.92045 3.7429 7.92045H1.24716V6.6179H3.60369C4.10417 6.6179 4.51018 6.53172 4.82173 6.35938C5.13329 6.18371 5.36198 5.94508 5.50781 5.64347C5.65365 5.34186 5.72656 4.99882 5.72656 4.61435C5.72656 4.22988 5.65365 3.88849 5.50781 3.5902C5.36198 3.2919 5.13163 3.05824 4.81676 2.8892C4.50521 2.72017 4.09422 2.63565 3.58381 2.63565H1.65483V11.5H0.118608ZM8.95437 11.5V3.86364H10.3912V5.0767H10.4707C10.6099 4.66572 10.8552 4.34257 11.2065 4.10724C11.5611 3.86861 11.9622 3.74929 12.4096 3.74929C12.5024 3.74929 12.6118 3.7526 12.7377 3.75923C12.867 3.76586 12.9681 3.77415 13.041 3.78409V5.20597C12.9814 5.18939 12.8753 5.17116 12.7228 5.15128C12.5704 5.12808 12.4179 5.11648 12.2654 5.11648C11.9141 5.11648 11.6009 5.19105 11.3258 5.3402C11.054 5.48603 10.8386 5.68987 10.6795 5.9517C10.5204 6.21023 10.4409 6.50521 10.4409 6.83665V11.5H8.95437ZM17.2706 11.6541C16.5547 11.6541 15.9299 11.4901 15.3963 11.1619C14.8627 10.8338 14.4484 10.3748 14.1534 9.7848C13.8584 9.19484 13.7109 8.50544 13.7109 7.71662C13.7109 6.92448 13.8584 6.23177 14.1534 5.63849C14.4484 5.04522 14.8627 4.58452 15.3963 4.25639C15.9299 3.92827 16.5547 3.7642 17.2706 3.7642C17.9865 3.7642 18.6113 3.92827 19.1449 4.25639C19.6785 4.58452 20.0928 5.04522 20.3878 5.63849C20.6828 6.23177 20.8303 6.92448 20.8303 7.71662C20.8303 8.50544 20.6828 9.19484 20.3878 9.7848C20.0928 10.3748 19.6785 10.8338 19.1449 11.1619C18.6113 11.4901 17.9865 11.6541 17.2706 11.6541ZM17.2756 10.4062C17.7396 10.4062 18.1241 10.2836 18.429 10.0384C18.7339 9.79309 18.9593 9.46662 19.1051 9.05895C19.2543 8.65128 19.3288 8.20218 19.3288 7.71165C19.3288 7.22443 19.2543 6.77699 19.1051 6.36932C18.9593 5.95833 18.7339 5.62855 18.429 5.37997C18.1241 5.13139 17.7396 5.0071 17.2756 5.0071C16.8082 5.0071 16.4205 5.13139 16.1122 5.37997C15.8073 5.62855 15.5803 5.95833 15.4311 6.36932C15.2853 6.77699 15.2124 7.22443 15.2124 7.71165C15.2124 8.20218 15.2853 8.65128 15.4311 9.05895C15.5803 9.46662 15.8073 9.79309 16.1122 10.0384C16.4205 10.2836 16.8082 10.4062 17.2756 10.4062ZM26.1238 3.86364V5.05682H21.8084V3.86364H26.1238ZM22.9917 11.5V2.97869C22.9917 2.50142 23.0961 2.10535 23.3049 1.79048C23.5137 1.4723 23.7904 1.23532 24.1351 1.07955C24.4798 0.920454 24.8543 0.840908 25.2587 0.840908C25.557 0.840908 25.8122 0.865767 26.0243 0.915483C26.2364 0.961884 26.3939 1.00497 26.4966 1.04474L26.1486 2.24787C26.079 2.22798 25.9895 2.20478 25.8801 2.17827C25.7708 2.14844 25.6382 2.13352 25.4824 2.13352C25.1212 2.13352 24.8626 2.22301 24.7069 2.40199C24.5544 2.58097 24.4782 2.83949 24.4782 3.17756V11.5H22.9917ZM27.6575 11.5V3.86364H29.144V11.5H27.6575ZM28.4082 2.68537C28.1497 2.68537 27.9276 2.59919 27.742 2.42685C27.5597 2.25118 27.4686 2.04238 27.4686 1.80043C27.4686 1.55516 27.5597 1.34635 27.742 1.17401C27.9276 0.998342 28.1497 0.910511 28.4082 0.910511C28.6667 0.910511 28.8871 0.998342 29.0694 1.17401C29.255 1.34635 29.3478 1.55516 29.3478 1.80043C29.3478 2.04238 29.255 2.25118 29.0694 2.42685C28.8871 2.59919 28.6667 2.68537 28.4082 2.68537ZM34.7085 3.86364V5.05682H30.5373V3.86364H34.7085ZM31.6559 2.03409H33.1424V9.25781C33.1424 9.54616 33.1855 9.76326 33.2717 9.90909C33.3578 10.0516 33.4689 10.1494 33.6048 10.2024C33.744 10.2521 33.8948 10.277 34.0572 10.277C34.1765 10.277 34.2809 10.2687 34.3704 10.2521C34.4599 10.2356 34.5295 10.2223 34.5792 10.2124L34.8477 11.4403C34.7615 11.4735 34.6388 11.5066 34.4798 11.5398C34.3207 11.5762 34.1218 11.5961 33.8832 11.5994C33.4921 11.6061 33.1275 11.5365 32.7894 11.3906C32.4513 11.2448 32.1779 11.0194 31.9691 10.7145C31.7603 10.4096 31.6559 10.0268 31.6559 9.56605V2.03409Z" fill="#667085"/>
</svg>
