<svg width="138" height="48" viewBox="0 0 138 48" fill="none" xmlns="http://www.w3.org/2000/svg">
<path d="M14.4 33.6V28.8M24 33.6V24M33.6 33.6V14.4M9.59998 43.2C6.94902 43.2 4.79999 41.051 4.79999 38.4V9.6C4.79999 6.94904 6.94902 4.8 9.59999 4.8H38.4C41.0509 4.8 43.2 6.94904 43.2 9.6V38.4C43.2 41.051 41.0509 43.2 38.4 43.2H9.59998Z" stroke="#5D6679" stroke-width="2" stroke-linecap="round" stroke-linejoin="round"/>
<path d="M62.598 30.5V15.9545H67.7827C68.9096 15.9545 69.8447 16.1487 70.5881 16.5369C71.3362 16.9252 71.8949 17.4626 72.2642 18.1491C72.6335 18.831 72.8182 19.6193 72.8182 20.5142C72.8182 21.4044 72.6312 22.188 72.2571 22.8651C71.8878 23.5374 71.3291 24.0606 70.581 24.4347C69.8376 24.8087 68.9025 24.9957 67.7756 24.9957H63.848V23.1065H67.5767C68.2869 23.1065 68.8646 23.0047 69.3097 22.8011C69.7595 22.5975 70.0885 22.3016 70.2969 21.9134C70.5052 21.5251 70.6094 21.0587 70.6094 20.5142C70.6094 19.965 70.5028 19.4891 70.2898 19.0866C70.0814 18.6842 69.7524 18.3764 69.3026 18.1634C68.8575 17.9455 68.2727 17.8366 67.5483 17.8366H64.7926V30.5H62.598ZM69.7784 23.9375L73.3722 30.5H70.8722L67.3494 23.9375H69.7784ZM79.8832 30.7202C78.8084 30.7202 77.8827 30.4905 77.1062 30.0312C76.3344 29.5672 75.7378 28.9162 75.3164 28.0781C74.8997 27.2353 74.6914 26.2481 74.6914 25.1165C74.6914 23.9991 74.8997 23.0142 75.3164 22.1619C75.7378 21.3097 76.3249 20.6444 77.0778 20.1662C77.8353 19.688 78.7208 19.4489 79.734 19.4489C80.3496 19.4489 80.9461 19.5507 81.5238 19.7543C82.1014 19.9579 82.6199 20.2775 83.0792 20.7131C83.5385 21.1487 83.9007 21.7145 84.1658 22.4105C84.431 23.1018 84.5636 23.9422 84.5636 24.9318V25.6847H75.8917V24.0938H82.4826C82.4826 23.535 82.369 23.0402 82.1417 22.6094C81.9144 22.1738 81.5948 21.8305 81.1829 21.5795C80.7757 21.3286 80.2975 21.2031 79.7482 21.2031C79.1516 21.2031 78.6308 21.3499 78.1857 21.6435C77.7454 21.9323 77.4045 22.3111 77.163 22.7798C76.9263 23.2438 76.8079 23.7481 76.8079 24.2926V25.5355C76.8079 26.2647 76.9357 26.8849 77.1914 27.3963C77.4518 27.9077 77.814 28.2983 78.2781 28.5682C78.7421 28.8333 79.2842 28.9659 79.9045 28.9659C80.3069 28.9659 80.6739 28.9091 81.0053 28.7955C81.3368 28.6771 81.6232 28.5019 81.8647 28.2699C82.1062 28.0379 82.2908 27.7514 82.4187 27.4105L84.4286 27.7727C84.2676 28.3646 83.9788 28.883 83.5621 29.3281C83.1502 29.7685 82.6317 30.1117 82.0067 30.358C81.3865 30.5994 80.6786 30.7202 79.8832 30.7202ZM86.9197 34.5909V19.5909H88.9936V21.3594H89.1712C89.2943 21.1321 89.4718 20.8693 89.7038 20.571C89.9358 20.2727 90.2578 20.0123 90.6697 19.7898C91.0817 19.5625 91.6262 19.4489 92.3033 19.4489C93.1839 19.4489 93.9699 19.6714 94.6612 20.1165C95.3525 20.5616 95.8946 21.2031 96.2876 22.0412C96.6854 22.8793 96.8842 23.8878 96.8842 25.0668C96.8842 26.2457 96.6877 27.2566 96.2947 28.0994C95.9018 28.9375 95.362 29.5838 94.6754 30.0384C93.9889 30.4882 93.2053 30.7131 92.3246 30.7131C91.6617 30.7131 91.1196 30.6018 90.6982 30.3793C90.2815 30.1567 89.9548 29.8963 89.718 29.598C89.4813 29.2997 89.299 29.0346 89.1712 28.8026H89.0433V34.5909H86.9197ZM89.0007 25.0455C89.0007 25.8125 89.112 26.4848 89.3345 27.0625C89.5571 27.6402 89.879 28.0923 90.3004 28.419C90.7218 28.741 91.2379 28.902 91.8487 28.902C92.4832 28.902 93.0135 28.7339 93.4396 28.3977C93.8658 28.0568 94.1877 27.5952 94.4055 27.0128C94.6281 26.4304 94.7393 25.7746 94.7393 25.0455C94.7393 24.3258 94.6304 23.6795 94.4126 23.1065C94.1996 22.5336 93.8776 22.0814 93.4467 21.75C93.0206 21.4186 92.4879 21.2528 91.8487 21.2528C91.2332 21.2528 90.7124 21.4115 90.2862 21.7287C89.8648 22.0459 89.5452 22.4886 89.3274 23.0568C89.1096 23.625 89.0007 24.2879 89.0007 25.0455ZM103.859 30.7202C102.836 30.7202 101.943 30.4858 101.181 30.017C100.419 29.5483 99.8269 28.8925 99.4055 28.0497C98.9841 27.2069 98.7734 26.2221 98.7734 25.0952C98.7734 23.9635 98.9841 22.974 99.4055 22.1264C99.8269 21.2789 100.419 20.6207 101.181 20.152C101.943 19.6832 102.836 19.4489 103.859 19.4489C104.881 19.4489 105.774 19.6832 106.536 20.152C107.299 20.6207 107.89 21.2789 108.312 22.1264C108.733 22.974 108.944 23.9635 108.944 25.0952C108.944 26.2221 108.733 27.2069 108.312 28.0497C107.89 28.8925 107.299 29.5483 106.536 30.017C105.774 30.4858 104.881 30.7202 103.859 30.7202ZM103.866 28.9375C104.529 28.9375 105.078 28.7623 105.513 28.4119C105.949 28.0616 106.271 27.5952 106.479 27.0128C106.692 26.4304 106.799 25.7888 106.799 25.0881C106.799 24.392 106.692 23.7528 106.479 23.1705C106.271 22.5833 105.949 22.1122 105.513 21.7571C105.078 21.402 104.529 21.2244 103.866 21.2244C103.198 21.2244 102.644 21.402 102.204 21.7571C101.768 22.1122 101.444 22.5833 101.231 23.1705C101.022 23.7528 100.918 24.392 100.918 25.0881C100.918 25.7888 101.022 26.4304 101.231 27.0128C101.444 27.5952 101.768 28.0616 102.204 28.4119C102.644 28.7623 103.198 28.9375 103.866 28.9375ZM111.314 30.5V19.5909H113.367V21.3239H113.48C113.679 20.7367 114.03 20.2751 114.532 19.9389C115.038 19.598 115.611 19.4276 116.25 19.4276C116.383 19.4276 116.539 19.4323 116.719 19.4418C116.904 19.4512 117.048 19.4631 117.152 19.4773V21.5085C117.067 21.4848 116.916 21.4588 116.698 21.4304C116.48 21.3973 116.262 21.3807 116.044 21.3807C115.542 21.3807 115.095 21.4872 114.702 21.7003C114.314 21.9086 114.006 22.1998 113.779 22.5739C113.551 22.9432 113.438 23.3646 113.438 23.8381V30.5H111.314ZM124.727 19.5909V21.2955H118.768V19.5909H124.727ZM120.366 16.9773H122.49V27.2969C122.49 27.7088 122.551 28.0189 122.674 28.2273C122.797 28.4309 122.956 28.5705 123.15 28.6463C123.349 28.7173 123.565 28.7528 123.797 28.7528C123.967 28.7528 124.116 28.741 124.244 28.7173C124.372 28.6937 124.471 28.6747 124.542 28.6605L124.926 30.4148C124.803 30.4621 124.627 30.5095 124.4 30.5568C124.173 30.6089 123.889 30.6373 123.548 30.642C122.989 30.6515 122.468 30.5521 121.985 30.3438C121.502 30.1354 121.112 29.8134 120.814 29.3778C120.515 28.9422 120.366 28.3954 120.366 27.7372V16.9773ZM135.075 22.2543L133.15 22.5952C133.07 22.349 132.942 22.1146 132.767 21.892C132.596 21.6695 132.364 21.4872 132.071 21.3452C131.777 21.2031 131.41 21.1321 130.97 21.1321C130.368 21.1321 129.867 21.267 129.464 21.5369C129.062 21.8021 128.86 22.1454 128.86 22.5668C128.86 22.9313 128.995 23.2249 129.265 23.4474C129.535 23.67 129.971 23.8523 130.572 23.9943L132.305 24.392C133.309 24.6241 134.057 24.9815 134.549 25.4645C135.042 25.9474 135.288 26.5748 135.288 27.3466C135.288 28 135.099 28.5824 134.72 29.0938C134.346 29.6004 133.823 29.9981 133.15 30.2869C132.483 30.5758 131.708 30.7202 130.828 30.7202C129.606 30.7202 128.609 30.4598 127.838 29.9389C127.066 29.4134 126.592 28.6676 126.417 27.7017L128.47 27.3892C128.598 27.9242 128.86 28.3291 129.258 28.6037C129.656 28.8736 130.174 29.0085 130.814 29.0085C131.51 29.0085 132.066 28.8641 132.483 28.5753C132.899 28.2817 133.108 27.9242 133.108 27.5028C133.108 27.1619 132.98 26.8755 132.724 26.6435C132.473 26.4115 132.087 26.2363 131.566 26.1179L129.72 25.7131C128.702 25.4811 127.949 25.1117 127.461 24.6051C126.978 24.0985 126.737 23.4569 126.737 22.6804C126.737 22.0365 126.917 21.473 127.277 20.9901C127.636 20.5071 128.134 20.1307 128.768 19.8608C129.403 19.5862 130.129 19.4489 130.949 19.4489C132.127 19.4489 133.056 19.7045 133.733 20.2159C134.41 20.7225 134.857 21.402 135.075 22.2543Z" fill="#5D6679"/>
</svg>
