<svg width="45" height="12" viewBox="0 0 45 12" fill="none" xmlns="http://www.w3.org/2000/svg">
<path d="M6.80114 3.36364C6.74148 2.85985 6.49953 2.46875 6.07528 2.19034C5.65104 1.91193 5.13068 1.77273 4.5142 1.77273C4.06345 1.77273 3.66903 1.84564 3.33097 1.99148C2.99621 2.13731 2.73438 2.33783 2.54545 2.59304C2.35985 2.84825 2.26705 3.13826 2.26705 3.46307C2.26705 3.73485 2.33168 3.96851 2.46094 4.16406C2.59351 4.3563 2.76255 4.51705 2.96804 4.64631C3.17353 4.77225 3.38897 4.87666 3.61435 4.95952C3.83973 5.03906 4.04688 5.10369 4.2358 5.15341L5.26989 5.43182C5.53504 5.50142 5.83002 5.59754 6.15483 5.72017C6.48295 5.8428 6.79616 6.01018 7.09446 6.2223C7.39607 6.43111 7.64465 6.69957 7.8402 7.0277C8.03575 7.35582 8.13352 7.75852 8.13352 8.2358C8.13352 8.78598 7.98935 9.28314 7.70099 9.72727C7.41596 10.1714 6.99834 10.5244 6.44815 10.7862C5.90128 11.0481 5.23674 11.179 4.45455 11.179C3.72538 11.179 3.09399 11.0613 2.56037 10.826C2.03007 10.5907 1.61245 10.2625 1.30753 9.84162C1.00592 9.42069 0.835227 8.93182 0.795455 8.375H2.06818C2.10133 8.75947 2.23059 9.07765 2.45597 9.32955C2.68466 9.57812 2.97301 9.76373 3.32102 9.88636C3.67235 10.0057 4.05019 10.0653 4.45455 10.0653C4.92519 10.0653 5.34777 9.98911 5.7223 9.83665C6.09683 9.68087 6.39347 9.46544 6.61222 9.19034C6.83097 8.91193 6.94034 8.58712 6.94034 8.21591C6.94034 7.87784 6.84588 7.60275 6.65696 7.39062C6.46804 7.1785 6.21946 7.00616 5.91122 6.87358C5.60298 6.741 5.26989 6.625 4.91193 6.52557L3.65909 6.16761C2.86364 5.93892 2.2339 5.61245 1.76989 5.18821C1.30587 4.76397 1.07386 4.20881 1.07386 3.52273C1.07386 2.95265 1.22798 2.45549 1.53622 2.03125C1.84777 1.60369 2.26539 1.27225 2.78906 1.03693C3.31605 0.798295 3.90436 0.678977 4.55398 0.678977C5.21023 0.678977 5.79356 0.796638 6.30398 1.03196C6.81439 1.26397 7.21875 1.58215 7.51705 1.98651C7.81866 2.39086 7.97775 2.8499 7.99432 3.36364H6.80114ZM13.2033 11.1591C12.4675 11.1591 11.8328 10.9967 11.2992 10.6719C10.7689 10.3438 10.3596 9.88636 10.0712 9.29972C9.78616 8.70975 9.64364 8.02367 9.64364 7.24148C9.64364 6.45928 9.78616 5.76989 10.0712 5.1733C10.3596 4.57339 10.7606 4.10606 11.2743 3.77131C11.7914 3.43324 12.3946 3.2642 13.084 3.2642C13.4817 3.2642 13.8745 3.33049 14.2623 3.46307C14.65 3.59564 15.003 3.81108 15.3212 4.10938C15.6394 4.40436 15.8929 4.79545 16.0819 5.28267C16.2708 5.76989 16.3652 6.36979 16.3652 7.08239V7.57955H10.4789V6.56534H15.1721C15.1721 6.13447 15.0859 5.75 14.9135 5.41193C14.7445 5.07386 14.5025 4.80705 14.1877 4.61151C13.8761 4.41596 13.5082 4.31818 13.084 4.31818C12.6167 4.31818 12.2123 4.43419 11.8709 4.66619C11.5328 4.89489 11.2727 5.19318 11.0904 5.56108C10.9081 5.92898 10.8169 6.32339 10.8169 6.74432V7.42045C10.8169 7.99716 10.9164 8.48603 11.1152 8.88707C11.3174 9.2848 11.5975 9.58807 11.9554 9.79688C12.3134 10.0024 12.7293 10.1051 13.2033 10.1051C13.5115 10.1051 13.79 10.062 14.0385 9.97585C14.2904 9.88636 14.5075 9.75379 14.6898 9.57812C14.8721 9.39915 15.013 9.17708 15.1124 8.91193L16.2459 9.23011C16.1266 9.61458 15.9261 9.95265 15.6444 10.2443C15.3626 10.5327 15.0146 10.758 14.6003 10.9205C14.186 11.0795 13.7203 11.1591 13.2033 11.1591ZM21.3517 11.1591C20.6159 11.1591 19.9812 10.9967 19.4476 10.6719C18.9173 10.3438 18.508 9.88636 18.2196 9.29972C17.9346 8.70975 17.7921 8.02367 17.7921 7.24148C17.7921 6.45928 17.9346 5.76989 18.2196 5.1733C18.508 4.57339 18.909 4.10606 19.4228 3.77131C19.9398 3.43324 20.543 3.2642 21.2324 3.2642C21.6301 3.2642 22.0229 3.33049 22.4107 3.46307C22.7985 3.59564 23.1515 3.81108 23.4696 4.10938C23.7878 4.40436 24.0414 4.79545 24.2303 5.28267C24.4192 5.76989 24.5137 6.36979 24.5137 7.08239V7.57955H18.6273V6.56534H23.3205C23.3205 6.13447 23.2343 5.75 23.062 5.41193C22.8929 5.07386 22.651 4.80705 22.3361 4.61151C22.0246 4.41596 21.6567 4.31818 21.2324 4.31818C20.7651 4.31818 20.3607 4.43419 20.0194 4.66619C19.6813 4.89489 19.4211 5.19318 19.2388 5.56108C19.0565 5.92898 18.9654 6.32339 18.9654 6.74432V7.42045C18.9654 7.99716 19.0648 8.48603 19.2637 8.88707C19.4658 9.2848 19.7459 9.58807 20.1039 9.79688C20.4618 10.0024 20.8778 10.1051 21.3517 10.1051C21.66 10.1051 21.9384 10.062 22.187 9.97585C22.4389 9.88636 22.656 9.75379 22.8382 9.57812C23.0205 9.39915 23.1614 9.17708 23.2608 8.91193L24.3944 9.23011C24.275 9.61458 24.0745 9.95265 23.7928 10.2443C23.5111 10.5327 23.1631 10.758 22.7488 10.9205C22.3345 11.0795 21.8688 11.1591 21.3517 11.1591ZM30.8127 11H29.5201L33.2587 0.818182H34.5314L38.2701 11H36.9775L33.9348 2.42898H33.8553L30.8127 11ZM31.29 7.02273H36.5002V8.11648H31.29V7.02273ZM40.8702 0.818182V11H39.6969V0.818182H40.8702ZM44.1925 0.818182V11H43.0192V0.818182H44.1925Z" fill="#0F50AA"/>
</svg>
