<svg width="143" height="148" viewBox="0 0 143 148" fill="none" xmlns="http://www.w3.org/2000/svg">
<ellipse cx="71.5" cy="74" rx="71.5" ry="74" fill="white"/>
<path d="M84 52.3752C84 60.857 78.0053 68.1246 71 68.1246C63.9947 68.1246 58 60.857 58 52.3752C58 48.1802 59.4907 44.0527 61.8881 40.9881C64.2873 37.9212 67.5213 36 71 36C74.4787 36 77.7127 37.9212 80.1119 40.9881C82.5093 44.0527 84 48.1802 84 52.3752ZM103 94.7041C103 99.3714 100.714 103.64 95.6005 106.79C90.4443 109.967 82.4028 112.001 71 112.001C59.5972 112.001 51.5557 109.967 46.3995 106.79C41.2861 103.64 39 99.3714 39 94.7041C39 90.1808 42.3189 85.8743 48.1504 82.6411C53.9476 79.4269 62.0242 77.4076 71 77.4076C79.9758 77.4076 88.0524 79.4269 93.8496 82.6411C99.6811 85.8743 103 90.1808 103 94.7041Z" stroke="black" stroke-width="2"/>
</svg>
