<svg width="116" height="29" viewBox="0 0 116 29" fill="none" xmlns="http://www.w3.org/2000/svg">
<path d="M8.36887 22.36C6.86887 22.36 5.51887 22.1 4.31887 21.58C3.11887 21.06 2.17887 20.3 1.49887 19.3C0.818867 18.3 0.458867 17.09 0.418867 15.67H4.70887C4.72887 16.29 4.88887 16.85 5.18887 17.35C5.48887 17.85 5.90887 18.25 6.44887 18.55C6.98887 18.83 7.62887 18.97 8.36887 18.97C8.98887 18.97 9.53887 18.87 10.0189 18.67C10.4989 18.47 10.8689 18.18 11.1289 17.8C11.4089 17.42 11.5489 16.96 11.5489 16.42C11.5489 15.82 11.3989 15.32 11.0989 14.92C10.7989 14.5 10.3789 14.15 9.83887 13.87C9.31887 13.59 8.72887 13.34 8.06887 13.12C7.40887 12.9 6.71887 12.66 5.99887 12.4C4.33887 11.84 3.06887 11.11 2.18887 10.21C1.32887 9.31 0.898867 8.12 0.898867 6.64C0.898867 5.38 1.19887 4.31 1.79887 3.43C2.41887 2.53 3.25887 1.84 4.31887 1.36C5.39887 0.879998 6.63887 0.639998 8.03887 0.639998C9.45887 0.639998 10.6989 0.889998 11.7589 1.39C12.8389 1.87 13.6889 2.57 14.3089 3.49C14.9289 4.41 15.2589 5.49 15.2989 6.73H10.9489C10.9489 6.23 10.8189 5.78 10.5589 5.38C10.3189 4.98 9.96887 4.66 9.50887 4.42C9.06887 4.16 8.54887 4.03 7.94887 4.03C7.42887 4.01 6.94887 4.09 6.50887 4.27C6.08887 4.45 5.75887 4.71 5.51887 5.05C5.27887 5.39 5.15887 5.82 5.15887 6.34C5.15887 6.84 5.26887 7.27 5.48887 7.63C5.72887 7.97 6.06887 8.26 6.50887 8.5C6.94887 8.74 7.46887 8.97 8.06887 9.19C8.66887 9.41 9.31887 9.64 10.0189 9.88C11.0789 10.24 12.0489 10.67 12.9289 11.17C13.8089 11.65 14.5089 12.28 15.0289 13.06C15.5489 13.84 15.8089 14.86 15.8089 16.12C15.8089 17.24 15.5189 18.27 14.9389 19.21C14.3789 20.15 13.5489 20.91 12.4489 21.49C11.3489 22.07 9.98887 22.36 8.36887 22.36ZM25.887 22.36C24.367 22.36 23.017 22.04 21.837 21.4C20.677 20.76 19.767 19.86 19.107 18.7C18.447 17.54 18.117 16.21 18.117 14.71C18.117 13.15 18.437 11.78 19.077 10.6C19.737 9.4 20.647 8.46 21.807 7.78C22.987 7.1 24.357 6.76 25.917 6.76C27.397 6.76 28.697 7.08 29.817 7.72C30.957 8.36 31.837 9.24 32.457 10.36C33.097 11.46 33.417 12.71 33.417 14.11C33.417 14.31 33.417 14.54 33.417 14.8C33.417 15.04 33.397 15.29 33.357 15.55H21.027V13.06H29.307C29.247 12.14 28.897 11.4 28.257 10.84C27.637 10.28 26.857 10 25.917 10C25.217 10 24.577 10.16 23.997 10.48C23.417 10.78 22.957 11.24 22.617 11.86C22.277 12.48 22.107 13.27 22.107 14.23V15.1C22.107 15.92 22.267 16.63 22.587 17.23C22.907 17.81 23.347 18.26 23.907 18.58C24.487 18.9 25.137 19.06 25.857 19.06C26.597 19.06 27.217 18.9 27.717 18.58C28.217 18.24 28.597 17.81 28.857 17.29H32.997C32.697 18.23 32.217 19.09 31.557 19.87C30.897 20.63 30.087 21.24 29.127 21.7C28.167 22.14 27.087 22.36 25.887 22.36ZM42.6907 22C41.6307 22 40.7007 21.84 39.9007 21.52C39.1207 21.18 38.5107 20.63 38.0707 19.87C37.6307 19.09 37.4107 18.03 37.4107 16.69V10.45H34.8607V7.12H37.4107L37.8607 3.07H41.4607V7.12H45.4207V10.45H41.4607V16.75C41.4607 17.43 41.6107 17.91 41.9107 18.19C42.2107 18.45 42.7207 18.58 43.4407 18.58H45.3307V22H42.6907ZM54.7611 22C53.7011 22 52.7711 21.84 51.9711 21.52C51.1911 21.18 50.5811 20.63 50.1411 19.87C49.7011 19.09 49.4811 18.03 49.4811 16.69V10.45H46.9311V7.12H49.4811L49.9311 3.07H53.5311V7.12H57.4911V10.45H53.5311V16.75C53.5311 17.43 53.6811 17.91 53.9811 18.19C54.2811 18.45 54.7911 18.58 55.5111 18.58H57.4011V22H54.7611ZM60.3214 22V7.12H64.3714V22H60.3214ZM62.3614 5.08C61.6214 5.08 61.0114 4.86 60.5314 4.42C60.0714 3.98 59.8414 3.43 59.8414 2.77C59.8414 2.11 60.0714 1.57 60.5314 1.15C61.0114 0.709998 61.6214 0.489998 62.3614 0.489998C63.1014 0.489998 63.7014 0.709998 64.1614 1.15C64.6214 1.57 64.8514 2.11 64.8514 2.77C64.8514 3.43 64.6214 3.98 64.1614 4.42C63.7014 4.86 63.1014 5.08 62.3614 5.08ZM67.9622 22V7.12H71.4722L71.8022 9.58H71.8322C72.3122 8.72 72.9722 8.04 73.8122 7.54C74.6522 7.02 75.6822 6.76 76.9022 6.76C78.1422 6.76 79.1922 7.03 80.0522 7.57C80.9122 8.09 81.5622 8.86 82.0022 9.88C82.4622 10.9 82.6922 12.16 82.6922 13.66V22H78.6722V14.02C78.6722 12.78 78.4222 11.83 77.9222 11.17C77.4222 10.51 76.6222 10.18 75.5222 10.18C74.8422 10.18 74.2322 10.35 73.6922 10.69C73.1722 11.01 72.7622 11.48 72.4622 12.1C72.1622 12.7 72.0122 13.44 72.0122 14.32V22H67.9622ZM92.4933 28.75C91.0733 28.75 89.8233 28.57 88.7433 28.21C87.6833 27.87 86.8633 27.35 86.2833 26.65C85.7033 25.97 85.4133 25.12 85.4133 24.1C85.4133 23.42 85.5933 22.77 85.9533 22.15C86.3133 21.55 86.8333 21 87.5133 20.5C88.2133 20 89.0733 19.57 90.0933 19.21L91.5933 21.22C90.6933 21.52 90.0433 21.88 89.6433 22.3C89.2433 22.74 89.0433 23.22 89.0433 23.74C89.0433 24.18 89.1933 24.55 89.4933 24.85C89.7933 25.15 90.2033 25.37 90.7233 25.51C91.2433 25.67 91.8333 25.75 92.4933 25.75C93.1333 25.75 93.6833 25.67 94.1433 25.51C94.6033 25.35 94.9633 25.12 95.2233 24.82C95.4833 24.52 95.6133 24.17 95.6133 23.77C95.6133 23.23 95.4233 22.8 95.0433 22.48C94.6633 22.16 93.9233 21.96 92.8233 21.88C91.8033 21.8 90.9033 21.69 90.1233 21.55C89.3433 21.39 88.6533 21.21 88.0533 21.01C87.4733 20.79 86.9733 20.56 86.5533 20.32C86.1333 20.06 85.8033 19.8 85.5633 19.54V18.85L88.7733 15.43L91.4133 16.36L87.8733 20.05L89.0133 18.13C89.2133 18.25 89.4133 18.36 89.6133 18.46C89.8333 18.54 90.1033 18.63 90.4233 18.73C90.7633 18.81 91.1833 18.89 91.6833 18.97C92.1833 19.03 92.8233 19.1 93.6033 19.18C94.9233 19.28 96.0033 19.52 96.8433 19.9C97.6833 20.26 98.3033 20.76 98.7033 21.4C99.1033 22.02 99.3033 22.78 99.3033 23.68C99.3033 24.52 99.0533 25.32 98.5533 26.08C98.0733 26.86 97.3333 27.5 96.3333 28C95.3333 28.5 94.0533 28.75 92.4933 28.75ZM92.5233 17.59C91.2633 17.59 90.1733 17.35 89.2533 16.87C88.3533 16.39 87.6533 15.74 87.1533 14.92C86.6733 14.1 86.4333 13.19 86.4333 12.19C86.4333 11.19 86.6733 10.28 87.1533 9.46C87.6533 8.64 88.3533 7.99 89.2533 7.51C90.1733 7.01 91.2633 6.76 92.5233 6.76C93.7833 6.76 94.8633 7.01 95.7633 7.51C96.6833 7.99 97.3833 8.64 97.8633 9.46C98.3433 10.28 98.5833 11.19 98.5833 12.19C98.5833 13.19 98.3433 14.1 97.8633 14.92C97.3833 15.74 96.6833 16.39 95.7633 16.87C94.8633 17.35 93.7833 17.59 92.5233 17.59ZM92.5233 14.56C93.2833 14.56 93.9033 14.36 94.3833 13.96C94.8833 13.56 95.1333 12.97 95.1333 12.19C95.1333 11.43 94.8833 10.85 94.3833 10.45C93.9033 10.05 93.2833 9.85 92.5233 9.85C91.7433 9.85 91.1033 10.05 90.6033 10.45C90.1233 10.85 89.8833 11.43 89.8833 12.19C89.8833 12.97 90.1233 13.56 90.6033 13.96C91.1033 14.36 91.7433 14.56 92.5233 14.56ZM94.9533 9.91L94.2933 7.12H100.533V9.43L94.9533 9.91ZM109.592 22.36C108.272 22.36 107.102 22.14 106.082 21.7C105.062 21.26 104.252 20.66 103.652 19.9C103.052 19.12 102.692 18.24 102.572 17.26H106.622C106.722 17.62 106.892 17.96 107.132 18.28C107.392 18.58 107.722 18.83 108.122 19.03C108.522 19.21 108.992 19.3 109.532 19.3C110.072 19.3 110.512 19.23 110.852 19.09C111.192 18.93 111.442 18.73 111.602 18.49C111.762 18.23 111.842 17.97 111.842 17.71C111.842 17.31 111.722 17.01 111.482 16.81C111.242 16.59 110.882 16.41 110.402 16.27C109.942 16.11 109.392 15.95 108.752 15.79C108.112 15.63 107.452 15.45 106.772 15.25C106.092 15.05 105.472 14.8 104.912 14.5C104.372 14.18 103.932 13.78 103.592 13.3C103.252 12.8 103.082 12.18 103.082 11.44C103.082 10.58 103.322 9.8 103.802 9.1C104.282 8.38 104.972 7.81 105.872 7.39C106.792 6.97 107.892 6.76 109.172 6.76C110.952 6.76 112.372 7.17 113.432 7.99C114.512 8.81 115.142 9.94 115.322 11.38H111.512C111.412 10.9 111.152 10.53 110.732 10.27C110.332 9.99 109.802 9.85 109.142 9.85C108.442 9.85 107.902 9.98 107.522 10.24C107.162 10.5 106.982 10.82 106.982 11.2C106.982 11.48 107.112 11.72 107.372 11.92C107.632 12.12 107.992 12.3 108.452 12.46C108.932 12.6 109.482 12.75 110.102 12.91C111.182 13.17 112.152 13.45 113.012 13.75C113.892 14.05 114.592 14.48 115.112 15.04C115.632 15.6 115.892 16.4 115.892 17.44C115.912 18.38 115.662 19.22 115.142 19.96C114.642 20.7 113.912 21.29 112.952 21.73C112.012 22.15 110.892 22.36 109.592 22.36Z" fill="#232360"/>
</svg>
