<svg width="66" height="46" viewBox="0 0 66 46" fill="none" xmlns="http://www.w3.org/2000/svg">
<rect x="0.858398" y="0.683838" width="65.1011" height="44.329" rx="8" fill="#5051F9"/>
<path d="M21.4733 27.0423C20.764 27.0423 20.1293 26.9209 19.5693 26.6783C19.0186 26.4356 18.58 26.0809 18.2533 25.6143C17.936 25.1476 17.7726 24.5829 17.7633 23.9203H19.7653C19.7746 24.2096 19.8493 24.4709 19.9893 24.7043C20.1293 24.9376 20.3206 25.1243 20.5633 25.2643C20.8153 25.3949 21.114 25.4603 21.4593 25.4603C21.758 25.4603 22.0146 25.4136 22.2293 25.3203C22.4533 25.2176 22.626 25.0776 22.7473 24.9003C22.8686 24.7229 22.9293 24.5129 22.9293 24.2703C22.9293 23.9903 22.8593 23.7569 22.7193 23.5703C22.5886 23.3836 22.402 23.2249 22.1593 23.0943C21.926 22.9636 21.6506 22.8469 21.3333 22.7443C21.0253 22.6323 20.6986 22.5156 20.3533 22.3943C19.5786 22.1423 18.986 21.8063 18.5753 21.3863C18.174 20.9663 17.9733 20.4109 17.9733 19.7203C17.9733 19.1323 18.1133 18.6283 18.3933 18.2083C18.6826 17.7883 19.0793 17.4663 19.5833 17.2423C20.0873 17.0183 20.6613 16.9063 21.3053 16.9063C21.968 16.9063 22.5466 17.0229 23.0413 17.2563C23.5453 17.4803 23.942 17.8069 24.2313 18.2363C24.53 18.6656 24.684 19.1696 24.6933 19.7483H22.6773C22.668 19.5336 22.6026 19.3329 22.4813 19.1463C22.3693 18.9503 22.2106 18.7963 22.0053 18.6843C21.8 18.5629 21.5573 18.5023 21.2773 18.5023C21.0346 18.4929 20.8106 18.5303 20.6053 18.6143C20.4093 18.6983 20.2506 18.8243 20.1293 18.9923C20.0173 19.1509 19.9613 19.3516 19.9613 19.5943C19.9613 19.8276 20.0173 20.0236 20.1293 20.1823C20.2506 20.3409 20.414 20.4809 20.6193 20.6023C20.8246 20.7143 21.0673 20.8216 21.3473 20.9243C21.6273 21.0176 21.9306 21.1156 22.2573 21.2183C22.7426 21.3863 23.1906 21.5869 23.6013 21.8203C24.012 22.0443 24.3386 22.3383 24.5813 22.7023C24.824 23.0663 24.9453 23.5469 24.9453 24.1443C24.9453 24.6576 24.81 25.1336 24.5393 25.5723C24.2686 26.0109 23.8766 26.3656 23.3633 26.6363C22.8593 26.9069 22.2293 27.0423 21.4733 27.0423ZM28.9002 27.0423C28.3122 27.0423 27.8269 26.9489 27.4442 26.7623C27.0615 26.5663 26.7769 26.3096 26.5902 25.9923C26.4129 25.6656 26.3242 25.3063 26.3242 24.9143C26.3242 24.4849 26.4315 24.1069 26.6462 23.7803C26.8702 23.4536 27.2015 23.1969 27.6402 23.0103C28.0882 22.8236 28.6482 22.7303 29.3202 22.7303H31.0702C31.0702 22.3849 31.0235 22.1003 30.9302 21.8763C30.8369 21.6429 30.6922 21.4703 30.4962 21.3583C30.3002 21.2463 30.0389 21.1903 29.7122 21.1903C29.3575 21.1903 29.0542 21.2696 28.8022 21.4283C28.5595 21.5776 28.4102 21.8109 28.3542 22.1283H26.5202C26.5669 21.6243 26.7302 21.1903 27.0102 20.8263C27.2995 20.4529 27.6775 20.1636 28.1442 19.9583C28.6202 19.7529 29.1475 19.6503 29.7262 19.6503C30.3889 19.6503 30.9629 19.7623 31.4482 19.9863C31.9335 20.2103 32.3069 20.5323 32.5682 20.9523C32.8295 21.3723 32.9602 21.8903 32.9602 22.5063V26.8743H31.3642L31.1542 25.7963C31.0515 25.9829 30.9302 26.1509 30.7902 26.3003C30.6502 26.4496 30.4869 26.5803 30.3002 26.6923C30.1135 26.8043 29.9035 26.8883 29.6702 26.9443C29.4369 27.0096 29.1802 27.0423 28.9002 27.0423ZM29.3482 25.5863C29.5909 25.5863 29.8055 25.5443 29.9922 25.4603C30.1882 25.3669 30.3562 25.2456 30.4962 25.0963C30.6362 24.9376 30.7435 24.7603 30.8182 24.5643C30.9022 24.3589 30.9582 24.1396 30.9862 23.9063V23.8923H29.5442C29.2549 23.8923 29.0169 23.9296 28.8302 24.0043C28.6529 24.0696 28.5222 24.1676 28.4382 24.2983C28.3542 24.4289 28.3122 24.5783 28.3122 24.7463C28.3122 24.9329 28.3542 25.0869 28.4382 25.2083C28.5222 25.3296 28.6435 25.4229 28.8022 25.4883C28.9609 25.5536 29.1429 25.5863 29.3482 25.5863ZM36.4082 26.8743L33.8182 19.8183H35.8062L37.5562 25.0963L39.3062 19.8183H41.2802L38.7042 26.8743H36.4082ZM45.4941 27.0423C44.7848 27.0423 44.1548 26.8929 43.6041 26.5943C43.0628 26.2863 42.6381 25.8616 42.3301 25.3203C42.0315 24.7696 41.8821 24.1349 41.8821 23.4163C41.8821 22.6789 42.0315 22.0303 42.3301 21.4703C42.6381 20.9009 43.0628 20.4576 43.6041 20.1403C44.1455 19.8136 44.7755 19.6503 45.4941 19.6503C46.1941 19.6503 46.8055 19.8043 47.3281 20.1123C47.8508 20.4203 48.2568 20.8356 48.5461 21.3583C48.8355 21.8809 48.9801 22.4736 48.9801 23.1363C48.9801 23.2296 48.9801 23.3369 48.9801 23.4583C48.9801 23.5703 48.9708 23.6869 48.9521 23.8083H43.2261V22.6603H47.0761C47.0481 22.2029 46.8848 21.8436 46.5861 21.5823C46.2968 21.3209 45.9328 21.1903 45.4941 21.1903C45.1768 21.1903 44.8828 21.2649 44.6121 21.4143C44.3415 21.5543 44.1268 21.7736 43.9681 22.0723C43.8188 22.3709 43.7441 22.7489 43.7441 23.2063V23.6123C43.7441 23.9949 43.8141 24.3309 43.9541 24.6203C44.1035 24.9003 44.3088 25.1196 44.5701 25.2783C44.8315 25.4276 45.1348 25.5023 45.4801 25.5023C45.8255 25.5023 46.1101 25.4276 46.3341 25.2783C46.5675 25.1289 46.7401 24.9376 46.8521 24.7043H48.7841C48.6535 25.1429 48.4341 25.5396 48.1261 25.8943C47.8181 26.2489 47.4401 26.5289 46.9921 26.7343C46.5441 26.9396 46.0448 27.0423 45.4941 27.0423Z" fill="white"/>
</svg>
