<svg width="82" height="46" viewBox="0 0 82 46" fill="none" xmlns="http://www.w3.org/2000/svg">
<rect x="1.19336" y="1.18506" width="79.7523" height="43.329" rx="7.5" stroke="#060000"/>
<path d="M22.1633 27.0435C21.2019 27.0435 20.3713 26.8335 19.6713 26.4135C18.9806 25.9842 18.4439 25.3915 18.0613 24.6355C17.6879 23.8702 17.5013 22.9835 17.5013 21.9755C17.5013 20.9768 17.6879 20.0948 18.0613 19.3295C18.4439 18.5642 18.9806 17.9715 19.6713 17.5515C20.3713 17.1222 21.2019 16.9075 22.1633 16.9075C23.3113 16.9075 24.2399 17.1828 24.9493 17.7335C25.6679 18.2842 26.1253 19.0588 26.3213 20.0575H24.7813C24.6413 19.4788 24.3519 19.0168 23.9133 18.6715C23.4839 18.3262 22.9006 18.1535 22.1633 18.1535C21.5006 18.1535 20.9266 18.3075 20.4413 18.6155C19.9559 18.9235 19.5826 19.3622 19.3213 19.9315C19.0599 20.5008 18.9293 21.1822 18.9293 21.9755C18.9293 22.7688 19.0599 23.4548 19.3213 24.0335C19.5826 24.6028 19.9559 25.0415 20.4413 25.3495C20.9266 25.6482 21.5006 25.7975 22.1633 25.7975C22.9006 25.7975 23.4839 25.6342 23.9133 25.3075C24.3519 24.9715 24.6413 24.5188 24.7813 23.9495H26.3213C26.1253 24.9202 25.6679 25.6808 24.9493 26.2315C24.2399 26.7728 23.3113 27.0435 22.1633 27.0435ZM30.2641 27.0435C29.6855 27.0435 29.2048 26.9455 28.8221 26.7495C28.4395 26.5535 28.1548 26.2922 27.9681 25.9655C27.7815 25.6295 27.6881 25.2702 27.6881 24.8875C27.6881 24.4208 27.8095 24.0242 28.0521 23.6975C28.2948 23.3615 28.6401 23.1048 29.0881 22.9275C29.5361 22.7502 30.0728 22.6615 30.6981 22.6615H32.5321C32.5321 22.2508 32.4715 21.9102 32.3501 21.6395C32.2288 21.3688 32.0468 21.1682 31.8041 21.0375C31.5708 20.8975 31.2721 20.8275 30.9081 20.8275C30.4881 20.8275 30.1288 20.9302 29.8301 21.1355C29.5315 21.3315 29.3448 21.6255 29.2701 22.0175H27.8701C27.9261 21.5228 28.0941 21.1028 28.3741 20.7575C28.6635 20.4028 29.0321 20.1322 29.4801 19.9455C29.9281 19.7495 30.4041 19.6515 30.9081 19.6515C31.5708 19.6515 32.1261 19.7682 32.5741 20.0015C33.0221 20.2348 33.3581 20.5662 33.5821 20.9955C33.8155 21.4155 33.9321 21.9195 33.9321 22.5075V26.8755H32.7141L32.6021 25.6855C32.4995 25.8722 32.3781 26.0495 32.2381 26.2175C32.0981 26.3855 31.9301 26.5302 31.7341 26.6515C31.5475 26.7728 31.3281 26.8662 31.0761 26.9315C30.8335 27.0062 30.5628 27.0435 30.2641 27.0435ZM30.5301 25.9095C30.8288 25.9095 31.0995 25.8488 31.3421 25.7275C31.5848 25.6062 31.7901 25.4428 31.9581 25.2375C32.1355 25.0228 32.2661 24.7848 32.3501 24.5235C32.4435 24.2528 32.4948 23.9775 32.5041 23.6975V23.6555H30.8381C30.4368 23.6555 30.1101 23.7068 29.8581 23.8095C29.6155 23.9028 29.4381 24.0335 29.3261 24.2015C29.2141 24.3695 29.1581 24.5655 29.1581 24.7895C29.1581 25.0228 29.2095 25.2235 29.3121 25.3915C29.4241 25.5502 29.5828 25.6762 29.7881 25.7695C29.9935 25.8628 30.2408 25.9095 30.5301 25.9095ZM35.7191 26.8755V19.8195H36.9791L37.0631 21.0235C37.2871 20.6035 37.6044 20.2722 38.0151 20.0295C38.4258 19.7775 38.8971 19.6515 39.4291 19.6515C39.9891 19.6515 40.4698 19.7635 40.8711 19.9875C41.2724 20.2115 41.5851 20.5522 41.8091 21.0095C42.0331 21.4575 42.1451 22.0222 42.1451 22.7035V26.8755H40.7451V22.8435C40.7451 22.1902 40.6004 21.6955 40.3111 21.3595C40.0218 21.0235 39.6018 20.8555 39.0511 20.8555C38.6871 20.8555 38.3604 20.9442 38.0711 21.1215C37.7818 21.2895 37.5484 21.5415 37.3711 21.8775C37.2031 22.2135 37.1191 22.6242 37.1191 23.1095V26.8755H35.7191ZM47.1979 27.0435C46.5166 27.0435 45.9099 26.8895 45.3779 26.5815C44.8459 26.2642 44.4259 25.8302 44.1179 25.2795C43.8192 24.7288 43.6699 24.0895 43.6699 23.3615C43.6699 22.6242 43.8192 21.9802 44.1179 21.4295C44.4259 20.8695 44.8459 20.4355 45.3779 20.1275C45.9099 19.8102 46.5166 19.6515 47.1979 19.6515C48.0566 19.6515 48.7752 19.8755 49.3539 20.3235C49.9326 20.7715 50.3012 21.3782 50.4599 22.1435H49.0039C48.9106 21.7328 48.6959 21.4155 48.3599 21.1915C48.0332 20.9675 47.6412 20.8555 47.1839 20.8555C46.8106 20.8555 46.4652 20.9535 46.1479 21.1495C45.8306 21.3362 45.5739 21.6162 45.3779 21.9895C45.1912 22.3535 45.0979 22.8062 45.0979 23.3475C45.0979 23.7488 45.1539 24.1082 45.2659 24.4255C45.3779 24.7335 45.5272 24.9948 45.7139 25.2095C45.9099 25.4242 46.1339 25.5875 46.3859 25.6995C46.6379 25.8022 46.9039 25.8535 47.1839 25.8535C47.4919 25.8535 47.7672 25.8068 48.0099 25.7135C48.2619 25.6108 48.4719 25.4615 48.6399 25.2655C48.8172 25.0695 48.9386 24.8362 49.0039 24.5655H50.4599C50.3012 25.3122 49.9326 25.9142 49.3539 26.3715C48.7752 26.8195 48.0566 27.0435 47.1979 27.0435ZM55.29 27.0435C54.618 27.0435 54.0207 26.8895 53.498 26.5815C52.9753 26.2735 52.5647 25.8442 52.266 25.2935C51.9767 24.7428 51.832 24.1035 51.832 23.3755C51.832 22.6288 51.9767 21.9802 52.266 21.4295C52.5647 20.8695 52.9753 20.4355 53.498 20.1275C54.0207 19.8102 54.6273 19.6515 55.318 19.6515C56.0087 19.6515 56.6013 19.8055 57.096 20.1135C57.5907 20.4215 57.9733 20.8322 58.244 21.3455C58.5147 21.8495 58.65 22.4095 58.65 23.0255C58.65 23.1188 58.6453 23.2215 58.636 23.3335C58.636 23.4362 58.6313 23.5528 58.622 23.6835H52.854V22.6895H57.25C57.222 22.1015 57.026 21.6442 56.662 21.3175C56.298 20.9815 55.8453 20.8135 55.304 20.8135C54.9213 20.8135 54.5713 20.9022 54.254 21.0795C53.9367 21.2475 53.68 21.4995 53.484 21.8355C53.2973 22.1622 53.204 22.5775 53.204 23.0815V23.4735C53.204 23.9962 53.2973 24.4395 53.484 24.8035C53.68 25.1582 53.9367 25.4288 54.254 25.6155C54.5713 25.7928 54.9167 25.8815 55.29 25.8815C55.738 25.8815 56.1067 25.7835 56.396 25.5875C56.6853 25.3915 56.9 25.1255 57.04 24.7895H58.44C58.3187 25.2188 58.1133 25.6062 57.824 25.9515C57.5347 26.2875 57.1753 26.5535 56.746 26.7495C56.326 26.9455 55.8407 27.0435 55.29 27.0435ZM60.2054 26.8755V16.7955H61.6054V26.8755L60.2054 26.8755Z" fill="black"/>
</svg>
