<svg width="143" height="60" viewBox="0 0 143 60" fill="none" xmlns="http://www.w3.org/2000/svg">
<rect width="143" height="60" rx="30" fill="#6E8EDF"/>
<path d="M24.8409 25.2045C24.7652 24.3712 24.428 23.7235 23.8295 23.2614C23.2386 22.7917 22.3939 22.5568 21.2955 22.5568C20.5682 22.5568 19.9621 22.6515 19.4773 22.8409C18.9924 23.0303 18.6288 23.2917 18.3864 23.625C18.1439 23.9508 18.0189 24.3258 18.0114 24.75C17.9962 25.0985 18.0644 25.4053 18.2159 25.6705C18.375 25.9356 18.6023 26.1705 18.8977 26.375C19.2008 26.572 19.5644 26.7462 19.9886 26.8977C20.4129 27.0492 20.8902 27.1818 21.4205 27.2955L23.4205 27.75C24.572 28 25.5871 28.3333 26.4659 28.75C27.3523 29.1667 28.0947 29.6629 28.6932 30.2386C29.2992 30.8144 29.7576 31.4773 30.0682 32.2273C30.3788 32.9773 30.5379 33.8182 30.5455 34.75C30.5379 36.2197 30.1667 37.4811 29.4318 38.5341C28.697 39.5871 27.6402 40.3939 26.2614 40.9545C24.8902 41.5152 23.2348 41.7955 21.2955 41.7955C19.3485 41.7955 17.6515 41.5038 16.2045 40.9205C14.7576 40.3371 13.6326 39.4508 12.8295 38.2614C12.0265 37.072 11.6136 35.5682 11.5909 33.75H16.9773C17.0227 34.5 17.2235 35.125 17.5795 35.625C17.9356 36.125 18.4242 36.5038 19.0455 36.7614C19.6742 37.0189 20.4015 37.1477 21.2273 37.1477C21.9848 37.1477 22.6288 37.0455 23.1591 36.8409C23.697 36.6364 24.1098 36.3523 24.3977 35.9886C24.6856 35.625 24.8333 35.2083 24.8409 34.7386C24.8333 34.2992 24.697 33.9242 24.4318 33.6136C24.1667 33.2955 23.7576 33.0227 23.2045 32.7955C22.6591 32.5606 21.9621 32.3447 21.1136 32.1477L18.6818 31.5795C16.6667 31.1174 15.0795 30.3712 13.9205 29.3409C12.7614 28.303 12.1856 26.9015 12.1932 25.1364C12.1856 23.697 12.572 22.4356 13.3523 21.3523C14.1326 20.2689 15.2121 19.4242 16.5909 18.8182C17.9697 18.2121 19.5417 17.9091 21.3068 17.9091C23.1098 17.9091 24.6742 18.2159 26 18.8295C27.3333 19.4356 28.3674 20.2879 29.1023 21.3864C29.8371 22.4848 30.2121 23.7576 30.2273 25.2045H24.8409ZM33.3864 41.5V24.0455H38.9432V41.5H33.3864ZM36.1705 22.0114C35.3902 22.0114 34.7197 21.7538 34.1591 21.2386C33.5985 20.7159 33.3182 20.0871 33.3182 19.3523C33.3182 18.625 33.5985 18.0038 34.1591 17.4886C34.7197 16.9659 35.3902 16.7045 36.1705 16.7045C36.9583 16.7045 37.6288 16.9659 38.1818 17.4886C38.7424 18.0038 39.0227 18.625 39.0227 19.3523C39.0227 20.0871 38.7424 20.7159 38.1818 21.2386C37.6288 21.7538 36.9583 22.0114 36.1705 22.0114ZM50.6165 48.4091C48.9574 48.4091 47.5369 48.178 46.3551 47.7159C45.1733 47.2538 44.2453 46.6212 43.571 45.8182C42.8968 45.0152 42.4915 44.1061 42.3551 43.0909L47.6165 42.7955C47.715 43.1515 47.8968 43.4621 48.1619 43.7273C48.4347 43.9924 48.7869 44.197 49.2188 44.3409C49.6581 44.4848 50.1733 44.5568 50.7642 44.5568C51.696 44.5568 52.465 44.3295 53.071 43.875C53.6847 43.428 53.9915 42.6439 53.9915 41.5227V38.4545H53.7983C53.5786 38.9924 53.2453 39.4735 52.7983 39.8977C52.3513 40.322 51.7945 40.6553 51.1278 40.8977C50.4688 41.1402 49.7112 41.2614 48.8551 41.2614C47.5824 41.2614 46.4157 40.9659 45.3551 40.375C44.3021 39.7765 43.4574 38.8523 42.821 37.6023C42.1922 36.3447 41.8778 34.7273 41.8778 32.75C41.8778 30.7121 42.2036 29.0341 42.8551 27.7159C43.5066 26.3902 44.3589 25.4091 45.4119 24.7727C46.4725 24.1364 47.6127 23.8182 48.8324 23.8182C49.7491 23.8182 50.5331 23.9773 51.1847 24.2955C51.8438 24.6061 52.3854 25.0076 52.8097 25.5C53.2339 25.9924 53.5559 26.5038 53.7756 27.0341H53.9347V24.0455H59.4688V41.5682C59.4688 43.0455 59.0975 44.2917 58.3551 45.3068C57.6127 46.322 56.5748 47.0909 55.2415 47.6136C53.9081 48.1439 52.3665 48.4091 50.6165 48.4091ZM50.7869 37.2159C51.4612 37.2159 52.0369 37.0379 52.5142 36.6818C52.9915 36.3258 53.3589 35.8144 53.6165 35.1477C53.8741 34.4811 54.0028 33.6818 54.0028 32.75C54.0028 31.803 53.8741 30.9886 53.6165 30.3068C53.3665 29.6174 52.9991 29.0871 52.5142 28.7159C52.0369 28.3447 51.4612 28.1591 50.7869 28.1591C50.0975 28.1591 49.5142 28.3485 49.0369 28.7273C48.5597 29.1061 48.196 29.6402 47.946 30.3295C47.7036 31.0114 47.5824 31.8182 47.5824 32.75C47.5824 33.6818 47.7074 34.4811 47.9574 35.1477C48.2074 35.8144 48.5672 36.3258 49.0369 36.6818C49.5142 37.0379 50.0975 37.2159 50.7869 37.2159ZM68.5682 31.5455V41.5H63.0114V24.0455H68.2955V27.25H68.4886C68.875 26.1818 69.5341 25.3447 70.4659 24.7386C71.3977 24.125 72.5076 23.8182 73.7955 23.8182C75.0227 23.8182 76.0871 24.0947 76.9886 24.6477C77.8977 25.1932 78.6023 25.9583 79.1023 26.9432C79.6098 27.9205 79.8598 29.0644 79.8523 30.375V41.5H74.2955V31.4659C74.303 30.4962 74.0568 29.7386 73.5568 29.1932C73.0644 28.6477 72.3788 28.375 71.5 28.375C70.9167 28.375 70.4015 28.5038 69.9545 28.7614C69.5152 29.0114 69.1742 29.3712 68.9318 29.8409C68.697 30.3106 68.5758 30.8788 68.5682 31.5455ZM104.247 18.2273H109.861V33.2386C109.861 34.9735 109.448 36.4848 108.622 37.7727C107.796 39.053 106.645 40.0455 105.168 40.75C103.69 41.447 101.974 41.7955 100.02 41.7955C98.0426 41.7955 96.3153 41.447 94.8381 40.75C93.3608 40.0455 92.2131 39.053 91.3949 37.7727C90.5767 36.4848 90.1676 34.9735 90.1676 33.2386V18.2273H95.7926V32.75C95.7926 33.553 95.9669 34.2689 96.3153 34.8977C96.6714 35.5265 97.1676 36.0189 97.804 36.375C98.4403 36.7311 99.179 36.9091 100.02 36.9091C100.861 36.9091 101.596 36.7311 102.224 36.375C102.861 36.0189 103.357 35.5265 103.713 34.8977C104.069 34.2689 104.247 33.553 104.247 32.75V18.2273ZM113.386 48.0455V24.0455H118.886V27.0341H119.057C119.284 26.5038 119.606 25.9924 120.023 25.5C120.447 25.0076 120.985 24.6061 121.636 24.2955C122.295 23.9773 123.083 23.8182 124 23.8182C125.212 23.8182 126.345 24.1364 127.398 24.7727C128.458 25.4091 129.314 26.3902 129.966 27.7159C130.617 29.0417 130.943 30.7311 130.943 32.7841C130.943 34.7614 130.629 36.4167 130 37.75C129.379 39.0833 128.538 40.0833 127.477 40.75C126.424 41.4167 125.254 41.75 123.966 41.75C123.087 41.75 122.326 41.6061 121.682 41.3182C121.038 41.0303 120.496 40.6515 120.057 40.1818C119.625 39.7121 119.292 39.2083 119.057 38.6705H118.943V48.0455H113.386ZM118.83 32.7727C118.83 33.7121 118.955 34.5303 119.205 35.2273C119.462 35.9242 119.83 36.4659 120.307 36.8523C120.792 37.2311 121.371 37.4205 122.045 37.4205C122.727 37.4205 123.307 37.2311 123.784 36.8523C124.261 36.4659 124.621 35.9242 124.864 35.2273C125.114 34.5303 125.239 33.7121 125.239 32.7727C125.239 31.8333 125.114 31.0189 124.864 30.3295C124.621 29.6402 124.261 29.1061 123.784 28.7273C123.314 28.3485 122.735 28.1591 122.045 28.1591C121.364 28.1591 120.784 28.3447 120.307 28.7159C119.83 29.0871 119.462 29.6174 119.205 30.3068C118.955 30.9962 118.83 31.8182 118.83 32.7727Z" fill="white"/>
</svg>
