<svg width="98" height="12" viewBox="0 0 98 12" fill="none" xmlns="http://www.w3.org/2000/svg">
<path d="M0.616477 2.14062V0.818182H8.49645V2.14062H5.3196V11H3.78835V2.14062H0.616477ZM12.2276 11.1541C11.5117 11.1541 10.887 10.9901 10.3533 10.6619C9.81972 10.3338 9.40542 9.87476 9.11044 9.2848C8.81546 8.69484 8.66797 8.00544 8.66797 7.21662C8.66797 6.42448 8.81546 5.73177 9.11044 5.13849C9.40542 4.54522 9.81972 4.08452 10.3533 3.75639C10.887 3.42827 11.5117 3.2642 12.2276 3.2642C12.9435 3.2642 13.5683 3.42827 14.1019 3.75639C14.6355 4.08452 15.0498 4.54522 15.3448 5.13849C15.6398 5.73177 15.7873 6.42448 15.7873 7.21662C15.7873 8.00544 15.6398 8.69484 15.3448 9.2848C15.0498 9.87476 14.6355 10.3338 14.1019 10.6619C13.5683 10.9901 12.9435 11.1541 12.2276 11.1541ZM12.2326 9.90625C12.6966 9.90625 13.0811 9.78362 13.386 9.53835C13.6909 9.29309 13.9163 8.96662 14.0621 8.55895C14.2113 8.15128 14.2859 7.70218 14.2859 7.21165C14.2859 6.72443 14.2113 6.27699 14.0621 5.86932C13.9163 5.45833 13.6909 5.12855 13.386 4.87997C13.0811 4.63139 12.6966 4.5071 12.2326 4.5071C11.7653 4.5071 11.3775 4.63139 11.0692 4.87997C10.7643 5.12855 10.5373 5.45833 10.3881 5.86932C10.2423 6.27699 10.1694 6.72443 10.1694 7.21165C10.1694 7.70218 10.2423 8.15128 10.3881 8.55895C10.5373 8.96662 10.7643 9.29309 11.0692 9.53835C11.3775 9.78362 11.7653 9.90625 12.2326 9.90625ZM21.271 11V0.818182H22.7575V4.60156H22.8469C22.9331 4.44247 23.0574 4.25852 23.2198 4.04972C23.3822 3.84091 23.6076 3.65862 23.896 3.50284C24.1843 3.34375 24.5655 3.2642 25.0394 3.2642C25.6559 3.2642 26.2061 3.41998 26.69 3.73153C27.1739 4.04309 27.5534 4.49219 27.8285 5.07884C28.1069 5.66548 28.2461 6.37145 28.2461 7.19673C28.2461 8.02202 28.1085 8.72964 27.8335 9.3196C27.5584 9.90625 27.1805 10.3587 26.6999 10.6768C26.2193 10.9917 25.6708 11.1491 25.0543 11.1491C24.5903 11.1491 24.2108 11.0713 23.9158 10.9155C23.6242 10.7597 23.3955 10.5774 23.2298 10.3686C23.064 10.1598 22.9364 9.9742 22.8469 9.81179H22.7227V11H21.271ZM22.7276 7.18182C22.7276 7.71875 22.8055 8.18939 22.9613 8.59375C23.1171 8.99811 23.3424 9.31463 23.6374 9.54332C23.9324 9.7687 24.2937 9.88139 24.7212 9.88139C25.1654 9.88139 25.5366 9.76373 25.8349 9.52841C26.1332 9.28977 26.3585 8.96662 26.511 8.55895C26.6668 8.15128 26.7447 7.69223 26.7447 7.18182C26.7447 6.67803 26.6684 6.22562 26.516 5.82457C26.3668 5.42353 26.1415 5.10701 25.8398 4.875C25.5415 4.64299 25.1687 4.52699 24.7212 4.52699C24.2904 4.52699 23.9258 4.63802 23.6275 4.86009C23.3325 5.08215 23.1088 5.39205 22.9563 5.78977C22.8039 6.1875 22.7276 6.65151 22.7276 7.18182ZM33.2065 11.1541C32.4541 11.1541 31.8062 10.9934 31.2626 10.6719C30.7224 10.3471 30.3047 9.89134 30.0098 9.30469C29.7181 8.71473 29.5723 8.02367 29.5723 7.23153C29.5723 6.44934 29.7181 5.75994 30.0098 5.16335C30.3047 4.56676 30.7157 4.10109 31.2427 3.76633C31.773 3.43158 32.3928 3.2642 33.1021 3.2642C33.533 3.2642 33.9506 3.33546 34.3549 3.47798C34.7593 3.6205 35.1222 3.84422 35.4437 4.14915C35.7652 4.45407 36.0188 4.85014 36.2044 5.33736C36.39 5.82126 36.4828 6.40956 36.4828 7.10227V7.62926H30.4125V6.51562H35.0261C35.0261 6.12453 34.9466 5.77817 34.7875 5.47656C34.6284 5.17164 34.4047 4.93134 34.1163 4.75568C33.8313 4.58002 33.4965 4.49219 33.112 4.49219C32.6944 4.49219 32.3298 4.59493 32.0183 4.80043C31.71 5.0026 31.4714 5.26776 31.3024 5.59588C31.1367 5.92069 31.0538 6.27367 31.0538 6.65483V7.52486C31.0538 8.03527 31.1433 8.46946 31.3223 8.82741C31.5046 9.18537 31.7581 9.45881 32.0829 9.64773C32.4077 9.83333 32.7872 9.92614 33.2214 9.92614C33.5031 9.92614 33.76 9.88636 33.992 9.80682C34.224 9.72396 34.4245 9.60133 34.5936 9.43892C34.7626 9.27652 34.8919 9.07599 34.9814 8.83736L36.3883 9.09091C36.2756 9.50521 36.0734 9.86813 35.7818 10.1797C35.4934 10.4879 35.1305 10.7282 34.693 10.9006C34.2588 11.0696 33.7633 11.1541 33.2065 11.1541ZM41.8372 11V3.36364H43.274V4.5767H43.3535C43.4927 4.16572 43.738 3.84257 44.0893 3.60724C44.444 3.36861 44.845 3.24929 45.2924 3.24929C45.3852 3.24929 45.4946 3.2526 45.6206 3.25923C45.7498 3.26586 45.8509 3.27415 45.9238 3.28409V4.70597C45.8642 4.68939 45.7581 4.67116 45.6056 4.65128C45.4532 4.62808 45.3007 4.61648 45.1483 4.61648C44.7969 4.61648 44.4837 4.69105 44.2086 4.8402C43.9368 4.98603 43.7214 5.18987 43.5623 5.4517C43.4032 5.71023 43.3237 6.00521 43.3237 6.33665V11H41.8372ZM50.228 11.1541C49.4756 11.1541 48.8277 10.9934 48.2841 10.6719C47.7438 10.3471 47.3262 9.89134 47.0312 9.30469C46.7396 8.71473 46.5938 8.02367 46.5938 7.23153C46.5938 6.44934 46.7396 5.75994 47.0312 5.16335C47.3262 4.56676 47.7372 4.10109 48.2642 3.76633C48.7945 3.43158 49.4143 3.2642 50.1236 3.2642C50.5545 3.2642 50.9721 3.33546 51.3764 3.47798C51.7808 3.6205 52.1437 3.84422 52.4652 4.14915C52.7867 4.45407 53.0402 4.85014 53.2259 5.33736C53.4115 5.82126 53.5043 6.40956 53.5043 7.10227V7.62926H47.4339V6.51562H52.0476C52.0476 6.12453 51.968 5.77817 51.8089 5.47656C51.6499 5.17164 51.4261 4.93134 51.1378 4.75568C50.8527 4.58002 50.518 4.49219 50.1335 4.49219C49.7159 4.49219 49.3513 4.59493 49.0398 4.80043C48.7315 5.0026 48.4929 5.26776 48.3239 5.59588C48.1581 5.92069 48.0753 6.27367 48.0753 6.65483V7.52486C48.0753 8.03527 48.1648 8.46946 48.3438 8.82741C48.526 9.18537 48.7796 9.45881 49.1044 9.64773C49.4292 9.83333 49.8087 9.92614 50.2429 9.92614C50.5246 9.92614 50.7815 9.88636 51.0135 9.80682C51.2455 9.72396 51.446 9.60133 51.6151 9.43892C51.7841 9.27652 51.9134 9.07599 52.0028 8.83736L53.4098 9.09091C53.2971 9.50521 53.0949 9.86813 52.8033 10.1797C52.5149 10.4879 52.152 10.7282 51.7145 10.9006C51.2803 11.0696 50.7848 11.1541 50.228 11.1541ZM58.3702 11.1541C57.6311 11.1541 56.9947 10.9867 56.4611 10.652C55.9308 10.3139 55.5231 9.84825 55.2381 9.25497C54.9531 8.66169 54.8105 7.98224 54.8105 7.21662C54.8105 6.44105 54.9564 5.75663 55.248 5.16335C55.5397 4.56676 55.9507 4.10109 56.481 3.76633C57.0113 3.43158 57.6361 3.2642 58.3553 3.2642C58.9353 3.2642 59.4524 3.37192 59.9064 3.58736C60.3605 3.79948 60.7267 4.09777 61.0051 4.48224C61.2869 4.86671 61.4542 5.31581 61.5073 5.82955H60.0605C59.981 5.47159 59.7987 5.16335 59.5137 4.90483C59.2319 4.64631 58.8541 4.51705 58.3801 4.51705C57.9659 4.51705 57.6029 4.62642 57.2914 4.84517C56.9831 5.06061 56.7428 5.36884 56.5705 5.76989C56.3981 6.16761 56.312 6.63826 56.312 7.18182C56.312 7.73864 56.3965 8.21922 56.5655 8.62358C56.7346 9.02794 56.9732 9.34115 57.2814 9.56321C57.593 9.78527 57.9592 9.89631 58.3801 9.89631C58.6619 9.89631 58.9171 9.84493 59.1458 9.74219C59.3778 9.63613 59.5717 9.48532 59.7275 9.28977C59.8865 9.09422 59.9976 8.8589 60.0605 8.58381H61.5073C61.4542 9.07765 61.2935 9.51847 61.025 9.90625C60.7566 10.294 60.397 10.599 59.9462 10.821C59.4988 11.0431 58.9734 11.1541 58.3702 11.1541ZM66.3881 11.1541C65.6358 11.1541 64.9878 10.9934 64.4442 10.6719C63.904 10.3471 63.4864 9.89134 63.1914 9.30469C62.8997 8.71473 62.7539 8.02367 62.7539 7.23153C62.7539 6.44934 62.8997 5.75994 63.1914 5.16335C63.4864 4.56676 63.8974 4.10109 64.4244 3.76633C64.9547 3.43158 65.5745 3.2642 66.2837 3.2642C66.7146 3.2642 67.1322 3.33546 67.5366 3.47798C67.9409 3.6205 68.3039 3.84422 68.6254 4.14915C68.9469 4.45407 69.2004 4.85014 69.386 5.33736C69.5716 5.82126 69.6644 6.40956 69.6644 7.10227V7.62926H63.5941V6.51562H68.2077C68.2077 6.12453 68.1282 5.77817 67.9691 5.47656C67.81 5.17164 67.5863 4.93134 67.2979 4.75568C67.0129 4.58002 66.6781 4.49219 66.2937 4.49219C65.8761 4.49219 65.5115 4.59493 65.1999 4.80043C64.8917 5.0026 64.6531 5.26776 64.484 5.59588C64.3183 5.92069 64.2354 6.27367 64.2354 6.65483V7.52486C64.2354 8.03527 64.3249 8.46946 64.5039 8.82741C64.6862 9.18537 64.9397 9.45881 65.2646 9.64773C65.5894 9.83333 65.9689 9.92614 66.4031 9.92614C66.6848 9.92614 66.9416 9.88636 67.1737 9.80682C67.4057 9.72396 67.6062 9.60133 67.7752 9.43892C67.9442 9.27652 68.0735 9.07599 68.163 8.83736L69.57 9.09091C69.4573 9.50521 69.2551 9.86813 68.9634 10.1797C68.6751 10.4879 68.3121 10.7282 67.8746 10.9006C67.4405 11.0696 66.945 11.1541 66.3881 11.1541ZM71.3137 11V3.36364H72.8002V11H71.3137ZM72.0645 2.18537C71.8059 2.18537 71.5839 2.09919 71.3983 1.92685C71.216 1.75118 71.1248 1.54238 71.1248 1.30043C71.1248 1.05516 71.216 0.846354 71.3983 0.674005C71.5839 0.498342 71.8059 0.410511 72.0645 0.410511C72.323 0.410511 72.5434 0.498342 72.7257 0.674005C72.9113 0.846354 73.0041 1.05516 73.0041 1.30043C73.0041 1.54238 72.9113 1.75118 72.7257 1.92685C72.5434 2.09919 72.323 2.18537 72.0645 2.18537ZM81.3327 3.36364L78.5636 11H76.9727L74.1985 3.36364H75.7944L77.7283 9.24006H77.8079L79.7369 3.36364H81.3327ZM85.7612 11.1541C85.0088 11.1541 84.3609 10.9934 83.8173 10.6719C83.277 10.3471 82.8594 9.89134 82.5645 9.30469C82.2728 8.71473 82.127 8.02367 82.127 7.23153C82.127 6.44934 82.2728 5.75994 82.5645 5.16335C82.8594 4.56676 83.2704 4.10109 83.7974 3.76633C84.3277 3.43158 84.9475 3.2642 85.6568 3.2642C86.0877 3.2642 86.5053 3.33546 86.9096 3.47798C87.314 3.6205 87.6769 3.84422 87.9984 4.14915C88.3199 4.45407 88.5734 4.85014 88.7591 5.33736C88.9447 5.82126 89.0375 6.40956 89.0375 7.10227V7.62926H82.9672V6.51562H87.5808C87.5808 6.12453 87.5012 5.77817 87.3422 5.47656C87.1831 5.17164 86.9593 4.93134 86.671 4.75568C86.3859 4.58002 86.0512 4.49219 85.6667 4.49219C85.2491 4.49219 84.8845 4.59493 84.573 4.80043C84.2647 5.0026 84.0261 5.26776 83.8571 5.59588C83.6913 5.92069 83.6085 6.27367 83.6085 6.65483V7.52486C83.6085 8.03527 83.698 8.46946 83.877 8.82741C84.0592 9.18537 84.3128 9.45881 84.6376 9.64773C84.9624 9.83333 85.3419 9.92614 85.7761 9.92614C86.0578 9.92614 86.3147 9.88636 86.5467 9.80682C86.7787 9.72396 86.9792 9.60133 87.1483 9.43892C87.3173 9.27652 87.4466 9.07599 87.536 8.83736L88.943 9.09091C88.8303 9.50521 88.6281 9.86813 88.3365 10.1797C88.0481 10.4879 87.6852 10.7282 87.2477 10.9006C86.8135 11.0696 86.318 11.1541 85.7612 11.1541ZM93.5455 11.1491C92.929 11.1491 92.3788 10.9917 91.8949 10.6768C91.4143 10.3587 91.0365 9.90625 90.7614 9.3196C90.4896 8.72964 90.3537 8.02202 90.3537 7.19673C90.3537 6.37145 90.4912 5.66548 90.7663 5.07884C91.0447 4.49219 91.4259 4.04309 91.9098 3.73153C92.3937 3.41998 92.9422 3.2642 93.5554 3.2642C94.0294 3.2642 94.4105 3.34375 94.6989 3.50284C94.9905 3.65862 95.2159 3.84091 95.375 4.04972C95.5374 4.25852 95.6634 4.44247 95.7528 4.60156H95.8423V0.818182H97.3288V11H95.8771V9.81179H95.7528C95.6634 9.9742 95.5341 10.1598 95.3651 10.3686C95.1993 10.5774 94.9706 10.7597 94.679 10.9155C94.3873 11.0713 94.0095 11.1491 93.5455 11.1491ZM93.8736 9.88139C94.3011 9.88139 94.6624 9.7687 94.9574 9.54332C95.2557 9.31463 95.4811 8.99811 95.6335 8.59375C95.7893 8.18939 95.8672 7.71875 95.8672 7.18182C95.8672 6.65151 95.791 6.1875 95.6385 5.78977C95.486 5.39205 95.2623 5.08215 94.9673 4.86009C94.6723 4.63802 94.3078 4.52699 93.8736 4.52699C93.4261 4.52699 93.0533 4.64299 92.755 4.875C92.4567 5.10701 92.2313 5.42353 92.0788 5.82457C91.9297 6.22562 91.8551 6.67803 91.8551 7.18182C91.8551 7.69223 91.9313 8.15128 92.0838 8.55895C92.2363 8.96662 92.4616 9.28977 92.7599 9.52841C93.0616 9.76373 93.4328 9.88139 93.8736 9.88139Z" fill="#444444"/>
</svg>
