<svg width="31" height="30" viewBox="0 0 31 30" fill="none" xmlns="http://www.w3.org/2000/svg">
<rect x="0.5" width="30" height="30" rx="4" fill="#ECEAFF"/>
<path d="M15.3119 2C12.8255 2 10.4409 2.98774 8.68307 4.74572C6.92487 6.50391 5.93713 8.88846 5.93713 11.3751C5.93713 16.375 14.487 25.7498 14.8497 26.1751C14.969 26.3038 15.1368 26.3762 15.3122 26.3752C15.4875 26.3762 15.6554 26.3038 15.7746 26.1751L16.5621 25.2813V25.7501C16.5621 26.0816 16.6939 26.3996 16.9283 26.634C17.1627 26.8684 17.4805 27 17.8122 27H25.3121C25.6436 27 25.9615 26.8684 26.1958 26.634C26.4304 26.3996 26.562 26.0816 26.562 25.7501V18.2502C26.562 17.9187 26.4304 17.6006 26.1958 17.3663C25.9615 17.1319 25.6436 17.0003 25.3121 17.0003H22.6683C24.0057 14.6877 24.6871 12.8004 24.6871 11.3753C24.6871 9.72968 24.2539 8.11297 23.4311 6.68787C22.6083 5.26262 21.4247 4.07924 19.9996 3.2564C18.5745 2.43355 16.9578 2.00043 15.3122 2.00043L15.3119 2ZM25.312 25.7495H17.8121V18.2496H19.687V20.7497C19.6877 20.9663 19.8005 21.1672 19.985 21.2804C20.1696 21.3938 20.3998 21.4034 20.5932 21.3059L21.5618 20.8246L22.5305 21.3059H22.5307C22.6178 21.3505 22.714 21.3741 22.812 21.3745C22.9289 21.3749 23.0438 21.3425 23.1432 21.2808C23.3263 21.1663 23.4374 20.9656 23.437 20.7497V18.2496H25.312L25.312 25.7495ZM22.1871 18.2496V19.7371L21.8745 19.5684C21.6976 19.4793 21.4888 19.4793 21.312 19.5684L20.9681 19.7371V18.2496H22.1871ZM20.3121 16.9997H17.8121C17.4804 16.9997 17.1625 17.1313 16.9282 17.3657C16.6938 17.6001 16.5619 17.9181 16.5619 18.2496V23.3495C16.0557 23.9746 15.6182 24.4682 15.312 24.8121C13.5308 22.7808 7.18695 15.2936 7.18695 11.3749C7.18695 8.472 8.73568 5.79014 11.2495 4.33837C13.7634 2.8866 16.8605 2.88692 19.3741 4.33837C21.8876 5.78981 23.4367 8.47189 23.4367 11.3749C23.4367 12.6811 22.6618 14.6249 21.2116 16.9998L20.3121 16.9997Z" fill="#817AF3" fill-opacity="0.6"/>
<path d="M15.3119 6.99988C14.1516 6.99988 13.0389 7.46088 12.2184 8.28118C11.3979 9.10168 10.9369 10.2146 10.9369 11.3749C10.9369 12.535 11.3979 13.6479 12.2184 14.4684C13.0389 15.2889 14.1516 15.7497 15.3119 15.7497C16.4723 15.7497 17.5849 15.2889 18.4054 14.4684C19.2259 13.6479 19.6869 12.535 19.6869 11.3749C19.6869 10.2146 19.2259 9.10168 18.4054 8.28118C17.5849 7.46091 16.4723 6.99988 15.3119 6.99988ZM15.3119 14.4998C14.483 14.4998 13.6882 14.1706 13.1023 13.5845C12.5162 12.9985 12.187 12.2036 12.187 11.3749C12.187 10.546 12.5162 9.75122 13.1023 9.1651C13.6883 8.57915 14.483 8.24979 15.3119 8.24979C16.1408 8.24979 16.9356 8.57917 17.5215 9.1651C18.1076 9.75122 18.4368 10.546 18.4368 11.3749C18.4368 12.2036 18.1076 12.9986 17.5215 13.5845C16.9355 14.1706 16.1408 14.4998 15.3119 14.4998Z" fill="#817AF3" fill-opacity="0.6"/>
</svg>
