<svg width="562" height="140" viewBox="0 0 562 140" fill="none" xmlns="http://www.w3.org/2000/svg">
<rect x="0.5" y="0.5" width="560.229" height="138.636" rx="9.5" stroke="#E5E5ED"/>
<ellipse cx="280.104" cy="38.2347" rx="17.6646" ry="19.3939" fill="#E9ECF5"/>
<path d="M287.097 34.5851C286.48 33.0291 285.415 31.7381 284.066 30.9099C282.717 30.0817 281.158 29.7619 279.628 29.9996C278.098 30.2373 276.68 31.0193 275.594 32.2259C274.507 33.4324 273.81 34.9969 273.611 36.6796C272.649 36.9327 271.804 37.5649 271.239 38.4563C270.673 39.3477 270.425 40.4362 270.542 41.515C270.659 42.5939 271.133 43.588 271.874 44.3085C272.614 45.029 273.57 45.4258 274.56 45.4235C274.828 45.4235 275.084 45.3068 275.274 45.0989C275.463 44.8911 275.569 44.6092 275.569 44.3153C275.569 44.0214 275.463 43.7395 275.274 43.5317C275.084 43.3238 274.828 43.2071 274.56 43.2071C274.024 43.2071 273.511 42.9735 273.132 42.5579C272.754 42.1422 272.541 41.5785 272.541 40.9906C272.541 40.4028 272.754 39.839 273.132 39.4233C273.511 39.0077 274.024 38.7742 274.56 38.7742C274.828 38.7742 275.084 38.6574 275.274 38.4496C275.463 38.2417 275.569 37.9599 275.569 37.6659C275.572 36.3552 275.997 35.0879 276.771 34.0892C277.544 33.0905 278.614 32.4251 279.792 32.2111C280.97 31.9971 282.179 32.2485 283.204 32.9205C284.229 33.5926 285.004 34.6418 285.391 35.8817C285.448 36.0721 285.552 36.2418 285.691 36.3726C285.829 36.5033 285.998 36.5903 286.178 36.6242C286.85 36.7637 287.46 37.1491 287.907 37.7175C288.355 38.286 288.613 39.004 288.641 39.7545C288.669 40.5051 288.465 41.244 288.062 41.8509C287.659 42.4577 287.08 42.8967 286.42 43.0962C286.161 43.1697 285.938 43.3534 285.802 43.607C285.666 43.8606 285.627 44.1632 285.694 44.4483C285.76 44.7334 285.928 44.9776 286.159 45.1273C286.39 45.2769 286.665 45.3197 286.925 45.2462C287.987 44.938 288.929 44.2576 289.607 43.3084C290.285 42.3592 290.662 41.193 290.682 39.9869C290.701 38.7807 290.362 37.6006 289.715 36.6257C289.067 35.6507 288.148 34.9343 287.097 34.5851ZM281.333 36.8791C281.237 36.7782 281.124 36.6991 281 36.6464C280.754 36.5355 280.478 36.5355 280.233 36.6464C280.109 36.6991 279.996 36.7782 279.9 36.8791L276.871 40.2038C276.681 40.4125 276.574 40.6955 276.574 40.9906C276.574 41.2857 276.681 41.5688 276.871 41.7775C277.061 41.9861 277.319 42.1034 277.588 42.1034C277.857 42.1034 278.115 41.9861 278.305 41.7775L279.607 40.3368V46.5317C279.607 46.8257 279.713 47.1075 279.902 47.3154C280.092 47.5232 280.349 47.64 280.616 47.64C280.884 47.64 281.141 47.5232 281.33 47.3154C281.519 47.1075 281.626 46.8257 281.626 46.5317V40.3368L282.928 41.7775C283.022 41.8813 283.133 41.9638 283.256 42.02C283.379 42.0763 283.511 42.1053 283.644 42.1053C283.778 42.1053 283.91 42.0763 284.033 42.02C284.156 41.9638 284.267 41.8813 284.361 41.7775C284.456 41.6744 284.531 41.5519 284.582 41.4168C284.633 41.2818 284.66 41.1369 284.66 40.9906C284.66 40.8443 284.633 40.6995 284.582 40.5644C284.531 40.4294 284.456 40.3068 284.361 40.2038L281.333 36.8791Z" fill="#232360"/>
<path d="M185.8 91.7327C184.916 91.7327 184.149 91.5377 183.499 91.1477C182.858 90.749 182.359 90.1987 182.004 89.4967C181.657 88.786 181.484 87.9627 181.484 87.0267C181.484 86.0993 181.657 85.2803 182.004 84.5697C182.359 83.859 182.858 83.3087 183.499 82.9187C184.149 82.52 184.916 82.3207 185.8 82.3207C186.857 82.3207 187.715 82.5763 188.374 83.0877C189.041 83.599 189.466 84.3183 189.648 85.2457H188.218C188.088 84.7083 187.819 84.2793 187.412 83.9587C187.013 83.638 186.476 83.4777 185.8 83.4777C185.185 83.4777 184.652 83.6207 184.201 83.9067C183.759 84.1927 183.417 84.6 183.174 85.1287C182.931 85.6573 182.81 86.29 182.81 87.0267C182.81 87.7633 182.931 88.4003 183.174 88.9377C183.417 89.4663 183.759 89.8737 184.201 90.1597C184.652 90.437 185.185 90.5757 185.8 90.5757C186.476 90.5757 187.013 90.424 187.412 90.1207C187.819 89.8087 188.088 89.3883 188.218 88.8597H189.648C189.466 89.761 189.041 90.4673 188.374 90.9787C187.715 91.4813 186.857 91.7327 185.8 91.7327ZM191.152 91.5767V82.2167H192.452V91.5767H191.152ZM194.34 91.5767V84.9727H195.64V91.5767H194.34ZM194.99 83.7507C194.739 83.7507 194.531 83.6727 194.366 83.5167C194.21 83.3607 194.132 83.1613 194.132 82.9187C194.132 82.6847 194.21 82.494 194.366 82.3467C194.531 82.1907 194.739 82.1127 194.99 82.1127C195.233 82.1127 195.437 82.1907 195.601 82.3467C195.766 82.494 195.848 82.6847 195.848 82.9187C195.848 83.1613 195.766 83.3607 195.601 83.5167C195.437 83.6727 195.233 83.7507 194.99 83.7507ZM200.528 91.7327C199.904 91.7327 199.341 91.5897 198.838 91.3037C198.344 91.009 197.954 90.6017 197.668 90.0817C197.391 89.5617 197.252 88.9637 197.252 88.2877C197.252 87.5943 197.391 86.9877 197.668 86.4677C197.954 85.9477 198.344 85.5447 198.838 85.2587C199.341 84.964 199.909 84.8167 200.541 84.8167C201.33 84.8167 201.993 85.0247 202.53 85.4407C203.068 85.8567 203.41 86.42 203.557 87.1307H202.205C202.119 86.7493 201.919 86.4547 201.607 86.2467C201.304 86.0387 200.94 85.9347 200.515 85.9347C200.16 85.9347 199.835 86.0257 199.54 86.2077C199.254 86.381 199.02 86.641 198.838 86.9877C198.665 87.3343 198.578 87.7633 198.578 88.2747C198.578 88.656 198.63 88.994 198.734 89.2887C198.838 89.5833 198.977 89.8303 199.15 90.0297C199.324 90.229 199.527 90.3807 199.761 90.4847C200.004 90.58 200.255 90.6277 200.515 90.6277C200.801 90.6277 201.057 90.58 201.282 90.4847C201.516 90.3893 201.716 90.2507 201.88 90.0687C202.045 89.8867 202.153 89.67 202.205 89.4187H203.557C203.419 90.112 203.076 90.671 202.53 91.0957C201.993 91.5203 201.326 91.7327 200.528 91.7327ZM209.212 91.5767L206.196 87.9757L208.952 84.9727H210.525L207.249 88.4697L207.262 87.4947L210.85 91.5767H209.212ZM205.104 91.5767V82.2167H206.404V91.5767H205.104ZM218.015 91.5767C217.608 91.5767 217.252 91.5117 216.949 91.3817C216.646 91.2517 216.412 91.035 216.247 90.7317C216.082 90.4283 216 90.0167 216 89.4967V86.0647H214.856V84.9727H216L216.156 83.2957H217.3V84.9727H219.159V86.0647H217.3V89.5097C217.3 89.8823 217.374 90.138 217.521 90.2767C217.677 90.4067 217.95 90.4717 218.34 90.4717H219.107V91.5767H218.015ZM223.417 91.7327C222.802 91.7327 222.247 91.5897 221.753 91.3037C221.268 91.0177 220.882 90.6147 220.596 90.0947C220.319 89.5747 220.18 88.968 220.18 88.2747C220.18 87.5813 220.323 86.9747 220.609 86.4547C220.895 85.9347 221.285 85.5317 221.779 85.2457C222.273 84.9597 222.828 84.8167 223.443 84.8167C224.067 84.8167 224.622 84.9597 225.107 85.2457C225.601 85.5317 225.987 85.9347 226.264 86.4547C226.55 86.9747 226.693 87.5813 226.693 88.2747C226.693 88.968 226.55 89.5747 226.264 90.0947C225.978 90.6147 225.588 91.0177 225.094 91.3037C224.609 91.5897 224.05 91.7327 223.417 91.7327ZM223.43 90.6147C223.785 90.6147 224.106 90.528 224.392 90.3547C224.687 90.1813 224.921 89.9213 225.094 89.5747C225.276 89.2193 225.367 88.786 225.367 88.2747C225.367 87.7547 225.28 87.3213 225.107 86.9747C224.934 86.628 224.7 86.368 224.405 86.1947C224.119 86.0213 223.798 85.9347 223.443 85.9347C223.096 85.9347 222.776 86.0213 222.481 86.1947C222.186 86.368 221.948 86.628 221.766 86.9747C221.593 87.3213 221.506 87.7547 221.506 88.2747C221.506 88.786 221.593 89.2193 221.766 89.5747C221.948 89.9213 222.182 90.1813 222.468 90.3547C222.763 90.528 223.083 90.6147 223.43 90.6147ZM233.979 91.7327C233.468 91.7327 233.021 91.633 232.64 91.4337C232.267 91.2257 231.977 90.9137 231.769 90.4977C231.57 90.0817 231.47 89.566 231.47 88.9507V84.9727H232.77V88.8077C232.77 89.4143 232.904 89.8693 233.173 90.1727C233.442 90.476 233.827 90.6277 234.33 90.6277C234.668 90.6277 234.971 90.5497 235.24 90.3937C235.509 90.229 235.721 89.995 235.877 89.6917C236.033 89.3797 236.111 89.0027 236.111 88.5607V84.9727H237.411V91.5767H236.254L236.163 90.4717C235.964 90.8617 235.673 91.1693 235.292 91.3947C234.911 91.62 234.473 91.7327 233.979 91.7327ZM239.204 94.4367V84.9727H240.374L240.491 85.9867C240.629 85.7787 240.803 85.588 241.011 85.4147C241.219 85.2327 241.466 85.0897 241.752 84.9857C242.046 84.873 242.384 84.8167 242.766 84.8167C243.398 84.8167 243.949 84.9683 244.417 85.2717C244.885 85.575 245.249 85.9867 245.509 86.5067C245.777 87.0267 245.912 87.6203 245.912 88.2877C245.912 88.9463 245.777 89.5357 245.509 90.0557C245.24 90.5757 244.867 90.9873 244.391 91.2907C243.923 91.5853 243.381 91.7327 242.766 91.7327C242.254 91.7327 241.804 91.633 241.414 91.4337C241.024 91.2257 240.72 90.9397 240.504 90.5757V94.4367H239.204ZM242.545 90.6017C242.943 90.6017 243.294 90.5063 243.598 90.3157C243.91 90.125 244.152 89.8563 244.326 89.5097C244.499 89.1543 244.586 88.7427 244.586 88.2747C244.586 87.8067 244.499 87.3993 244.326 87.0527C244.152 86.706 243.91 86.4373 243.598 86.2467C243.294 86.0473 242.943 85.9477 242.545 85.9477C242.146 85.9477 241.791 86.0473 241.479 86.2467C241.175 86.4373 240.937 86.706 240.764 87.0527C240.59 87.3993 240.504 87.8067 240.504 88.2747C240.504 88.7427 240.59 89.1543 240.764 89.5097C240.937 89.8563 241.175 90.125 241.479 90.3157C241.791 90.5063 242.146 90.6017 242.545 90.6017ZM247.456 91.5767V82.2167H248.756V91.5767H247.456ZM253.53 91.7327C252.915 91.7327 252.36 91.5897 251.866 91.3037C251.381 91.0177 250.995 90.6147 250.709 90.0947C250.432 89.5747 250.293 88.968 250.293 88.2747C250.293 87.5813 250.436 86.9747 250.722 86.4547C251.008 85.9347 251.398 85.5317 251.892 85.2457C252.386 84.9597 252.941 84.8167 253.556 84.8167C254.18 84.8167 254.735 84.9597 255.22 85.2457C255.714 85.5317 256.1 85.9347 256.377 86.4547C256.663 86.9747 256.806 87.5813 256.806 88.2747C256.806 88.968 256.663 89.5747 256.377 90.0947C256.091 90.6147 255.701 91.0177 255.207 91.3037C254.722 91.5897 254.163 91.7327 253.53 91.7327ZM253.543 90.6147C253.899 90.6147 254.219 90.528 254.505 90.3547C254.8 90.1813 255.034 89.9213 255.207 89.5747C255.389 89.2193 255.48 88.786 255.48 88.2747C255.48 87.7547 255.394 87.3213 255.22 86.9747C255.047 86.628 254.813 86.368 254.518 86.1947C254.232 86.0213 253.912 85.9347 253.556 85.9347C253.21 85.9347 252.889 86.0213 252.594 86.1947C252.3 86.368 252.061 86.628 251.879 86.9747C251.706 87.3213 251.619 87.7547 251.619 88.2747C251.619 88.786 251.706 89.2193 251.879 89.5747C252.061 89.9213 252.295 90.1813 252.581 90.3547C252.876 90.528 253.197 90.6147 253.543 90.6147ZM260.493 91.7327C259.956 91.7327 259.51 91.6417 259.154 91.4597C258.808 91.269 258.548 91.022 258.374 90.7187C258.201 90.4067 258.114 90.0687 258.114 89.7047C258.114 89.2713 258.223 88.903 258.439 88.5997C258.665 88.2877 258.985 88.0493 259.401 87.8847C259.826 87.72 260.329 87.6377 260.909 87.6377H262.599C262.599 87.2477 262.543 86.927 262.43 86.6757C262.326 86.4157 262.162 86.2207 261.936 86.0907C261.72 85.9607 261.438 85.8957 261.091 85.8957C260.71 85.8957 260.381 85.991 260.103 86.1817C259.835 86.3637 259.666 86.6367 259.596 87.0007H258.296C258.348 86.5327 258.504 86.1383 258.764 85.8177C259.024 85.497 259.358 85.25 259.765 85.0767C260.181 84.9033 260.628 84.8167 261.104 84.8167C261.711 84.8167 262.222 84.925 262.638 85.1417C263.054 85.3583 263.366 85.666 263.574 86.0647C263.791 86.4547 263.899 86.9183 263.899 87.4557V91.5767H262.768L262.651 90.4587C262.565 90.6407 262.452 90.8097 262.313 90.9657C262.183 91.1217 262.032 91.256 261.858 91.3687C261.685 91.4813 261.481 91.568 261.247 91.6287C261.022 91.698 260.771 91.7327 260.493 91.7327ZM260.74 90.6797C261.018 90.6797 261.265 90.6233 261.481 90.5107C261.707 90.3893 261.897 90.2333 262.053 90.0427C262.218 89.8433 262.344 89.6223 262.43 89.3797C262.517 89.1283 262.565 88.8683 262.573 88.5997V88.5607H261.026C260.662 88.5607 260.363 88.6083 260.129 88.7037C259.904 88.7903 259.739 88.916 259.635 89.0807C259.531 89.2367 259.479 89.4187 259.479 89.6267C259.479 89.8433 259.527 90.0297 259.622 90.1857C259.726 90.3417 259.869 90.463 260.051 90.5497C260.242 90.6363 260.472 90.6797 260.74 90.6797ZM268.483 91.7327C267.859 91.7327 267.309 91.5853 266.832 91.2907C266.364 90.9873 265.996 90.5757 265.727 90.0557C265.467 89.527 265.337 88.9333 265.337 88.2747C265.337 87.6073 265.467 87.0137 265.727 86.4937C265.996 85.9737 266.368 85.5663 266.845 85.2717C267.33 84.9683 267.885 84.8167 268.509 84.8167C269.02 84.8167 269.467 84.9207 269.848 85.1287C270.238 85.328 270.541 85.6097 270.758 85.9737V82.2167H272.058V91.5767H270.888L270.758 90.5497C270.628 90.7577 270.459 90.9527 270.251 91.1347C270.043 91.308 269.792 91.451 269.497 91.5637C269.202 91.6763 268.864 91.7327 268.483 91.7327ZM268.704 90.6017C269.111 90.6017 269.467 90.5063 269.77 90.3157C270.082 90.1163 270.32 89.8433 270.485 89.4967C270.658 89.15 270.745 88.7427 270.745 88.2747C270.745 87.8067 270.658 87.3993 270.485 87.0527C270.32 86.6973 270.082 86.4243 269.77 86.2337C269.467 86.043 269.111 85.9477 268.704 85.9477C268.314 85.9477 267.963 86.043 267.651 86.2337C267.339 86.4243 267.096 86.6973 266.923 87.0527C266.75 87.3993 266.663 87.8067 266.663 88.2747C266.663 88.7427 266.75 89.15 266.923 89.4967C267.096 89.8433 267.339 90.1163 267.651 90.3157C267.963 90.5063 268.314 90.6017 268.704 90.6017ZM280.165 91.7327C279.55 91.7327 278.995 91.5897 278.501 91.3037C278.016 91.0177 277.63 90.6147 277.344 90.0947C277.067 89.5747 276.928 88.968 276.928 88.2747C276.928 87.5813 277.071 86.9747 277.357 86.4547C277.643 85.9347 278.033 85.5317 278.527 85.2457C279.021 84.9597 279.576 84.8167 280.191 84.8167C280.815 84.8167 281.37 84.9597 281.855 85.2457C282.349 85.5317 282.735 85.9347 283.012 86.4547C283.298 86.9747 283.441 87.5813 283.441 88.2747C283.441 88.968 283.298 89.5747 283.012 90.0947C282.726 90.6147 282.336 91.0177 281.842 91.3037C281.357 91.5897 280.798 91.7327 280.165 91.7327ZM280.178 90.6147C280.533 90.6147 280.854 90.528 281.14 90.3547C281.435 90.1813 281.669 89.9213 281.842 89.5747C282.024 89.2193 282.115 88.786 282.115 88.2747C282.115 87.7547 282.028 87.3213 281.855 86.9747C281.682 86.628 281.448 86.368 281.153 86.1947C280.867 86.0213 280.546 85.9347 280.191 85.9347C279.844 85.9347 279.524 86.0213 279.229 86.1947C278.934 86.368 278.696 86.628 278.514 86.9747C278.341 87.3213 278.254 87.7547 278.254 88.2747C278.254 88.786 278.341 89.2193 278.514 89.5747C278.696 89.9213 278.93 90.1813 279.216 90.3547C279.511 90.528 279.831 90.6147 280.178 90.6147ZM284.97 91.5767V84.9727H286.14L286.244 86.2077C286.4 85.913 286.595 85.6617 286.829 85.4537C287.063 85.2457 287.345 85.0897 287.674 84.9857C288.004 84.873 288.372 84.8167 288.779 84.8167V86.1817H288.259C287.991 86.1817 287.735 86.2163 287.492 86.2857C287.25 86.355 287.037 86.4677 286.855 86.6237C286.673 86.771 286.53 86.979 286.426 87.2477C286.322 87.5077 286.27 87.837 286.27 88.2357V91.5767H284.97ZM296.21 91.7327C295.586 91.7327 295.035 91.5853 294.559 91.2907C294.091 90.9873 293.722 90.5757 293.454 90.0557C293.194 89.527 293.064 88.9333 293.064 88.2747C293.064 87.6073 293.194 87.0137 293.454 86.4937C293.722 85.9737 294.095 85.5663 294.572 85.2717C295.057 84.9683 295.612 84.8167 296.236 84.8167C296.747 84.8167 297.193 84.9207 297.575 85.1287C297.965 85.328 298.268 85.6097 298.485 85.9737V82.2167H299.785V91.5767H298.615L298.485 90.5497C298.355 90.7577 298.186 90.9527 297.978 91.1347C297.77 91.308 297.518 91.451 297.224 91.5637C296.929 91.6763 296.591 91.7327 296.21 91.7327ZM296.431 90.6017C296.838 90.6017 297.193 90.5063 297.497 90.3157C297.809 90.1163 298.047 89.8433 298.212 89.4967C298.385 89.15 298.472 88.7427 298.472 88.2747C298.472 87.8067 298.385 87.3993 298.212 87.0527C298.047 86.6973 297.809 86.4243 297.497 86.2337C297.193 86.043 296.838 85.9477 296.431 85.9477C296.041 85.9477 295.69 86.043 295.378 86.2337C295.066 86.4243 294.823 86.6973 294.65 87.0527C294.476 87.3993 294.39 87.8067 294.39 88.2747C294.39 88.7427 294.476 89.15 294.65 89.4967C294.823 89.8433 295.066 90.1163 295.378 90.3157C295.69 90.5063 296.041 90.6017 296.431 90.6017ZM301.576 91.5767V84.9727H302.746L302.85 86.2077C303.006 85.913 303.201 85.6617 303.435 85.4537C303.669 85.2457 303.95 85.0897 304.28 84.9857C304.609 84.873 304.977 84.8167 305.385 84.8167V86.1817H304.865C304.596 86.1817 304.34 86.2163 304.098 86.2857C303.855 86.355 303.643 86.4677 303.461 86.6237C303.279 86.771 303.136 86.979 303.032 87.2477C302.928 87.5077 302.876 87.837 302.876 88.2357V91.5767H301.576ZM308.748 91.7327C308.211 91.7327 307.765 91.6417 307.409 91.4597C307.063 91.269 306.803 91.022 306.629 90.7187C306.456 90.4067 306.369 90.0687 306.369 89.7047C306.369 89.2713 306.478 88.903 306.694 88.5997C306.92 88.2877 307.24 88.0493 307.656 87.8847C308.081 87.72 308.584 87.6377 309.164 87.6377H310.854C310.854 87.2477 310.798 86.927 310.685 86.6757C310.581 86.4157 310.417 86.2207 310.191 86.0907C309.975 85.9607 309.693 85.8957 309.346 85.8957C308.965 85.8957 308.636 85.991 308.358 86.1817C308.09 86.3637 307.921 86.6367 307.851 87.0007H306.551C306.603 86.5327 306.759 86.1383 307.019 85.8177C307.279 85.497 307.613 85.25 308.02 85.0767C308.436 84.9033 308.883 84.8167 309.359 84.8167C309.966 84.8167 310.477 84.925 310.893 85.1417C311.309 85.3583 311.621 85.666 311.829 86.0647C312.046 86.4547 312.154 86.9183 312.154 87.4557V91.5767H311.023L310.906 90.4587C310.82 90.6407 310.707 90.8097 310.568 90.9657C310.438 91.1217 310.287 91.256 310.113 91.3687C309.94 91.4813 309.736 91.568 309.502 91.6287C309.277 91.698 309.026 91.7327 308.748 91.7327ZM308.995 90.6797C309.273 90.6797 309.52 90.6233 309.736 90.5107C309.962 90.3893 310.152 90.2333 310.308 90.0427C310.473 89.8433 310.599 89.6223 310.685 89.3797C310.772 89.1283 310.82 88.8683 310.828 88.5997V88.5607H309.281C308.917 88.5607 308.618 88.6083 308.384 88.7037C308.159 88.7903 307.994 88.916 307.89 89.0807C307.786 89.2367 307.734 89.4187 307.734 89.6267C307.734 89.8433 307.782 90.0297 307.877 90.1857C307.981 90.3417 308.124 90.463 308.306 90.5497C308.497 90.6363 308.727 90.6797 308.995 90.6797ZM316.53 94.5927C315.923 94.5927 315.39 94.5147 314.931 94.3587C314.472 94.2113 314.112 93.9817 313.852 93.6697C313.601 93.3577 313.475 92.9763 313.475 92.5257C313.475 92.283 313.527 92.0403 313.631 91.7977C313.735 91.5637 313.904 91.3383 314.138 91.1217C314.372 90.905 314.688 90.71 315.087 90.5367L315.828 91.1217C315.386 91.2863 315.087 91.4857 314.931 91.7197C314.775 91.9537 314.697 92.179 314.697 92.3957C314.697 92.6557 314.775 92.8723 314.931 93.0457C315.087 93.219 315.304 93.349 315.581 93.4357C315.858 93.5223 316.17 93.5657 316.517 93.5657C316.864 93.5657 317.163 93.518 317.414 93.4227C317.665 93.3273 317.86 93.193 317.999 93.0197C318.138 92.8463 318.207 92.6427 318.207 92.4087C318.207 92.1227 318.103 91.8843 317.895 91.6937C317.687 91.5117 317.288 91.4033 316.699 91.3687C316.196 91.334 315.772 91.2863 315.425 91.2257C315.078 91.165 314.788 91.0913 314.554 91.0047C314.32 90.918 314.121 90.8227 313.956 90.7187C313.8 90.6147 313.661 90.5063 313.54 90.3937V90.0947L314.853 88.7687L315.906 89.1197L314.476 90.4327L314.749 89.8347C314.844 89.904 314.935 89.969 315.022 90.0297C315.117 90.0817 315.234 90.1293 315.373 90.1727C315.52 90.216 315.72 90.255 315.971 90.2897C316.231 90.3243 316.569 90.359 316.985 90.3937C317.574 90.437 318.051 90.541 318.415 90.7057C318.779 90.8703 319.043 91.0913 319.208 91.3687C319.373 91.646 319.455 91.9797 319.455 92.3697C319.455 92.751 319.351 93.1063 319.143 93.4357C318.935 93.7737 318.614 94.051 318.181 94.2677C317.756 94.4843 317.206 94.5927 316.53 94.5927ZM316.517 89.5487C315.971 89.5487 315.503 89.4447 315.113 89.2367C314.723 89.02 314.424 88.734 314.216 88.3787C314.017 88.0233 313.917 87.6247 313.917 87.1827C313.917 86.7407 314.021 86.342 314.229 85.9867C314.437 85.6313 314.732 85.3497 315.113 85.1417C315.503 84.925 315.971 84.8167 316.517 84.8167C317.072 84.8167 317.54 84.925 317.921 85.1417C318.311 85.3497 318.606 85.6313 318.805 85.9867C319.013 86.342 319.117 86.7407 319.117 87.1827C319.117 87.6247 319.013 88.0233 318.805 88.3787C318.606 88.734 318.311 89.02 317.921 89.2367C317.54 89.4447 317.072 89.5487 316.517 89.5487ZM316.517 88.5087C316.95 88.5087 317.288 88.396 317.531 88.1707C317.782 87.9453 317.908 87.616 317.908 87.1827C317.908 86.7493 317.782 86.4243 317.531 86.2077C317.288 85.9823 316.95 85.8697 316.517 85.8697C316.101 85.8697 315.759 85.9823 315.49 86.2077C315.23 86.4243 315.1 86.7493 315.1 87.1827C315.1 87.616 315.23 87.9453 315.49 88.1707C315.75 88.396 316.092 88.5087 316.517 88.5087ZM317.609 85.9997L317.297 84.9727H319.975V85.8567L317.609 85.9997ZM326.788 91.7327C326.251 91.7327 325.805 91.6417 325.449 91.4597C325.103 91.269 324.843 91.022 324.669 90.7187C324.496 90.4067 324.409 90.0687 324.409 89.7047C324.409 89.2713 324.518 88.903 324.734 88.5997C324.96 88.2877 325.28 88.0493 325.696 87.8847C326.121 87.72 326.624 87.6377 327.204 87.6377H328.894C328.894 87.2477 328.838 86.927 328.725 86.6757C328.621 86.4157 328.457 86.2207 328.231 86.0907C328.015 85.9607 327.733 85.8957 327.386 85.8957C327.005 85.8957 326.676 85.991 326.398 86.1817C326.13 86.3637 325.961 86.6367 325.891 87.0007H324.591C324.643 86.5327 324.799 86.1383 325.059 85.8177C325.319 85.497 325.653 85.25 326.06 85.0767C326.476 84.9033 326.923 84.8167 327.399 84.8167C328.006 84.8167 328.517 84.925 328.933 85.1417C329.349 85.3583 329.661 85.666 329.869 86.0647C330.086 86.4547 330.194 86.9183 330.194 87.4557V91.5767H329.063L328.946 90.4587C328.86 90.6407 328.747 90.8097 328.608 90.9657C328.478 91.1217 328.327 91.256 328.153 91.3687C327.98 91.4813 327.776 91.568 327.542 91.6287C327.317 91.698 327.066 91.7327 326.788 91.7327ZM327.035 90.6797C327.313 90.6797 327.56 90.6233 327.776 90.5107C328.002 90.3893 328.192 90.2333 328.348 90.0427C328.513 89.8433 328.639 89.6223 328.725 89.3797C328.812 89.1283 328.86 88.8683 328.868 88.5997V88.5607H327.321C326.957 88.5607 326.658 88.6083 326.424 88.7037C326.199 88.7903 326.034 88.916 325.93 89.0807C325.826 89.2367 325.774 89.4187 325.774 89.6267C325.774 89.8433 325.822 90.0297 325.917 90.1857C326.021 90.3417 326.164 90.463 326.346 90.5497C326.537 90.6363 326.767 90.6797 327.035 90.6797ZM331.892 91.5767V84.9727H333.049L333.127 86.0777C333.335 85.6877 333.625 85.38 333.998 85.1547C334.379 84.9293 334.821 84.8167 335.324 84.8167C335.844 84.8167 336.29 84.9207 336.663 85.1287C337.036 85.328 337.322 85.6357 337.521 86.0517C337.729 86.4677 337.833 86.9877 337.833 87.6117V91.5767H336.533V87.7417C336.533 87.1437 336.399 86.693 336.13 86.3897C335.861 86.0777 335.476 85.9217 334.973 85.9217C334.635 85.9217 334.332 86.004 334.063 86.1687C333.794 86.3247 333.582 86.5587 333.426 86.8707C333.27 87.174 333.192 87.5467 333.192 87.9887V91.5767H331.892ZM342.421 91.7327C341.797 91.7327 341.246 91.5853 340.77 91.2907C340.302 90.9873 339.933 90.5757 339.665 90.0557C339.405 89.527 339.275 88.9333 339.275 88.2747C339.275 87.6073 339.405 87.0137 339.665 86.4937C339.933 85.9737 340.306 85.5663 340.783 85.2717C341.268 84.9683 341.823 84.8167 342.447 84.8167C342.958 84.8167 343.404 84.9207 343.786 85.1287C344.176 85.328 344.479 85.6097 344.696 85.9737V82.2167H345.996V91.5767H344.826L344.696 90.5497C344.566 90.7577 344.397 90.9527 344.189 91.1347C343.981 91.308 343.729 91.451 343.435 91.5637C343.14 91.6763 342.802 91.7327 342.421 91.7327ZM342.642 90.6017C343.049 90.6017 343.404 90.5063 343.708 90.3157C344.02 90.1163 344.258 89.8433 344.423 89.4967C344.596 89.15 344.683 88.7427 344.683 88.2747C344.683 87.8067 344.596 87.3993 344.423 87.0527C344.258 86.6973 344.02 86.4243 343.708 86.2337C343.404 86.043 343.049 85.9477 342.642 85.9477C342.252 85.9477 341.901 86.043 341.589 86.2337C341.277 86.4243 341.034 86.6973 340.861 87.0527C340.687 87.3993 340.601 87.8067 340.601 88.2747C340.601 88.7427 340.687 89.15 340.861 89.4967C341.034 89.8433 341.277 90.1163 341.589 90.3157C341.901 90.5063 342.252 90.6017 342.642 90.6017ZM354.011 91.7327C353.387 91.7327 352.837 91.5853 352.36 91.2907C351.892 90.9873 351.524 90.5757 351.255 90.0557C350.995 89.527 350.865 88.9333 350.865 88.2747C350.865 87.6073 350.995 87.0137 351.255 86.4937C351.524 85.9737 351.897 85.5663 352.373 85.2717C352.859 84.9683 353.413 84.8167 354.037 84.8167C354.549 84.8167 354.995 84.9207 355.376 85.1287C355.766 85.328 356.07 85.6097 356.286 85.9737V82.2167H357.586V91.5767H356.416L356.286 90.5497C356.156 90.7577 355.987 90.9527 355.779 91.1347C355.571 91.308 355.32 91.451 355.025 91.5637C354.731 91.6763 354.393 91.7327 354.011 91.7327ZM354.232 90.6017C354.64 90.6017 354.995 90.5063 355.298 90.3157C355.61 90.1163 355.849 89.8433 356.013 89.4967C356.187 89.15 356.273 88.7427 356.273 88.2747C356.273 87.8067 356.187 87.3993 356.013 87.0527C355.849 86.6973 355.61 86.4243 355.298 86.2337C354.995 86.043 354.64 85.9477 354.232 85.9477C353.842 85.9477 353.491 86.043 353.179 86.2337C352.867 86.4243 352.625 86.6973 352.451 87.0527C352.278 87.3993 352.191 87.8067 352.191 88.2747C352.191 88.7427 352.278 89.15 352.451 89.4967C352.625 89.8433 352.867 90.1163 353.179 90.3157C353.491 90.5063 353.842 90.6017 354.232 90.6017ZM359.377 91.5767V84.9727H360.547L360.651 86.2077C360.807 85.913 361.002 85.6617 361.236 85.4537C361.47 85.2457 361.752 85.0897 362.081 84.9857C362.411 84.873 362.779 84.8167 363.186 84.8167V86.1817H362.666C362.398 86.1817 362.142 86.2163 361.899 86.2857C361.657 86.355 361.444 86.4677 361.262 86.6237C361.08 86.771 360.937 86.979 360.833 87.2477C360.729 87.5077 360.677 87.837 360.677 88.2357V91.5767H359.377ZM367.179 91.7327C366.563 91.7327 366.009 91.5897 365.515 91.3037C365.029 91.0177 364.644 90.6147 364.358 90.0947C364.08 89.5747 363.942 88.968 363.942 88.2747C363.942 87.5813 364.085 86.9747 364.371 86.4547C364.657 85.9347 365.047 85.5317 365.541 85.2457C366.035 84.9597 366.589 84.8167 367.205 84.8167C367.829 84.8167 368.383 84.9597 368.869 85.2457C369.363 85.5317 369.748 85.9347 370.026 86.4547C370.312 86.9747 370.455 87.5813 370.455 88.2747C370.455 88.968 370.312 89.5747 370.026 90.0947C369.74 90.6147 369.35 91.0177 368.856 91.3037C368.37 91.5897 367.811 91.7327 367.179 91.7327ZM367.192 90.6147C367.547 90.6147 367.868 90.528 368.154 90.3547C368.448 90.1813 368.682 89.9213 368.856 89.5747C369.038 89.2193 369.129 88.786 369.129 88.2747C369.129 87.7547 369.042 87.3213 368.869 86.9747C368.695 86.628 368.461 86.368 368.167 86.1947C367.881 86.0213 367.56 85.9347 367.205 85.9347C366.858 85.9347 366.537 86.0213 366.243 86.1947C365.948 86.368 365.71 86.628 365.528 86.9747C365.354 87.3213 365.268 87.7547 365.268 88.2747C365.268 88.786 365.354 89.2193 365.528 89.5747C365.71 89.9213 365.944 90.1813 366.23 90.3547C366.524 90.528 366.845 90.6147 367.192 90.6147ZM371.984 94.4367V84.9727H373.154L373.271 85.9867C373.41 85.7787 373.583 85.588 373.791 85.4147C373.999 85.2327 374.246 85.0897 374.532 84.9857C374.827 84.873 375.165 84.8167 375.546 84.8167C376.179 84.8167 376.729 84.9683 377.197 85.2717C377.665 85.575 378.029 85.9867 378.289 86.5067C378.558 87.0267 378.692 87.6203 378.692 88.2877C378.692 88.9463 378.558 89.5357 378.289 90.0557C378.02 90.5757 377.648 90.9873 377.171 91.2907C376.703 91.5853 376.161 91.7327 375.546 91.7327C375.035 91.7327 374.584 91.633 374.194 91.4337C373.804 91.2257 373.501 90.9397 373.284 90.5757V94.4367H371.984ZM375.325 90.6017C375.724 90.6017 376.075 90.5063 376.378 90.3157C376.69 90.125 376.933 89.8563 377.106 89.5097C377.279 89.1543 377.366 88.7427 377.366 88.2747C377.366 87.8067 377.279 87.3993 377.106 87.0527C376.933 86.706 376.69 86.4373 376.378 86.2467C376.075 86.0473 375.724 85.9477 375.325 85.9477C374.926 85.9477 374.571 86.0473 374.259 86.2467C373.956 86.4373 373.717 86.706 373.544 87.0527C373.371 87.3993 373.284 87.8067 373.284 88.2747C373.284 88.7427 373.371 89.1543 373.544 89.5097C373.717 89.8563 373.956 90.125 374.259 90.3157C374.571 90.5063 374.926 90.6017 375.325 90.6017ZM160.621 110.733C159.962 110.733 159.381 110.616 158.879 110.382C158.376 110.139 157.986 109.801 157.709 109.368C157.431 108.934 157.293 108.427 157.293 107.847H158.658C158.658 108.176 158.736 108.479 158.892 108.757C159.048 109.025 159.269 109.242 159.555 109.407C159.849 109.563 160.205 109.641 160.621 109.641C160.985 109.641 161.297 109.58 161.557 109.459C161.825 109.337 162.029 109.173 162.168 108.965C162.306 108.748 162.376 108.501 162.376 108.224C162.376 107.912 162.306 107.652 162.168 107.444C162.029 107.236 161.834 107.067 161.583 106.937C161.34 106.798 161.058 106.677 160.738 106.573C160.417 106.469 160.075 106.356 159.711 106.235C158.983 105.992 158.441 105.684 158.086 105.312C157.739 104.939 157.566 104.454 157.566 103.856C157.566 103.344 157.683 102.902 157.917 102.53C158.159 102.148 158.502 101.854 158.944 101.646C159.386 101.429 159.906 101.321 160.504 101.321C161.093 101.321 161.604 101.429 162.038 101.646C162.48 101.862 162.826 102.161 163.078 102.543C163.329 102.924 163.459 103.37 163.468 103.882H162.09C162.09 103.648 162.029 103.418 161.908 103.193C161.786 102.967 161.604 102.785 161.362 102.647C161.119 102.499 160.82 102.426 160.465 102.426C160.17 102.417 159.906 102.465 159.672 102.569C159.438 102.673 159.251 102.824 159.113 103.024C158.983 103.223 158.918 103.461 158.918 103.739C158.918 104.016 158.978 104.241 159.1 104.415C159.221 104.579 159.394 104.722 159.62 104.844C159.845 104.965 160.105 105.078 160.4 105.182C160.703 105.277 161.037 105.385 161.401 105.507C161.843 105.654 162.241 105.836 162.597 106.053C162.952 106.261 163.229 106.534 163.429 106.872C163.637 107.201 163.741 107.626 163.741 108.146C163.741 108.596 163.624 109.017 163.39 109.407C163.156 109.797 162.809 110.117 162.35 110.369C161.89 110.611 161.314 110.733 160.621 110.733ZM167.749 110.577L164.356 101.477H165.76L168.516 109.225L171.298 101.477H172.676L169.296 110.577H167.749ZM177.49 110.733C176.641 110.733 175.891 110.538 175.241 110.148C174.6 109.758 174.101 109.212 173.746 108.51C173.391 107.808 173.213 106.989 173.213 106.053C173.213 105.125 173.395 104.306 173.759 103.596C174.123 102.885 174.639 102.33 175.306 101.932C175.973 101.524 176.766 101.321 177.685 101.321C178.725 101.321 179.587 101.572 180.272 102.075C180.965 102.569 181.412 103.258 181.611 104.142H180.129C180.008 103.639 179.735 103.245 179.31 102.959C178.894 102.664 178.352 102.517 177.685 102.517C177.044 102.517 176.485 102.66 176.008 102.946C175.54 103.232 175.176 103.639 174.916 104.168C174.665 104.696 174.539 105.325 174.539 106.053C174.539 106.789 174.665 107.422 174.916 107.951C175.176 108.479 175.531 108.882 175.982 109.16C176.441 109.437 176.97 109.576 177.568 109.576C178.487 109.576 179.18 109.311 179.648 108.783C180.116 108.254 180.385 107.548 180.454 106.664H177.958V105.663H181.78V110.577H180.584L180.48 109.186C180.272 109.524 180.029 109.81 179.752 110.044C179.483 110.269 179.163 110.442 178.79 110.564C178.426 110.676 177.993 110.733 177.49 110.733ZM182.685 112.176L183.439 109.173H184.739L183.569 112.176H182.685ZM189.509 110.577V101.477H192.603C193.331 101.477 193.929 101.598 194.397 101.841C194.865 102.083 195.212 102.413 195.437 102.829C195.663 103.236 195.775 103.7 195.775 104.22C195.775 104.722 195.663 105.182 195.437 105.598C195.221 106.005 194.878 106.334 194.41 106.586C193.942 106.828 193.34 106.95 192.603 106.95H190.809V110.577H189.509ZM190.809 105.871H192.551C193.236 105.871 193.721 105.723 194.007 105.429C194.302 105.125 194.449 104.722 194.449 104.22C194.449 103.691 194.302 103.284 194.007 102.998C193.721 102.703 193.236 102.556 192.551 102.556H190.809V105.871ZM197.203 110.577V101.477H198.503L203.144 108.458V101.477H204.444V110.577H203.144L198.503 103.609V110.577H197.203ZM210.282 110.733C209.433 110.733 208.683 110.538 208.033 110.148C207.392 109.758 206.893 109.212 206.538 108.51C206.183 107.808 206.005 106.989 206.005 106.053C206.005 105.125 206.187 104.306 206.551 103.596C206.915 102.885 207.431 102.33 208.098 101.932C208.765 101.524 209.558 101.321 210.477 101.321C211.517 101.321 212.379 101.572 213.064 102.075C213.757 102.569 214.204 103.258 214.403 104.142H212.921C212.8 103.639 212.527 103.245 212.102 102.959C211.686 102.664 211.144 102.517 210.477 102.517C209.836 102.517 209.277 102.66 208.8 102.946C208.332 103.232 207.968 103.639 207.708 104.168C207.457 104.696 207.331 105.325 207.331 106.053C207.331 106.789 207.457 107.422 207.708 107.951C207.968 108.479 208.323 108.882 208.774 109.16C209.233 109.437 209.762 109.576 210.36 109.576C211.279 109.576 211.972 109.311 212.44 108.783C212.908 108.254 213.177 107.548 213.246 106.664H210.75V105.663H214.572V110.577H213.376L213.272 109.186C213.064 109.524 212.821 109.81 212.544 110.044C212.275 110.269 211.955 110.442 211.582 110.564C211.218 110.676 210.785 110.733 210.282 110.733ZM215.477 112.176L216.231 109.173H217.531L216.361 112.176H215.477ZM224.459 110.733C223.896 110.733 223.411 110.629 223.003 110.421C222.596 110.204 222.28 109.892 222.054 109.485C221.829 109.077 221.716 108.592 221.716 108.029H223.029C223.029 108.323 223.077 108.588 223.172 108.822C223.268 109.056 223.415 109.242 223.614 109.381C223.822 109.511 224.095 109.576 224.433 109.576C224.763 109.576 225.027 109.511 225.226 109.381C225.426 109.251 225.569 109.077 225.655 108.861C225.742 108.635 225.785 108.38 225.785 108.094V101.477H227.085V108.094C227.085 108.934 226.851 109.584 226.383 110.044C225.915 110.503 225.274 110.733 224.459 110.733ZM228.992 110.577V101.477H232.086C232.814 101.477 233.412 101.598 233.88 101.841C234.348 102.083 234.694 102.413 234.92 102.829C235.145 103.236 235.258 103.7 235.258 104.22C235.258 104.722 235.145 105.182 234.92 105.598C234.703 106.005 234.361 106.334 233.893 106.586C233.425 106.828 232.822 106.95 232.086 106.95H230.292V110.577H228.992ZM230.292 105.871H232.034C232.718 105.871 233.204 105.723 233.49 105.429C233.784 105.125 233.932 104.722 233.932 104.22C233.932 103.691 233.784 103.284 233.49 102.998C233.204 102.703 232.718 102.556 232.034 102.556H230.292V105.871ZM240.611 110.733C239.762 110.733 239.012 110.538 238.362 110.148C237.721 109.758 237.222 109.212 236.867 108.51C236.512 107.808 236.334 106.989 236.334 106.053C236.334 105.125 236.516 104.306 236.88 103.596C237.244 102.885 237.76 102.33 238.427 101.932C239.094 101.524 239.887 101.321 240.806 101.321C241.846 101.321 242.708 101.572 243.393 102.075C244.086 102.569 244.533 103.258 244.732 104.142H243.25C243.129 103.639 242.856 103.245 242.431 102.959C242.015 102.664 241.473 102.517 240.806 102.517C240.165 102.517 239.606 102.66 239.129 102.946C238.661 103.232 238.297 103.639 238.037 104.168C237.786 104.696 237.66 105.325 237.66 106.053C237.66 106.789 237.786 107.422 238.037 107.951C238.297 108.479 238.652 108.882 239.103 109.16C239.562 109.437 240.091 109.576 240.689 109.576C241.608 109.576 242.301 109.311 242.769 108.783C243.237 108.254 243.506 107.548 243.575 106.664H241.079V105.663H244.901V110.577H243.705L243.601 109.186C243.393 109.524 243.15 109.81 242.873 110.044C242.604 110.269 242.284 110.442 241.911 110.564C241.547 110.676 241.114 110.733 240.611 110.733ZM252.876 110.733C252.261 110.733 251.706 110.59 251.212 110.304C250.727 110.018 250.341 109.615 250.055 109.095C249.778 108.575 249.639 107.968 249.639 107.275C249.639 106.581 249.782 105.975 250.068 105.455C250.354 104.935 250.744 104.532 251.238 104.246C251.732 103.96 252.287 103.817 252.902 103.817C253.526 103.817 254.081 103.96 254.566 104.246C255.06 104.532 255.446 104.935 255.723 105.455C256.009 105.975 256.152 106.581 256.152 107.275C256.152 107.968 256.009 108.575 255.723 109.095C255.437 109.615 255.047 110.018 254.553 110.304C254.068 110.59 253.509 110.733 252.876 110.733ZM252.889 109.615C253.245 109.615 253.565 109.528 253.851 109.355C254.146 109.181 254.38 108.921 254.553 108.575C254.735 108.219 254.826 107.786 254.826 107.275C254.826 106.755 254.74 106.321 254.566 105.975C254.393 105.628 254.159 105.368 253.864 105.195C253.578 105.021 253.258 104.935 252.902 104.935C252.556 104.935 252.235 105.021 251.94 105.195C251.646 105.368 251.407 105.628 251.225 105.975C251.052 106.321 250.965 106.755 250.965 107.275C250.965 107.786 251.052 108.219 251.225 108.575C251.407 108.921 251.641 109.181 251.927 109.355C252.222 109.528 252.543 109.615 252.889 109.615ZM257.682 110.577V103.973H258.852L258.956 105.208C259.112 104.913 259.307 104.662 259.541 104.454C259.775 104.246 260.056 104.09 260.386 103.986C260.715 103.873 261.083 103.817 261.491 103.817V105.182H260.971C260.702 105.182 260.446 105.216 260.204 105.286C259.961 105.355 259.749 105.468 259.567 105.624C259.385 105.771 259.242 105.979 259.138 106.248C259.034 106.508 258.982 106.837 258.982 107.236V110.577H257.682ZM270.026 110.733C269.177 110.733 268.427 110.538 267.777 110.148C267.136 109.758 266.637 109.212 266.282 108.51C265.927 107.808 265.749 106.989 265.749 106.053C265.749 105.125 265.931 104.306 266.295 103.596C266.659 102.885 267.175 102.33 267.842 101.932C268.509 101.524 269.302 101.321 270.221 101.321C271.261 101.321 272.123 101.572 272.808 102.075C273.501 102.569 273.948 103.258 274.147 104.142H272.665C272.544 103.639 272.271 103.245 271.846 102.959C271.43 102.664 270.888 102.517 270.221 102.517C269.58 102.517 269.021 102.66 268.544 102.946C268.076 103.232 267.712 103.639 267.452 104.168C267.201 104.696 267.075 105.325 267.075 106.053C267.075 106.789 267.201 107.422 267.452 107.951C267.712 108.479 268.067 108.882 268.518 109.16C268.977 109.437 269.506 109.576 270.104 109.576C271.023 109.576 271.716 109.311 272.184 108.783C272.652 108.254 272.921 107.548 272.99 106.664H270.494V105.663H274.316V110.577H273.12L273.016 109.186C272.808 109.524 272.565 109.81 272.288 110.044C272.019 110.269 271.699 110.442 271.326 110.564C270.962 110.676 270.529 110.733 270.026 110.733ZM276.041 110.577V101.477H277.341V110.577H276.041ZM279.252 110.577V101.477H284.907V102.543H280.552V105.494H284.192V106.534H280.552V110.577H279.252ZM291.886 112.462C291.409 112.002 290.976 111.456 290.586 110.824C290.196 110.2 289.884 109.506 289.65 108.744C289.416 107.972 289.299 107.14 289.299 106.248C289.299 105.355 289.416 104.527 289.65 103.765C289.884 102.993 290.196 102.291 290.586 101.659C290.976 101.026 291.409 100.484 291.886 100.034H293.199V100.151C292.67 100.688 292.211 101.277 291.821 101.919C291.44 102.56 291.141 103.245 290.924 103.973C290.707 104.701 290.599 105.459 290.599 106.248C290.599 107.036 290.707 107.795 290.924 108.523C291.141 109.251 291.444 109.935 291.834 110.577C292.224 111.218 292.679 111.807 293.199 112.345V112.462H291.886ZM294.561 110.577V103.973H295.718L295.809 104.883C296.017 104.553 296.295 104.293 296.641 104.103C296.997 103.912 297.382 103.817 297.798 103.817C298.136 103.817 298.44 103.86 298.708 103.947C298.977 104.033 299.211 104.168 299.41 104.35C299.618 104.532 299.787 104.757 299.917 105.026C300.143 104.644 300.45 104.35 300.84 104.142C301.239 103.925 301.659 103.817 302.101 103.817C302.63 103.817 303.081 103.921 303.453 104.129C303.826 104.337 304.112 104.649 304.311 105.065C304.511 105.481 304.61 105.996 304.61 106.612V110.577H303.323V106.755C303.323 106.148 303.198 105.693 302.946 105.39C302.704 105.078 302.348 104.922 301.88 104.922C301.568 104.922 301.287 105.004 301.035 105.169C300.793 105.333 300.598 105.572 300.45 105.884C300.312 106.187 300.242 106.56 300.242 107.002V110.577H298.942V106.755C298.942 106.148 298.817 105.693 298.565 105.39C298.314 105.078 297.954 104.922 297.486 104.922C297.183 104.922 296.906 105.004 296.654 105.169C296.412 105.333 296.217 105.572 296.069 105.884C295.931 106.187 295.861 106.56 295.861 107.002V110.577H294.561ZM308.475 110.733C307.938 110.733 307.492 110.642 307.136 110.46C306.79 110.269 306.53 110.022 306.356 109.719C306.183 109.407 306.096 109.069 306.096 108.705C306.096 108.271 306.205 107.903 306.421 107.6C306.647 107.288 306.967 107.049 307.383 106.885C307.808 106.72 308.311 106.638 308.891 106.638H310.581C310.581 106.248 310.525 105.927 310.412 105.676C310.308 105.416 310.144 105.221 309.918 105.091C309.702 104.961 309.42 104.896 309.073 104.896C308.692 104.896 308.363 104.991 308.085 105.182C307.817 105.364 307.648 105.637 307.578 106.001H306.278C306.33 105.533 306.486 105.138 306.746 104.818C307.006 104.497 307.34 104.25 307.747 104.077C308.163 103.903 308.61 103.817 309.086 103.817C309.693 103.817 310.204 103.925 310.62 104.142C311.036 104.358 311.348 104.666 311.556 105.065C311.773 105.455 311.881 105.918 311.881 106.456V110.577H310.75L310.633 109.459C310.547 109.641 310.434 109.81 310.295 109.966C310.165 110.122 310.014 110.256 309.84 110.369C309.667 110.481 309.463 110.568 309.229 110.629C309.004 110.698 308.753 110.733 308.475 110.733ZM308.722 109.68C309 109.68 309.247 109.623 309.463 109.511C309.689 109.389 309.879 109.233 310.035 109.043C310.2 108.843 310.326 108.622 310.412 108.38C310.499 108.128 310.547 107.868 310.555 107.6V107.561H309.008C308.644 107.561 308.345 107.608 308.111 107.704C307.886 107.79 307.721 107.916 307.617 108.081C307.513 108.237 307.461 108.419 307.461 108.627C307.461 108.843 307.509 109.03 307.604 109.186C307.708 109.342 307.851 109.463 308.033 109.55C308.224 109.636 308.454 109.68 308.722 109.68ZM312.955 110.577L315.204 107.275L312.955 103.973H314.359L316.062 106.521L317.765 103.973H319.169L316.907 107.275L319.169 110.577H317.765L316.062 108.003L314.372 110.577H312.955ZM319.566 112.176L320.32 109.173H321.62L320.45 112.176H319.566ZM329.432 110.733C328.834 110.733 328.292 110.624 327.807 110.408C327.33 110.182 326.949 109.87 326.663 109.472C326.386 109.073 326.247 108.609 326.247 108.081C326.247 107.708 326.316 107.366 326.455 107.054C326.594 106.733 326.789 106.456 327.04 106.222C327.291 105.988 327.586 105.819 327.924 105.715C327.473 105.533 327.118 105.264 326.858 104.909C326.607 104.553 326.481 104.163 326.481 103.739C326.481 103.297 326.598 102.894 326.832 102.53C327.066 102.166 327.4 101.875 327.833 101.659C328.275 101.433 328.808 101.321 329.432 101.321C330.056 101.321 330.585 101.433 331.018 101.659C331.46 101.875 331.794 102.166 332.019 102.53C332.253 102.894 332.37 103.297 332.37 103.739C332.37 104.163 332.24 104.558 331.98 104.922C331.729 105.277 331.378 105.541 330.927 105.715C331.274 105.819 331.568 105.988 331.811 106.222C332.062 106.456 332.257 106.733 332.396 107.054C332.535 107.366 332.604 107.708 332.604 108.081C332.604 108.609 332.461 109.073 332.175 109.472C331.898 109.87 331.521 110.182 331.044 110.408C330.567 110.624 330.03 110.733 329.432 110.733ZM329.432 109.615C330.056 109.615 330.524 109.467 330.836 109.173C331.157 108.869 331.317 108.475 331.317 107.99C331.317 107.444 331.144 107.028 330.797 106.742C330.459 106.456 330.004 106.313 329.432 106.313C328.851 106.313 328.388 106.456 328.041 106.742C327.703 107.028 327.534 107.444 327.534 107.99C327.534 108.475 327.69 108.869 328.002 109.173C328.323 109.467 328.799 109.615 329.432 109.615ZM329.432 105.286C329.935 105.286 330.333 105.151 330.628 104.883C330.923 104.614 331.07 104.272 331.07 103.856C331.07 103.379 330.923 103.019 330.628 102.777C330.342 102.534 329.943 102.413 329.432 102.413C328.921 102.413 328.518 102.534 328.223 102.777C327.937 103.019 327.794 103.379 327.794 103.856C327.794 104.272 327.937 104.614 328.223 104.883C328.518 105.151 328.921 105.286 329.432 105.286ZM337.885 110.733C337.088 110.733 336.403 110.538 335.831 110.148C335.259 109.749 334.817 109.199 334.505 108.497C334.193 107.786 334.037 106.963 334.037 106.027C334.037 105.091 334.193 104.272 334.505 103.57C334.817 102.859 335.259 102.309 335.831 101.919C336.403 101.52 337.088 101.321 337.885 101.321C338.683 101.321 339.363 101.52 339.926 101.919C340.498 102.309 340.936 102.859 341.239 103.57C341.551 104.272 341.707 105.091 341.707 106.027C341.707 106.963 341.551 107.786 341.239 108.497C340.936 109.199 340.498 109.749 339.926 110.148C339.363 110.538 338.683 110.733 337.885 110.733ZM337.885 109.576C338.371 109.576 338.8 109.433 339.172 109.147C339.545 108.861 339.84 108.453 340.056 107.925C340.273 107.396 340.381 106.763 340.381 106.027C340.381 105.281 340.273 104.649 340.056 104.129C339.84 103.6 339.545 103.197 339.172 102.92C338.8 102.634 338.371 102.491 337.885 102.491C337.4 102.491 336.967 102.634 336.585 102.92C336.204 103.197 335.905 103.6 335.688 104.129C335.472 104.649 335.363 105.281 335.363 106.027C335.363 106.763 335.472 107.396 335.688 107.925C335.905 108.453 336.204 108.861 336.585 109.147C336.967 109.433 337.4 109.576 337.885 109.576ZM346.785 110.733C345.987 110.733 345.303 110.538 344.731 110.148C344.159 109.749 343.717 109.199 343.405 108.497C343.093 107.786 342.937 106.963 342.937 106.027C342.937 105.091 343.093 104.272 343.405 103.57C343.717 102.859 344.159 102.309 344.731 101.919C345.303 101.52 345.987 101.321 346.785 101.321C347.582 101.321 348.262 101.52 348.826 101.919C349.398 102.309 349.835 102.859 350.139 103.57C350.451 104.272 350.607 105.091 350.607 106.027C350.607 106.963 350.451 107.786 350.139 108.497C349.835 109.199 349.398 109.749 348.826 110.148C348.262 110.538 347.582 110.733 346.785 110.733ZM346.785 109.576C347.27 109.576 347.699 109.433 348.072 109.147C348.444 108.861 348.739 108.453 348.956 107.925C349.172 107.396 349.281 106.763 349.281 106.027C349.281 105.281 349.172 104.649 348.956 104.129C348.739 103.6 348.444 103.197 348.072 102.92C347.699 102.634 347.27 102.491 346.785 102.491C346.299 102.491 345.866 102.634 345.485 102.92C345.103 103.197 344.804 103.6 344.588 104.129C344.371 104.649 344.263 105.281 344.263 106.027C344.263 106.763 344.371 107.396 344.588 107.925C344.804 108.453 345.103 108.861 345.485 109.147C345.866 109.433 346.299 109.576 346.785 109.576ZM351.498 110.577L353.747 107.275L351.498 103.973H352.902L354.605 106.521L356.308 103.973H357.712L355.45 107.275L357.712 110.577H356.308L354.605 108.003L352.915 110.577L351.498 110.577ZM363.062 110.577V108.718H358.499V107.704L362.854 101.477H364.349V107.587H365.649V108.718H364.349V110.577H363.062ZM359.916 107.587H363.14V102.907L359.916 107.587ZM370.512 110.733C369.715 110.733 369.03 110.538 368.458 110.148C367.886 109.749 367.444 109.199 367.132 108.497C366.82 107.786 366.664 106.963 366.664 106.027C366.664 105.091 366.82 104.272 367.132 103.57C367.444 102.859 367.886 102.309 368.458 101.919C369.03 101.52 369.715 101.321 370.512 101.321C371.309 101.321 371.99 101.52 372.553 101.919C373.125 102.309 373.563 102.859 373.866 103.57C374.178 104.272 374.334 105.091 374.334 106.027C374.334 106.963 374.178 107.786 373.866 108.497C373.563 109.199 373.125 109.749 372.553 110.148C371.99 110.538 371.309 110.733 370.512 110.733ZM370.512 109.576C370.997 109.576 371.426 109.433 371.799 109.147C372.172 108.861 372.466 108.453 372.683 107.925C372.9 107.396 373.008 106.763 373.008 106.027C373.008 105.281 372.9 104.649 372.683 104.129C372.466 103.6 372.172 103.197 371.799 102.92C371.426 102.634 370.997 102.491 370.512 102.491C370.027 102.491 369.593 102.634 369.212 102.92C368.831 103.197 368.532 103.6 368.315 104.129C368.098 104.649 367.99 105.281 367.99 106.027C367.99 106.763 368.098 107.396 368.315 107.925C368.532 108.453 368.831 108.861 369.212 109.147C369.593 109.433 370.027 109.576 370.512 109.576ZM379.412 110.733C378.614 110.733 377.93 110.538 377.358 110.148C376.786 109.749 376.344 109.199 376.032 108.497C375.72 107.786 375.564 106.963 375.564 106.027C375.564 105.091 375.72 104.272 376.032 103.57C376.344 102.859 376.786 102.309 377.358 101.919C377.93 101.52 378.614 101.321 379.412 101.321C380.209 101.321 380.889 101.52 381.453 101.919C382.025 102.309 382.462 102.859 382.766 103.57C383.078 104.272 383.234 105.091 383.234 106.027C383.234 106.963 383.078 107.786 382.766 108.497C382.462 109.199 382.025 109.749 381.453 110.148C380.889 110.538 380.209 110.733 379.412 110.733ZM379.412 109.576C379.897 109.576 380.326 109.433 380.699 109.147C381.071 108.861 381.366 108.453 381.583 107.925C381.799 107.396 381.908 106.763 381.908 106.027C381.908 105.281 381.799 104.649 381.583 104.129C381.366 103.6 381.071 103.197 380.699 102.92C380.326 102.634 379.897 102.491 379.412 102.491C378.926 102.491 378.493 102.634 378.112 102.92C377.73 103.197 377.431 103.6 377.215 104.129C376.998 104.649 376.89 105.281 376.89 106.027C376.89 106.763 376.998 107.396 377.215 107.925C377.431 108.453 377.73 108.861 378.112 109.147C378.493 109.433 378.926 109.576 379.412 109.576ZM384.749 113.437V103.973H385.919L386.036 104.987C386.175 104.779 386.348 104.588 386.556 104.415C386.764 104.233 387.011 104.09 387.297 103.986C387.592 103.873 387.93 103.817 388.311 103.817C388.944 103.817 389.494 103.968 389.962 104.272C390.43 104.575 390.794 104.987 391.054 105.507C391.323 106.027 391.457 106.62 391.457 107.288C391.457 107.946 391.323 108.536 391.054 109.056C390.785 109.576 390.413 109.987 389.936 110.291C389.468 110.585 388.926 110.733 388.311 110.733C387.8 110.733 387.349 110.633 386.959 110.434C386.569 110.226 386.266 109.94 386.049 109.576V113.437H384.749ZM388.09 109.602C388.489 109.602 388.84 109.506 389.143 109.316C389.455 109.125 389.698 108.856 389.871 108.51C390.044 108.154 390.131 107.743 390.131 107.275C390.131 106.807 390.044 106.399 389.871 106.053C389.698 105.706 389.455 105.437 389.143 105.247C388.84 105.047 388.489 104.948 388.09 104.948C387.691 104.948 387.336 105.047 387.024 105.247C386.721 105.437 386.482 105.706 386.309 106.053C386.136 106.399 386.049 106.807 386.049 107.275C386.049 107.743 386.136 108.154 386.309 108.51C386.482 108.856 386.721 109.125 387.024 109.316C387.336 109.506 387.691 109.602 388.09 109.602ZM392.072 110.577L394.321 107.275L392.072 103.973H393.476L395.179 106.521L396.882 103.973H398.286L396.024 107.275L398.286 110.577H396.882L395.179 108.003L393.489 110.577H392.072ZM400.321 112.462H399.008V112.345C399.537 111.807 399.996 111.218 400.386 110.577C400.776 109.935 401.08 109.251 401.296 108.523C401.513 107.795 401.621 107.036 401.621 106.248C401.621 105.459 401.513 104.701 401.296 103.973C401.08 103.245 400.776 102.56 400.386 101.919C399.996 101.277 399.537 100.688 399.008 100.151V100.034H400.321C400.807 100.484 401.24 101.026 401.621 101.659C402.011 102.291 402.323 102.993 402.557 103.765C402.791 104.527 402.908 105.355 402.908 106.248C402.908 107.14 402.791 107.972 402.557 108.744C402.323 109.506 402.011 110.2 401.621 110.824C401.24 111.456 400.807 112.002 400.321 112.462Z" fill="#3B3F58"/>
</svg>
