<svg width="168" height="48" viewBox="0 0 168 48" fill="none" xmlns="http://www.w3.org/2000/svg">
<path d="M40.7625 21.75L37.5 18.4898V10.5C37.5 9.2625 36.4875 8.25 35.25 8.25H33C31.7625 8.25 30.75 9.2625 30.75 10.5V11.7442L26.25 7.24875C25.6357 6.66825 25.0732 6 24 6C22.9268 6 22.3643 6.66825 21.75 7.24875L7.2375 21.75C6.5355 22.4812 6 23.0145 6 24C6 25.2668 6.972 26.25 8.25 26.25H10.5V39.75C10.5 40.9875 11.5125 42 12.75 42H17.25C18.4926 42 19.5 40.9926 19.5 39.75V30.75C19.5 29.5125 20.5125 28.5 21.75 28.5H26.25C27.4875 28.5 28.5 29.5125 28.5 30.75V39.75C28.5 40.9926 28.3824 42 29.625 42H35.25C36.4875 42 37.5 40.9875 37.5 39.75V26.25H39.75C41.028 26.25 42 25.2668 42 24C42 23.0145 41.4645 22.4812 40.7625 21.75Z" stroke="#6290F2" stroke-width="2" stroke-linejoin="round"/>
<path d="M67.3068 30.5H62.598V15.9545H67.456C68.8812 15.9545 70.1051 16.2457 71.1278 16.8281C72.1506 17.4058 72.9342 18.2367 73.4787 19.321C74.0279 20.4006 74.3026 21.6955 74.3026 23.206C74.3026 24.7211 74.0256 26.0232 73.4716 27.1122C72.9223 28.2012 72.1269 29.0393 71.0852 29.6264C70.0436 30.2088 68.7841 30.5 67.3068 30.5ZM64.7926 28.5824H67.1861C68.294 28.5824 69.215 28.3741 69.9489 27.9574C70.6828 27.536 71.232 26.9276 71.5966 26.1321C71.9612 25.3319 72.1435 24.3565 72.1435 23.206C72.1435 22.0649 71.9612 21.0966 71.5966 20.3011C71.2367 19.5057 70.6993 18.902 69.9844 18.4901C69.2694 18.0781 68.3816 17.8722 67.321 17.8722H64.7926V28.5824ZM80.0359 30.7415C79.3446 30.7415 78.7196 30.6136 78.1609 30.358C77.6022 30.0975 77.1594 29.7211 76.8327 29.2287C76.5108 28.7363 76.3498 28.1326 76.3498 27.4176C76.3498 26.8021 76.4682 26.2955 76.7049 25.8977C76.9416 25.5 77.2612 25.1851 77.6637 24.9531C78.0662 24.7211 78.516 24.5459 79.0131 24.4276C79.5103 24.3092 80.0169 24.2192 80.533 24.1577C81.1864 24.0819 81.7167 24.0204 82.1239 23.973C82.5311 23.9209 82.8271 23.8381 83.0117 23.7244C83.1964 23.6108 83.2887 23.4261 83.2887 23.1705V23.1207C83.2887 22.5005 83.1135 22.0199 82.7631 21.679C82.4175 21.3381 81.9014 21.1676 81.2148 21.1676C80.4999 21.1676 79.9364 21.3262 79.5245 21.6435C79.1173 21.956 78.8356 22.304 78.6793 22.6875L76.6836 22.233C76.9203 21.5701 77.266 21.035 77.7205 20.6278C78.1798 20.2159 78.7077 19.9176 79.3043 19.733C79.9009 19.5436 80.5283 19.4489 81.1864 19.4489C81.622 19.4489 82.0837 19.5009 82.5714 19.6051C83.0638 19.7045 83.5231 19.8892 83.9492 20.1591C84.3801 20.429 84.7328 20.8149 85.0075 21.3168C85.2821 21.8139 85.4194 22.4602 85.4194 23.2557V30.5H83.3455V29.0085H83.2603C83.123 29.2831 82.917 29.553 82.6424 29.8182C82.3678 30.0833 82.015 30.3035 81.5842 30.4787C81.1533 30.6539 80.6372 30.7415 80.0359 30.7415ZM80.4975 29.0369C81.0846 29.0369 81.5865 28.9209 82.0032 28.6889C82.4246 28.4569 82.7442 28.1539 82.962 27.7798C83.1845 27.401 83.2958 26.9962 83.2958 26.5653V25.1591C83.2201 25.2348 83.0733 25.3059 82.8555 25.3722C82.6424 25.4337 82.3986 25.4882 82.1239 25.5355C81.8493 25.5781 81.5818 25.6184 81.3214 25.6562C81.061 25.6894 80.8432 25.7178 80.668 25.7415C80.256 25.7936 79.8796 25.8812 79.5387 26.0043C79.2025 26.1274 78.9326 26.3049 78.729 26.5369C78.5302 26.7642 78.4308 27.0672 78.4308 27.446C78.4308 27.9716 78.6249 28.3693 79.0131 28.6392C79.4014 28.9044 79.8962 29.0369 80.4975 29.0369ZM96.4226 22.2543L94.4979 22.5952C94.4174 22.349 94.2895 22.1146 94.1143 21.892C93.9439 21.6695 93.7119 21.4872 93.4183 21.3452C93.1248 21.2031 92.7578 21.1321 92.3175 21.1321C91.7161 21.1321 91.2143 21.267 90.8118 21.5369C90.4093 21.8021 90.2081 22.1454 90.2081 22.5668C90.2081 22.9313 90.343 23.2249 90.6129 23.4474C90.8828 23.67 91.3184 23.8523 91.9197 23.9943L93.6527 24.392C94.6565 24.6241 95.4046 24.9815 95.897 25.4645C96.3894 25.9474 96.6357 26.5748 96.6357 27.3466C96.6357 28 96.4463 28.5824 96.0675 29.0938C95.6934 29.6004 95.1702 29.9981 94.4979 30.2869C93.8303 30.5758 93.0561 30.7202 92.1754 30.7202C90.9538 30.7202 89.9571 30.4598 89.1854 29.9389C88.4136 29.4134 87.9401 28.6676 87.7649 27.7017L89.8175 27.3892C89.9453 27.9242 90.2081 28.3291 90.6058 28.6037C91.0036 28.8736 91.522 29.0085 92.1612 29.0085C92.8572 29.0085 93.4136 28.8641 93.8303 28.5753C94.2469 28.2817 94.4553 27.9242 94.4553 27.5028C94.4553 27.1619 94.3274 26.8755 94.0717 26.6435C93.8208 26.4115 93.4349 26.2363 92.9141 26.1179L91.0675 25.7131C90.0495 25.4811 89.2966 25.1117 88.8089 24.6051C88.326 24.0985 88.0845 23.4569 88.0845 22.6804C88.0845 22.0365 88.2644 21.473 88.6243 20.9901C88.9841 20.5071 89.4813 20.1307 90.1158 19.8608C90.7502 19.5862 91.477 19.4489 92.2962 19.4489C93.4751 19.4489 94.4032 19.7045 95.0803 20.2159C95.7573 20.7225 96.2048 21.402 96.4226 22.2543ZM101.094 24.0227V30.5H98.9705V15.9545H101.066V21.3665H101.201C101.456 20.7794 101.847 20.313 102.373 19.9673C102.898 19.6217 103.585 19.4489 104.432 19.4489C105.18 19.4489 105.834 19.6027 106.392 19.9105C106.956 20.2183 107.391 20.6776 107.699 21.2884C108.012 21.8944 108.168 22.652 108.168 23.5611V30.5H106.044V23.8168C106.044 23.0166 105.838 22.3963 105.426 21.956C105.015 21.5109 104.442 21.2884 103.708 21.2884C103.206 21.2884 102.756 21.3949 102.358 21.608C101.965 21.821 101.655 22.1335 101.428 22.5455C101.205 22.9527 101.094 23.4451 101.094 24.0227ZM111.172 30.5V15.9545H113.296V21.3594H113.424C113.547 21.1321 113.724 20.8693 113.956 20.571C114.188 20.2727 114.51 20.0123 114.922 19.7898C115.334 19.5625 115.879 19.4489 116.556 19.4489C117.436 19.4489 118.222 19.6714 118.914 20.1165C119.605 20.5616 120.147 21.2031 120.54 22.0412C120.938 22.8793 121.137 23.8878 121.137 25.0668C121.137 26.2457 120.94 27.2566 120.547 28.0994C120.154 28.9375 119.614 29.5838 118.928 30.0384C118.241 30.4882 117.458 30.7131 116.577 30.7131C115.914 30.7131 115.372 30.6018 114.951 30.3793C114.534 30.1567 114.207 29.8963 113.971 29.598C113.734 29.2997 113.551 29.0346 113.424 28.8026H113.246V30.5H111.172ZM113.253 25.0455C113.253 25.8125 113.364 26.4848 113.587 27.0625C113.81 27.6402 114.132 28.0923 114.553 28.419C114.974 28.741 115.49 28.902 116.101 28.902C116.736 28.902 117.266 28.7339 117.692 28.3977C118.118 28.0568 118.44 27.5952 118.658 27.0128C118.881 26.4304 118.992 25.7746 118.992 25.0455C118.992 24.3258 118.883 23.6795 118.665 23.1065C118.452 22.5336 118.13 22.0814 117.699 21.75C117.273 21.4186 116.74 21.2528 116.101 21.2528C115.486 21.2528 114.965 21.4115 114.539 21.7287C114.117 22.0459 113.798 22.4886 113.58 23.0568C113.362 23.625 113.253 24.2879 113.253 25.0455ZM128.116 30.7202C127.094 30.7202 126.201 30.4858 125.439 30.017C124.677 29.5483 124.085 28.8925 123.663 28.0497C123.242 27.2069 123.031 26.2221 123.031 25.0952C123.031 23.9635 123.242 22.974 123.663 22.1264C124.085 21.2789 124.677 20.6207 125.439 20.152C126.201 19.6832 127.094 19.4489 128.116 19.4489C129.139 19.4489 130.032 19.6832 130.794 20.152C131.556 20.6207 132.148 21.2789 132.57 22.1264C132.991 22.974 133.202 23.9635 133.202 25.0952C133.202 26.2221 132.991 27.2069 132.57 28.0497C132.148 28.8925 131.556 29.5483 130.794 30.017C130.032 30.4858 129.139 30.7202 128.116 30.7202ZM128.124 28.9375C128.786 28.9375 129.336 28.7623 129.771 28.4119C130.207 28.0616 130.529 27.5952 130.737 27.0128C130.95 26.4304 131.057 25.7888 131.057 25.0881C131.057 24.392 130.95 23.7528 130.737 23.1705C130.529 22.5833 130.207 22.1122 129.771 21.7571C129.336 21.402 128.786 21.2244 128.124 21.2244C127.456 21.2244 126.902 21.402 126.462 21.7571C126.026 22.1122 125.702 22.5833 125.489 23.1705C125.28 23.7528 125.176 24.392 125.176 25.0881C125.176 25.7888 125.28 26.4304 125.489 27.0128C125.702 27.5952 126.026 28.0616 126.462 28.4119C126.902 28.7623 127.456 28.9375 128.124 28.9375ZM138.747 30.7415C138.056 30.7415 137.431 30.6136 136.872 30.358C136.313 30.0975 135.87 29.7211 135.544 29.2287C135.222 28.7363 135.061 28.1326 135.061 27.4176C135.061 26.8021 135.179 26.2955 135.416 25.8977C135.653 25.5 135.972 25.1851 136.375 24.9531C136.777 24.7211 137.227 24.5459 137.724 24.4276C138.221 24.3092 138.728 24.2192 139.244 24.1577C139.897 24.0819 140.428 24.0204 140.835 23.973C141.242 23.9209 141.538 23.8381 141.723 23.7244C141.907 23.6108 142 23.4261 142 23.1705V23.1207C142 22.5005 141.824 22.0199 141.474 21.679C141.128 21.3381 140.612 21.1676 139.926 21.1676C139.211 21.1676 138.647 21.3262 138.235 21.6435C137.828 21.956 137.547 22.304 137.39 22.6875L135.395 22.233C135.631 21.5701 135.977 21.035 136.431 20.6278C136.891 20.2159 137.419 19.9176 138.015 19.733C138.612 19.5436 139.239 19.4489 139.897 19.4489C140.333 19.4489 140.795 19.5009 141.282 19.6051C141.775 19.7045 142.234 19.8892 142.66 20.1591C143.091 20.429 143.444 20.8149 143.718 21.3168C143.993 21.8139 144.13 22.4602 144.13 23.2557V30.5H142.056V29.0085H141.971C141.834 29.2831 141.628 29.553 141.353 29.8182C141.079 30.0833 140.726 30.3035 140.295 30.4787C139.864 30.6539 139.348 30.7415 138.747 30.7415ZM139.208 29.0369C139.796 29.0369 140.297 28.9209 140.714 28.6889C141.136 28.4569 141.455 28.1539 141.673 27.7798C141.895 27.401 142.007 26.9962 142.007 26.5653V25.1591C141.931 25.2348 141.784 25.3059 141.566 25.3722C141.353 25.4337 141.109 25.4882 140.835 25.5355C140.56 25.5781 140.293 25.6184 140.032 25.6562C139.772 25.6894 139.554 25.7178 139.379 25.7415C138.967 25.7936 138.591 25.8812 138.25 26.0043C137.913 26.1274 137.644 26.3049 137.44 26.5369C137.241 26.7642 137.142 27.0672 137.142 27.446C137.142 27.9716 137.336 28.3693 137.724 28.6392C138.112 28.9044 138.607 29.0369 139.208 29.0369ZM146.959 30.5V19.5909H149.011V21.3239H149.125C149.324 20.7367 149.674 20.2751 150.176 19.9389C150.683 19.598 151.256 19.4276 151.895 19.4276C152.027 19.4276 152.184 19.4323 152.364 19.4418C152.548 19.4512 152.693 19.4631 152.797 19.4773V21.5085C152.712 21.4848 152.56 21.4588 152.342 21.4304C152.125 21.3973 151.907 21.3807 151.689 21.3807C151.187 21.3807 150.74 21.4872 150.347 21.7003C149.958 21.9086 149.651 22.1998 149.423 22.5739C149.196 22.9432 149.082 23.3646 149.082 23.8381V30.5H146.959ZM158.328 30.7131C157.447 30.7131 156.661 30.4882 155.97 30.0384C155.283 29.5838 154.743 28.9375 154.35 28.0994C153.962 27.2566 153.768 26.2457 153.768 25.0668C153.768 23.8878 153.965 22.8793 154.358 22.0412C154.755 21.2031 155.3 20.5616 155.991 20.1165C156.682 19.6714 157.466 19.4489 158.342 19.4489C159.019 19.4489 159.564 19.5625 159.975 19.7898C160.392 20.0123 160.714 20.2727 160.941 20.571C161.173 20.8693 161.353 21.1321 161.481 21.3594H161.609V15.9545H163.733V30.5H161.659V28.8026H161.481C161.353 29.0346 161.169 29.2997 160.927 29.598C160.69 29.8963 160.364 30.1567 159.947 30.3793C159.53 30.6018 158.991 30.7131 158.328 30.7131ZM158.797 28.902C159.407 28.902 159.923 28.741 160.345 28.419C160.771 28.0923 161.093 27.6402 161.311 27.0625C161.533 26.4848 161.645 25.8125 161.645 25.0455C161.645 24.2879 161.536 23.625 161.318 23.0568C161.1 22.4886 160.78 22.0459 160.359 21.7287C159.938 21.4115 159.417 21.2528 158.797 21.2528C158.157 21.2528 157.625 21.4186 157.199 21.75C156.772 22.0814 156.45 22.5336 156.233 23.1065C156.02 23.6795 155.913 24.3258 155.913 25.0455C155.913 25.7746 156.022 26.4304 156.24 27.0128C156.458 27.5952 156.779 28.0568 157.206 28.3977C157.636 28.7339 158.167 28.902 158.797 28.902Z" fill="#6290F2"/>
</svg>
