<svg width="63" height="12" viewBox="0 0 63 12" fill="none" xmlns="http://www.w3.org/2000/svg">
<path d="M9.57528 4.12926H8.02415C7.96449 3.79782 7.85346 3.50615 7.69105 3.25426C7.52865 3.00237 7.32978 2.78859 7.09446 2.61293C6.85914 2.43726 6.59564 2.30469 6.30398 2.2152C6.01563 2.12571 5.70904 2.08097 5.38423 2.08097C4.79759 2.08097 4.27225 2.22846 3.80824 2.52344C3.34754 2.81842 2.98295 3.25095 2.71449 3.82102C2.44934 4.3911 2.31676 5.08712 2.31676 5.90909C2.31676 6.73769 2.44934 7.43703 2.71449 8.0071C2.98295 8.57718 3.3492 9.00805 3.81321 9.29972C4.27723 9.59138 4.79924 9.73722 5.37926 9.73722C5.70076 9.73722 6.00568 9.69413 6.29403 9.60795C6.5857 9.51847 6.8492 9.38755 7.08452 9.2152C7.31984 9.04285 7.5187 8.83239 7.68111 8.58381C7.84683 8.33191 7.96117 8.04356 8.02415 7.71875L9.57528 7.72372C9.49242 8.22419 9.33168 8.6849 9.09304 9.10582C8.85772 9.52344 8.55445 9.88471 8.18324 10.1896C7.81534 10.4912 7.39441 10.7249 6.92045 10.8906C6.4465 11.0563 5.92945 11.1392 5.36932 11.1392C4.48769 11.1392 3.70218 10.9304 3.01278 10.5128C2.32339 10.0919 1.77983 9.49029 1.3821 8.7081C0.987689 7.9259 0.790483 6.9929 0.790483 5.90909C0.790483 4.82197 0.989347 3.88897 1.38707 3.11008C1.7848 2.32789 2.32836 1.72798 3.01776 1.31037C3.70715 0.889441 4.491 0.678977 5.36932 0.678977C5.90956 0.678977 6.41335 0.756865 6.88068 0.912642C7.35133 1.0651 7.77391 1.29048 8.14844 1.58878C8.52296 1.88376 8.83286 2.24503 9.07812 2.67258C9.32339 3.09683 9.48911 3.58239 9.57528 4.12926ZM13.5165 11.169C13.0326 11.169 12.5951 11.0795 12.204 10.9006C11.8129 10.7183 11.503 10.4548 11.2743 10.1101C11.0489 9.76539 10.9363 9.3428 10.9363 8.84233C10.9363 8.41146 11.0191 8.05682 11.1848 7.77841C11.3506 7.5 11.5743 7.27959 11.856 7.11719C12.1377 6.95478 12.4526 6.83215 12.8006 6.74929C13.1486 6.66643 13.5033 6.60346 13.8645 6.56037C14.3219 6.50734 14.6931 6.46425 14.9782 6.43111C15.2632 6.39465 15.4703 6.33665 15.5996 6.2571C15.7289 6.17756 15.7935 6.0483 15.7935 5.86932V5.83452C15.7935 5.40033 15.6709 5.06392 15.4256 4.82528C15.1837 4.58665 14.8224 4.46733 14.3418 4.46733C13.8413 4.46733 13.4469 4.57836 13.1586 4.80043C12.8735 5.01918 12.6763 5.26278 12.5669 5.53125L11.1699 5.21307C11.3356 4.74905 11.5776 4.37453 11.8958 4.08949C12.2173 3.80114 12.5868 3.59233 13.0044 3.46307C13.4221 3.33049 13.8612 3.2642 14.3219 3.2642C14.6268 3.2642 14.95 3.30066 15.2914 3.37358C15.6361 3.44318 15.9576 3.57244 16.2559 3.76136C16.5575 3.95028 16.8044 4.22041 16.9966 4.57173C17.1889 4.91974 17.285 5.37216 17.285 5.92898V11H15.8333V9.95597H15.7736C15.6775 10.1482 15.5333 10.3371 15.3411 10.5227C15.1489 10.7083 14.9019 10.8625 14.6003 10.9851C14.2987 11.1077 13.9374 11.169 13.5165 11.169ZM13.8397 9.97585C14.2507 9.97585 14.602 9.89465 14.8936 9.73224C15.1886 9.56984 15.4123 9.35772 15.5648 9.09588C15.7206 8.83073 15.7985 8.54735 15.7985 8.24574V7.26136C15.7454 7.31439 15.6427 7.36411 15.4902 7.41051C15.3411 7.4536 15.1704 7.49171 14.9782 7.52486C14.7859 7.55469 14.5987 7.58286 14.4164 7.60938C14.2341 7.63258 14.0816 7.65246 13.959 7.66903C13.6706 7.70549 13.4071 7.76681 13.1685 7.85298C12.9332 7.93916 12.7443 8.06345 12.6017 8.22585C12.4625 8.38494 12.3929 8.59706 12.3929 8.86222C12.3929 9.23011 12.5288 9.50852 12.8006 9.69744C13.0724 9.88305 13.4187 9.97585 13.8397 9.97585ZM20.7514 6.46591V11H19.2649V3.36364H20.6918V4.60653H20.7862C20.9619 4.20218 21.237 3.87737 21.6115 3.6321C21.9893 3.38684 22.465 3.2642 23.0384 3.2642C23.5587 3.2642 24.0144 3.37358 24.4055 3.59233C24.7966 3.80777 25.0999 4.12926 25.3153 4.55682C25.5308 4.98437 25.6385 5.51302 25.6385 6.14276V11H24.152V6.32173C24.152 5.76823 24.0078 5.3357 23.7195 5.02415C23.4311 4.70928 23.035 4.55185 22.5312 4.55185C22.1866 4.55185 21.88 4.62642 21.6115 4.77557C21.3464 4.92472 21.1359 5.14347 20.9801 5.43182C20.8277 5.71686 20.7514 6.06155 20.7514 6.46591ZM30.8487 11.1541C30.1096 11.1541 29.4732 10.9867 28.9396 10.652C28.4093 10.3139 28.0017 9.84825 27.7166 9.25497C27.4316 8.66169 27.2891 7.98224 27.2891 7.21662C27.2891 6.44105 27.4349 5.75663 27.7266 5.16335C28.0182 4.56676 28.4292 4.10109 28.9595 3.76633C29.4898 3.43158 30.1146 3.2642 30.8338 3.2642C31.4138 3.2642 31.9309 3.37192 32.3849 3.58736C32.839 3.79948 33.2053 4.09777 33.4837 4.48224C33.7654 4.86671 33.9328 5.31581 33.9858 5.82955H32.5391C32.4595 5.47159 32.2772 5.16335 31.9922 4.90483C31.7105 4.64631 31.3326 4.51705 30.8587 4.51705C30.4444 4.51705 30.0814 4.62642 29.7699 4.84517C29.4616 5.06061 29.2214 5.36884 29.049 5.76989C28.8767 6.16761 28.7905 6.63826 28.7905 7.18182C28.7905 7.73864 28.875 8.21922 29.044 8.62358C29.2131 9.02794 29.4517 9.34115 29.7599 9.56321C30.0715 9.78527 30.4377 9.89631 30.8587 9.89631C31.1404 9.89631 31.3956 9.84493 31.6243 9.74219C31.8563 9.63613 32.0502 9.48532 32.206 9.28977C32.3651 9.09422 32.4761 8.8589 32.5391 8.58381H33.9858C33.9328 9.07765 33.772 9.51847 33.5036 9.90625C33.2351 10.294 32.8755 10.599 32.4247 10.821C31.9773 11.0431 31.4519 11.1541 30.8487 11.1541ZM38.8667 11.1541C38.1143 11.1541 37.4663 10.9934 36.9228 10.6719C36.3825 10.3471 35.9649 9.89134 35.6699 9.30469C35.3783 8.71473 35.2324 8.02367 35.2324 7.23153C35.2324 6.44934 35.3783 5.75994 35.6699 5.16335C35.9649 4.56676 36.3759 4.10109 36.9029 3.76633C37.4332 3.43158 38.053 3.2642 38.7623 3.2642C39.1931 3.2642 39.6107 3.33546 40.0151 3.47798C40.4194 3.6205 40.7824 3.84422 41.1039 4.14915C41.4254 4.45407 41.6789 4.85014 41.8645 5.33736C42.0501 5.82126 42.1429 6.40956 42.1429 7.10227V7.62926H36.0726V6.51562H40.6863C40.6863 6.12453 40.6067 5.77817 40.4476 5.47656C40.2885 5.17164 40.0648 4.93134 39.7765 4.75568C39.4914 4.58002 39.1567 4.49219 38.7722 4.49219C38.3546 4.49219 37.99 4.59493 37.6784 4.80043C37.3702 5.0026 37.1316 5.26776 36.9625 5.59588C36.7968 5.92069 36.714 6.27367 36.714 6.65483V7.52486C36.714 8.03527 36.8034 8.46946 36.9824 8.82741C37.1647 9.18537 37.4183 9.45881 37.7431 9.64773C38.0679 9.83333 38.4474 9.92614 38.8816 9.92614C39.1633 9.92614 39.4202 9.88636 39.6522 9.80682C39.8842 9.72396 40.0847 9.60133 40.2537 9.43892C40.4228 9.27652 40.552 9.07599 40.6415 8.83736L42.0485 9.09091C41.9358 9.50521 41.7336 9.86813 41.4419 10.1797C41.1536 10.4879 40.7907 10.7282 40.3532 10.9006C39.919 11.0696 39.4235 11.1541 38.8667 11.1541ZM45.2788 0.818182V11H43.7923V0.818182H45.2788ZM50.5698 11.1541C49.8174 11.1541 49.1694 10.9934 48.6259 10.6719C48.0856 10.3471 47.668 9.89134 47.373 9.30469C47.0814 8.71473 46.9355 8.02367 46.9355 7.23153C46.9355 6.44934 47.0814 5.75994 47.373 5.16335C47.668 4.56676 48.079 4.10109 48.606 3.76633C49.1363 3.43158 49.7561 3.2642 50.4654 3.2642C50.8962 3.2642 51.3139 3.33546 51.7182 3.47798C52.1226 3.6205 52.4855 3.84422 52.807 4.14915C53.1285 4.45407 53.382 4.85014 53.5676 5.33736C53.7533 5.82126 53.8461 6.40956 53.8461 7.10227V7.62926H47.7757V6.51562H52.3894C52.3894 6.12453 52.3098 5.77817 52.1507 5.47656C51.9917 5.17164 51.7679 4.93134 51.4796 4.75568C51.1945 4.58002 50.8598 4.49219 50.4753 4.49219C50.0577 4.49219 49.6931 4.59493 49.3816 4.80043C49.0733 5.0026 48.8347 5.26776 48.6657 5.59588C48.4999 5.92069 48.4171 6.27367 48.4171 6.65483V7.52486C48.4171 8.03527 48.5066 8.46946 48.6855 8.82741C48.8678 9.18537 49.1214 9.45881 49.4462 9.64773C49.771 9.83333 50.1505 9.92614 50.5847 9.92614C50.8664 9.92614 51.1233 9.88636 51.3553 9.80682C51.5873 9.72396 51.7878 9.60133 51.9569 9.43892C52.1259 9.27652 52.2551 9.07599 52.3446 8.83736L53.7516 9.09091C53.6389 9.50521 53.4367 9.86813 53.1451 10.1797C52.8567 10.4879 52.4938 10.7282 52.0563 10.9006C51.6221 11.0696 51.1266 11.1541 50.5698 11.1541ZM58.354 11.1491C57.7376 11.1491 57.1874 10.9917 56.7035 10.6768C56.2229 10.3587 55.8451 9.90625 55.57 9.3196C55.2982 8.72964 55.1623 8.02202 55.1623 7.19673C55.1623 6.37145 55.2998 5.66548 55.5749 5.07884C55.8533 4.49219 56.2345 4.04309 56.7184 3.73153C57.2023 3.41998 57.7508 3.2642 58.364 3.2642C58.8379 3.2642 59.2191 3.34375 59.5075 3.50284C59.7991 3.65862 60.0245 3.84091 60.1836 4.04972C60.346 4.25852 60.4719 4.44247 60.5614 4.60156H60.6509V0.818182H62.1374V11H60.6857V9.81179H60.5614C60.4719 9.9742 60.3427 10.1598 60.1737 10.3686C60.0079 10.5774 59.7792 10.7597 59.4876 10.9155C59.1959 11.0713 58.8181 11.1491 58.354 11.1491ZM58.6822 9.88139C59.1097 9.88139 59.471 9.7687 59.766 9.54332C60.0643 9.31463 60.2897 8.99811 60.4421 8.59375C60.5979 8.18939 60.6758 7.71875 60.6758 7.18182C60.6758 6.65151 60.5996 6.1875 60.4471 5.78977C60.2946 5.39205 60.0709 5.08215 59.7759 4.86009C59.4809 4.63802 59.1164 4.52699 58.6822 4.52699C58.2347 4.52699 57.8619 4.64299 57.5636 4.875C57.2653 5.10701 57.0399 5.42353 56.8874 5.82457C56.7383 6.22562 56.6637 6.67803 56.6637 7.18182C56.6637 7.69223 56.7399 8.15128 56.8924 8.55895C57.0449 8.96662 57.2702 9.28977 57.5685 9.52841C57.8701 9.76373 58.2414 9.88139 58.6822 9.88139Z" fill="#667085"/>
</svg>
