<svg width="70" height="12" viewBox="0 0 70 12" fill="none" xmlns="http://www.w3.org/2000/svg">
<path d="M0.618608 11V0.818182H4.24787C5.04001 0.818182 5.69626 0.962358 6.21662 1.25071C6.73698 1.53906 7.12642 1.93347 7.38494 2.43395C7.64347 2.93111 7.77273 3.49124 7.77273 4.11435C7.77273 4.74077 7.64181 5.30421 7.37997 5.80469C7.12145 6.30185 6.73035 6.69626 6.20668 6.98793C5.68632 7.27628 5.03172 7.42045 4.2429 7.42045H1.74716V6.1179H4.10369C4.60417 6.1179 5.01018 6.03172 5.32173 5.85938C5.63329 5.68371 5.86198 5.44508 6.00781 5.14347C6.15365 4.84186 6.22656 4.49882 6.22656 4.11435C6.22656 3.72988 6.15365 3.38849 6.00781 3.0902C5.86198 2.7919 5.63163 2.55824 5.31676 2.3892C5.00521 2.22017 4.59422 2.13565 4.08381 2.13565H2.15483V11H0.618608ZM14.2917 7.8331V3.36364H15.7832V11H14.3216V9.67756H14.242C14.0663 10.0852 13.7846 10.425 13.3968 10.6967C13.0124 10.9652 12.5334 11.0994 11.96 11.0994C11.4695 11.0994 11.0353 10.9917 10.6575 10.7763C10.283 10.5575 9.98799 10.2344 9.77255 9.80682C9.56043 9.37926 9.45437 8.85062 9.45437 8.22088V3.36364H10.9409V8.0419C10.9409 8.56226 11.085 8.97656 11.3734 9.2848C11.6618 9.59304 12.0363 9.74716 12.497 9.74716C12.7754 9.74716 13.0521 9.67756 13.3272 9.53835C13.6056 9.39915 13.836 9.18868 14.0183 8.90696C14.2039 8.62524 14.295 8.26728 14.2917 7.8331ZM17.7805 11V3.36364H19.2173V4.5767H19.2969C19.4361 4.16572 19.6813 3.84257 20.0327 3.60724C20.3873 3.36861 20.7884 3.24929 21.2358 3.24929C21.3286 3.24929 21.438 3.2526 21.5639 3.25923C21.6932 3.26586 21.7943 3.27415 21.8672 3.28409V4.70597C21.8075 4.68939 21.7015 4.67116 21.549 4.65128C21.3965 4.62808 21.2441 4.61648 21.0916 4.61648C20.7403 4.61648 20.4271 4.69105 20.152 4.8402C19.8802 4.98603 19.6648 5.18987 19.5057 5.4517C19.3466 5.71023 19.267 6.00521 19.267 6.33665V11H17.7805ZM26.0968 11.1541C25.3577 11.1541 24.7213 10.9867 24.1877 10.652C23.6574 10.3139 23.2497 9.84825 22.9647 9.25497C22.6796 8.66169 22.5371 7.98224 22.5371 7.21662C22.5371 6.44105 22.6829 5.75663 22.9746 5.16335C23.2663 4.56676 23.6773 4.10109 24.2076 3.76633C24.7379 3.43158 25.3626 3.2642 26.0819 3.2642C26.6619 3.2642 27.1789 3.37192 27.633 3.58736C28.0871 3.79948 28.4533 4.09777 28.7317 4.48224C29.0134 4.86671 29.1808 5.31581 29.2338 5.82955H27.7871C27.7076 5.47159 27.5253 5.16335 27.2402 4.90483C26.9585 4.64631 26.5807 4.51705 26.1067 4.51705C25.6924 4.51705 25.3295 4.62642 25.0179 4.84517C24.7097 5.06061 24.4694 5.36884 24.2971 5.76989C24.1247 6.16761 24.0385 6.63826 24.0385 7.18182C24.0385 7.73864 24.123 8.21922 24.2921 8.62358C24.4611 9.02794 24.6998 9.34115 25.008 9.56321C25.3195 9.78527 25.6858 9.89631 26.1067 9.89631C26.3884 9.89631 26.6436 9.84493 26.8723 9.74219C27.1043 9.63613 27.2982 9.48532 27.454 9.28977C27.6131 9.09422 27.7241 8.8589 27.7871 8.58381H29.2338C29.1808 9.07765 29.0201 9.51847 28.7516 9.90625C28.4831 10.294 28.1235 10.599 27.6728 10.821C27.2253 11.0431 26.7 11.1541 26.0968 11.1541ZM32.31 6.46591V11H30.8235V0.818182H32.2901V4.60653H32.3846C32.5636 4.19555 32.837 3.86908 33.2049 3.62713C33.5728 3.38518 34.0534 3.2642 34.6467 3.2642C35.1703 3.2642 35.6277 3.37192 36.0188 3.58736C36.4132 3.80279 36.7182 4.12429 36.9336 4.55185C37.1523 4.97609 37.2617 5.50639 37.2617 6.14276V11H35.7752V6.32173C35.7752 5.7616 35.631 5.32741 35.3427 5.01918C35.0543 4.70762 34.6533 4.55185 34.1396 4.55185C33.7882 4.55185 33.4734 4.62642 33.195 4.77557C32.9199 4.92472 32.7028 5.14347 32.5437 5.43182C32.3879 5.71686 32.31 6.06155 32.31 6.46591ZM41.4677 11.169C40.9838 11.169 40.5463 11.0795 40.1552 10.9006C39.7641 10.7183 39.4542 10.4548 39.2255 10.1101C39.0001 9.76539 38.8874 9.3428 38.8874 8.84233C38.8874 8.41146 38.9703 8.05682 39.136 7.77841C39.3017 7.5 39.5254 7.27959 39.8072 7.11719C40.0889 6.95478 40.4038 6.83215 40.7518 6.74929C41.0998 6.66643 41.4544 6.60346 41.8157 6.56037C42.2731 6.50734 42.6443 6.46425 42.9293 6.43111C43.2144 6.39465 43.4215 6.33665 43.5508 6.2571C43.68 6.17756 43.7447 6.0483 43.7447 5.86932V5.83452C43.7447 5.40033 43.622 5.06392 43.3768 4.82528C43.1348 4.58665 42.7736 4.46733 42.293 4.46733C41.7925 4.46733 41.3981 4.57836 41.1097 4.80043C40.8247 5.01918 40.6275 5.26278 40.5181 5.53125L39.1211 5.21307C39.2868 4.74905 39.5288 4.37453 39.8469 4.08949C40.1684 3.80114 40.538 3.59233 40.9556 3.46307C41.3732 3.33049 41.8124 3.2642 42.2731 3.2642C42.578 3.2642 42.9012 3.30066 43.2425 3.37358C43.5872 3.44318 43.9087 3.57244 44.207 3.76136C44.5086 3.95028 44.7556 4.22041 44.9478 4.57173C45.14 4.91974 45.2362 5.37216 45.2362 5.92898V11H43.7844V9.95597H43.7248C43.6287 10.1482 43.4845 10.3371 43.2923 10.5227C43.1 10.7083 42.8531 10.8625 42.5515 10.9851C42.2499 11.1077 41.8886 11.169 41.4677 11.169ZM41.7908 9.97585C42.2018 9.97585 42.5531 9.89465 42.8448 9.73224C43.1398 9.56984 43.3635 9.35772 43.516 9.09588C43.6718 8.83073 43.7496 8.54735 43.7496 8.24574V7.26136C43.6966 7.31439 43.5939 7.36411 43.4414 7.41051C43.2923 7.4536 43.1216 7.49171 42.9293 7.52486C42.7371 7.55469 42.5498 7.58286 42.3675 7.60938C42.1853 7.63258 42.0328 7.65246 41.9102 7.66903C41.6218 7.70549 41.3583 7.76681 41.1197 7.85298C40.8844 7.93916 40.6954 8.06345 40.5529 8.22585C40.4137 8.38494 40.3441 8.59706 40.3441 8.86222C40.3441 9.23011 40.48 9.50852 40.7518 9.69744C41.0236 9.88305 41.3699 9.97585 41.7908 9.97585ZM52.9384 5.22798L51.5911 5.46662C51.5347 5.29427 51.4453 5.13021 51.3226 4.97443C51.2033 4.81865 51.0409 4.69105 50.8354 4.59162C50.6299 4.49219 50.373 4.44247 50.0648 4.44247C49.6439 4.44247 49.2926 4.53693 49.0108 4.72585C48.7291 4.91146 48.5882 5.15175 48.5882 5.44673C48.5882 5.70194 48.6827 5.90743 48.8716 6.06321C49.0605 6.21899 49.3655 6.34659 49.7864 6.44602L50.9995 6.72443C51.7021 6.88684 52.2258 7.13707 52.5705 7.47514C52.9152 7.81321 53.0875 8.25237 53.0875 8.79261C53.0875 9.25 52.955 9.65767 52.6898 10.0156C52.428 10.3703 52.0617 10.6487 51.5911 10.8509C51.1238 11.053 50.5819 11.1541 49.9654 11.1541C49.1103 11.1541 48.4126 10.9718 47.8723 10.6072C47.3321 10.2393 47.0007 9.71733 46.878 9.04119L48.3148 8.82244C48.4043 9.19697 48.5882 9.48035 48.8667 9.67259C49.1451 9.86151 49.508 9.95597 49.9554 9.95597C50.4426 9.95597 50.8321 9.85488 51.1238 9.6527C51.4154 9.44721 51.5613 9.19697 51.5613 8.90199C51.5613 8.66335 51.4718 8.46283 51.2928 8.30043C51.1171 8.13802 50.847 8.01539 50.4824 7.93253L49.1898 7.64915C48.4772 7.48674 47.9502 7.22822 47.6088 6.87358C47.2708 6.51894 47.1017 6.06984 47.1017 5.52628C47.1017 5.07552 47.2277 4.68111 47.4796 4.34304C47.7315 4.00497 48.0795 3.74148 48.5236 3.55256C48.9677 3.36032 49.4765 3.2642 50.0499 3.2642C50.8752 3.2642 51.5248 3.44318 51.9988 3.80114C52.4727 4.15578 52.7859 4.63139 52.9384 5.22798ZM58.0131 11.1541C57.2608 11.1541 56.6128 10.9934 56.0692 10.6719C55.529 10.3471 55.1114 9.89134 54.8164 9.30469C54.5247 8.71473 54.3789 8.02367 54.3789 7.23153C54.3789 6.44934 54.5247 5.75994 54.8164 5.16335C55.1114 4.56676 55.5224 4.10109 56.0494 3.76633C56.5797 3.43158 57.1995 3.2642 57.9087 3.2642C58.3396 3.2642 58.7572 3.33546 59.1616 3.47798C59.5659 3.6205 59.9289 3.84422 60.2504 4.14915C60.5719 4.45407 60.8254 4.85014 61.011 5.33736C61.1966 5.82126 61.2894 6.40956 61.2894 7.10227V7.62926H55.2191V6.51562H59.8327C59.8327 6.12453 59.7532 5.77817 59.5941 5.47656C59.435 5.17164 59.2113 4.93134 58.9229 4.75568C58.6379 4.58002 58.3031 4.49219 57.9187 4.49219C57.5011 4.49219 57.1365 4.59493 56.8249 4.80043C56.5167 5.0026 56.2781 5.26776 56.109 5.59588C55.9433 5.92069 55.8604 6.27367 55.8604 6.65483V7.52486C55.8604 8.03527 55.9499 8.46946 56.1289 8.82741C56.3112 9.18537 56.5647 9.45881 56.8896 9.64773C57.2144 9.83333 57.5939 9.92614 58.0281 9.92614C58.3098 9.92614 58.5666 9.88636 58.7987 9.80682C59.0307 9.72396 59.2312 9.60133 59.4002 9.43892C59.5692 9.27652 59.6985 9.07599 59.788 8.83736L61.195 9.09091C61.0823 9.50521 60.8801 9.86813 60.5884 10.1797C60.3001 10.4879 59.9371 10.7282 59.4996 10.9006C59.0655 11.0696 58.57 11.1541 58.0131 11.1541ZM65.7974 11.1491C65.1809 11.1491 64.6307 10.9917 64.1468 10.6768C63.6663 10.3587 63.2884 9.90625 63.0133 9.3196C62.7415 8.72964 62.6056 8.02202 62.6056 7.19673C62.6056 6.37145 62.7432 5.66548 63.0183 5.07884C63.2967 4.49219 63.6779 4.04309 64.1618 3.73153C64.6457 3.41998 65.1942 3.2642 65.8074 3.2642C66.2813 3.2642 66.6625 3.34375 66.9508 3.50284C67.2425 3.65862 67.4679 3.84091 67.627 4.04972C67.7894 4.25852 67.9153 4.44247 68.0048 4.60156H68.0943V0.818182H69.5808V11H68.1291V9.81179H68.0048C67.9153 9.9742 67.786 10.1598 67.617 10.3686C67.4513 10.5774 67.2226 10.7597 66.9309 10.9155C66.6393 11.0713 66.2614 11.1491 65.7974 11.1491ZM66.1255 9.88139C66.5531 9.88139 66.9144 9.7687 67.2093 9.54332C67.5076 9.31463 67.733 8.99811 67.8855 8.59375C68.0413 8.18939 68.1191 7.71875 68.1191 7.18182C68.1191 6.65151 68.0429 6.1875 67.8904 5.78977C67.738 5.39205 67.5143 5.08215 67.2193 4.86009C66.9243 4.63802 66.5597 4.52699 66.1255 4.52699C65.6781 4.52699 65.3052 4.64299 65.0069 4.875C64.7086 5.10701 64.4833 5.42353 64.3308 5.82457C64.1816 6.22562 64.1071 6.67803 64.1071 7.18182C64.1071 7.69223 64.1833 8.15128 64.3358 8.55895C64.4882 8.96662 64.7136 9.28977 65.0119 9.52841C65.3135 9.76373 65.6847 9.88139 66.1255 9.88139Z" fill="#667085"/>
</svg>
