<svg width="30" height="30" viewBox="0 0 30 30" fill="none" xmlns="http://www.w3.org/2000/svg">
<rect width="30" height="30" rx="4" fill="#E5F6FD"/>
<path d="M23.2579 8.47911C23.2217 8.15261 22.9676 7.89851 22.6411 7.89851H19.6295C19.6295 5.21341 17.4161 3 14.731 3C12.0458 3 9.83245 5.17719 9.83245 7.89851H6.82085C6.49435 7.89851 6.24024 8.15262 6.20405 8.47911L4.75281 24.6619V24.7345C4.75281 26.5488 6.42201 28 8.45387 28H21.0082C23.0401 28 24.7093 26.5488 24.7093 24.7345V24.6619L23.2579 8.47911ZM14.7311 4.27007C16.7268 4.27007 18.3595 5.9028 18.3595 7.8985H11.1026C11.1026 5.90306 12.7354 4.27007 14.7311 4.27007ZM21.0082 26.7663H8.45381C7.11135 26.7663 6.02276 25.8592 5.9866 24.7706L7.36547 9.16839H9.83267V11.3456C9.83267 11.6721 10.123 11.9624 10.4495 11.9624C10.776 11.9624 11.0663 11.6721 11.0663 11.3456V9.16839H18.3594V11.3456C18.3594 11.6721 18.6497 11.9624 18.9762 11.9624C19.3027 11.9624 19.593 11.6721 19.593 11.3456V9.16839H22.0602L23.4391 24.7706C23.4393 25.8592 22.351 26.7663 21.0083 26.7663H21.0082Z" fill="#009ED8"/>
</svg>
