<svg width="60" height="12" viewBox="0 0 60 12" fill="none" xmlns="http://www.w3.org/2000/svg">
<path d="M0.118608 11V0.818182H3.74787C4.5367 0.818182 5.19129 0.954072 5.71165 1.22585C6.23532 1.49763 6.62642 1.87382 6.88494 2.3544C7.14347 2.83168 7.27273 3.38352 7.27273 4.00994C7.27273 4.63305 7.14181 5.18158 6.87997 5.65554C6.62145 6.12618 6.23035 6.49242 5.70668 6.75426C5.18632 7.0161 4.53172 7.14702 3.7429 7.14702H0.993608V5.82457H3.60369C4.10085 5.82457 4.50521 5.75331 4.81676 5.6108C5.13163 5.46828 5.36198 5.26113 5.50781 4.98935C5.65365 4.71757 5.72656 4.3911 5.72656 4.00994C5.72656 3.62547 5.65199 3.29238 5.50284 3.01065C5.35701 2.72893 5.12666 2.51349 4.81179 2.36435C4.50024 2.21188 4.09091 2.13565 3.58381 2.13565H1.65483V11H0.118608ZM5.14489 6.40625L7.66051 11H5.91051L3.4446 6.40625H5.14489ZM12.2182 11.1541C11.4658 11.1541 10.8179 10.9934 10.2743 10.6719C9.73408 10.3471 9.31647 9.89134 9.02148 9.30469C8.72982 8.71473 8.58398 8.02367 8.58398 7.23153C8.58398 6.44934 8.72982 5.75994 9.02148 5.16335C9.31647 4.56676 9.72745 4.10109 10.2544 3.76633C10.7847 3.43158 11.4045 3.2642 12.1138 3.2642C12.5447 3.2642 12.9623 3.33546 13.3667 3.47798C13.771 3.6205 14.1339 3.84422 14.4554 4.14915C14.7769 4.45407 15.0305 4.85014 15.2161 5.33736C15.4017 5.82126 15.4945 6.40956 15.4945 7.10227V7.62926H9.42418V6.51562H14.0378C14.0378 6.12453 13.9583 5.77817 13.7992 5.47656C13.6401 5.17164 13.4164 4.93134 13.128 4.75568C12.843 4.58002 12.5082 4.49219 12.1238 4.49219C11.7061 4.49219 11.3416 4.59493 11.03 4.80043C10.7218 5.0026 10.4831 5.26776 10.3141 5.59588C10.1484 5.92069 10.0655 6.27367 10.0655 6.65483V7.52486C10.0655 8.03527 10.155 8.46946 10.334 8.82741C10.5163 9.18537 10.7698 9.45881 11.0946 9.64773C11.4194 9.83333 11.7989 9.92614 12.2331 9.92614C12.5149 9.92614 12.7717 9.88636 13.0037 9.80682C13.2357 9.72396 13.4363 9.60133 13.6053 9.43892C13.7743 9.27652 13.9036 9.07599 13.9931 8.83736L15.4 9.09091C15.2873 9.50521 15.0852 9.86813 14.7935 10.1797C14.5051 10.4879 14.1422 10.7282 13.7047 10.9006C13.2705 11.0696 12.775 11.1541 12.2182 11.1541ZM20.7085 3.36364V4.55682H16.5373V3.36364H20.7085ZM17.6559 1.53409H19.1424V8.75781C19.1424 9.04616 19.1855 9.26326 19.2717 9.40909C19.3578 9.55161 19.4689 9.64938 19.6048 9.70241C19.744 9.75213 19.8948 9.77699 20.0572 9.77699C20.1765 9.77699 20.2809 9.7687 20.3704 9.75213C20.4599 9.73556 20.5295 9.7223 20.5792 9.71236L20.8477 10.9403C20.7615 10.9735 20.6388 11.0066 20.4798 11.0398C20.3207 11.0762 20.1218 11.0961 19.8832 11.0994C19.4921 11.1061 19.1275 11.0365 18.7894 10.8906C18.4513 10.7448 18.1779 10.5194 17.9691 10.2145C17.7603 9.90956 17.6559 9.52675 17.6559 9.06605V1.53409ZM27.1902 7.8331V3.36364H28.6816V11H27.22V9.67756H27.1404C26.9648 10.0852 26.6831 10.425 26.2953 10.6967C25.9108 10.9652 25.4319 11.0994 24.8585 11.0994C24.368 11.0994 23.9338 10.9917 23.5559 10.7763C23.1814 10.5575 22.8864 10.2344 22.671 9.80682C22.4589 9.37926 22.3528 8.85062 22.3528 8.22088V3.36364H23.8393V8.0419C23.8393 8.56226 23.9835 8.97656 24.2718 9.2848C24.5602 9.59304 24.9347 9.74716 25.3954 9.74716C25.6738 9.74716 25.9506 9.67756 26.2257 9.53835C26.5041 9.39915 26.7344 9.18868 26.9167 8.90696C27.1023 8.62524 27.1935 8.26728 27.1902 7.8331ZM30.679 11V3.36364H32.1158V4.5767H32.1953C32.3345 4.16572 32.5798 3.84257 32.9311 3.60724C33.2857 3.36861 33.6868 3.24929 34.1342 3.24929C34.227 3.24929 34.3364 3.2526 34.4624 3.25923C34.5916 3.26586 34.6927 3.27415 34.7656 3.28409V4.70597C34.706 4.68939 34.5999 4.67116 34.4474 4.65128C34.295 4.62808 34.1425 4.61648 33.9901 4.61648C33.6387 4.61648 33.3255 4.69105 33.0504 4.8402C32.7786 4.98603 32.5632 5.18987 32.4041 5.4517C32.245 5.71023 32.1655 6.00521 32.1655 6.33665V11H30.679ZM37.5385 6.46591V11H36.052V3.36364H37.4789V4.60653H37.5733C37.749 4.20218 38.0241 3.87737 38.3986 3.6321C38.7765 3.38684 39.2521 3.2642 39.8255 3.2642C40.3458 3.2642 40.8016 3.37358 41.1926 3.59233C41.5837 3.80777 41.887 4.12926 42.1025 4.55682C42.3179 4.98437 42.4256 5.51302 42.4256 6.14276V11H40.9391V6.32173C40.9391 5.76823 40.7949 5.3357 40.5066 5.02415C40.2182 4.70928 39.8221 4.55185 39.3184 4.55185C38.9737 4.55185 38.6671 4.62642 38.3986 4.77557C38.1335 4.92472 37.923 5.14347 37.7672 5.43182C37.6148 5.71686 37.5385 6.06155 37.5385 6.46591ZM47.7104 11.1541C46.958 11.1541 46.3101 10.9934 45.7665 10.6719C45.2263 10.3471 44.8087 9.89134 44.5137 9.30469C44.222 8.71473 44.0762 8.02367 44.0762 7.23153C44.0762 6.44934 44.222 5.75994 44.5137 5.16335C44.8087 4.56676 45.2196 4.10109 45.7466 3.76633C46.2769 3.43158 46.8967 3.2642 47.606 3.2642C48.0369 3.2642 48.4545 3.33546 48.8588 3.47798C49.2632 3.6205 49.6261 3.84422 49.9476 4.14915C50.2691 4.45407 50.5227 4.85014 50.7083 5.33736C50.8939 5.82126 50.9867 6.40956 50.9867 7.10227V7.62926H44.9164V6.51562H49.53C49.53 6.12453 49.4505 5.77817 49.2914 5.47656C49.1323 5.17164 48.9086 4.93134 48.6202 4.75568C48.3352 4.58002 48.0004 4.49219 47.6159 4.49219C47.1983 4.49219 46.8337 4.59493 46.5222 4.80043C46.214 5.0026 45.9753 5.26776 45.8063 5.59588C45.6406 5.92069 45.5577 6.27367 45.5577 6.65483V7.52486C45.5577 8.03527 45.6472 8.46946 45.8262 8.82741C46.0085 9.18537 46.262 9.45881 46.5868 9.64773C46.9116 9.83333 47.2911 9.92614 47.7253 9.92614C48.007 9.92614 48.2639 9.88636 48.4959 9.80682C48.7279 9.72396 48.9284 9.60133 49.0975 9.43892C49.2665 9.27652 49.3958 9.07599 49.4853 8.83736L50.8922 9.09091C50.7795 9.50521 50.5774 9.86813 50.2857 10.1797C49.9973 10.4879 49.6344 10.7282 49.1969 10.9006C48.7627 11.0696 48.2672 11.1541 47.7104 11.1541ZM55.4947 11.1491C54.8782 11.1491 54.328 10.9917 53.8441 10.6768C53.3635 10.3587 52.9857 9.90625 52.7106 9.3196C52.4388 8.72964 52.3029 8.02202 52.3029 7.19673C52.3029 6.37145 52.4405 5.66548 52.7156 5.07884C52.994 4.49219 53.3751 4.04309 53.859 3.73153C54.3429 3.41998 54.8915 3.2642 55.5046 3.2642C55.9786 3.2642 56.3597 3.34375 56.6481 3.50284C56.9397 3.65862 57.1651 3.84091 57.3242 4.04972C57.4866 4.25852 57.6126 4.44247 57.7021 4.60156H57.7915V0.818182H59.2781V11H57.8263V9.81179H57.7021C57.6126 9.9742 57.4833 10.1598 57.3143 10.3686C57.1486 10.5774 56.9199 10.7597 56.6282 10.9155C56.3365 11.0713 55.9587 11.1491 55.4947 11.1491ZM55.8228 9.88139C56.2504 9.88139 56.6116 9.7687 56.9066 9.54332C57.2049 9.31463 57.4303 8.99811 57.5827 8.59375C57.7385 8.18939 57.8164 7.71875 57.8164 7.18182C57.8164 6.65151 57.7402 6.1875 57.5877 5.78977C57.4353 5.39205 57.2115 5.08215 56.9165 4.86009C56.6216 4.63802 56.257 4.52699 55.8228 4.52699C55.3754 4.52699 55.0025 4.64299 54.7042 4.875C54.4059 5.10701 54.1805 5.42353 54.0281 5.82457C53.8789 6.22562 53.8043 6.67803 53.8043 7.18182C53.8043 7.69223 53.8806 8.15128 54.033 8.55895C54.1855 8.96662 54.4109 9.28977 54.7092 9.52841C55.0108 9.76373 55.382 9.88139 55.8228 9.88139Z" fill="#667085"/>
</svg>
