<svg width="30" height="30" viewBox="0 0 30 30" fill="none" xmlns="http://www.w3.org/2000/svg">
<rect width="30" height="30" rx="4" fill="#E8F1FD"/>
<path d="M18.6192 8.33914C19.2298 8.33914 19.8155 8.09663 20.2473 7.66486C20.6791 7.23305 20.9216 6.64732 20.9216 6.03676C20.9216 5.42602 20.6791 4.84049 20.2473 4.40866C19.8155 3.97686 19.2298 3.73438 18.6192 3.73438C18.0085 3.73438 17.4229 3.97689 16.9911 4.40866C16.5593 4.84046 16.3166 5.42597 16.3166 6.03676C16.3166 6.64732 16.5593 7.23303 16.9911 7.66486C17.4229 8.09666 18.0084 8.33914 18.6192 8.33914ZM18.6192 5.04994C18.8808 5.04994 19.1318 5.15387 19.3169 5.33903C19.5019 5.52395 19.6058 5.77496 19.6058 6.03675C19.6058 6.29831 19.5019 6.54932 19.3169 6.73448C19.1318 6.9194 18.8808 7.02357 18.6192 7.02357C18.3574 7.02357 18.1064 6.9194 17.9213 6.73448C17.7363 6.54932 17.6324 6.29832 17.6324 6.03675C17.6324 5.77497 17.7363 5.52396 17.9213 5.33903C18.1064 5.15388 18.3574 5.04994 18.6192 5.04994Z" fill="#629FF4"/>
<path d="M22.2373 10.6416C22.2373 11.2524 22.4798 11.8379 22.9116 12.2697C23.3434 12.7015 23.9291 12.944 24.5397 12.944C25.1504 12.944 25.736 12.7015 26.1678 12.2697C26.5996 11.8379 26.8423 11.2524 26.8423 10.6416C26.8423 10.0311 26.5996 9.44535 26.1678 9.01352C25.736 8.58172 25.1505 8.33923 24.5397 8.33923C23.9291 8.33923 23.3434 8.58175 22.9116 9.01352C22.4798 9.44532 22.2373 10.0311 22.2373 10.6416ZM25.5265 10.6416C25.5265 10.9034 25.4226 11.1544 25.2376 11.3393C25.0525 11.5245 24.8015 11.6284 24.5397 11.6284C24.2781 11.6284 24.0271 11.5245 23.842 11.3393C23.657 11.1544 23.5531 10.9034 23.5531 10.6416C23.5531 10.3801 23.657 10.1291 23.842 9.94389C24.0271 9.75897 24.2781 9.6548 24.5397 9.6548C24.8015 9.6548 25.0525 9.75896 25.2376 9.94389C25.4226 10.129 25.5265 10.3801 25.5265 10.6416Z" fill="#629FF4"/>
<path d="M18.228 12.651C18.3682 12.7551 18.5444 12.799 18.7172 12.773C18.8899 12.7471 19.0452 12.6535 19.149 12.5128L24.7405 4.94768V4.94791C24.9567 4.65537 24.895 4.24308 24.6024 4.02693C24.3099 3.81057 23.8976 3.87252 23.6814 4.16505L18.0899 11.7302V11.73C17.9857 11.8704 17.9419 12.0464 17.9678 12.2191C17.9937 12.3919 18.0873 12.5475 18.228 12.651L18.228 12.651Z" fill="#629FF4"/>
<path d="M8.09378 9.32593C7.15977 9.32593 2.5022 9.42137 2.5022 11.2996C2.5022 13.1778 7.15977 13.2732 8.09378 13.2732C9.0278 13.2732 13.6854 13.1778 13.6854 11.2996C13.6856 9.42137 9.02804 9.32593 8.09378 9.32593ZM8.09378 11.9573C5.89671 11.9573 4.47554 11.579 3.96254 11.2996C4.4758 11.0199 5.89671 10.6416 8.09378 10.6416C10.2909 10.6416 11.712 11.0199 12.225 11.2993C11.712 11.579 10.2911 11.9573 8.09378 11.9573Z" fill="#629FF4"/>
<path d="M13.0276 12.7795C12.7018 12.7752 12.4219 13.0103 12.3698 13.332C12.0802 13.6082 10.5772 14.0951 8.09376 14.0951C5.61059 14.0951 4.09743 13.6018 3.81797 13.332C3.78883 12.9688 3.47083 12.6978 3.10739 12.7267C2.74419 12.7559 2.47321 13.0739 2.50211 13.4373C2.50211 15.3155 7.15968 15.4109 8.0937 15.4109C9.02772 15.4109 13.6853 15.3155 13.6853 13.4373H13.6855C13.6855 13.2627 13.6162 13.0954 13.4928 12.972C13.3694 12.8488 13.2021 12.7795 13.0275 12.7795H13.0276Z" fill="#629FF4"/>
<path d="M13.0276 15.082C12.7018 15.0779 12.4219 15.3128 12.3698 15.6345C12.0802 15.9107 10.5772 16.3976 8.09376 16.3976C5.61059 16.3976 4.09743 15.9043 3.81797 15.6345C3.78883 15.2713 3.47083 15.0003 3.10739 15.0292C2.74419 15.0584 2.47321 15.3764 2.50211 15.7398C2.50211 17.618 7.15968 17.7134 8.0937 17.7134C9.02772 17.7134 13.6853 17.618 13.6853 15.7398H13.6855C13.6855 15.5654 13.6162 15.3979 13.4928 15.2747C13.3694 15.1513 13.2021 15.082 13.0275 15.082H13.0276Z" fill="#629FF4"/>
<path d="M13.0276 17.3844C12.7018 17.3803 12.4219 17.6152 12.3698 17.9369C12.0802 18.2131 10.5772 18.7 8.09376 18.7C5.61059 18.7 4.09743 18.2067 3.81797 17.9369C3.78883 17.5737 3.47083 17.3027 3.10739 17.3319C2.74419 17.3608 2.47321 17.679 2.50211 18.0422C2.50211 19.9204 7.15968 20.0158 8.0937 20.0158C9.02772 20.0158 13.6853 19.9204 13.6853 18.0422H13.6855C13.6855 17.8678 13.6162 17.7003 13.4928 17.5771C13.3694 17.4537 13.2021 17.3844 13.0275 17.3844H13.0276Z" fill="#629FF4"/>
<path d="M13.0276 19.6869C12.7018 19.6828 12.4219 19.9177 12.3698 20.2396C12.0802 20.5159 10.5772 21.0027 8.09376 21.0027C5.61059 21.0027 4.09743 20.5092 3.81797 20.2396C3.78883 19.8762 3.47083 19.6052 3.10739 19.6343C2.74419 19.6635 2.47321 19.9815 2.50211 20.3447C2.50211 22.2229 7.15968 22.3183 8.0937 22.3183C9.02772 22.3183 13.6853 22.2229 13.6853 20.3447H13.6855C13.6855 20.1703 13.6162 20.0031 13.4928 19.8796C13.3694 19.7562 13.2021 19.6869 13.0275 19.6869H13.0276Z" fill="#629FF4"/>
<path d="M13.0276 21.9893C12.7018 21.9851 12.4219 22.2203 12.3698 22.542C12.0802 22.8182 10.5772 23.3051 8.09376 23.3051C5.61059 23.3051 4.09743 22.8116 3.81797 22.542C3.78883 22.1786 3.47083 21.9076 3.10739 21.9367C2.74419 21.9659 2.47321 22.2839 2.50211 22.6473C2.50211 24.5255 7.15968 24.6209 8.0937 24.6209C9.02772 24.6209 13.6853 24.5255 13.6853 22.6473H13.6855C13.6855 22.4727 13.6162 22.3054 13.4928 22.182C13.3694 22.0586 13.2021 21.9893 13.0275 21.9893L13.0276 21.9893Z" fill="#629FF4"/>
<path d="M21.9084 19.5225C22.8424 19.5225 27.5 19.427 27.5 17.5488C27.5 15.6706 22.8424 15.5752 21.9084 15.5752C20.9744 15.5752 16.3168 15.6706 16.3168 17.5488C16.3166 19.4272 20.9742 19.5225 21.9084 19.5225ZM21.9084 16.8911C24.1055 16.8911 25.5267 17.2694 26.0397 17.5488C25.5264 17.8285 24.1055 18.2069 21.9084 18.2069C19.7114 18.2069 18.2902 17.8285 17.7772 17.5491C18.2902 17.2694 19.7111 16.8913 21.9084 16.8913V16.8911Z" fill="#629FF4"/>
<path d="M26.8422 19.0291C26.5162 19.0249 26.2365 19.2599 26.1842 19.5815C25.8946 19.8578 24.3916 20.3446 21.9082 20.3446C19.425 20.3446 17.9118 19.8514 17.6324 19.5815C17.6032 19.2183 17.2852 18.9474 16.9218 18.9765C16.5586 19.0054 16.2876 19.3237 16.3165 19.6869C16.3165 21.5651 20.9741 21.6605 21.9081 21.6605C22.8421 21.6605 27.4997 21.5651 27.4997 19.6869H27.4999C27.4999 19.5125 27.4306 19.345 27.3072 19.2218C27.1837 19.0984 27.0165 19.0291 26.8421 19.0291H26.8422Z" fill="#629FF4"/>
<path d="M26.8422 21.3316C26.5162 21.3274 26.2365 21.5624 26.1842 21.8843C25.8946 22.1605 24.3916 22.6474 21.9082 22.6474C19.425 22.6474 17.9118 22.1539 17.6324 21.8843C17.6032 21.5208 17.2852 21.2499 16.9218 21.279C16.5586 21.3081 16.2876 21.6261 16.3165 21.9894C16.3165 23.8675 20.9741 23.963 21.9081 23.963C22.8421 23.963 27.4997 23.8675 27.4997 21.9894H27.4999C27.4999 21.815 27.4306 21.6477 27.3072 21.5243C27.1837 21.4008 27.0165 21.3316 26.8421 21.3316H26.8422Z" fill="#629FF4"/>
<path d="M26.8422 23.6339C26.5162 23.6298 26.2365 23.865 26.1842 24.1866C25.8946 24.4629 24.3916 24.9497 21.9082 24.9497C19.425 24.9497 17.9118 24.4562 17.6324 24.1866C17.6032 23.8232 17.2852 23.5522 16.9218 23.5814C16.5586 23.6105 16.2876 23.9285 16.3165 24.292C16.3165 26.1701 20.9741 26.2656 21.9081 26.2656C22.8421 26.2656 27.4997 26.1701 27.4997 24.292H27.4999C27.4999 24.1174 27.4306 23.9501 27.3072 23.8267C27.1837 23.7032 27.0165 23.6339 26.8421 23.6339L26.8422 23.6339Z" fill="#629FF4"/>
</svg>
