<svg width="26" height="26" viewBox="0 0 26 26" fill="none" xmlns="http://www.w3.org/2000/svg">
<path d="M16.4397 11.0889H10.3071C10.0688 11.0889 9.87549 10.9119 9.87549 10.6934C9.87549 10.475 10.0687 10.298 10.3071 10.298H16.4394C16.6778 10.298 16.8711 10.475 16.8711 10.6934C16.8711 10.9119 16.6778 11.0889 16.4396 11.0889H16.4397Z" fill="#58D365" fill-opacity="0.7"/>
<path d="M16.4397 13.9615H10.3071C10.0688 13.9615 9.87549 13.7845 9.87549 13.5661C9.87549 13.3477 10.0687 13.1706 10.3071 13.1706H16.4394C16.6778 13.1706 16.8711 13.3476 16.8711 13.5661C16.8711 13.7845 16.6778 13.9615 16.4396 13.9615H16.4397Z" fill="#58D365" fill-opacity="0.7"/>
<path d="M10.3706 16.6495C10.1322 16.6495 9.93896 16.4725 9.93896 16.2541C9.93896 16.0357 10.1322 15.8586 10.3706 15.8586C12.6802 15.8586 14.6314 14.7554 14.6314 13.4496C14.6314 12.1437 12.6802 11.0404 10.3706 11.0404C10.1322 11.0404 9.93896 10.8634 9.93896 10.6449C9.93896 10.4266 10.1322 10.2495 10.3706 10.2495C13.244 10.2495 15.4948 11.6551 15.4948 13.4495C15.4948 15.2438 13.244 16.6495 10.3706 16.6495V16.6495Z" fill="#58D365" fill-opacity="0.7"/>
<path d="M14.9824 21.301C14.8674 21.301 14.7528 21.2592 14.6677 21.1765L10.1098 16.7336C9.94651 16.5744 9.95501 16.3242 10.1287 16.1747C10.3024 16.0252 10.5754 16.033 10.7388 16.192L15.2967 20.6348C15.46 20.794 15.4515 21.0443 15.2778 21.1938C15.1945 21.2654 15.0883 21.301 14.9822 21.301L14.9824 21.301Z" fill="#58D365" fill-opacity="0.7"/>
<path d="M1.53206 13.2112H3.61586V24.3248C3.61586 24.7138 3.92149 25.0194 4.31046 25.0194H22.37C22.759 25.0194 23.0646 24.7138 23.0646 24.3248V13.2112H25.1484C25.7597 13.2112 26.0653 12.461 25.6484 12.0166L13.8402 0.208439C13.5623 -0.0694797 13.1179 -0.0694797 12.8677 0.208439L1.03225 12.0166C0.615375 12.461 0.921003 13.2112 1.53226 13.2112H1.53206ZM13.3402 1.68089L23.4814 11.822H22.3701C21.9812 11.822 21.6755 12.1277 21.6755 12.5166V23.6302H5.00515V12.5166C5.00515 12.1277 4.69952 11.822 4.31055 11.822H3.1993L13.3402 1.68089Z" fill="#58D365" fill-opacity="0.7"/>
</svg>
