<svg width="30" height="30" viewBox="0 0 30 30" fill="none" xmlns="http://www.w3.org/2000/svg">
<rect width="30" height="30" rx="4" fill="#E5F6FD"/>
<path d="M23.258 8.47911C23.2218 8.15261 22.9677 7.89851 22.6412 7.89851H19.6296C19.6296 5.21341 17.4162 3 14.7311 3C12.0459 3 9.83257 5.17719 9.83257 7.89851H6.82097C6.49447 7.89851 6.24037 8.15262 6.20417 8.47911L4.75293 24.6619V24.7345C4.75293 26.5488 6.42214 28 8.45399 28H21.0084C23.0402 28 24.7094 26.5488 24.7094 24.7345V24.6619L23.258 8.47911ZM14.7312 4.27007C16.7269 4.27007 18.3596 5.9028 18.3596 7.8985H11.1027C11.1027 5.90306 12.7355 4.27007 14.7312 4.27007ZM21.0083 26.7663H8.45393C7.11147 26.7663 6.02288 25.8592 5.98673 24.7706L7.36559 9.16839H9.83279V11.3456C9.83279 11.6721 10.1231 11.9624 10.4496 11.9624C10.7761 11.9624 11.0664 11.6721 11.0664 11.3456V9.16839H18.3595V11.3456C18.3595 11.6721 18.6498 11.9624 18.9763 11.9624C19.3028 11.9624 19.5931 11.6721 19.5931 11.3456V9.16839H22.0603L23.4392 24.7706C23.4395 25.8592 22.3511 26.7663 21.0084 26.7663H21.0083Z" fill="#009ED8"/>
</svg>
