<svg width="27" height="25" viewBox="0 0 27 25" fill="none" xmlns="http://www.w3.org/2000/svg">
<path d="M4.90248 0.900208C4.33598 0.900208 3.76805 1.18245 3.45012 1.65814L0.889757 5.23069L0.88514 5.23713L0.881595 5.24422C0.880413 5.24658 0.879199 5.249 0.877959 5.25147C0.851004 5.3052 0.811621 5.38369 0.811621 5.4676V22.9799C0.811621 23.8987 1.54134 24.6287 2.46038 24.6287H24.3508C25.2708 24.6287 25.9995 23.8678 25.9995 22.9799L25.9993 5.48752C26.0115 5.45306 26.0136 5.41949 26.0101 5.38873H26.0644L25.951 5.23048L23.3897 1.65659L23.389 1.6557C23.0438 1.18502 22.5083 0.9 21.9383 0.9L15.7434 0.900208H4.90248ZM16.2988 5.51111V10.7522L13.4681 9.22143L13.4201 9.19546L13.3723 9.22181L10.5424 10.781V5.54104L11.6493 1.69576H15.2212L16.2988 5.51111ZM4.09058 2.10054L4.09059 2.10055L4.09113 2.09977C4.27879 1.83174 4.57377 1.69576 4.90275 1.69576H10.8164L9.86049 5.06965H1.96991L4.09058 2.10054ZM16.7361 11.4862L16.7446 11.4825L16.7522 11.4775C16.9563 11.3415 17.0947 11.1029 17.0947 10.8582L17.0943 5.86528H25.2335L25.2337 22.9798C25.2337 23.4585 24.8339 23.8329 24.3806 23.8329H2.46039C1.98163 23.8329 1.60724 23.433 1.60724 22.9798V5.86528H9.74643V10.8582C9.74643 11.1353 9.88694 11.3431 10.0889 11.4775C10.1984 11.5505 10.3382 11.5836 10.472 11.5836C10.5774 11.5836 10.7142 11.5501 10.8213 11.4801L13.4206 10.0783L16.0227 11.4817C16.269 11.6217 16.5129 11.5818 16.7361 11.4862ZM21.9385 1.69576C22.2616 1.69576 22.5605 1.85729 22.7519 2.10227L24.8714 5.06967H17.0106L16.0547 1.69578L21.9385 1.69576Z" fill="#DBA362" stroke="#DBA362" stroke-width="0.2"/>
<path d="M11.0381 5.06959H10.9381V5.16959V5.76519V5.86519H11.0381H15.8034H15.9034V5.76519V5.16959V5.06959H15.8034H11.0381Z" fill="#DBA362" stroke="#DBA362" stroke-width="0.2"/>
</svg>
