<svg width="31" height="30" viewBox="0 0 31 30" fill="none" xmlns="http://www.w3.org/2000/svg">
<rect x="0.5" width="30" height="30" rx="4" fill="#FFEEDB"/>
<path fill-rule="evenodd" clip-rule="evenodd" d="M3.80416 16.774C3.7429 16.5979 3.83599 16.4053 4.01205 16.3429C12.3051 13.4561 19.5658 9.20983 25.611 3.72649L23.892 3.81994C23.7068 3.82951 23.5464 3.6873 23.5362 3.50021C23.5261 3.31458 23.6689 3.15453 23.8552 3.14496L26.5204 3H26.5561C26.6442 3.0046 26.7281 3.04397 26.7879 3.10964C26.8563 3.18433 26.8876 3.2857 26.8727 3.38633L26.488 6.02773C26.4635 6.19588 26.3191 6.31638 26.1543 6.31638C26.1381 6.31638 26.1219 6.31509 26.1052 6.31233C25.9205 6.2851 25.7928 6.11457 25.8195 5.93023L26.0678 4.22396C19.9548 9.76993 12.6154 14.0636 4.23384 16.9817C4.19704 16.9951 4.1597 17.0006 4.12254 17.0006C3.98309 17.0006 3.85265 16.9138 3.80391 16.7742L3.80416 16.774ZM28.1093 27.3238V9.85891H25.5455V27.3238H28.1093ZM28.4472 9.18262H25.2079C25.0214 9.18262 24.87 9.33421 24.87 9.52002V27.6612C24.87 27.8483 25.021 27.9986 25.2079 27.9986H28.4472C28.6339 27.9986 28.7852 27.8482 28.7852 27.6612V9.52002C28.7852 9.3344 28.6338 9.18262 28.4472 9.18262ZM21.081 27.3238V13.5305H18.5172V27.3238H21.081ZM21.4189 12.8542H18.1795C17.9929 12.8542 17.8415 13.0062 17.8415 13.1918V27.6614C17.8415 27.8485 17.9929 27.9988 18.1795 27.9988H21.4187C21.6053 27.9988 21.7567 27.8483 21.7567 27.6614L21.7565 13.1918C21.7569 13.0062 21.6055 12.8542 21.4189 12.8542H21.4189ZM14.0527 27.3238V16.4985H11.4889V27.3234H14.0527V27.3238ZM14.3907 15.824H11.1514C10.9648 15.824 10.8134 15.9745 10.8134 16.1614V27.6612C10.8134 27.8483 10.9648 27.9986 11.1514 27.9986H14.3907C14.5772 27.9986 14.7286 27.8482 14.7286 27.6612V16.1614C14.7286 15.9743 14.5772 15.824 14.3907 15.824ZM7.02444 27.3238H4.46103V20.8727H7.02482V27.3238H7.02444ZM7.36239 20.1973H4.12311C3.93638 20.1973 3.78516 20.3478 3.78516 20.5349V27.6614C3.78516 27.8485 3.93619 27.9988 4.12311 27.9988H7.36239C7.54893 27.9988 7.70034 27.8483 7.70034 27.6614V20.5349C7.70034 20.3478 7.54893 20.1975 7.36239 20.1975V20.1973Z" fill="#DBA362" fill-opacity="0.8"/>
<path d="M3.97866 16.2487L3.97917 16.2485C12.1648 13.3991 19.3416 9.22391 25.3342 3.84169L23.8975 3.9198L23.8972 3.91981C23.6574 3.93219 23.4495 3.74827 23.4364 3.50565L3.97866 16.2487ZM3.97866 16.2487C3.77444 16.321 3.65619 16.5291 3.69148 16.736M3.97866 16.2487L3.80416 16.774M26.5204 2.89985V2.9H26.5561H26.5613L26.5613 2.90014C26.6755 2.9061 26.7841 2.957 26.8617 3.04221M26.5204 2.89985L26.9716 3.40074C26.9909 3.27037 26.9503 3.13898 26.8617 3.04221M26.5204 2.89985L26.515 2.90015M26.5204 2.89985L26.515 2.90015M26.8617 3.04221C26.8617 3.04217 26.8616 3.04213 26.8616 3.04209L26.7879 3.10964L26.8618 3.04232C26.8618 3.04228 26.8618 3.04225 26.8617 3.04221ZM4.26734 17.0759C12.5665 14.1865 19.8468 9.94962 25.9289 4.48412L25.7205 5.91583L25.7205 5.91591C25.6859 6.15487 25.8513 6.37553 26.0898 6.41114C26.1116 6.41469 26.133 6.41638 26.1543 6.41638C26.3678 6.41638 26.5552 6.26036 26.587 6.04215L26.9716 3.40098L3.80416 16.774M4.26734 17.0759C4.26713 17.076 4.26692 17.076 4.26672 17.0761L4.23384 16.9817L4.26812 17.0756C4.26786 17.0757 4.2676 17.0758 4.26734 17.0759ZM4.26734 17.0759C4.21837 17.0937 4.16949 17.1006 4.12254 17.1006C3.94193 17.1006 3.7727 16.9882 3.70949 16.8071L3.68616 16.7403L3.69148 16.736M3.69148 16.736C3.69552 16.7597 3.70156 16.7834 3.70972 16.8068L3.80383 16.7741L3.80416 16.774M3.69148 16.736L3.74144 16.6961L3.7417 16.6959L3.80416 16.774M26.515 2.90015L23.8501 3.0451L26.515 2.90015ZM21.8565 13.192C21.857 12.951 21.6607 12.7542 21.4189 12.7542H18.1795C17.9377 12.7542 17.7415 12.951 17.7415 13.1918V27.6614C17.7415 27.9041 17.938 28.0988 18.1795 28.0988H21.4187C21.6602 28.0988 21.8567 27.9038 21.8567 27.6614L21.8565 13.192ZM21.8565 13.192L21.7565 13.1918L21.8565 13.1918V13.192ZM7.46239 20.1089V20.0973H7.36239H4.12311C3.88137 20.0973 3.68516 20.2924 3.68516 20.5349V27.6614C3.68516 27.904 3.88121 28.0988 4.12311 28.0988H7.36239C7.60387 28.0988 7.80034 27.9038 7.80034 27.6614V20.5349C7.80034 20.3268 7.65583 20.154 7.46239 20.1089ZM23.8499 3.04511C23.6081 3.05762 23.4233 3.26514 23.4364 3.50561L23.8499 3.04511ZM25.6455 9.95891H28.0093V27.2238H25.6455V9.95891ZM28.4472 9.08262H25.2079C24.9662 9.08262 24.77 9.27891 24.77 9.52002V27.6612C24.77 27.9038 24.966 28.0986 25.2079 28.0986H28.4472C28.6889 28.0986 28.8852 27.9036 28.8852 27.6612V9.52002C28.8852 9.27913 28.6889 9.08262 28.4472 9.08262ZM18.6172 13.6305H20.981V27.2238H18.6172V13.6305ZM11.5889 16.5985H13.9527V27.2234H11.5889V16.5985ZM14.3907 15.724H11.1514C10.9099 15.724 10.7134 15.919 10.7134 16.1614V27.6612C10.7134 27.9039 10.9099 28.0986 11.1514 28.0986H14.3907C14.6321 28.0986 14.8286 27.9037 14.8286 27.6612V16.1614C14.8286 15.9188 14.6321 15.724 14.3907 15.724ZM6.92482 27.2238H4.56103V20.9727H6.92482V27.2238Z" stroke="#DBA362" stroke-opacity="0.8" stroke-width="0.2"/>
</svg>
