<svg width="26" height="25" viewBox="0 0 26 25" fill="none" xmlns="http://www.w3.org/2000/svg">
<mask id="path-1-outside-1_126_299" maskUnits="userSpaceOnUse" x="-0.5" y="0" width="27" height="25" fill="black">
<rect fill="white" x="-0.5" width="27" height="25"/>
<path d="M16.2814 13.2144H9.71813C9.52511 13.2144 9.36829 13.3713 9.36829 13.5643V24.444C9.36829 24.637 9.52511 24.7938 9.71813 24.7938H16.2808C16.4738 24.7938 16.6307 24.637 16.6307 24.444L16.6309 13.5643C16.6309 13.3713 16.4741 13.2144 16.281 13.2144H16.2814ZM10.0685 18.6306V17.5156H15.932V18.6312H10.0685V18.6306ZM15.9315 19.3305V20.4461H10.0685V19.3305H15.9315ZM10.0685 16.8159V15.7003H15.932V16.8159H10.0685ZM10.0685 21.1459H15.932V22.2615H10.0685V21.1459ZM15.9315 13.9141V15.0007L10.0685 15.0004V13.9139L15.9315 13.9141ZM10.0685 24.0935V22.961H15.932L15.9318 24.0935H10.0685ZM25.1502 7.77423H18.5875C18.3944 7.77423 18.2376 7.93105 18.2376 8.12407L18.2374 24.4434C18.2374 24.6364 18.3942 24.7932 18.5873 24.7932H25.15C25.343 24.7932 25.4998 24.6364 25.4998 24.4434L25.5 8.12407C25.5 7.93105 25.3438 7.77423 25.1502 7.77423ZM18.9374 16.8149V15.6993H24.8008V16.8149H18.9374ZM24.8008 17.5146V18.6302H18.9374V17.5146H24.8008ZM18.9374 15V13.8844H24.8008V15H18.9374ZM18.9374 13.1848V12.0691H24.8008V13.1848H18.9374ZM18.9374 19.3299H24.8008V20.4455H18.9374V19.3299ZM24.8008 11.3691H18.9374V10.2535H24.8008V11.3691ZM18.9374 21.1455H24.8008V22.2611H18.9374V21.1455ZM24.8008 8.47362V9.55362H18.9374V8.47362H24.8008ZM18.9374 24.0931V22.9606H24.8008V24.0931H18.9374ZM7.41254 18.6535H0.849837C0.65682 18.6535 0.5 18.8103 0.5 19.0033V24.4435C0.5 24.6365 0.656815 24.7933 0.849837 24.7933H7.41254C7.60556 24.7933 7.76238 24.6365 7.76238 24.4435V19.0039C7.76258 18.8106 7.60556 18.6538 7.41254 18.6538V18.6535ZM1.19974 21.1664H7.06316V22.2796H1.19974V21.1664ZM7.06316 19.3534V20.4666H1.19974V19.3534H7.06316ZM1.19974 24.0933V22.9801H7.06316V24.0933H1.19974ZM14.1634 9.66822L22.132 1.69967H18.4719C18.2789 1.69967 18.1221 1.54286 18.1221 1.34984C18.1221 1.15681 18.2789 1 18.4719 1H22.9769C23.1699 1 23.3267 1.15681 23.3267 1.34984V5.8548C23.3267 6.04781 23.1699 6.20463 22.9769 6.20463C22.7839 6.20463 22.627 6.04782 22.627 5.8548V2.19475L14.4112 10.4106C14.2747 10.5471 14.0532 10.5471 13.9161 10.4106L11.3158 7.81028L3.27172 15.8548C3.20358 15.923 3.11368 15.9576 3.02439 15.9576C2.9351 15.9576 2.84541 15.9232 2.77707 15.8548C2.64059 15.7184 2.64059 15.4969 2.77707 15.3604L11.069 7.0685C11.2054 6.93203 11.4269 6.93203 11.564 7.0685L14.1634 9.66822Z"/>
</mask>
<path d="M16.2814 13.2144H9.71813C9.52511 13.2144 9.36829 13.3713 9.36829 13.5643V24.444C9.36829 24.637 9.52511 24.7938 9.71813 24.7938H16.2808C16.4738 24.7938 16.6307 24.637 16.6307 24.444L16.6309 13.5643C16.6309 13.3713 16.4741 13.2144 16.281 13.2144H16.2814ZM10.0685 18.6306V17.5156H15.932V18.6312H10.0685V18.6306ZM15.9315 19.3305V20.4461H10.0685V19.3305H15.9315ZM10.0685 16.8159V15.7003H15.932V16.8159H10.0685ZM10.0685 21.1459H15.932V22.2615H10.0685V21.1459ZM15.9315 13.9141V15.0007L10.0685 15.0004V13.9139L15.9315 13.9141ZM10.0685 24.0935V22.961H15.932L15.9318 24.0935H10.0685ZM25.1502 7.77423H18.5875C18.3944 7.77423 18.2376 7.93105 18.2376 8.12407L18.2374 24.4434C18.2374 24.6364 18.3942 24.7932 18.5873 24.7932H25.15C25.343 24.7932 25.4998 24.6364 25.4998 24.4434L25.5 8.12407C25.5 7.93105 25.3438 7.77423 25.1502 7.77423ZM18.9374 16.8149V15.6993H24.8008V16.8149H18.9374ZM24.8008 17.5146V18.6302H18.9374V17.5146H24.8008ZM18.9374 15V13.8844H24.8008V15H18.9374ZM18.9374 13.1848V12.0691H24.8008V13.1848H18.9374ZM18.9374 19.3299H24.8008V20.4455H18.9374V19.3299ZM24.8008 11.3691H18.9374V10.2535H24.8008V11.3691ZM18.9374 21.1455H24.8008V22.2611H18.9374V21.1455ZM24.8008 8.47362V9.55362H18.9374V8.47362H24.8008ZM18.9374 24.0931V22.9606H24.8008V24.0931H18.9374ZM7.41254 18.6535H0.849837C0.65682 18.6535 0.5 18.8103 0.5 19.0033V24.4435C0.5 24.6365 0.656815 24.7933 0.849837 24.7933H7.41254C7.60556 24.7933 7.76238 24.6365 7.76238 24.4435V19.0039C7.76258 18.8106 7.60556 18.6538 7.41254 18.6538V18.6535ZM1.19974 21.1664H7.06316V22.2796H1.19974V21.1664ZM7.06316 19.3534V20.4666H1.19974V19.3534H7.06316ZM1.19974 24.0933V22.9801H7.06316V24.0933H1.19974ZM14.1634 9.66822L22.132 1.69967H18.4719C18.2789 1.69967 18.1221 1.54286 18.1221 1.34984C18.1221 1.15681 18.2789 1 18.4719 1H22.9769C23.1699 1 23.3267 1.15681 23.3267 1.34984V5.8548C23.3267 6.04781 23.1699 6.20463 22.9769 6.20463C22.7839 6.20463 22.627 6.04782 22.627 5.8548V2.19475L14.4112 10.4106C14.2747 10.5471 14.0532 10.5471 13.9161 10.4106L11.3158 7.81028L3.27172 15.8548C3.20358 15.923 3.11368 15.9576 3.02439 15.9576C2.9351 15.9576 2.84541 15.9232 2.77707 15.8548C2.64059 15.7184 2.64059 15.4969 2.77707 15.3604L11.069 7.0685C11.2054 6.93203 11.4269 6.93203 11.564 7.0685L14.1634 9.66822Z" fill="#817AF3"/>
<path d="M16.2814 13.2144H9.71813C9.52511 13.2144 9.36829 13.3713 9.36829 13.5643V24.444C9.36829 24.637 9.52511 24.7938 9.71813 24.7938H16.2808C16.4738 24.7938 16.6307 24.637 16.6307 24.444L16.6309 13.5643C16.6309 13.3713 16.4741 13.2144 16.281 13.2144H16.2814ZM10.0685 18.6306V17.5156H15.932V18.6312H10.0685V18.6306ZM15.9315 19.3305V20.4461H10.0685V19.3305H15.9315ZM10.0685 16.8159V15.7003H15.932V16.8159H10.0685ZM10.0685 21.1459H15.932V22.2615H10.0685V21.1459ZM15.9315 13.9141V15.0007L10.0685 15.0004V13.9139L15.9315 13.9141ZM10.0685 24.0935V22.961H15.932L15.9318 24.0935H10.0685ZM25.1502 7.77423H18.5875C18.3944 7.77423 18.2376 7.93105 18.2376 8.12407L18.2374 24.4434C18.2374 24.6364 18.3942 24.7932 18.5873 24.7932H25.15C25.343 24.7932 25.4998 24.6364 25.4998 24.4434L25.5 8.12407C25.5 7.93105 25.3438 7.77423 25.1502 7.77423ZM18.9374 16.8149V15.6993H24.8008V16.8149H18.9374ZM24.8008 17.5146V18.6302H18.9374V17.5146H24.8008ZM18.9374 15V13.8844H24.8008V15H18.9374ZM18.9374 13.1848V12.0691H24.8008V13.1848H18.9374ZM18.9374 19.3299H24.8008V20.4455H18.9374V19.3299ZM24.8008 11.3691H18.9374V10.2535H24.8008V11.3691ZM18.9374 21.1455H24.8008V22.2611H18.9374V21.1455ZM24.8008 8.47362V9.55362H18.9374V8.47362H24.8008ZM18.9374 24.0931V22.9606H24.8008V24.0931H18.9374ZM7.41254 18.6535H0.849837C0.65682 18.6535 0.5 18.8103 0.5 19.0033V24.4435C0.5 24.6365 0.656815 24.7933 0.849837 24.7933H7.41254C7.60556 24.7933 7.76238 24.6365 7.76238 24.4435V19.0039C7.76258 18.8106 7.60556 18.6538 7.41254 18.6538V18.6535ZM1.19974 21.1664H7.06316V22.2796H1.19974V21.1664ZM7.06316 19.3534V20.4666H1.19974V19.3534H7.06316ZM1.19974 24.0933V22.9801H7.06316V24.0933H1.19974ZM14.1634 9.66822L22.132 1.69967H18.4719C18.2789 1.69967 18.1221 1.54286 18.1221 1.34984C18.1221 1.15681 18.2789 1 18.4719 1H22.9769C23.1699 1 23.3267 1.15681 23.3267 1.34984V5.8548C23.3267 6.04781 23.1699 6.20463 22.9769 6.20463C22.7839 6.20463 22.627 6.04782 22.627 5.8548V2.19475L14.4112 10.4106C14.2747 10.5471 14.0532 10.5471 13.9161 10.4106L11.3158 7.81028L3.27172 15.8548C3.20358 15.923 3.11368 15.9576 3.02439 15.9576C2.9351 15.9576 2.84541 15.9232 2.77707 15.8548C2.64059 15.7184 2.64059 15.4969 2.77707 15.3604L11.069 7.0685C11.2054 6.93203 11.4269 6.93203 11.564 7.0685L14.1634 9.66822Z" stroke="#817AF3" stroke-width="0.2" mask="url(#path-1-outside-1_126_299)"/>
</svg>
