<svg width="30" height="30" viewBox="0 0 30 30" fill="none" xmlns="http://www.w3.org/2000/svg">
<rect width="30" height="30" rx="4" fill="#E8F1FD"/>
<path d="M18.619 8.33916C19.2296 8.33916 19.8153 8.09664 20.2471 7.66487C20.6789 7.23307 20.9214 6.64733 20.9214 6.03677C20.9214 5.42604 20.6789 4.8405 20.2471 4.40868C19.8153 3.97688 19.2296 3.73439 18.619 3.73439C18.0083 3.73439 17.4228 3.9769 16.9909 4.40868C16.5591 4.84048 16.3164 5.42598 16.3164 6.03677C16.3164 6.64733 16.5591 7.23305 16.9909 7.66487C17.4227 8.09667 18.0082 8.33916 18.619 8.33916ZM18.619 5.04995C18.8806 5.04995 19.1316 5.15389 19.3167 5.33905C19.5017 5.52397 19.6056 5.77498 19.6056 6.03677C19.6056 6.29832 19.5017 6.54933 19.3167 6.73449C19.1316 6.91941 18.8806 7.02358 18.619 7.02358C18.3572 7.02358 18.1062 6.91942 17.9211 6.73449C17.7361 6.54934 17.6322 6.29833 17.6322 6.03677C17.6322 5.77498 17.7361 5.52398 17.9211 5.33905C18.1062 5.15389 18.3572 5.04995 18.619 5.04995Z" fill="#629FF4"/>
<path d="M22.2373 10.6416C22.2373 11.2523 22.4798 11.8379 22.9116 12.2697C23.3434 12.7015 23.9291 12.944 24.5397 12.944C25.1504 12.944 25.736 12.7015 26.1678 12.2697C26.5996 11.8379 26.8423 11.2524 26.8423 10.6416C26.8423 10.031 26.5996 9.44533 26.1678 9.0135C25.736 8.5817 25.1505 8.33922 24.5397 8.33922C23.9291 8.33922 23.3434 8.58173 22.9116 9.0135C22.4798 9.44531 22.2373 10.031 22.2373 10.6416ZM25.5265 10.6416C25.5265 10.9034 25.4226 11.1544 25.2376 11.3393C25.0525 11.5245 24.8015 11.6284 24.5397 11.6284C24.2781 11.6284 24.0271 11.5245 23.842 11.3393C23.657 11.1544 23.5531 10.9034 23.5531 10.6416C23.5531 10.38 23.657 10.129 23.842 9.94388C24.0271 9.75896 24.2781 9.65479 24.5397 9.65479C24.8015 9.65479 25.0525 9.75895 25.2376 9.94388C25.4226 10.129 25.5265 10.38 25.5265 10.6416Z" fill="#629FF4"/>
<path d="M18.2279 12.651C18.3681 12.7551 18.5443 12.7989 18.7171 12.773C18.8899 12.7471 19.0452 12.6535 19.1489 12.5128L24.7405 4.94766V4.94789C24.9566 4.65536 24.8949 4.24306 24.6024 4.02691C24.3098 3.81056 23.8975 3.8725 23.6814 4.16504L18.0898 11.7302V11.73C17.9856 11.8704 17.9418 12.0464 17.9677 12.2191C17.9937 12.3919 18.0873 12.5475 18.2279 12.6509L18.2279 12.651Z" fill="#629FF4"/>
<path d="M8.09354 9.32591C7.15952 9.32591 2.50195 9.42136 2.50195 11.2996C2.50195 13.1777 7.15952 13.2732 8.09354 13.2732C9.02756 13.2732 13.6851 13.1777 13.6851 11.2996C13.6854 9.42136 9.02779 9.32591 8.09354 9.32591ZM8.09354 11.9573C5.89647 11.9573 4.4753 11.579 3.9623 11.2996C4.47555 11.0199 5.89647 10.6415 8.09354 10.6415C10.2906 10.6415 11.7118 11.0199 12.2248 11.2993C11.7118 11.579 10.2908 11.9573 8.09354 11.9573Z" fill="#629FF4"/>
<path d="M13.0276 12.7796C12.7018 12.7752 12.4219 13.0104 12.3698 13.3321C12.0802 13.6083 10.5772 14.0952 8.09376 14.0952C5.61059 14.0952 4.09743 13.6019 3.81797 13.3321C3.78883 12.9689 3.47083 12.6979 3.10739 12.7268C2.74419 12.7559 2.47321 13.0739 2.50211 13.4374C2.50211 15.3156 7.15968 15.411 8.0937 15.411C9.02772 15.411 13.6853 15.3156 13.6853 13.4374H13.6855C13.6855 13.2628 13.6162 13.0955 13.4928 12.9721C13.3694 12.8489 13.2021 12.7796 13.0275 12.7796H13.0276Z" fill="#629FF4"/>
<path d="M13.0276 15.082C12.7018 15.0779 12.4219 15.3128 12.3698 15.6345C12.0802 15.9107 10.5772 16.3976 8.09376 16.3976C5.61059 16.3976 4.09743 15.9043 3.81797 15.6345C3.78883 15.2713 3.47083 15.0003 3.10739 15.0292C2.74419 15.0584 2.47321 15.3764 2.50211 15.7398C2.50211 17.618 7.15968 17.7135 8.0937 17.7135C9.02772 17.7135 13.6853 17.618 13.6853 15.7398H13.6855C13.6855 15.5654 13.6162 15.398 13.4928 15.2747C13.3694 15.1513 13.2021 15.082 13.0275 15.082H13.0276Z" fill="#629FF4"/>
<path d="M13.0276 17.3845C12.7018 17.3803 12.4219 17.6153 12.3698 17.9369C12.0802 18.2132 10.5772 18.7 8.09376 18.7C5.61059 18.7 4.09743 18.2067 3.81797 17.9369C3.78883 17.5737 3.47083 17.3028 3.10739 17.3319C2.74419 17.3608 2.47321 17.679 2.50211 18.0423C2.50211 19.9204 7.15968 20.0159 8.0937 20.0159C9.02772 20.0159 13.6853 19.9204 13.6853 18.0423H13.6855C13.6855 17.8679 13.6162 17.7004 13.4928 17.5772C13.3694 17.4537 13.2021 17.3845 13.0275 17.3845H13.0276Z" fill="#629FF4"/>
<path d="M13.0276 19.6869C12.7018 19.6828 12.4219 19.9177 12.3698 20.2396C12.0802 20.5159 10.5772 21.0027 8.09376 21.0027C5.61059 21.0027 4.09743 20.5092 3.81797 20.2396C3.78883 19.8762 3.47083 19.6052 3.10739 19.6343C2.74419 19.6635 2.47321 19.9815 2.50211 20.3447C2.50211 22.2229 7.15968 22.3183 8.0937 22.3183C9.02772 22.3183 13.6853 22.2229 13.6853 20.3447H13.6855C13.6855 20.1703 13.6162 20.0031 13.4928 19.8796C13.3694 19.7562 13.2021 19.6869 13.0275 19.6869H13.0276Z" fill="#629FF4"/>
<path d="M13.0276 21.9893C12.7018 21.9852 12.4219 22.2204 12.3698 22.5421C12.0802 22.8183 10.5772 23.3052 8.09376 23.3052C5.61059 23.3052 4.09743 22.8116 3.81797 22.5421C3.78883 22.1786 3.47083 21.9077 3.10739 21.9368C2.74419 21.9659 2.47321 22.2839 2.50211 22.6474C2.50211 24.5256 7.15968 24.621 8.0937 24.621C9.02772 24.621 13.6853 24.5256 13.6853 22.6474H13.6855C13.6855 22.4728 13.6162 22.3055 13.4928 22.1821C13.3694 22.0586 13.2021 21.9894 13.0275 21.9894L13.0276 21.9893Z" fill="#629FF4"/>
<path d="M21.9085 19.5224C22.8425 19.5224 27.5001 19.427 27.5001 17.5488C27.5001 15.6706 22.8425 15.5752 21.9085 15.5752C20.9745 15.5752 16.3169 15.6706 16.3169 17.5488C16.3167 19.4272 20.9742 19.5224 21.9085 19.5224ZM21.9085 16.891C24.1056 16.891 25.5267 17.2694 26.0397 17.5488C25.5265 17.8285 24.1056 18.2068 21.9085 18.2068C19.7114 18.2068 18.2902 17.8285 17.7772 17.549C18.2903 17.2694 19.7112 16.8913 21.9085 16.8913V16.891Z" fill="#629FF4"/>
<path d="M26.8422 19.0291C26.5162 19.0249 26.2366 19.2599 26.1842 19.5815C25.8947 19.8578 24.3916 20.3446 21.9082 20.3446C19.425 20.3446 17.9119 19.8514 17.6324 19.5815C17.6033 19.2183 17.2853 18.9474 16.9218 18.9765C16.5586 19.0054 16.2877 19.3237 16.3166 19.6869C16.3166 21.5651 20.9741 21.6605 21.9082 21.6605C22.8422 21.6605 27.4997 21.5651 27.4997 19.6869H27.5C27.5 19.5125 27.4307 19.345 27.3072 19.2218C27.1838 19.0984 27.0165 19.0291 26.8422 19.0291H26.8422Z" fill="#629FF4"/>
<path d="M26.8422 21.3315C26.5162 21.3274 26.2366 21.5623 26.1842 21.8842C25.8947 22.1605 24.3916 22.6473 21.9082 22.6473C19.425 22.6473 17.9119 22.1538 17.6324 21.8842C17.6033 21.5208 17.2853 21.2498 16.9218 21.279C16.5586 21.3081 16.2877 21.6261 16.3166 21.9893C16.3166 23.8675 20.9741 23.9629 21.9082 23.9629C22.8422 23.9629 27.4997 23.8675 27.4997 21.9893H27.5C27.5 21.8149 27.4307 21.6477 27.3072 21.5242C27.1838 21.4008 27.0165 21.3315 26.8422 21.3315H26.8422Z" fill="#629FF4"/>
<path d="M26.8422 23.634C26.5162 23.6298 26.2366 23.865 26.1842 24.1867C25.8947 24.4629 24.3916 24.9498 21.9082 24.9498C19.425 24.9498 17.9119 24.4563 17.6324 24.1867C17.6033 23.8232 17.2853 23.5523 16.9218 23.5814C16.5586 23.6105 16.2877 23.9285 16.3166 24.292C16.3166 26.1702 20.9741 26.2656 21.9082 26.2656C22.8422 26.2656 27.4997 26.1702 27.4997 24.292H27.5C27.5 24.1174 27.4307 23.9501 27.3072 23.8267C27.1838 23.7032 27.0165 23.634 26.8422 23.634L26.8422 23.634Z" fill="#629FF4"/>
</svg>
