<svg width="146" height="48" viewBox="0 0 146 48" fill="none" xmlns="http://www.w3.org/2000/svg">
<path d="M4.79999 9.60005L24 9.60005M4.79999 24H24M24 24V28.8M24 24V19.2M4.79999 38.4H14.4M24 38.4L43.2 38.4M33.6 24H43.2M33.6 9.60005L43.2 9.60005M33.6 9.60005V14.4M33.6 9.60005V4.80005M15.6 43.2V33.6" stroke="#6290F2" stroke-width="2" stroke-linecap="round" stroke-linejoin="round"/>
<path d="M75.5312 20.2756C75.4555 19.6032 75.143 19.0824 74.5938 18.7131C74.0445 18.339 73.3532 18.152 72.5199 18.152C71.9233 18.152 71.4072 18.2467 70.9716 18.4361C70.536 18.6207 70.1974 18.8764 69.956 19.2031C69.7192 19.5251 69.6009 19.892 69.6009 20.304C69.6009 20.6496 69.6813 20.9479 69.8423 21.1989C70.008 21.4498 70.2235 21.6605 70.4886 21.831C70.7585 21.9967 71.0473 22.1364 71.3551 22.25C71.6629 22.3589 71.9588 22.4489 72.2429 22.5199L73.6634 22.8892C74.1274 23.0028 74.6032 23.1567 75.0909 23.3509C75.5786 23.545 76.0308 23.8007 76.4474 24.1179C76.8641 24.4351 77.2003 24.8281 77.456 25.2969C77.7164 25.7656 77.8466 26.3267 77.8466 26.9801C77.8466 27.804 77.6335 28.5355 77.2074 29.1747C76.786 29.8139 76.1728 30.3182 75.3679 30.6875C74.5677 31.0568 73.5994 31.2415 72.4631 31.2415C71.3741 31.2415 70.4318 31.0687 69.6364 30.723C68.8409 30.3774 68.2183 29.8873 67.7685 29.2528C67.3187 28.6136 67.0701 27.8561 67.0227 26.9801H69.2244C69.267 27.5057 69.4375 27.9437 69.7358 28.294C70.0388 28.6397 70.4247 28.8977 70.8935 29.0682C71.367 29.2339 71.8854 29.3168 72.4489 29.3168C73.0691 29.3168 73.6207 29.2197 74.1037 29.0256C74.5914 28.8267 74.9749 28.5521 75.2543 28.2017C75.5336 27.8466 75.6733 27.4323 75.6733 26.9588C75.6733 26.5279 75.5502 26.1752 75.304 25.9006C75.0625 25.6259 74.7334 25.3987 74.3168 25.2188C73.9048 25.0388 73.4384 24.8802 72.9176 24.7429L71.1989 24.2741C70.0341 23.9569 69.1108 23.4905 68.429 22.875C67.7519 22.2595 67.4134 21.4451 67.4134 20.4318C67.4134 19.5937 67.6406 18.8622 68.0952 18.2372C68.5497 17.6122 69.1652 17.1269 69.9418 16.7812C70.7183 16.4309 71.5942 16.2557 72.5696 16.2557C73.5545 16.2557 74.4233 16.4285 75.1761 16.7741C75.9337 17.1198 76.5303 17.5956 76.9659 18.2017C77.4015 18.803 77.6288 19.4943 77.6477 20.2756H75.5312ZM85.0004 31.2202C83.9255 31.2202 82.9999 30.9905 82.2234 30.5312C81.4516 30.0672 80.855 29.4162 80.4336 28.5781C80.0169 27.7353 79.8086 26.7481 79.8086 25.6165C79.8086 24.4991 80.0169 23.5142 80.4336 22.6619C80.855 21.8097 81.4421 21.1444 82.195 20.6662C82.9525 20.188 83.8379 19.9489 84.8512 19.9489C85.4667 19.9489 86.0633 20.0507 86.641 20.2543C87.2186 20.4579 87.7371 20.7775 88.1964 21.2131C88.6557 21.6487 89.0179 22.2145 89.283 22.9105C89.5482 23.6018 89.6808 24.4422 89.6808 25.4318V26.1847H81.0089V24.5938H87.5998C87.5998 24.035 87.4862 23.5402 87.2589 23.1094C87.0316 22.6738 86.712 22.3305 86.3001 22.0795C85.8929 21.8286 85.4147 21.7031 84.8654 21.7031C84.2688 21.7031 83.748 21.8499 83.3029 22.1435C82.8626 22.4323 82.5217 22.8111 82.2802 23.2798C82.0434 23.7438 81.9251 24.2481 81.9251 24.7926V26.0355C81.9251 26.7647 82.0529 27.3849 82.3086 27.8963C82.569 28.4077 82.9312 28.7983 83.3952 29.0682C83.8593 29.3333 84.4014 29.4659 85.0217 29.4659C85.4241 29.4659 85.7911 29.4091 86.1225 29.2955C86.454 29.1771 86.7404 29.0019 86.9819 28.7699C87.2234 28.5379 87.408 28.2514 87.5359 27.9105L89.5458 28.2727C89.3848 28.8646 89.096 29.383 88.6793 29.8281C88.2674 30.2685 87.7489 30.6117 87.1239 30.858C86.5037 31.0994 85.7958 31.2202 85.0004 31.2202ZM97.1293 20.0909V21.7955H91.1705V20.0909H97.1293ZM92.7685 17.4773H94.892V27.7969C94.892 28.2088 94.9536 28.5189 95.0767 28.7273C95.1998 28.9309 95.3584 29.0705 95.5526 29.1463C95.7514 29.2173 95.9669 29.2528 96.1989 29.2528C96.3693 29.2528 96.5185 29.241 96.6463 29.2173C96.7741 29.1937 96.8736 29.1747 96.9446 29.1605L97.3281 30.9148C97.205 30.9621 97.0298 31.0095 96.8026 31.0568C96.5753 31.1089 96.2912 31.1373 95.9503 31.142C95.3916 31.1515 94.8707 31.0521 94.3878 30.8438C93.9048 30.6354 93.5142 30.3134 93.2159 29.8778C92.9176 29.4422 92.7685 28.8954 92.7685 28.2372V17.4773ZM104.571 20.0909V21.7955H98.6119V20.0909H104.571ZM100.21 17.4773H102.333V27.7969C102.333 28.2088 102.395 28.5189 102.518 28.7273C102.641 28.9309 102.8 29.0705 102.994 29.1463C103.193 29.2173 103.408 29.2528 103.64 29.2528C103.811 29.2528 103.96 29.241 104.088 29.2173C104.216 29.1937 104.315 29.1747 104.386 29.1605L104.77 30.9148C104.646 30.9621 104.471 31.0095 104.244 31.0568C104.017 31.1089 103.733 31.1373 103.392 31.142C102.833 31.1515 102.312 31.0521 101.829 30.8438C101.346 30.6354 100.956 30.3134 100.657 29.8778C100.359 29.4422 100.21 28.8954 100.21 28.2372V17.4773ZM106.92 31V20.0909H109.043V31H106.92ZM107.992 18.4077C107.623 18.4077 107.306 18.2846 107.04 18.0384C106.78 17.7874 106.65 17.4891 106.65 17.1435C106.65 16.7931 106.78 16.4948 107.04 16.2486C107.306 15.9976 107.623 15.8722 107.992 15.8722C108.362 15.8722 108.676 15.9976 108.937 16.2486C109.202 16.4948 109.335 16.7931 109.335 17.1435C109.335 17.4891 109.202 17.7874 108.937 18.0384C108.676 18.2846 108.362 18.4077 107.992 18.4077ZM114.024 24.5227V31H111.9V20.0909H113.939V21.8665H114.074C114.324 21.2888 114.717 20.8248 115.252 20.4744C115.792 20.1241 116.472 19.9489 117.291 19.9489C118.034 19.9489 118.685 20.1051 119.244 20.4176C119.803 20.7254 120.236 21.1847 120.544 21.7955C120.851 22.4062 121.005 23.1615 121.005 24.0611V31H118.882V24.3168C118.882 23.526 118.676 22.9081 118.264 22.4631C117.852 22.0133 117.286 21.7884 116.566 21.7884C116.074 21.7884 115.636 21.8949 115.252 22.108C114.874 22.321 114.573 22.6335 114.35 23.0455C114.133 23.4527 114.024 23.9451 114.024 24.5227ZM128.427 35.3182C127.561 35.3182 126.815 35.2045 126.19 34.9773C125.57 34.75 125.063 34.4493 124.67 34.0753C124.277 33.7012 123.984 33.2917 123.789 32.8466L125.615 32.0938C125.743 32.3021 125.913 32.5223 126.126 32.7543C126.344 32.991 126.637 33.1922 127.007 33.358C127.381 33.5237 127.861 33.6065 128.449 33.6065C129.253 33.6065 129.919 33.41 130.444 33.017C130.97 32.6288 131.233 32.0085 131.233 31.1562V29.0114H131.098C130.97 29.2434 130.785 29.5014 130.544 29.7855C130.307 30.0696 129.98 30.3158 129.564 30.5241C129.147 30.7325 128.605 30.8366 127.937 30.8366C127.075 30.8366 126.299 30.6354 125.608 30.233C124.921 29.8258 124.377 29.2268 123.974 28.4361C123.576 27.6406 123.377 26.6629 123.377 25.5028C123.377 24.3428 123.574 23.3485 123.967 22.5199C124.365 21.6913 124.909 21.0568 125.6 20.6165C126.292 20.1714 127.075 19.9489 127.951 19.9489C128.628 19.9489 129.175 20.0625 129.592 20.2898C130.009 20.5123 130.333 20.7727 130.565 21.071C130.802 21.3693 130.984 21.6321 131.112 21.8594H131.268V20.0909H133.349V31.2415C133.349 32.179 133.131 32.9484 132.696 33.5497C132.26 34.151 131.671 34.5961 130.927 34.8849C130.189 35.1738 129.355 35.3182 128.427 35.3182ZM128.406 29.0753C129.017 29.0753 129.533 28.9332 129.954 28.6491C130.38 28.3603 130.702 27.9484 130.92 27.4134C131.143 26.8736 131.254 26.2273 131.254 25.4744C131.254 24.7405 131.145 24.0942 130.927 23.5355C130.709 22.9768 130.39 22.5412 129.968 22.2287C129.547 21.9115 129.026 21.7528 128.406 21.7528C127.767 21.7528 127.234 21.9186 126.808 22.25C126.382 22.5767 126.06 23.0218 125.842 23.5852C125.629 24.1487 125.522 24.7784 125.522 25.4744C125.522 26.1894 125.631 26.8168 125.849 27.3565C126.067 27.8963 126.389 28.3177 126.815 28.6207C127.246 28.9238 127.776 29.0753 128.406 29.0753ZM144.372 22.7543L142.447 23.0952C142.367 22.849 142.239 22.6146 142.064 22.392C141.893 22.1695 141.661 21.9872 141.368 21.8452C141.074 21.7031 140.707 21.6321 140.267 21.6321C139.665 21.6321 139.163 21.767 138.761 22.0369C138.359 22.3021 138.157 22.6454 138.157 23.0668C138.157 23.4313 138.292 23.7249 138.562 23.9474C138.832 24.17 139.268 24.3523 139.869 24.4943L141.602 24.892C142.606 25.1241 143.354 25.4815 143.846 25.9645C144.339 26.4474 144.585 27.0748 144.585 27.8466C144.585 28.5 144.395 29.0824 144.017 29.5938C143.643 30.1004 143.119 30.4981 142.447 30.7869C141.779 31.0758 141.005 31.2202 140.125 31.2202C138.903 31.2202 137.906 30.9598 137.135 30.4389C136.363 29.9134 135.889 29.1676 135.714 28.2017L137.767 27.8892C137.895 28.4242 138.157 28.8291 138.555 29.1037C138.953 29.3736 139.471 29.5085 140.11 29.5085C140.806 29.5085 141.363 29.3641 141.779 29.0753C142.196 28.7817 142.404 28.4242 142.404 28.0028C142.404 27.6619 142.277 27.3755 142.021 27.1435C141.77 26.9115 141.384 26.7363 140.863 26.6179L139.017 26.2131C137.999 25.9811 137.246 25.6117 136.758 25.1051C136.275 24.5985 136.034 23.9569 136.034 23.1804C136.034 22.5365 136.214 21.973 136.574 21.4901C136.933 21.0071 137.431 20.6307 138.065 20.3608C138.699 20.0862 139.426 19.9489 140.245 19.9489C141.424 19.9489 142.352 20.2045 143.029 20.7159C143.707 21.2225 144.154 21.902 144.372 22.7543Z" fill="#6290F2"/>
</svg>
