<svg width="200" height="48" viewBox="0 0 200 48" fill="none" xmlns="http://www.w3.org/2000/svg">
<path d="M19.2569 12H47.7002M19.2569 24.96H47.7002M19.2569 37.92H47.7002M7.9502 12V12.0256M7.9502 24.96V24.9856M7.9502 37.92V37.9456" stroke="#6290F2" stroke-width="2" stroke-linecap="round" stroke-linejoin="round"/>
<path d="M67.598 15.9545H70.2614L74.892 27.2614H75.0625L79.6932 15.9545H82.3565V30.5H80.2685V19.9744H80.1335L75.8438 30.4787H74.1108L69.821 19.9673H69.6861V30.5H67.598V15.9545ZM88.5515 30.7415C87.8602 30.7415 87.2352 30.6136 86.6765 30.358C86.1178 30.0975 85.6751 29.7211 85.3484 29.2287C85.0264 28.7363 84.8654 28.1326 84.8654 27.4176C84.8654 26.8021 84.9838 26.2955 85.2205 25.8977C85.4573 25.5 85.7769 25.1851 86.1793 24.9531C86.5818 24.7211 87.0316 24.5459 87.5288 24.4276C88.0259 24.3092 88.5326 24.2192 89.0487 24.1577C89.7021 24.0819 90.2324 24.0204 90.6396 23.973C91.0468 23.9209 91.3427 23.8381 91.5273 23.7244C91.712 23.6108 91.8043 23.4261 91.8043 23.1705V23.1207C91.8043 22.5005 91.6291 22.0199 91.2788 21.679C90.9331 21.3381 90.417 21.1676 89.7305 21.1676C89.0155 21.1676 88.4521 21.3262 88.0401 21.6435C87.6329 21.956 87.3512 22.304 87.195 22.6875L85.1992 22.233C85.436 21.5701 85.7816 21.035 86.2362 20.6278C86.6954 20.2159 87.2234 19.9176 87.82 19.733C88.4165 19.5436 89.0439 19.4489 89.7021 19.4489C90.1377 19.4489 90.5993 19.5009 91.087 19.6051C91.5794 19.7045 92.0387 19.8892 92.4648 20.1591C92.8957 20.429 93.2485 20.8149 93.5231 21.3168C93.7977 21.8139 93.935 22.4602 93.935 23.2557V30.5H91.8612V29.0085H91.7759C91.6386 29.2831 91.4326 29.553 91.158 29.8182C90.8834 30.0833 90.5307 30.3035 90.0998 30.4787C89.6689 30.6539 89.1528 30.7415 88.5515 30.7415ZM89.0131 29.0369C89.6003 29.0369 90.1022 28.9209 90.5188 28.6889C90.9402 28.4569 91.2598 28.1539 91.4776 27.7798C91.7002 27.401 91.8114 26.9962 91.8114 26.5653V25.1591C91.7357 25.2348 91.5889 25.3059 91.3711 25.3722C91.158 25.4337 90.9142 25.4882 90.6396 25.5355C90.3649 25.5781 90.0974 25.6184 89.837 25.6562C89.5766 25.6894 89.3588 25.7178 89.1836 25.7415C88.7717 25.7936 88.3952 25.8812 88.0543 26.0043C87.7182 26.1274 87.4483 26.3049 87.2447 26.5369C87.0458 26.7642 86.9464 27.0672 86.9464 27.446C86.9464 27.9716 87.1405 28.3693 87.5288 28.6392C87.917 28.9044 88.4118 29.0369 89.0131 29.0369ZM98.8871 24.0227V30.5H96.7635V19.5909H98.8018V21.3665H98.9368C99.1877 20.7888 99.5807 20.3248 100.116 19.9744C100.656 19.6241 101.335 19.4489 102.154 19.4489C102.897 19.4489 103.549 19.6051 104.107 19.9176C104.666 20.2254 105.099 20.6847 105.407 21.2955C105.715 21.9062 105.869 22.6615 105.869 23.5611V30.5H103.745V23.8168C103.745 23.026 103.539 22.4081 103.127 21.9631C102.715 21.5133 102.149 21.2884 101.43 21.2884C100.937 21.2884 100.499 21.3949 100.116 21.608C99.737 21.821 99.4363 22.1335 99.2138 22.5455C98.996 22.9527 98.8871 23.4451 98.8871 24.0227ZM111.891 30.7415C111.2 30.7415 110.575 30.6136 110.016 30.358C109.458 30.0975 109.015 29.7211 108.688 29.2287C108.366 28.7363 108.205 28.1326 108.205 27.4176C108.205 26.8021 108.324 26.2955 108.56 25.8977C108.797 25.5 109.117 25.1851 109.519 24.9531C109.922 24.7211 110.371 24.5459 110.869 24.4276C111.366 24.3092 111.872 24.2192 112.388 24.1577C113.042 24.0819 113.572 24.0204 113.979 23.973C114.387 23.9209 114.683 23.8381 114.867 23.7244C115.052 23.6108 115.144 23.4261 115.144 23.1705V23.1207C115.144 22.5005 114.969 22.0199 114.619 21.679C114.273 21.3381 113.757 21.1676 113.07 21.1676C112.355 21.1676 111.792 21.3262 111.38 21.6435C110.973 21.956 110.691 22.304 110.535 22.6875L108.539 22.233C108.776 21.5701 109.121 21.035 109.576 20.6278C110.035 20.2159 110.563 19.9176 111.16 19.733C111.756 19.5436 112.384 19.4489 113.042 19.4489C113.478 19.4489 113.939 19.5009 114.427 19.6051C114.919 19.7045 115.379 19.8892 115.805 20.1591C116.236 20.429 116.588 20.8149 116.863 21.3168C117.138 21.8139 117.275 22.4602 117.275 23.2557V30.5H115.201V29.0085H115.116C114.978 29.2831 114.772 29.553 114.498 29.8182C114.223 30.0833 113.871 30.3035 113.44 30.4787C113.009 30.6539 112.493 30.7415 111.891 30.7415ZM112.353 29.0369C112.94 29.0369 113.442 28.9209 113.859 28.6889C114.28 28.4569 114.6 28.1539 114.817 27.7798C115.04 27.401 115.151 26.9962 115.151 26.5653V25.1591C115.076 25.2348 114.929 25.3059 114.711 25.3722C114.498 25.4337 114.254 25.4882 113.979 25.5355C113.705 25.5781 113.437 25.6184 113.177 25.6562C112.916 25.6894 112.699 25.7178 112.523 25.7415C112.112 25.7936 111.735 25.8812 111.394 26.0043C111.058 26.1274 110.788 26.3049 110.585 26.5369C110.386 26.7642 110.286 27.0672 110.286 27.446C110.286 27.9716 110.48 28.3693 110.869 28.6392C111.257 28.9044 111.752 29.0369 112.353 29.0369ZM124.677 34.8182C123.811 34.8182 123.065 34.7045 122.44 34.4773C121.82 34.25 121.313 33.9493 120.92 33.5753C120.527 33.2012 120.234 32.7917 120.039 32.3466L121.865 31.5938C121.993 31.8021 122.163 32.0223 122.376 32.2543C122.594 32.491 122.887 32.6922 123.257 32.858C123.631 33.0237 124.111 33.1065 124.699 33.1065C125.503 33.1065 126.169 32.91 126.694 32.517C127.22 32.1288 127.483 31.5085 127.483 30.6562V28.5114H127.348C127.22 28.7434 127.035 29.0014 126.794 29.2855C126.557 29.5696 126.23 29.8158 125.814 30.0241C125.397 30.2325 124.855 30.3366 124.187 30.3366C123.325 30.3366 122.549 30.1354 121.858 29.733C121.171 29.3258 120.627 28.7268 120.224 27.9361C119.826 27.1406 119.627 26.1629 119.627 25.0028C119.627 23.8428 119.824 22.8485 120.217 22.0199C120.615 21.1913 121.159 20.5568 121.85 20.1165C122.542 19.6714 123.325 19.4489 124.201 19.4489C124.878 19.4489 125.425 19.5625 125.842 19.7898C126.259 20.0123 126.583 20.2727 126.815 20.571C127.052 20.8693 127.234 21.1321 127.362 21.3594H127.518V19.5909H129.599V30.7415C129.599 31.679 129.381 32.4484 128.946 33.0497C128.51 33.651 127.921 34.0961 127.177 34.3849C126.439 34.6738 125.605 34.8182 124.677 34.8182ZM124.656 28.5753C125.267 28.5753 125.783 28.4332 126.204 28.1491C126.63 27.8603 126.952 27.4484 127.17 26.9134C127.393 26.3736 127.504 25.7273 127.504 24.9744C127.504 24.2405 127.395 23.5942 127.177 23.0355C126.959 22.4768 126.64 22.0412 126.218 21.7287C125.797 21.4115 125.276 21.2528 124.656 21.2528C124.017 21.2528 123.484 21.4186 123.058 21.75C122.632 22.0767 122.31 22.5218 122.092 23.0852C121.879 23.6487 121.772 24.2784 121.772 24.9744C121.772 25.6894 121.881 26.3168 122.099 26.8565C122.317 27.3963 122.639 27.8177 123.065 28.1207C123.496 28.4238 124.026 28.5753 124.656 28.5753ZM137.149 30.7202C136.074 30.7202 135.148 30.4905 134.372 30.0312C133.6 29.5672 133.003 28.9162 132.582 28.0781C132.165 27.2353 131.957 26.2481 131.957 25.1165C131.957 23.9991 132.165 23.0142 132.582 22.1619C133.003 21.3097 133.591 20.6444 134.343 20.1662C135.101 19.688 135.986 19.4489 137 19.4489C137.615 19.4489 138.212 19.5507 138.789 19.7543C139.367 19.9579 139.886 20.2775 140.345 20.7131C140.804 21.1487 141.166 21.7145 141.431 22.4105C141.697 23.1018 141.829 23.9422 141.829 24.9318V25.6847H133.157V24.0938H139.748C139.748 23.535 139.635 23.0402 139.407 22.6094C139.18 22.1738 138.86 21.8305 138.449 21.5795C138.041 21.3286 137.563 21.2031 137.014 21.2031C136.417 21.2031 135.896 21.3499 135.451 21.6435C135.011 21.9323 134.67 22.3111 134.429 22.7798C134.192 23.2438 134.074 23.7481 134.074 24.2926V25.5355C134.074 26.2647 134.201 26.8849 134.457 27.3963C134.717 27.9077 135.08 28.2983 135.544 28.5682C136.008 28.8333 136.55 28.9659 137.17 28.9659C137.573 28.9659 137.94 28.9091 138.271 28.7955C138.602 28.6771 138.889 28.5019 139.13 28.2699C139.372 28.0379 139.556 27.7514 139.684 27.4105L141.694 27.7727C141.533 28.3646 141.244 28.883 140.828 29.3281C140.416 29.7685 139.897 30.1117 139.272 30.358C138.652 30.5994 137.944 30.7202 137.149 30.7202ZM157.582 19.7756C157.506 19.1032 157.194 18.5824 156.645 18.2131C156.095 17.839 155.404 17.652 154.571 17.652C153.974 17.652 153.458 17.7467 153.022 17.9361C152.587 18.1207 152.248 18.3764 152.007 18.7031C151.77 19.0251 151.652 19.392 151.652 19.804C151.652 20.1496 151.732 20.4479 151.893 20.6989C152.059 20.9498 152.274 21.1605 152.539 21.331C152.809 21.4967 153.098 21.6364 153.406 21.75C153.714 21.8589 154.01 21.9489 154.294 22.0199L155.714 22.3892C156.178 22.5028 156.654 22.6567 157.142 22.8509C157.629 23.045 158.082 23.3007 158.498 23.6179C158.915 23.9351 159.251 24.3281 159.507 24.7969C159.767 25.2656 159.897 25.8267 159.897 26.4801C159.897 27.304 159.684 28.0355 159.258 28.6747C158.837 29.3139 158.224 29.8182 157.419 30.1875C156.618 30.5568 155.65 30.7415 154.514 30.7415C153.425 30.7415 152.483 30.5687 151.687 30.223C150.892 29.8774 150.269 29.3873 149.819 28.7528C149.369 28.1136 149.121 27.3561 149.074 26.4801H151.275C151.318 27.0057 151.488 27.4437 151.787 27.794C152.09 28.1397 152.475 28.3977 152.944 28.5682C153.418 28.7339 153.936 28.8168 154.5 28.8168C155.12 28.8168 155.672 28.7197 156.154 28.5256C156.642 28.3267 157.026 28.0521 157.305 27.7017C157.584 27.3466 157.724 26.9323 157.724 26.4588C157.724 26.0279 157.601 25.6752 157.355 25.4006C157.113 25.1259 156.784 24.8987 156.368 24.7188C155.956 24.5388 155.489 24.3802 154.968 24.2429L153.25 23.7741C152.085 23.4569 151.162 22.9905 150.48 22.375C149.803 21.7595 149.464 20.9451 149.464 19.9318C149.464 19.0937 149.691 18.3622 150.146 17.7372C150.6 17.1122 151.216 16.6269 151.993 16.2812C152.769 15.9309 153.645 15.7557 154.62 15.7557C155.605 15.7557 156.474 15.9285 157.227 16.2741C157.984 16.6198 158.581 17.0956 159.017 17.7017C159.452 18.303 159.68 18.9943 159.699 19.7756H157.582ZM167.442 19.5909V21.2955H161.483V19.5909H167.442ZM163.081 16.9773H165.205V27.2969C165.205 27.7088 165.266 28.0189 165.389 28.2273C165.512 28.4309 165.671 28.5705 165.865 28.6463C166.064 28.7173 166.279 28.7528 166.511 28.7528C166.682 28.7528 166.831 28.741 166.959 28.7173C167.087 28.6937 167.186 28.6747 167.257 28.6605L167.641 30.4148C167.518 30.4621 167.342 30.5095 167.115 30.5568C166.888 30.6089 166.604 30.6373 166.263 30.642C165.704 30.6515 165.183 30.5521 164.7 30.3438C164.217 30.1354 163.827 29.8134 163.528 29.3778C163.23 28.9422 163.081 28.3954 163.081 27.7372V16.9773ZM174.269 30.7202C173.246 30.7202 172.354 30.4858 171.591 30.017C170.829 29.5483 170.237 28.8925 169.816 28.0497C169.394 27.2069 169.184 26.2221 169.184 25.0952C169.184 23.9635 169.394 22.974 169.816 22.1264C170.237 21.2789 170.829 20.6207 171.591 20.152C172.354 19.6832 173.246 19.4489 174.269 19.4489C175.292 19.4489 176.184 19.6832 176.946 20.152C177.709 20.6207 178.301 21.2789 178.722 22.1264C179.143 22.974 179.354 23.9635 179.354 25.0952C179.354 26.2221 179.143 27.2069 178.722 28.0497C178.301 28.8925 177.709 29.5483 176.946 30.017C176.184 30.4858 175.292 30.7202 174.269 30.7202ZM174.276 28.9375C174.939 28.9375 175.488 28.7623 175.924 28.4119C176.359 28.0616 176.681 27.5952 176.89 27.0128C177.103 26.4304 177.209 25.7888 177.209 25.0881C177.209 24.392 177.103 23.7528 176.89 23.1705C176.681 22.5833 176.359 22.1122 175.924 21.7571C175.488 21.402 174.939 21.2244 174.276 21.2244C173.608 21.2244 173.054 21.402 172.614 21.7571C172.178 22.1122 171.854 22.5833 171.641 23.1705C171.433 23.7528 171.328 24.392 171.328 25.0881C171.328 25.7888 171.433 26.4304 171.641 27.0128C171.854 27.5952 172.178 28.0616 172.614 28.4119C173.054 28.7623 173.608 28.9375 174.276 28.9375ZM181.724 30.5V19.5909H183.777V21.3239H183.891C184.089 20.7367 184.44 20.2751 184.942 19.9389C185.448 19.598 186.021 19.4276 186.661 19.4276C186.793 19.4276 186.949 19.4323 187.129 19.4418C187.314 19.4512 187.458 19.4631 187.562 19.4773V21.5085C187.477 21.4848 187.326 21.4588 187.108 21.4304C186.89 21.3973 186.672 21.3807 186.455 21.3807C185.953 21.3807 185.505 21.4872 185.112 21.7003C184.724 21.9086 184.416 22.1998 184.189 22.5739C183.962 22.9432 183.848 23.3646 183.848 23.8381V30.5H181.724ZM193.711 30.7202C192.636 30.7202 191.711 30.4905 190.934 30.0312C190.163 29.5672 189.566 28.9162 189.145 28.0781C188.728 27.2353 188.52 26.2481 188.52 25.1165C188.52 23.9991 188.728 23.0142 189.145 22.1619C189.566 21.3097 190.153 20.6444 190.906 20.1662C191.663 19.688 192.549 19.4489 193.562 19.4489C194.178 19.4489 194.774 19.5507 195.352 19.7543C195.93 19.9579 196.448 20.2775 196.907 20.7131C197.367 21.1487 197.729 21.7145 197.994 22.4105C198.259 23.1018 198.392 23.9422 198.392 24.9318V25.6847H189.72V24.0938H196.311C196.311 23.535 196.197 23.0402 195.97 22.6094C195.743 22.1738 195.423 21.8305 195.011 21.5795C194.604 21.3286 194.126 21.2031 193.576 21.2031C192.98 21.2031 192.459 21.3499 192.014 21.6435C191.574 21.9323 191.233 22.3111 190.991 22.7798C190.754 23.2438 190.636 23.7481 190.636 24.2926V25.5355C190.636 26.2647 190.764 26.8849 191.02 27.3963C191.28 27.9077 191.642 28.2983 192.106 28.5682C192.57 28.8333 193.112 28.9659 193.733 28.9659C194.135 28.9659 194.502 28.9091 194.833 28.7955C195.165 28.6771 195.451 28.5019 195.693 28.2699C195.934 28.0379 196.119 27.7514 196.247 27.4105L198.257 27.7727C198.096 28.3646 197.807 28.883 197.39 29.3281C196.978 29.7685 196.46 30.1117 195.835 30.358C195.215 30.5994 194.507 30.7202 193.711 30.7202Z" fill="#6290F2"/>
</svg>
