<svg width="210" height="197" viewBox="0 0 210 197" fill="none" xmlns="http://www.w3.org/2000/svg">
<path d="M157.5 73.875L175 90.2917M192.5 106.708L175 90.2917M192.5 73.875L175 90.2917M175 90.2917L157.5 106.708M70 123.125H140C159.33 123.125 175 137.825 175 155.958V172.375H35V155.958C35 137.825 50.67 123.125 70 123.125ZM140 57.4583C140 75.5917 124.33 90.2917 105 90.2917C85.67 90.2917 70 75.5917 70 57.4583C70 39.325 85.67 24.625 105 24.625C124.33 24.625 140 39.325 140 57.4583Z" stroke="black" stroke-width="2" stroke-linecap="round" stroke-linejoin="round"/>
</svg>
