<svg width="142" height="125" viewBox="0 0 142 125" fill="none" xmlns="http://www.w3.org/2000/svg">
<ellipse cx="70.9807" cy="62.7687" rx="70.1282" ry="61.9053" fill="white"/>
<g clip-path="url(#clip0_492_2065)">
<path d="M54.454 56.557C54.5564 56.4665 54.6927 56.4167 54.8377 56.4167C54.9891 56.4167 55.1292 56.4703 55.2322 56.5675C55.8861 57.1852 56.497 57.8505 57.0479 58.5447C57.202 58.7388 57.4534 58.8547 57.7207 58.8547C57.9369 58.8547 58.1405 58.7801 58.294 58.6446L59.6426 57.4542C59.7451 57.3637 59.8815 57.3139 60.0267 57.3139C60.1779 57.3139 60.3176 57.3673 60.4202 57.4644C61.5773 58.5591 62.572 59.7815 63.3768 61.0973C63.5183 61.3286 63.7921 61.4724 64.0914 61.4724C64.3087 61.4724 64.5132 61.3974 64.6673 61.2613L65.3042 60.6991C65.4069 60.6085 65.5434 60.5586 65.6887 60.5586C65.8399 60.5586 65.9792 60.612 66.0812 60.7092C68.575 63.0825 70.2225 66.0998 70.8456 69.4349H71.1158C71.7389 66.0998 73.3863 63.0825 75.8801 60.7092C75.9822 60.6121 76.1216 60.5586 76.2727 60.5586C76.418 60.5586 76.5544 60.6085 76.6572 60.6991L77.2941 61.2613C77.4482 61.3973 77.6526 61.4724 77.87 61.4724C78.1693 61.4724 78.4431 61.3288 78.5846 61.0973C79.3894 59.7815 80.3841 58.5591 81.5412 57.4644C81.6438 57.3673 81.7836 57.3139 81.9347 57.3139C82.0799 57.3139 82.2163 57.3637 82.3188 57.4542L83.6674 58.6446C83.8208 58.7801 84.0243 58.8547 84.2407 58.8547C84.5079 58.8547 84.7596 58.7388 84.9135 58.5447C85.4643 57.8505 86.0751 57.1852 86.7292 56.5675C86.8322 56.4703 86.9721 56.4167 87.1236 56.4167C87.2687 56.4167 87.405 56.4665 87.5074 56.557L87.5819 56.6227C87.9642 55.4098 88.192 54.1512 88.2471 52.8593C88.2614 52.5216 87.9516 52.2419 87.5688 52.2419H86.6681C86.2161 52.2419 85.8887 51.8582 86.0182 51.4759C86.4991 50.0553 86.783 48.5667 86.8433 47.031C86.8565 46.6933 86.5475 46.4133 86.1647 46.4133H84.2576C83.8339 46.4133 83.5179 46.0749 83.5913 45.7067C83.7569 44.8766 83.8599 44.0259 83.8932 43.1585C83.9062 42.8205 83.5976 42.5402 83.2145 42.5402H80.887C80.5513 42.5402 80.2683 42.323 80.2175 42.03C79.4095 37.3705 75.8762 33.57 71.2026 32.1175C71.0594 32.073 70.9021 32.073 70.759 32.1175C66.0855 33.57 62.5521 37.3705 61.7441 42.03C61.6933 42.323 61.4103 42.5402 61.0746 42.5402H58.7471C58.364 42.5402 58.0554 42.8205 58.0684 43.1585C58.1017 44.0259 58.2047 44.8766 58.3703 45.7067C58.4437 46.075 58.1277 46.4133 57.7041 46.4133H55.7969C55.4141 46.4133 55.1051 46.6932 55.1184 47.031C55.1787 48.5666 55.4627 50.0553 55.9435 51.4759C56.0729 51.8582 55.7456 52.2419 55.2936 52.2419H54.3929C54.01 52.2419 53.7002 52.5218 53.7146 52.8593C53.7697 54.1512 53.9974 55.4098 54.3797 56.6227L54.454 56.557Z" fill="#02905D"/>
<path d="M54.4566 56.5546C54.5591 56.4642 54.6954 56.4144 54.8404 56.4144C54.9918 56.4144 55.1319 56.468 55.2349 56.5652C55.8888 57.1829 56.4997 57.8481 57.0505 58.5424C57.2046 58.7365 57.4561 58.8524 57.7233 58.8524C57.9396 58.8524 58.1431 58.7778 58.2967 58.6423L59.6453 57.4519C59.7477 57.3614 59.8842 57.3115 60.0293 57.3115C60.1806 57.3115 60.3203 57.365 60.4229 57.4621C60.4923 57.5277 60.5591 57.5953 60.6274 57.6618C60.0204 56.1334 59.6625 54.5228 59.5916 52.8569C59.5772 52.5192 59.887 52.2394 60.2699 52.2394H61.1706C61.6226 52.2394 61.9499 51.8558 61.8205 51.4735C61.3396 50.0529 61.0557 48.5643 60.9954 47.0286C60.9821 46.6909 61.2911 46.4109 61.6739 46.4109H63.5811C64.0047 46.4109 64.3207 46.0725 64.2473 45.7043C64.0817 44.8741 63.9787 44.0234 63.9454 43.156C63.9324 42.8181 64.241 42.5378 64.6241 42.5378H66.9516C67.2873 42.5378 67.5703 42.3205 67.6211 42.0276C68.2635 38.3232 70.6297 35.1631 73.9207 33.2927C73.0724 32.8106 72.1633 32.4128 71.2055 32.1151C71.0622 32.0706 70.905 32.0706 70.7618 32.1151C66.0883 33.5676 62.5549 37.3681 61.7469 42.0276C61.6961 42.3205 61.4131 42.5378 61.0774 42.5378H58.7499C58.3668 42.5378 58.0582 42.8181 58.0712 43.156C58.1045 44.0234 58.2075 44.8741 58.3731 45.7043C58.4465 46.0725 58.1305 46.4109 57.7069 46.4109H55.7997C55.4169 46.4109 55.1079 46.6908 55.1212 47.0286C55.1815 48.5641 55.4655 50.0529 55.9463 51.4735C56.0757 51.8558 55.7484 52.2394 55.2964 52.2394H54.3957C54.0128 52.2394 53.703 52.5192 53.7174 52.8569C53.7725 54.1488 54.0002 55.4073 54.3825 56.6203L54.4566 56.5546Z" fill="#017B4E"/>
<path d="M69.9532 58.2897V66.3775C70.3489 67.3573 70.6486 68.379 70.8454 69.4325H71.1157C71.3125 68.3789 71.6122 67.3573 72.0079 66.3775V52.4344C75.2368 51.9965 77.7176 49.5274 77.7176 46.5564C77.7176 46.0556 77.2578 45.6496 76.6903 45.6496C76.1228 45.6496 75.663 46.0556 75.663 46.5564C75.663 48.524 74.0971 50.1738 72.0079 50.5884V39.5268C72.0079 39.026 71.5481 38.62 70.9806 38.62C70.4132 38.62 69.9534 39.026 69.9534 39.5268V45.3925C68.341 44.9952 67.1541 43.6878 67.1541 42.1394C67.1541 41.6386 66.6943 41.2326 66.1269 41.2326C65.5594 41.2326 65.0996 41.6386 65.0996 42.1394C65.0996 44.6925 67.1989 46.8194 69.9534 47.2499V56.4643C66.6142 56.0629 64.0444 53.7359 64.0444 50.9337C64.0444 50.4329 63.5846 50.0269 63.0171 50.0269C62.4497 50.0269 61.9899 50.4329 61.9899 50.9337C61.9897 54.7308 65.4779 57.8683 69.9532 58.2897Z" fill="#026841"/>
<path d="M71.0531 69.8291C70.5029 66.4025 68.8904 63.2028 66.1814 60.6247C65.921 60.377 65.4778 60.3725 65.2071 60.6114L64.5702 61.1736C64.2506 61.4558 63.7119 61.3888 63.4971 61.0377C62.6992 59.7331 61.7076 58.5031 60.5201 57.3798C60.2589 57.1326 59.8162 57.1275 59.5455 57.3666L58.1971 58.557C57.8975 58.8215 57.4029 58.7794 57.1599 58.4731C56.6121 57.7827 56.0035 57.1169 55.3322 56.4827C55.0708 56.2357 54.6279 56.2302 54.3571 56.4692L52.7113 57.922C52.474 58.1316 52.0998 58.1545 51.8292 57.9791C47.5255 55.1888 41.9827 54.7068 37.5145 56.597C37.3775 56.6549 37.2663 56.7531 37.2007 56.874C35.0594 60.8183 35.6053 65.7112 38.7664 69.5103C38.9651 69.7491 38.9389 70.0794 38.7017 70.2889L37.0559 71.7417C36.7851 71.9807 36.7913 72.3716 37.0712 72.6024C37.7896 73.195 38.5439 73.7323 39.326 74.2158C39.673 74.4303 39.7205 74.8669 39.4211 75.1313L38.0725 76.3218C37.8018 76.5607 37.8076 76.9516 38.0874 77.1821C39.3601 78.2302 40.7534 79.1056 42.2313 79.81C42.629 79.9996 42.7049 80.4752 42.3852 80.7574L41.7483 81.3196C41.4777 81.5585 41.4827 81.9498 41.7634 82.1796C48.4765 87.6761 58.9085 88.0615 67.636 83.6911C67.7433 83.6374 67.8328 83.5585 67.8937 83.4637C69.5656 80.8617 70.6224 78.0883 71.0498 75.3276C70.7612 73.4628 70.7633 71.6116 71.0531 69.8291Z" fill="#09A76D"/>
<path d="M65.9946 83.297C58.8485 85.0125 51.4115 83.8254 46.2083 79.5652C45.9276 79.3353 45.9226 78.9441 46.1932 78.7052L46.8301 78.1429C47.1498 77.8607 47.0739 77.3852 46.6762 77.1956C45.1983 76.4913 43.8049 75.6159 42.5323 74.5677C42.2525 74.3371 42.2466 73.9463 42.5174 73.7074L43.866 72.5169C44.1655 72.2525 44.1179 71.816 43.7709 71.6014C42.9888 71.1178 42.2345 70.5806 41.5161 69.988C41.2363 69.7572 41.23 69.3663 41.5008 69.1272L41.6871 68.9628C41.649 68.9308 41.6102 68.8997 41.573 68.8668C41.1718 68.5127 41.1718 67.9385 41.5731 67.5844C41.9743 67.2303 42.6248 67.2303 43.0258 67.5844C43.0631 67.6173 43.1016 67.6488 43.1399 67.6805L43.1465 67.6746C43.3839 67.4651 43.4099 67.1348 43.2111 66.896C40.4056 63.5242 39.662 59.2912 41.0268 55.624C39.8129 55.8012 38.6302 56.1252 37.5145 56.5972C37.3775 56.6551 37.2664 56.7533 37.2008 56.8742C35.0596 60.8185 35.6054 65.7115 38.7665 69.5105C38.9652 69.7493 38.9391 70.0796 38.7018 70.2892L37.0559 71.7417C36.7851 71.9807 36.7914 72.3716 37.0712 72.6024C37.7896 73.195 38.5439 73.7323 39.326 74.2158C39.673 74.4303 39.7205 74.8669 39.4211 75.1313L38.0725 76.3218C37.8018 76.5607 37.8076 76.9516 38.0874 77.1821C39.3601 78.2302 40.7534 79.1056 42.2313 79.81C42.629 79.9996 42.7049 80.4752 42.3852 80.7574L41.7483 81.3196C41.4777 81.5585 41.4827 81.9498 41.7634 82.1796C48.2794 87.5147 58.2988 88.034 66.8627 84.0635L65.9946 83.297Z" fill="#02905D"/>
<path d="M78.4638 61.0377C79.2616 59.7331 80.2533 58.5031 81.4408 57.3798C81.702 57.1326 82.1447 57.1275 82.4153 57.3666L83.7639 58.557C84.0635 58.8215 84.5581 58.7794 84.8011 58.4731C85.3489 57.7827 85.9575 57.1169 86.6288 56.4827C86.8902 56.2357 87.3331 56.2302 87.6039 56.4692L89.2497 57.922C89.487 58.1316 89.8612 58.1545 90.1318 57.9791C94.4355 55.1888 99.9783 54.7068 104.447 56.597C104.583 56.6549 104.695 56.7531 104.76 56.8739C106.901 60.8182 106.356 65.7111 103.194 69.5102C102.996 69.749 103.022 70.0793 103.259 70.2888L104.905 71.7417C105.176 71.9807 105.17 72.3716 104.89 72.6024C104.171 73.195 103.417 73.7323 102.635 74.2158C102.288 74.4303 102.24 74.8669 102.54 75.1313L103.888 76.3218C104.159 76.5607 104.153 76.9516 103.873 77.1821C102.601 78.2302 101.207 79.1056 99.7296 79.81C99.3318 79.9996 99.2559 80.4752 99.5756 80.7574L100.213 81.3196C100.483 81.5585 100.478 81.9498 100.197 82.1796C93.4843 87.6761 83.0524 88.0615 74.3248 83.6911C74.2175 83.6374 74.1282 83.5585 74.0672 83.4637C69.1163 75.7595 69.5528 66.5507 75.7794 60.6247C76.0398 60.377 76.4831 60.3725 76.7537 60.6114L77.3906 61.1736C77.7103 61.4558 78.2491 61.3888 78.4638 61.0377Z" fill="#02905D"/>
<path d="M77.2612 65.7328C77.5216 65.4851 77.9647 65.4806 78.2355 65.7195L78.8724 66.2818C79.1921 66.564 79.7308 66.497 79.9456 66.1459C80.7434 64.8413 81.7351 63.6112 82.9226 62.4879C83.1838 62.2407 83.6265 62.2357 83.8971 62.4747L85.2457 63.6652C85.5453 63.9296 86.0397 63.8875 86.2828 63.5813C86.8307 62.8909 87.4393 62.225 88.1106 61.5909C88.372 61.3438 88.8149 61.3383 89.0856 61.5773L90.7315 63.0302C90.9688 63.2397 91.343 63.2627 91.6135 63.0872C95.9172 60.2969 101.46 59.815 105.928 61.7051C105.969 61.7223 106.006 61.7438 106.041 61.7675C106.014 60.0731 105.59 58.4023 104.76 56.874C104.695 56.7531 104.584 56.655 104.447 56.5971C99.9785 54.7069 94.4357 55.1887 90.1319 57.9792C89.8614 58.1546 89.4872 58.1317 89.2499 57.9221L87.604 56.4693C87.3333 56.2302 86.8904 56.2357 86.629 56.4828C85.9577 57.117 85.349 57.7828 84.8013 58.4732C84.5583 58.7795 84.0637 58.8214 83.7641 58.5571L82.4155 57.3667C82.1447 57.1278 81.7021 57.1328 81.441 57.3798C80.2536 58.5033 79.2619 59.7332 78.464 61.0378C78.2492 61.3889 77.7104 61.4559 77.3908 61.1737L76.7539 60.6115C76.4833 60.3726 76.04 60.3771 75.7796 60.6248C70.3858 65.7581 69.3379 73.3547 72.3719 80.3028C71.5795 74.9342 73.1712 69.6254 77.2612 65.7328Z" fill="#017B4E"/>
<path d="M100.388 67.5844C99.987 67.2301 99.3365 67.2302 98.9354 67.5844C98.0501 68.3658 96.8742 68.7962 95.6244 68.7962C94.7241 68.7962 93.8628 68.5718 93.1202 68.1547L97.8384 63.9897C98.2396 63.6356 98.2396 63.0614 97.8384 62.7074C97.437 62.3532 96.7867 62.3532 96.3855 62.7074L87.5239 70.53C87.0515 69.8744 86.7972 69.1141 86.7972 68.3194C86.7972 67.2161 87.2848 66.1782 88.17 65.3966C88.5712 65.0425 88.5712 64.4684 88.17 64.1143C87.7688 63.7601 87.1183 63.7601 86.7173 64.1143C85.4439 65.2382 84.7426 66.7317 84.7426 68.3194C84.7426 69.6009 85.2001 70.8207 86.0457 71.8347L79.3056 77.7845C76.7998 74.998 76.801 71.1183 79.4577 68.773C79.8588 68.4189 79.8588 67.8447 79.4577 67.4907C79.0563 67.1365 78.406 67.1365 78.0048 67.4907C74.5508 70.5399 74.5477 75.5682 77.8436 79.0752L70.9805 85.1335L64.1174 79.0751C67.4132 75.5681 67.4103 70.5397 63.9562 67.4905C63.555 67.1364 62.9047 67.1363 62.5034 67.4905C62.1022 67.8447 62.1022 68.4189 62.5034 68.7729C65.1601 71.1182 65.1612 74.9979 62.6554 77.7844L55.9153 71.8346C56.7611 70.8206 57.2184 69.6008 57.2184 68.3193C57.2184 66.7316 56.5171 65.2381 55.2437 64.1142C54.8427 63.76 54.1922 63.76 53.791 64.1142C53.3899 64.4683 53.3899 65.0425 53.791 65.3965C54.6764 66.178 55.1639 67.216 55.1639 68.3193C55.1639 69.114 54.9097 69.8744 54.4371 70.5298L45.5755 62.7074C45.1742 62.3532 44.5238 62.3532 44.1227 62.7074C43.7215 63.0615 43.7215 63.6357 44.1227 63.9897L48.8408 68.1547C48.0982 68.5717 47.2369 68.7962 46.3366 68.7962C45.0868 68.7962 43.9109 68.3658 43.0257 67.5844C42.6245 67.2302 41.974 67.2302 41.573 67.5844C41.1717 67.9385 41.1717 68.5126 41.5728 68.8667C42.8461 69.9907 44.5379 70.6099 46.3366 70.6099C47.7882 70.6099 49.1702 70.206 50.3189 69.4594L57.6901 75.9664C55.0073 77.7668 51.3263 77.7255 49.0816 75.7439C48.6803 75.3898 48.03 75.3898 47.6288 75.7439C47.2276 76.0981 47.2276 76.6723 47.6288 77.0263C49.1904 78.4046 51.262 79.0867 53.3831 79.0867C55.394 79.0867 57.4484 78.4721 59.153 77.2576L69.9534 86.7916V92.5488C69.9534 93.0496 70.4132 93.4556 70.9807 93.4556C71.5481 93.4556 72.0079 93.0496 72.0079 92.5488V86.7916L82.8083 77.2576C84.5129 78.4722 86.567 79.0867 88.5782 79.0867C90.6989 79.0867 92.7711 78.4045 94.3325 77.0263C94.7337 76.6721 94.7337 76.0979 94.3325 75.7439C93.9312 75.3898 93.2809 75.3898 92.8797 75.7439C90.6352 77.7254 86.954 77.7667 84.2712 75.9664L88.1693 72.5253C88.1696 72.5251 88.17 72.5248 88.1703 72.5246C88.1705 72.5243 88.1708 72.524 88.1711 72.5237L91.6424 69.4594C92.7911 70.206 94.1729 70.6099 95.6247 70.6099C97.4234 70.6099 99.1152 69.9908 100.388 68.8667C100.789 68.5126 100.789 67.9385 100.388 67.5844Z" fill="#017B4E"/>
</g>
<defs>
<clipPath id="clip0_492_2065">
<rect width="70.1282" height="61.9053" fill="white" transform="translate(35.9165 31.816)"/>
</clipPath>
</defs>
</svg>
