<svg width="141" height="125" viewBox="0 0 141 125" fill="none" xmlns="http://www.w3.org/2000/svg">
<ellipse cx="70.1282" cy="62.7687" rx="70.1282" ry="61.9053" fill="white"/>
<g clip-path="url(#clip0_492_1992)">
<path d="M104.525 60.2302C101.103 57.3227 94.2567 55.3089 86.3517 55.2534C84.5459 55.2407 82.7945 55.3321 81.124 55.513C82.0224 56.2963 82.812 57.198 83.4574 58.2032C83.777 58.7009 84.059 59.2209 84.2958 59.7488C84.9572 61.2233 86.3036 62.3851 87.9899 62.9363C89.6177 63.4683 91.1385 64.2049 92.5104 65.1132C97.6975 64.4225 102.004 62.8463 104.521 60.7751C104.699 60.6284 104.701 60.3794 104.525 60.2302Z" fill="#026841"/>
<path d="M84.6156 60.3505C85.3436 61.5371 86.5404 62.4626 87.9897 62.9363C89.6176 63.4683 91.1384 64.2049 92.5102 65.1132C97.6974 64.4226 102.003 62.8463 104.521 60.7751C104.618 60.6951 104.661 60.5848 104.653 60.4767L84.6156 60.3505Z" fill="#017B4E"/>
<path d="M83.4574 58.2032C83.7146 58.6038 83.9462 59.0194 84.1507 59.4415C85.5216 58.5316 86.8802 57.5031 88.194 56.3616C93.8283 51.4666 97.1585 45.8154 97.3252 41.6249C97.3337 41.41 97.1359 41.2325 96.8923 41.2366C92.1431 41.317 85.6892 44.1664 80.0549 49.0614C78.6583 50.2749 77.4038 51.5348 76.3033 52.8072C79.2498 53.7531 81.8164 55.6473 83.4574 58.2032Z" fill="#02905D"/>
<path d="M83.4573 58.2033C83.7145 58.6039 83.9461 59.0194 84.1506 59.4414C85.5215 58.5316 86.8801 57.503 88.1939 56.3615C93.8281 51.4665 97.1584 45.8153 97.3251 41.6249C97.3297 41.5076 97.2718 41.4029 97.1797 41.3313L81.0042 55.408C81.9527 56.2149 82.7831 57.1533 83.4573 58.2033Z" fill="#09A76D"/>
<path d="M71.9992 52.1319C74.6798 52.1319 77.2695 52.902 79.4444 54.2671C79.8615 52.3306 80.0984 50.2388 80.1182 48.0554C80.181 41.0771 78.0092 35.0025 74.7703 31.9353C74.6042 31.7779 74.322 31.776 74.1531 31.931C70.8594 34.9522 68.5782 40.9956 68.5154 47.9738C68.5012 49.5429 68.601 51.0658 68.7996 52.5197C69.8361 52.2646 70.9131 52.1319 71.9992 52.1319Z" fill="#026841"/>
<path d="M79.4444 54.2671C79.8615 52.3306 80.0985 50.2387 80.1182 48.0554C80.1811 41.0771 78.0093 35.0025 74.7704 31.9353C74.6798 31.8495 74.5548 31.8116 74.4323 31.8184L74.2666 52.3173C76.1258 52.6211 77.8909 53.2919 79.4444 54.2671Z" fill="#017B4E"/>
<path d="M66.1173 85.5383C64.0562 82.302 63.3481 78.5125 64.1232 74.8679C64.4534 73.3157 64.015 71.7028 62.9205 70.443C62.5291 69.9925 62.1686 69.5119 61.8492 69.0145C60.1126 66.3098 59.6047 63.2045 60.4194 60.2707C61.2333 57.3395 63.27 54.9305 66.1546 53.4872C66.7901 53.1693 67.458 52.906 68.1475 52.698C62.4537 50.7056 55.6429 52.8238 52.2414 57.9013C51.9032 58.4061 51.6108 58.9228 51.3626 59.4476C50.6869 60.8765 49.3516 61.9939 47.6954 62.5037C43.8263 63.6947 40.3929 66.0471 38.1323 69.3949C33.0846 76.8704 35.8206 86.6459 44.2361 91.1795C52.087 95.4089 62.1008 93.7211 67.6975 87.6095C67.1144 86.9622 66.5842 86.2713 66.1173 85.5383Z" fill="#02905D"/>
<path d="M66.1546 53.4872C66.7901 53.1693 67.458 52.906 68.1475 52.698C62.4537 50.7056 55.6429 52.8238 52.2414 57.9013C51.9032 58.4061 51.6108 58.9228 51.3626 59.4476C50.6869 60.8765 49.3516 61.9939 47.6954 62.5037C43.8263 63.6947 40.3929 66.0471 38.1323 69.3949C33.0846 76.8704 35.8206 86.6459 44.2361 91.1795C44.8407 91.5052 45.4585 91.7946 46.0857 92.0508C39.7767 87.065 38.1258 78.6206 42.6052 71.9868C44.8657 68.6391 48.299 66.2867 52.1682 65.0956C53.8245 64.5857 55.1598 63.4684 55.8355 62.0395C56.0836 61.5147 56.3761 60.998 56.7142 60.4932C58.3369 58.071 60.7362 56.325 63.419 55.3746C64.2133 54.6375 65.1291 54.0003 66.1546 53.4872Z" fill="#017B4E"/>
<path d="M39.9494 79.6561C40.5167 79.6561 40.9767 79.2501 40.9767 78.7493C40.9767 78.2485 40.5167 77.8425 39.9494 77.8425C39.382 77.8425 38.9221 78.2485 38.9221 78.7493C38.9221 79.2501 39.382 79.6561 39.9494 79.6561Z" fill="#026841"/>
<path d="M45.4341 81.6878C46.0015 81.6878 46.4614 81.2818 46.4614 80.781C46.4614 80.2801 46.0015 79.8741 45.4341 79.8741C44.8668 79.8741 44.4069 80.2801 44.4069 80.781C44.4069 81.2818 44.8668 81.6878 45.4341 81.6878Z" fill="#026841"/>
<path d="M42.7197 85.4054C43.287 85.4054 43.7469 84.9994 43.7469 84.4986C43.7469 83.9978 43.287 83.5918 42.7197 83.5918C42.1523 83.5918 41.6924 83.9978 41.6924 84.4986C41.6924 84.9994 42.1523 85.4054 42.7197 85.4054Z" fill="#026841"/>
<path d="M47.4922 88.1794C48.0596 88.1794 48.5195 87.7734 48.5195 87.2725C48.5195 86.7717 48.0596 86.3657 47.4922 86.3657C46.9249 86.3657 46.465 86.7717 46.465 87.2725C46.465 87.7734 46.9249 88.1794 47.4922 88.1794Z" fill="#026841"/>
<path d="M42.6819 73.9455C43.2493 73.9455 43.7092 73.5395 43.7092 73.0387C43.7092 72.5378 43.2493 72.1318 42.6819 72.1318C42.1146 72.1318 41.6547 72.5378 41.6547 73.0387C41.6547 73.5395 42.1146 73.9455 42.6819 73.9455Z" fill="#026841"/>
<path d="M88.0373 62.823C86.3884 62.2841 85.0703 61.1474 84.4231 59.7044C84.1858 59.1755 83.9042 58.654 83.5766 58.1438C79.9501 52.4957 72.1198 50.3638 66.087 53.3822C60.0542 56.4005 58.1036 63.4261 61.7302 69.0742C62.0578 69.5844 62.4198 70.0655 62.8118 70.5168C63.8794 71.7454 64.3123 73.324 63.9887 74.8458C63.2326 78.4009 63.8344 82.2006 65.9981 85.5977C70.8296 93.1838 81.7957 95.9559 90.4394 91.7703C99.2945 87.4822 102.439 77.645 97.4753 69.9139C95.288 66.5074 91.8947 64.0837 88.0373 62.823Z" fill="#81B823"/>
<path d="M88.9071 88.9233C88.8471 88.9534 88.7864 88.9832 88.7257 89.0126C81.7867 92.3727 72.9843 90.1493 69.1037 84.0563C67.4363 81.4383 66.8634 78.3734 67.4902 75.4259C67.9997 73.0302 67.3248 70.5432 65.6389 68.6025C65.3434 68.2624 65.0711 67.8992 64.8297 67.5232C62.1777 63.3928 63.5298 58.2764 67.8438 56.1181C72.1578 53.9597 77.825 55.5641 80.477 59.6945C80.7186 60.0707 80.9318 60.4636 81.1104 60.8619C82.1293 63.1337 84.2031 64.9234 86.8002 65.7723C89.9999 66.8182 92.6903 68.8396 94.3757 71.4646C96.2868 74.4411 96.7705 77.8963 95.7376 81.1939C94.7048 84.4912 92.2791 87.2363 88.9075 88.9232C88.9072 88.9233 88.9073 88.9232 88.9071 88.9233Z" fill="#D1F19E"/>
<path d="M73.5023 82.7763C71.8349 80.1584 71.262 77.0935 71.8888 74.146C72.3983 71.7503 71.7234 69.2633 70.0375 67.3226C69.7421 66.9825 69.4698 66.6193 69.2283 66.2432C66.7015 62.3078 67.8119 57.4793 71.6537 55.1652C70.3418 55.2112 69.0406 55.5194 67.8438 56.1181C63.5298 58.2764 62.1777 63.3928 64.8297 67.5232C65.0711 67.8992 65.3434 68.2624 65.6389 68.6025C67.325 70.5432 67.9997 73.0302 67.4902 75.4259C66.8632 78.3733 67.4362 81.4383 69.1036 84.0562C72.9325 90.0681 81.5525 92.3123 88.4468 89.1436C82.6201 89.9543 76.5467 87.5564 73.5023 82.7763Z" fill="#BBEC6C"/>
<path d="M95.2692 71.0174C93.4645 68.2067 90.5835 66.0419 87.1567 64.9219C84.8329 64.1624 82.9771 62.5609 82.0653 60.5282C81.869 60.0907 81.6353 59.6597 81.3706 59.2474C79.9603 57.051 77.7324 55.4306 75.0971 54.6846C72.432 53.93 69.676 54.159 67.3371 55.3293C62.5303 57.7343 61.0046 63.405 63.9358 67.9704C64.2003 68.3825 64.499 68.7809 64.8236 69.1545C66.3322 70.891 66.9361 73.1158 66.4805 75.2587C65.8092 78.4152 66.4227 81.6974 68.2081 84.5007C71.0494 88.962 76.3539 91.4856 81.8009 91.4856C84.3199 91.4856 86.8703 90.9455 89.2201 89.8076L89.4139 89.7122C93.0243 87.9058 95.6218 84.9665 96.7277 81.4356C97.8336 77.9045 97.3157 74.2047 95.2692 71.0174ZM94.7474 80.9521C93.7878 84.0161 91.5338 86.5667 88.4009 88.1341L88.2318 88.2174C86.1924 89.2049 83.9809 89.6734 81.7948 89.6733C77.0688 89.673 72.4646 87.4828 69.9991 83.6116C68.4499 81.1793 67.9175 78.3317 68.4999 75.5931C69.0631 72.9445 68.3174 70.1954 66.4541 68.0507C66.1871 67.7433 65.9413 67.4154 65.7234 67.0759C63.3506 63.3806 64.5291 58.8187 68.3503 56.9069C69.4699 56.3467 70.7159 56.0629 71.9975 56.0629C72.8149 56.0629 73.647 56.1784 74.4698 56.4113C76.6123 57.0178 78.4282 58.3426 79.5833 60.1416C79.8013 60.4812 79.9938 60.8358 80.1551 61.1956C81.2813 63.7064 83.5733 65.6844 86.4434 66.6225C89.4161 67.5941 91.9157 69.4726 93.4818 71.9115C95.2577 74.6775 95.7071 77.8881 94.7474 80.9521Z" fill="#8BC727"/>
<path d="M85.7816 84.0673C89.712 82.1012 90.9458 77.4657 88.5372 73.7136C86.1286 69.9615 80.9898 68.5137 77.0593 70.4798C73.1288 72.4459 71.8951 77.0815 74.3036 80.8335C76.7122 84.5856 81.8511 86.0334 85.7816 84.0673Z" fill="#A44F3E"/>
<path d="M78.6968 79.5835C76.428 76.0498 77.391 71.733 80.7941 69.5998C79.5122 69.6087 78.2333 69.8894 77.062 70.4754C73.1315 72.4419 71.8983 77.0777 74.3073 80.8296C76.7163 84.5815 81.8553 86.0289 85.7858 84.0625C86.0144 83.9481 86.233 83.8238 86.4433 83.692C83.424 83.7132 80.3879 82.2172 78.6968 79.5835Z" fill="#883F2E"/>
</g>
<defs>
<clipPath id="clip0_492_1992">
<rect width="70.1282" height="61.9053" fill="white" transform="translate(35.064 31.816)"/>
</clipPath>
</defs>
</svg>
