<svg width="141" height="125" viewBox="0 0 141 125" fill="none" xmlns="http://www.w3.org/2000/svg">
<ellipse cx="70.833" cy="62.7687" rx="70.1282" ry="61.9053" fill="white"/>
<g clip-path="url(#clip0_492_2120)">
<path d="M96.5885 86.6676L92.2182 92.8634C91.1878 94.3244 88.6477 93.8183 88.428 92.1082L86.4272 76.5345L104.07 78.3007C106.007 78.4946 106.58 80.7369 104.925 81.6465L97.9062 85.5043C97.3721 85.7979 96.9212 86.1959 96.5885 86.6676Z" fill="#44A5FF"/>
<path d="M87.5635 85.3793C90.116 85.6051 92.6399 85.2869 94.4911 83.6528C96.3422 82.0188 96.7026 79.7908 96.4468 77.5376L86.4274 76.5345L87.5635 85.3793Z" fill="#377BFE"/>
<path d="M61.2535 35.9728L72.5992 36.7643C73.3879 36.8193 74.1353 37.0977 74.7305 37.5578L82.7182 43.7353C83.6172 44.4305 83.25 45.7319 82.0865 45.9735L72.5622 47.9518L59.4381 37.8021L61.2535 35.9728Z" fill="#44A5FF"/>
<path d="M76.6725 50.5896L85.309 51.6787C86.2908 51.8026 87.1638 52.2956 87.7025 53.0306L92.008 58.9044C92.6261 59.7476 91.8791 60.8503 90.745 60.7686L81.6422 60.1126L74.8542 52.1945L76.6725 50.5896Z" fill="#44A5FF"/>
<path d="M57.036 67.9237L58.2698 75.5475C58.4101 76.4142 58.9686 77.1848 59.8013 77.6604L66.4552 81.461C67.4105 82.0067 68.6596 81.3472 68.567 80.3461L67.824 72.3106L58.8541 66.3187L57.036 67.9237Z" fill="#377BFE"/>
<path d="M66.8544 39.9966C57.4822 31.7232 45.0003 29.328 38.9753 34.6465C34.8846 38.2575 34.8235 44.4961 38.1384 50.7191L50.8235 47.6022C52.1906 47.2663 53.6568 47.6063 54.6601 48.4921L57.9111 51.362C59.9623 53.1726 62.4907 54.5053 65.2694 55.2403C68.8661 56.1916 72.0213 58.138 74.2698 60.7924L91.097 80.6568C94.7919 77.3953 81.1852 52.647 66.8544 39.9966Z" fill="#77CEFF"/>
<path d="M76.6508 63.603L91.097 80.6567C93.1322 78.8601 89.9173 70.5435 84.2238 61.3209C81.8853 62.2201 79.3473 62.9873 76.6508 63.603Z" fill="#5BB0FF"/>
<path d="M65.2694 55.2403C62.4907 54.5053 59.9623 53.1727 57.9112 51.3621L54.6601 48.4922C53.6566 47.6064 52.1905 47.2664 50.8234 47.6023L38.1383 50.7192C39.7058 53.6616 42.027 56.6007 45.0358 59.2567C59.3666 71.9071 87.4021 83.9183 91.097 80.6568L74.2698 60.7925C72.0213 58.138 68.8661 56.1918 65.2694 55.2403Z" fill="#CEF3FB"/>
<path d="M76.6508 63.603C71.7997 64.7108 66.436 65.3271 60.7937 65.3271C57.8649 65.3271 55.0119 65.16 52.2656 64.8456C67.2151 75.1607 87.9554 83.4301 91.097 80.6568L76.6508 63.603Z" fill="#AEE8FA"/>
<path d="M51.8429 47.3518C51.6862 46.8546 51.1033 46.5644 50.5395 46.7022L37.7026 49.8563C37.8414 50.1438 37.9849 50.4314 38.1382 50.7192C38.2895 51.0035 38.4502 51.2876 38.6157 51.5715L51.1071 48.5023C51.6702 48.3638 51.9996 47.8488 51.8429 47.3518Z" fill="#377BFE"/>
<path d="M41.0902 37.8347L41.2357 40.4037C41.264 40.903 41.7315 41.2911 42.2917 41.2911C42.3095 41.2911 42.3275 41.2908 42.3454 41.2899C42.9292 41.2643 43.3787 40.8256 43.3495 40.3102L43.1837 37.3818C43.1705 37.1506 43.0605 36.9318 42.8749 36.7679L39.7641 34.0217C39.4907 34.217 39.2269 34.4245 38.9753 34.6466C38.7237 34.8687 38.4878 35.1008 38.2666 35.3422L41.0902 37.8347Z" fill="#44A5FF"/>
<path d="M55.2191 46.585C55.094 46.585 54.9666 46.5653 54.8426 46.5236C54.2965 46.3399 54.0223 45.8002 54.2304 45.318L56.5319 39.985C56.7401 39.5028 57.3512 39.2608 57.8976 39.4445C58.4437 39.6282 58.7179 40.1679 58.5098 40.6501L56.2083 45.9831C56.0474 46.3559 55.6455 46.585 55.2191 46.585Z" fill="#377BFE"/>
<path d="M60.9941 46.8233L52.1027 43.6089C51.7869 43.4948 51.4244 43.5591 51.1832 43.772L49.313 45.423C49.0718 45.636 48.9989 45.956 49.1282 46.2347L52.7696 54.0836C53.4147 55.4743 55.4559 55.8364 56.6597 54.7739L61.7762 50.2573C62.9799 49.1948 62.5695 47.3928 60.9941 46.8233Z" fill="#44A5FF"/>
</g>
<defs>
<clipPath id="clip0_492_2120">
<rect width="70.1282" height="61.9053" fill="white" transform="translate(35.769 31.816)"/>
</clipPath>
</defs>
</svg>
