<svg width="402" height="39" viewBox="0 0 402 39" fill="none" xmlns="http://www.w3.org/2000/svg">
<path d="M27.608 11.4489H20.5057C20.411 10.7197 20.2169 10.0616 19.9233 9.47443C19.6297 8.88731 19.2415 8.38542 18.7585 7.96875C18.2756 7.55208 17.7027 7.23485 17.0398 7.01705C16.3864 6.78977 15.6619 6.67614 14.8665 6.67614C13.4555 6.67614 12.2386 7.02178 11.2159 7.71307C10.2027 8.40436 9.4214 9.40341 8.87216 10.7102C8.33239 12.017 8.0625 13.5985 8.0625 15.4545C8.0625 17.3864 8.33712 19.0057 8.88636 20.3125C9.44508 21.6098 10.2263 22.59 11.2301 23.2528C12.2434 23.9062 13.4413 24.233 14.8239 24.233C15.6004 24.233 16.3059 24.1335 16.9403 23.9347C17.5843 23.7358 18.1477 23.447 18.6307 23.0682C19.1231 22.6799 19.5256 22.2112 19.8381 21.6619C20.16 21.1032 20.3826 20.4735 20.5057 19.7727L27.608 19.8153C27.4848 21.1032 27.1108 22.3722 26.4858 23.6222C25.8703 24.8722 25.0227 26.0133 23.9432 27.0455C22.8636 28.0682 21.5473 28.8826 19.9943 29.4886C18.4508 30.0947 16.6799 30.3977 14.6818 30.3977C12.0492 30.3977 9.69129 29.8201 7.60795 28.6648C5.53409 27.5 3.89583 25.8049 2.69318 23.5795C1.49053 21.3542 0.889205 18.6458 0.889205 15.4545C0.889205 12.2538 1.5 9.54072 2.72159 7.31534C3.94318 5.08996 5.59564 3.39962 7.67898 2.24432C9.76231 1.08901 12.0966 0.511363 14.6818 0.511363C16.4432 0.511363 18.072 0.757575 19.5682 1.25C21.0644 1.73295 22.3807 2.44318 23.517 3.38068C24.6534 4.30871 25.5767 5.44981 26.2869 6.80398C26.9972 8.15814 27.4375 9.70644 27.608 11.4489ZM31.6314 30V8.18182H38.3786V12.1591H38.6058C39.0036 10.7197 39.6522 9.64962 40.5518 8.94886C41.4515 8.23864 42.4979 7.88352 43.6911 7.88352C44.013 7.88352 44.3445 7.9072 44.6854 7.95455C45.0263 7.99242 45.3435 8.05398 45.6371 8.1392V14.1761C45.3056 14.0625 44.87 13.9725 44.3303 13.9062C43.8 13.84 43.3265 13.8068 42.9098 13.8068C42.0859 13.8068 41.3426 13.9915 40.6797 14.3608C40.0263 14.7206 39.5102 15.2273 39.1314 15.8807C38.7621 16.5246 38.5774 17.2822 38.5774 18.1534V30H31.6314ZM57.5334 30.4119C55.2512 30.4119 53.2815 29.9621 51.6243 29.0625C49.9766 28.1534 48.7076 26.8608 47.8175 25.1847C46.9368 23.4991 46.4964 21.4962 46.4964 19.1761C46.4964 16.9223 46.9415 14.9527 47.8317 13.267C48.7218 11.572 49.9766 10.2557 51.5959 9.31818C53.2152 8.37121 55.1233 7.89773 57.3203 7.89773C58.8733 7.89773 60.2938 8.1392 61.5817 8.62216C62.8696 9.10511 63.9822 9.82008 64.9197 10.767C65.8572 11.714 66.5864 12.8835 67.1072 14.2756C67.6281 15.6581 67.8885 17.2443 67.8885 19.0341V20.767H48.9254V16.733H61.4254C61.416 15.9943 61.2408 15.3362 60.8999 14.7585C60.5589 14.1809 60.0902 13.7311 59.4936 13.4091C58.9065 13.0777 58.2294 12.9119 57.4624 12.9119C56.6858 12.9119 55.9898 13.0871 55.3743 13.4375C54.7588 13.7784 54.2711 14.2472 53.9112 14.8438C53.5514 15.4309 53.362 16.0985 53.343 16.8466V20.9517C53.343 21.8419 53.5182 22.6231 53.8686 23.2955C54.219 23.9583 54.7161 24.4744 55.3601 24.8438C56.004 25.2131 56.7711 25.3977 57.6612 25.3977C58.2768 25.3977 58.8355 25.3125 59.3374 25.142C59.8393 24.9716 60.2701 24.7206 60.63 24.3892C60.9898 24.0578 61.2597 23.6506 61.4396 23.1676L67.8175 23.3523C67.5523 24.7822 66.9699 26.0275 66.0703 27.0881C65.1802 28.1392 64.0107 28.9583 62.5618 29.5455C61.1129 30.1231 59.4368 30.4119 57.5334 30.4119ZM77.5866 30.3693C76.1946 30.3693 74.9588 30.1373 73.8793 29.6733C72.8092 29.1998 71.9616 28.4896 71.3366 27.5426C70.7211 26.5862 70.4134 25.3883 70.4134 23.9489C70.4134 22.7367 70.6264 21.714 71.0526 20.8807C71.4787 20.0473 72.0658 19.3703 72.8139 18.8494C73.562 18.3286 74.4238 17.9356 75.3991 17.6705C76.3745 17.3958 77.4162 17.2112 78.5241 17.1165C79.7647 17.0028 80.7637 16.8845 81.5213 16.7614C82.2789 16.6288 82.8281 16.4441 83.169 16.2074C83.5194 15.9612 83.6946 15.6155 83.6946 15.1705V15.0994C83.6946 14.3703 83.4437 13.8068 82.9418 13.4091C82.4399 13.0114 81.7628 12.8125 80.9105 12.8125C79.992 12.8125 79.2533 13.0114 78.6946 13.4091C78.1359 13.8068 77.7808 14.3561 77.6293 15.0568L71.223 14.8295C71.4124 13.5038 71.9001 12.3201 72.6861 11.2784C73.4815 10.2273 74.5705 9.40341 75.9531 8.80682C77.3452 8.20076 79.0166 7.89773 80.9673 7.89773C82.3594 7.89773 83.6425 8.06345 84.8168 8.39489C85.991 8.71686 87.0137 9.19034 87.8849 9.81534C88.7562 10.4309 89.4285 11.1884 89.902 12.0881C90.3849 12.9877 90.6264 14.0152 90.6264 15.1705V30H84.0923V26.9602H83.9219C83.5336 27.6989 83.0365 28.3239 82.4304 28.8352C81.8338 29.3466 81.1283 29.7301 80.3139 29.9858C79.509 30.2415 78.5999 30.3693 77.5866 30.3693ZM79.7315 25.8239C80.4796 25.8239 81.152 25.6723 81.7486 25.3693C82.3546 25.0663 82.8376 24.6496 83.1974 24.1193C83.5573 23.5795 83.7372 22.9545 83.7372 22.2443V20.1705C83.5384 20.2746 83.2969 20.3693 83.0128 20.4545C82.7382 20.5398 82.4351 20.6203 82.1037 20.696C81.7723 20.7718 81.4313 20.8381 81.081 20.8949C80.7306 20.9517 80.3944 21.0038 80.0724 21.0511C79.419 21.1553 78.8603 21.3163 78.3963 21.5341C77.9418 21.7519 77.5914 22.036 77.3452 22.3864C77.1084 22.7273 76.9901 23.1345 76.9901 23.608C76.9901 24.3277 77.2457 24.8769 77.7571 25.2557C78.2779 25.6345 78.9361 25.8239 79.7315 25.8239ZM107.189 8.18182V13.2955H93.4247V8.18182H107.189ZM96.3082 2.95455H103.254V23.1392C103.254 23.5653 103.321 23.911 103.453 24.1761C103.595 24.4318 103.799 24.6165 104.064 24.7301C104.329 24.8343 104.646 24.8864 105.016 24.8864C105.281 24.8864 105.56 24.8627 105.854 24.8153C106.157 24.7585 106.384 24.7112 106.536 24.6733L107.587 29.6875C107.255 29.7822 106.786 29.9006 106.18 30.0426C105.584 30.1847 104.869 30.2746 104.036 30.3125C102.407 30.3883 101.01 30.1989 99.8452 29.7443C98.6899 29.2803 97.8045 28.5606 97.1889 27.5852C96.5829 26.6098 96.2893 25.3835 96.3082 23.9062V2.95455ZM120.697 30.4119C118.415 30.4119 116.446 29.9621 114.788 29.0625C113.141 28.1534 111.872 26.8608 110.982 25.1847C110.101 23.4991 109.661 21.4962 109.661 19.1761C109.661 16.9223 110.106 14.9527 110.996 13.267C111.886 11.572 113.141 10.2557 114.76 9.31818C116.379 8.37121 118.287 7.89773 120.484 7.89773C122.037 7.89773 123.458 8.1392 124.746 8.62216C126.034 9.10511 127.146 9.82008 128.084 10.767C129.021 11.714 129.75 12.8835 130.271 14.2756C130.792 15.6581 131.053 17.2443 131.053 19.0341V20.767H112.089V16.733H124.589C124.58 15.9943 124.405 15.3362 124.064 14.7585C123.723 14.1809 123.254 13.7311 122.658 13.4091C122.071 13.0777 121.393 12.9119 120.626 12.9119C119.85 12.9119 119.154 13.0871 118.538 13.4375C117.923 13.7784 117.435 14.2472 117.075 14.8438C116.715 15.4309 116.526 16.0985 116.507 16.8466V20.9517C116.507 21.8419 116.682 22.6231 117.033 23.2955C117.383 23.9583 117.88 24.4744 118.524 24.8438C119.168 25.2131 119.935 25.3977 120.825 25.3977C121.441 25.3977 122 25.3125 122.501 25.142C123.003 24.9716 123.434 24.7206 123.794 24.3892C124.154 24.0578 124.424 23.6506 124.604 23.1676L130.982 23.3523C130.716 24.7822 130.134 26.0275 129.234 27.0881C128.344 28.1392 127.175 28.9583 125.726 29.5455C124.277 30.1231 122.601 30.4119 120.697 30.4119ZM147.441 38.1818C146.608 38.1818 145.822 38.1155 145.083 37.983C144.344 37.8598 143.71 37.6941 143.18 37.4858L144.714 32.4432C145.396 32.6705 146.011 32.803 146.56 32.8409C147.119 32.8788 147.597 32.7888 147.995 32.571C148.402 32.3627 148.715 31.9886 148.933 31.4489L149.202 30.7955L141.447 8.18182H148.719L152.739 23.75H152.967L157.043 8.18182H164.359L156.134 32.0881C155.737 33.2813 155.173 34.3324 154.444 35.2415C153.724 36.16 152.791 36.8797 151.646 37.4006C150.509 37.9214 149.108 38.1818 147.441 38.1818ZM176.504 30.4119C174.212 30.4119 172.242 29.9432 170.594 29.0057C168.956 28.0587 167.692 26.7424 166.802 25.0568C165.921 23.3617 165.481 21.3968 165.481 19.1619C165.481 16.9176 165.921 14.9527 166.802 13.267C167.692 11.572 168.956 10.2557 170.594 9.31818C172.242 8.37121 174.212 7.89773 176.504 7.89773C178.795 7.89773 180.76 8.37121 182.398 9.31818C184.046 10.2557 185.31 11.572 186.191 13.267C187.081 14.9527 187.526 16.9176 187.526 19.1619C187.526 21.3968 187.081 23.3617 186.191 25.0568C185.31 26.7424 184.046 28.0587 182.398 29.0057C180.76 29.9432 178.795 30.4119 176.504 30.4119ZM176.546 25.1705C177.379 25.1705 178.085 24.9148 178.663 24.4034C179.24 23.892 179.681 23.1818 179.984 22.2727C180.296 21.3636 180.452 20.3125 180.452 19.1193C180.452 17.9072 180.296 16.8466 179.984 15.9375C179.681 15.0284 179.24 14.3182 178.663 13.8068C178.085 13.2955 177.379 13.0398 176.546 13.0398C175.684 13.0398 174.955 13.2955 174.359 13.8068C173.772 14.3182 173.322 15.0284 173.009 15.9375C172.706 16.8466 172.555 17.9072 172.555 19.1193C172.555 20.3125 172.706 21.3636 173.009 22.2727C173.322 23.1818 173.772 23.892 174.359 24.4034C174.955 24.9148 175.684 25.1705 176.546 25.1705ZM205.161 20.5824V8.18182H212.093V30H205.474V25.9375H205.246C204.763 27.2727 203.94 28.3333 202.775 29.1193C201.62 29.8958 200.223 30.2841 198.585 30.2841C197.098 30.2841 195.791 29.9432 194.664 29.2614C193.537 28.5795 192.661 27.6278 192.036 26.4062C191.411 25.1752 191.094 23.7358 191.085 22.0881V8.18182H198.031V20.7244C198.04 21.9081 198.353 22.8409 198.968 23.5227C199.584 24.2045 200.422 24.5455 201.482 24.5455C202.174 24.5455 202.794 24.3939 203.343 24.0909C203.902 23.7784 204.342 23.3286 204.664 22.7415C204.996 22.1449 205.161 21.4252 205.161 20.5824ZM216.514 30V8.18182H223.261V12.1591H223.489C223.886 10.7197 224.535 9.64962 225.435 8.94886C226.334 8.23864 227.381 7.88352 228.574 7.88352C228.896 7.88352 229.227 7.9072 229.568 7.95455C229.909 7.99242 230.226 8.05398 230.52 8.1392V14.1761C230.188 14.0625 229.753 13.9725 229.213 13.9062C228.683 13.84 228.209 13.8068 227.793 13.8068C226.969 13.8068 226.225 13.9915 225.562 14.3608C224.909 14.7206 224.393 15.2273 224.014 15.8807C223.645 16.5246 223.46 17.2822 223.46 18.1534V30H216.514ZM248.094 30.3693C246.702 30.3693 245.467 30.1373 244.387 29.6733C243.317 29.1998 242.469 28.4896 241.844 27.5426C241.229 26.5862 240.921 25.3883 240.921 23.9489C240.921 22.7367 241.134 21.714 241.56 20.8807C241.987 20.0473 242.574 19.3703 243.322 18.8494C244.07 18.3286 244.932 17.9356 245.907 17.6705C246.882 17.3958 247.924 17.2112 249.032 17.1165C250.272 17.0028 251.272 16.8845 252.029 16.7614C252.787 16.6288 253.336 16.4441 253.677 16.2074C254.027 15.9612 254.202 15.6155 254.202 15.1705V15.0994C254.202 14.3703 253.951 13.8068 253.45 13.4091C252.948 13.0114 252.271 12.8125 251.418 12.8125C250.5 12.8125 249.761 13.0114 249.202 13.4091C248.644 13.8068 248.289 14.3561 248.137 15.0568L241.731 14.8295C241.92 13.5038 242.408 12.3201 243.194 11.2784C243.989 10.2273 245.078 9.40341 246.461 8.80682C247.853 8.20076 249.524 7.89773 251.475 7.89773C252.867 7.89773 254.15 8.06345 255.325 8.39489C256.499 8.71686 257.522 9.19034 258.393 9.81534C259.264 10.4309 259.936 11.1884 260.41 12.0881C260.893 12.9877 261.134 14.0152 261.134 15.1705V30H254.6V26.9602H254.43C254.041 27.6989 253.544 28.3239 252.938 28.8352C252.342 29.3466 251.636 29.7301 250.822 29.9858C250.017 30.2415 249.108 30.3693 248.094 30.3693ZM250.239 25.8239C250.987 25.8239 251.66 25.6723 252.256 25.3693C252.862 25.0663 253.345 24.6496 253.705 24.1193C254.065 23.5795 254.245 22.9545 254.245 22.2443V20.1705C254.046 20.2746 253.805 20.3693 253.521 20.4545C253.246 20.5398 252.943 20.6203 252.612 20.696C252.28 20.7718 251.939 20.8381 251.589 20.8949C251.238 20.9517 250.902 21.0038 250.58 21.0511C249.927 21.1553 249.368 21.3163 248.904 21.5341C248.45 21.7519 248.099 22.036 247.853 22.3864C247.616 22.7273 247.498 23.1345 247.498 23.608C247.498 24.3277 247.754 24.8769 248.265 25.2557C248.786 25.6345 249.444 25.8239 250.239 25.8239ZM275.566 30.4119C273.265 30.4119 271.29 29.9384 269.643 28.9915C268.004 28.0445 266.745 26.7282 265.864 25.0426C264.984 23.3475 264.543 21.3873 264.543 19.1619C264.543 16.9271 264.984 14.9669 265.864 13.2812C266.754 11.5862 268.019 10.2652 269.657 9.31818C271.305 8.37121 273.27 7.89773 275.552 7.89773C277.569 7.89773 279.326 8.26231 280.822 8.99148C282.327 9.72064 283.502 10.7528 284.344 12.0881C285.197 13.4138 285.647 14.9716 285.694 16.7614H279.202C279.07 15.6439 278.691 14.768 278.066 14.1335C277.451 13.4991 276.646 13.1818 275.651 13.1818C274.846 13.1818 274.141 13.4091 273.535 13.8636C272.929 14.3087 272.455 14.9716 272.114 15.8523C271.783 16.7235 271.617 17.803 271.617 19.0909C271.617 20.3788 271.783 21.4678 272.114 22.358C272.455 23.2386 272.929 23.9062 273.535 24.3608C274.141 24.8059 274.846 25.0284 275.651 25.0284C276.295 25.0284 276.863 24.8911 277.356 24.6165C277.858 24.3419 278.27 23.9394 278.592 23.4091C278.914 22.8693 279.117 22.2159 279.202 21.4489H285.694C285.628 23.2481 285.178 24.8201 284.344 26.1648C283.521 27.5095 282.361 28.5559 280.864 29.304C279.378 30.0426 277.612 30.4119 275.566 30.4119ZM299.433 30.4119C297.132 30.4119 295.158 29.9384 293.51 28.9915C291.872 28.0445 290.612 26.7282 289.732 25.0426C288.851 23.3475 288.411 21.3873 288.411 19.1619C288.411 16.9271 288.851 14.9669 289.732 13.2812C290.622 11.5862 291.886 10.2652 293.524 9.31818C295.172 8.37121 297.137 7.89773 299.419 7.89773C301.436 7.89773 303.193 8.26231 304.689 8.99148C306.195 9.72064 307.369 10.7528 308.212 12.0881C309.064 13.4138 309.514 14.9716 309.561 16.7614H303.07C302.937 15.6439 302.558 14.768 301.933 14.1335C301.318 13.4991 300.513 13.1818 299.518 13.1818C298.714 13.1818 298.008 13.4091 297.402 13.8636C296.796 14.3087 296.322 14.9716 295.982 15.8523C295.65 16.7235 295.484 17.803 295.484 19.0909C295.484 20.3788 295.65 21.4678 295.982 22.358C296.322 23.2386 296.796 23.9062 297.402 24.3608C298.008 24.8059 298.714 25.0284 299.518 25.0284C300.162 25.0284 300.731 24.8911 301.223 24.6165C301.725 24.3419 302.137 23.9394 302.459 23.4091C302.781 22.8693 302.984 22.2159 303.07 21.4489H309.561C309.495 23.2481 309.045 24.8201 308.212 26.1648C307.388 27.5095 306.228 28.5559 304.732 29.304C303.245 30.0426 301.479 30.4119 299.433 30.4119ZM323.3 30.4119C321.009 30.4119 319.039 29.9432 317.391 29.0057C315.753 28.0587 314.489 26.7424 313.599 25.0568C312.718 23.3617 312.278 21.3968 312.278 19.1619C312.278 16.9176 312.718 14.9527 313.599 13.267C314.489 11.572 315.753 10.2557 317.391 9.31818C319.039 8.37121 321.009 7.89773 323.3 7.89773C325.592 7.89773 327.557 8.37121 329.195 9.31818C330.843 10.2557 332.107 11.572 332.988 13.267C333.878 14.9527 334.323 16.9176 334.323 19.1619C334.323 21.3968 333.878 23.3617 332.988 25.0568C332.107 26.7424 330.843 28.0587 329.195 29.0057C327.557 29.9432 325.592 30.4119 323.3 30.4119ZM323.343 25.1705C324.176 25.1705 324.882 24.9148 325.46 24.4034C326.037 23.892 326.478 23.1818 326.781 22.2727C327.093 21.3636 327.249 20.3125 327.249 19.1193C327.249 17.9072 327.093 16.8466 326.781 15.9375C326.478 15.0284 326.037 14.3182 325.46 13.8068C324.882 13.2955 324.176 13.0398 323.343 13.0398C322.481 13.0398 321.752 13.2955 321.156 13.8068C320.568 14.3182 320.119 15.0284 319.806 15.9375C319.503 16.8466 319.352 17.9072 319.352 19.1193C319.352 20.3125 319.503 21.3636 319.806 22.2727C320.119 23.1818 320.568 23.892 321.156 24.4034C321.752 24.9148 322.481 25.1705 323.343 25.1705ZM351.958 20.5824V8.18182H358.89V30H352.271V25.9375H352.043C351.56 27.2727 350.737 28.3333 349.572 29.1193C348.416 29.8958 347.02 30.2841 345.381 30.2841C343.895 30.2841 342.588 29.9432 341.461 29.2614C340.334 28.5795 339.458 27.6278 338.833 26.4062C338.208 25.1752 337.891 23.7358 337.881 22.0881V8.18182H344.827V20.7244C344.837 21.9081 345.149 22.8409 345.765 23.5227C346.38 24.2045 347.219 24.5455 348.279 24.5455C348.97 24.5455 349.591 24.3939 350.14 24.0909C350.699 23.7784 351.139 23.3286 351.461 22.7415C351.792 22.1449 351.958 21.4252 351.958 20.5824ZM370.257 17.5568V30H363.311V8.18182H369.916V12.1875H370.158C370.641 10.8523 371.464 9.80587 372.629 9.0483C373.794 8.28125 375.181 7.89773 376.791 7.89773C378.325 7.89773 379.656 8.24337 380.783 8.93466C381.919 9.61648 382.8 10.5729 383.425 11.804C384.059 13.0256 384.372 14.4555 384.362 16.0938V30H377.416V17.4574C377.426 16.2453 377.118 15.2983 376.493 14.6165C375.877 13.9347 375.02 13.5938 373.922 13.5938C373.193 13.5938 372.549 13.7547 371.99 14.0767C371.441 14.3892 371.015 14.839 370.712 15.4261C370.418 16.0133 370.267 16.7235 370.257 17.5568ZM400.978 8.18182V13.2955H387.214V8.18182H400.978ZM390.097 2.95455H397.043V23.1392C397.043 23.5653 397.11 23.911 397.242 24.1761C397.384 24.4318 397.588 24.6165 397.853 24.7301C398.118 24.8343 398.435 24.8864 398.805 24.8864C399.07 24.8864 399.349 24.8627 399.643 24.8153C399.946 24.7585 400.173 24.7112 400.325 24.6733L401.376 29.6875C401.044 29.7822 400.576 29.9006 399.969 30.0426C399.373 30.1847 398.658 30.2746 397.825 30.3125C396.196 30.3883 394.799 30.1989 393.634 29.7443C392.479 29.2803 391.594 28.5606 390.978 27.5852C390.372 26.6098 390.078 25.3835 390.097 23.9062V2.95455Z" fill="black"/>
</svg>
