<svg width="154" height="48" viewBox="0 0 154 48" fill="none" xmlns="http://www.w3.org/2000/svg">
<path d="M17.5603 7.19998L10.1486 7.19998C9.02529 7.19998 7.94803 7.64248 7.15376 8.43013C6.35949 9.21779 5.91327 10.2861 5.91327 11.4L5.91327 36.6C5.91327 37.7139 6.35948 38.7822 7.15376 39.5698C7.94803 40.3575 9.02529 40.8 10.1486 40.8L17.5603 40.8M18.0867 24L42.0867 24M42.0867 24L32.9164 14.4M42.0867 24L32.9164 33.6" stroke="#5D6679" stroke-width="2" stroke-linecap="round" stroke-linejoin="round"/>
<path d="M77.598 30.5V15.9545H79.7926V28.6108H86.3835V30.5H77.598ZM93.3118 30.7202C92.2891 30.7202 91.3965 30.4858 90.6342 30.017C89.8719 29.5483 89.2801 28.8925 88.8587 28.0497C88.4373 27.2069 88.2266 26.2221 88.2266 25.0952C88.2266 23.9635 88.4373 22.974 88.8587 22.1264C89.2801 21.2789 89.8719 20.6207 90.6342 20.152C91.3965 19.6832 92.2891 19.4489 93.3118 19.4489C94.3345 19.4489 95.227 19.6832 95.9893 20.152C96.7517 20.6207 97.3435 21.2789 97.7649 22.1264C98.1863 22.974 98.397 23.9635 98.397 25.0952C98.397 26.2221 98.1863 27.2069 97.7649 28.0497C97.3435 28.8925 96.7517 29.5483 95.9893 30.017C95.227 30.4858 94.3345 30.7202 93.3118 30.7202ZM93.3189 28.9375C93.9818 28.9375 94.531 28.7623 94.9666 28.4119C95.4022 28.0616 95.7242 27.5952 95.9325 27.0128C96.1456 26.4304 96.2521 25.7888 96.2521 25.0881C96.2521 24.392 96.1456 23.7528 95.9325 23.1705C95.7242 22.5833 95.4022 22.1122 94.9666 21.7571C94.531 21.402 93.9818 21.2244 93.3189 21.2244C92.6513 21.2244 92.0973 21.402 91.657 21.7571C91.2214 22.1122 90.897 22.5833 90.6839 23.1705C90.4756 23.7528 90.3714 24.392 90.3714 25.0881C90.3714 25.7888 90.4756 26.4304 90.6839 27.0128C90.897 27.5952 91.2214 28.0616 91.657 28.4119C92.0973 28.7623 92.6513 28.9375 93.3189 28.9375ZM105.341 34.8182C104.475 34.8182 103.729 34.7045 103.104 34.4773C102.484 34.25 101.977 33.9493 101.584 33.5753C101.191 33.2012 100.898 32.7917 100.703 32.3466L102.529 31.5938C102.657 31.8021 102.827 32.0223 103.04 32.2543C103.258 32.491 103.551 32.6922 103.921 32.858C104.295 33.0237 104.775 33.1065 105.363 33.1065C106.167 33.1065 106.833 32.91 107.358 32.517C107.884 32.1288 108.147 31.5085 108.147 30.6562V28.5114H108.012C107.884 28.7434 107.699 29.0014 107.458 29.2855C107.221 29.5696 106.894 29.8158 106.478 30.0241C106.061 30.2325 105.519 30.3366 104.851 30.3366C103.989 30.3366 103.213 30.1354 102.522 29.733C101.835 29.3258 101.291 28.7268 100.888 27.9361C100.49 27.1406 100.292 26.1629 100.292 25.0028C100.292 23.8428 100.488 22.8485 100.881 22.0199C101.279 21.1913 101.823 20.5568 102.515 20.1165C103.206 19.6714 103.989 19.4489 104.865 19.4489C105.542 19.4489 106.089 19.5625 106.506 19.7898C106.923 20.0123 107.247 20.2727 107.479 20.571C107.716 20.8693 107.898 21.1321 108.026 21.3594H108.182V19.5909H110.263V30.7415C110.263 31.679 110.045 32.4484 109.61 33.0497C109.174 33.651 108.585 34.0961 107.841 34.3849C107.103 34.6738 106.269 34.8182 105.341 34.8182ZM105.32 28.5753C105.931 28.5753 106.447 28.4332 106.868 28.1491C107.294 27.8603 107.616 27.4484 107.834 26.9134C108.057 26.3736 108.168 25.7273 108.168 24.9744C108.168 24.2405 108.059 23.5942 107.841 23.0355C107.623 22.4768 107.304 22.0412 106.882 21.7287C106.461 21.4115 105.94 21.2528 105.32 21.2528C104.681 21.2528 104.148 21.4186 103.722 21.75C103.296 22.0767 102.974 22.5218 102.756 23.0852C102.543 23.6487 102.436 24.2784 102.436 24.9744C102.436 25.6894 102.545 26.3168 102.763 26.8565C102.981 27.3963 103.303 27.8177 103.729 28.1207C104.16 28.4238 104.69 28.5753 105.32 28.5753ZM131.21 23.2273C131.21 24.7803 130.925 26.1155 130.357 27.233C129.789 28.3456 129.01 29.2027 128.021 29.804C127.036 30.4006 125.916 30.6989 124.661 30.6989C123.402 30.6989 122.277 30.4006 121.288 29.804C120.303 29.2027 119.526 28.3433 118.958 27.2259C118.39 26.1084 118.106 24.7756 118.106 23.2273C118.106 21.6742 118.39 20.3414 118.958 19.2287C119.526 18.1113 120.303 17.2543 121.288 16.6577C122.277 16.0563 123.402 15.7557 124.661 15.7557C125.916 15.7557 127.036 16.0563 128.021 16.6577C129.01 17.2543 129.789 18.1113 130.357 19.2287C130.925 20.3414 131.21 21.6742 131.21 23.2273ZM129.036 23.2273C129.036 22.0436 128.844 21.0469 128.461 20.2372C128.082 19.4228 127.561 18.8073 126.898 18.3906C126.24 17.9692 125.495 17.7585 124.661 17.7585C123.823 17.7585 123.075 17.9692 122.417 18.3906C121.759 18.8073 121.238 19.4228 120.854 20.2372C120.476 21.0469 120.286 22.0436 120.286 23.2273C120.286 24.411 120.476 25.41 120.854 26.2244C121.238 27.0341 121.759 27.6496 122.417 28.071C123.075 28.4877 123.823 28.696 124.661 28.696C125.495 28.696 126.24 28.4877 126.898 28.071C127.561 27.6496 128.082 27.0341 128.461 26.2244C128.844 25.41 129.036 24.411 129.036 23.2273ZM140.686 25.9759V19.5909H142.816V30.5H140.728V28.6108H140.615C140.364 29.1932 139.961 29.6785 139.407 30.0668C138.858 30.4503 138.174 30.642 137.355 30.642C136.654 30.642 136.034 30.4882 135.494 30.1804C134.959 29.8679 134.538 29.4062 134.23 28.7955C133.927 28.1847 133.775 27.4295 133.775 26.5298V19.5909H135.899V26.2741C135.899 27.0175 136.105 27.6094 136.517 28.0497C136.929 28.4901 137.464 28.7102 138.122 28.7102C138.52 28.7102 138.915 28.6108 139.308 28.4119C139.706 28.2131 140.035 27.9124 140.295 27.5099C140.56 27.1075 140.69 26.5961 140.686 25.9759ZM150.762 19.5909V21.2955H144.803V19.5909H150.762ZM146.401 16.9773H148.525V27.2969C148.525 27.7088 148.586 28.0189 148.71 28.2273C148.833 28.4309 148.991 28.5705 149.185 28.6463C149.384 28.7173 149.6 28.7528 149.832 28.7528C150.002 28.7528 150.151 28.741 150.279 28.7173C150.407 28.6937 150.506 28.6747 150.577 28.6605L150.961 30.4148C150.838 30.4621 150.663 30.5095 150.435 30.5568C150.208 30.6089 149.924 30.6373 149.583 30.642C149.024 30.6515 148.504 30.5521 148.021 30.3438C147.538 30.1354 147.147 29.8134 146.849 29.3778C146.55 28.9422 146.401 28.3954 146.401 27.7372V16.9773Z" fill="#5D6679"/>
</svg>
