<svg width="41" height="40" viewBox="0 0 41 40" fill="none" xmlns="http://www.w3.org/2000/svg">
<path d="M21.6522 27.5C21.5057 27.7526 21.2954 27.9622 21.0424 28.108C20.7894 28.2537 20.5026 28.3304 20.2106 28.3304C19.9186 28.3304 19.6317 28.2537 19.3787 28.108C19.1257 27.9622 18.9154 27.7526 18.7689 27.5M25.2106 16.6667C25.2106 15.3406 24.6838 14.0688 23.7461 13.1312C22.8084 12.1935 21.5367 11.6667 20.2106 11.6667C18.8845 11.6667 17.6127 12.1935 16.675 13.1312C15.7374 14.0688 15.2106 15.3406 15.2106 16.6667C15.2106 22.5 12.7106 24.1667 12.7106 24.1667H27.7106C27.7106 24.1667 25.2106 22.5 25.2106 16.6667Z" stroke="#5D6679" stroke-width="1.2" stroke-linecap="round" stroke-linejoin="round"/>
</svg>
