<svg width="31" height="30" viewBox="0 0 31 30" fill="none" xmlns="http://www.w3.org/2000/svg">
<rect x="0.5" width="30" height="30" rx="4" fill="#FFEEDB"/>
<path d="M6.9026 2.90021C6.3361 2.90021 5.76817 3.18245 5.45024 3.65814L2.88988 7.23069L2.88526 7.23713L2.88172 7.24422C2.88053 7.24658 2.87932 7.249 2.87808 7.25147C2.85113 7.3052 2.81174 7.38369 2.81174 7.4676V24.9799C2.81174 25.8987 3.54146 26.6287 4.4605 26.6287H26.3509C27.271 26.6287 27.9997 25.8678 27.9997 24.9799L27.9994 7.48752C28.0117 7.45306 28.0137 7.41949 28.0102 7.38873H28.0645L27.9511 7.23048L25.3898 3.65659L25.3891 3.6557C25.0439 3.18502 24.5084 2.9 23.9384 2.9L17.7436 2.90021H6.9026ZM18.2989 7.51111V12.7522L15.4682 11.2214L15.4202 11.1955L15.3724 11.2218L12.5426 12.781V7.54104L13.6494 3.69576H17.2214L18.2989 7.51111ZM6.0907 4.10054L6.09071 4.10055L6.09125 4.09977C6.27891 3.83174 6.57389 3.69576 6.90287 3.69576H12.8165L11.8606 7.06965H3.97003L6.0907 4.10054ZM18.7363 13.4862L18.7447 13.4825L18.7523 13.4775C18.9564 13.3415 19.0948 13.1029 19.0948 12.8582L19.0944 7.86528H27.2336L27.2338 24.9798C27.2338 25.4585 26.834 25.8329 26.3807 25.8329H4.46051C3.98175 25.8329 3.60736 25.433 3.60736 24.9798V7.86528H11.7466V12.8582C11.7466 13.1353 11.8871 13.3431 12.0891 13.4775C12.1985 13.5505 12.3383 13.5836 12.4721 13.5836C12.5775 13.5836 12.7144 13.5501 12.8214 13.4801L15.4207 12.0783L18.0229 13.4817C18.2691 13.6217 18.513 13.5818 18.7363 13.4862ZM23.9386 3.69576C24.2617 3.69576 24.5606 3.85729 24.752 4.10227L26.8715 7.06967H19.0107L18.0548 3.69578L23.9386 3.69576Z" fill="#DBA362" stroke="#DBA362" stroke-width="0.2"/>
<path d="M13.038 7.06962H12.938V7.16962V7.76522V7.86522H13.038H17.8033H17.9033V7.76522V7.16962V7.06962H17.8033H13.038Z" fill="#DBA362" stroke="#DBA362" stroke-width="0.2"/>
</svg>
