<svg width="111" height="14" viewBox="0 0 111 14" fill="none" xmlns="http://www.w3.org/2000/svg">
<path d="M4.86222 7.69886H6.37358L7.4375 9.08594L7.93963 9.70241L9.63494 11.9148H8.06392L6.9304 10.4382L6.54261 9.90128L4.86222 7.69886ZM9.96307 5.90909C9.96307 6.99621 9.7642 7.93087 9.36648 8.71307C8.96875 9.49195 8.42353 10.0919 7.73082 10.5128C7.04143 10.9304 6.25758 11.1392 5.37926 11.1392C4.49763 11.1392 3.71046 10.9304 3.01776 10.5128C2.32836 10.0919 1.7848 9.49029 1.38707 8.7081C0.989347 7.9259 0.790483 6.9929 0.790483 5.90909C0.790483 4.82197 0.989347 3.88897 1.38707 3.11008C1.7848 2.32789 2.32836 1.72798 3.01776 1.31037C3.71046 0.889441 4.49763 0.678977 5.37926 0.678977C6.25758 0.678977 7.04143 0.889441 7.73082 1.31037C8.42353 1.72798 8.96875 2.32789 9.36648 3.11008C9.7642 3.88897 9.96307 4.82197 9.96307 5.90909ZM8.44176 5.90909C8.44176 5.08049 8.30753 4.38281 8.03906 3.81605C7.77391 3.24598 7.40933 2.8151 6.94531 2.52344C6.48461 2.22846 5.96259 2.08097 5.37926 2.08097C4.79261 2.08097 4.26894 2.22846 3.80824 2.52344C3.34754 2.8151 2.98295 3.24598 2.71449 3.81605C2.44934 4.38281 2.31676 5.08049 2.31676 5.90909C2.31676 6.73769 2.44934 7.43703 2.71449 8.0071C2.98295 8.57386 3.34754 9.00473 3.80824 9.29972C4.26894 9.59138 4.79261 9.73722 5.37926 9.73722C5.96259 9.73722 6.48461 9.59138 6.94531 9.29972C7.40933 9.00473 7.77391 8.57386 8.03906 8.0071C8.30753 7.43703 8.44176 6.73769 8.44176 5.90909ZM16.5964 7.8331V3.36364H18.0879V11H16.6262V9.67756H16.5467C16.371 10.0852 16.0893 10.425 15.7015 10.6967C15.3171 10.9652 14.8381 11.0994 14.2647 11.0994C13.7742 11.0994 13.34 10.9917 12.9622 10.7763C12.5877 10.5575 12.2927 10.2344 12.0772 9.80682C11.8651 9.37926 11.7591 8.85062 11.7591 8.22088V3.36364H13.2456V8.0419C13.2456 8.56226 13.3897 8.97656 13.6781 9.2848C13.9664 9.59304 14.341 9.74716 14.8017 9.74716C15.0801 9.74716 15.3568 9.67756 15.6319 9.53835C15.9103 9.39915 16.1407 9.18868 16.323 8.90696C16.5086 8.62524 16.5997 8.26728 16.5964 7.8331ZM22.3075 11.169C21.8236 11.169 21.3861 11.0795 20.995 10.9006C20.6039 10.7183 20.294 10.4548 20.0653 10.1101C19.84 9.76539 19.7273 9.3428 19.7273 8.84233C19.7273 8.41146 19.8101 8.05682 19.9759 7.77841C20.1416 7.5 20.3653 7.27959 20.647 7.11719C20.9287 6.95478 21.2436 6.83215 21.5916 6.74929C21.9396 6.66643 22.2943 6.60346 22.6555 6.56037C23.1129 6.50734 23.4841 6.46425 23.7692 6.43111C24.0542 6.39465 24.2614 6.33665 24.3906 6.2571C24.5199 6.17756 24.5845 6.0483 24.5845 5.86932V5.83452C24.5845 5.40033 24.4619 5.06392 24.2166 4.82528C23.9747 4.58665 23.6134 4.46733 23.1328 4.46733C22.6323 4.46733 22.2379 4.57836 21.9496 4.80043C21.6645 5.01918 21.4673 5.26278 21.358 5.53125L19.9609 5.21307C20.1267 4.74905 20.3686 4.37453 20.6868 4.08949C21.0083 3.80114 21.3778 3.59233 21.7955 3.46307C22.2131 3.33049 22.6522 3.2642 23.1129 3.2642C23.4179 3.2642 23.741 3.30066 24.0824 3.37358C24.4271 3.44318 24.7486 3.57244 25.0469 3.76136C25.3485 3.95028 25.5954 4.22041 25.7876 4.57173C25.9799 4.91974 26.076 5.37216 26.076 5.92898V11H24.6243V9.95597H24.5646C24.4685 10.1482 24.3243 10.3371 24.1321 10.5227C23.9399 10.7083 23.6929 10.8625 23.3913 10.9851C23.0897 11.1077 22.7285 11.169 22.3075 11.169ZM22.6307 9.97585C23.0417 9.97585 23.393 9.89465 23.6847 9.73224C23.9796 9.56984 24.2034 9.35772 24.3558 9.09588C24.5116 8.83073 24.5895 8.54735 24.5895 8.24574V7.26136C24.5365 7.31439 24.4337 7.36411 24.2812 7.41051C24.1321 7.4536 23.9614 7.49171 23.7692 7.52486C23.5769 7.55469 23.3897 7.58286 23.2074 7.60938C23.0251 7.63258 22.8726 7.65246 22.75 7.66903C22.4616 7.70549 22.1982 7.76681 21.9595 7.85298C21.7242 7.93916 21.5353 8.06345 21.3928 8.22585C21.2536 8.38494 21.1839 8.59706 21.1839 8.86222C21.1839 9.23011 21.3198 9.50852 21.5916 9.69744C21.8634 9.88305 22.2098 9.97585 22.6307 9.97585ZM29.5424 6.46591V11H28.0559V3.36364H29.4828V4.60653H29.5772C29.7529 4.20218 30.028 3.87737 30.4025 3.6321C30.7804 3.38684 31.256 3.2642 31.8294 3.2642C32.3497 3.2642 32.8055 3.37358 33.1966 3.59233C33.5877 3.80777 33.8909 4.12926 34.1064 4.55682C34.3218 4.98437 34.4295 5.51302 34.4295 6.14276V11H32.943V6.32173C32.943 5.76823 32.7988 5.3357 32.5105 5.02415C32.2221 4.70928 31.8261 4.55185 31.3223 4.55185C30.9776 4.55185 30.671 4.62642 30.4025 4.77557C30.1374 4.92472 29.9269 5.14347 29.7711 5.43182C29.6187 5.71686 29.5424 6.06155 29.5424 6.46591ZM39.9877 3.36364V4.55682H35.8166V3.36364H39.9877ZM36.9352 1.53409H38.4217V8.75781C38.4217 9.04616 38.4648 9.26326 38.551 9.40909C38.6371 9.55161 38.7482 9.64938 38.8841 9.70241C39.0233 9.75213 39.1741 9.77699 39.3365 9.77699C39.4558 9.77699 39.5602 9.7687 39.6497 9.75213C39.7392 9.73556 39.8088 9.7223 39.8585 9.71236L40.127 10.9403C40.0408 10.9735 39.9181 11.0066 39.7591 11.0398C39.6 11.0762 39.4011 11.0961 39.1625 11.0994C38.7714 11.1061 38.4068 11.0365 38.0687 10.8906C37.7306 10.7448 37.4572 10.5194 37.2484 10.2145C37.0396 9.90956 36.9352 9.52675 36.9352 9.06605V1.53409ZM41.6321 11V3.36364H43.1186V11H41.6321ZM42.3828 2.18537C42.1243 2.18537 41.9022 2.09919 41.7166 1.92685C41.5343 1.75118 41.4432 1.54238 41.4432 1.30043C41.4432 1.05516 41.5343 0.846354 41.7166 0.674005C41.9022 0.498342 42.1243 0.410511 42.3828 0.410511C42.6413 0.410511 42.8617 0.498342 43.044 0.674005C43.2296 0.846354 43.3224 1.05516 43.3224 1.30043C43.3224 1.54238 43.2296 1.75118 43.044 1.92685C42.8617 2.09919 42.6413 2.18537 42.3828 2.18537ZM48.6831 3.36364V4.55682H44.5119V3.36364H48.6831ZM45.6305 1.53409H47.117V8.75781C47.117 9.04616 47.1601 9.26326 47.2463 9.40909C47.3324 9.55161 47.4435 9.64938 47.5794 9.70241C47.7186 9.75213 47.8694 9.77699 48.0318 9.77699C48.1511 9.77699 48.2555 9.7687 48.345 9.75213C48.4345 9.73556 48.5041 9.7223 48.5538 9.71236L48.8223 10.9403C48.7361 10.9735 48.6135 11.0066 48.4544 11.0398C48.2953 11.0762 48.0964 11.0961 47.8578 11.0994C47.4667 11.1061 47.1021 11.0365 46.764 10.8906C46.426 10.7448 46.1525 10.5194 45.9437 10.2145C45.7349 9.90956 45.6305 9.52675 45.6305 9.06605V1.53409ZM51.267 13.8636C51.045 13.8636 50.8428 13.8454 50.6605 13.8089C50.4782 13.7758 50.3423 13.7393 50.2528 13.6996L50.6108 12.4815C50.8826 12.5545 51.1245 12.5859 51.3366 12.576C51.5488 12.5661 51.736 12.4865 51.8984 12.3374C52.0642 12.1882 52.21 11.9446 52.3359 11.6065L52.5199 11.0994L49.7259 3.36364H51.3168L53.2507 9.28977H53.3303L55.2642 3.36364H56.8601L53.7131 12.0192C53.5672 12.4169 53.3816 12.7533 53.1562 13.0284C52.9309 13.3068 52.6624 13.5156 52.3509 13.6548C52.0393 13.794 51.678 13.8636 51.267 13.8636ZM61.9622 11V3.36364H63.4487V11H61.9622ZM62.7129 2.18537C62.4544 2.18537 62.2323 2.09919 62.0467 1.92685C61.8644 1.75118 61.7733 1.54238 61.7733 1.30043C61.7733 1.05516 61.8644 0.846354 62.0467 0.674005C62.2323 0.498342 62.4544 0.410511 62.7129 0.410511C62.9714 0.410511 63.1918 0.498342 63.3741 0.674005C63.5597 0.846354 63.6525 1.05516 63.6525 1.30043C63.6525 1.54238 63.5597 1.75118 63.3741 1.92685C63.1918 2.09919 62.9714 2.18537 62.7129 2.18537ZM66.935 6.46591V11H65.4485V3.36364H66.8754V4.60653H66.9698C67.1455 4.20218 67.4206 3.87737 67.7951 3.6321C68.1729 3.38684 68.6486 3.2642 69.2219 3.2642C69.7423 3.2642 70.198 3.37358 70.5891 3.59233C70.9802 3.80777 71.2835 4.12926 71.4989 4.55682C71.7144 4.98437 71.8221 5.51302 71.8221 6.14276V11H70.3356V6.32173C70.3356 5.76823 70.1914 5.3357 69.9031 5.02415C69.6147 4.70928 69.2186 4.55185 68.7148 4.55185C68.3701 4.55185 68.0636 4.62642 67.7951 4.77557C67.5299 4.92472 67.3195 5.14347 67.1637 5.43182C67.0112 5.71686 66.935 6.06155 66.935 6.46591ZM77.6401 11V0.818182H79.1763V5.2429H84.2523V0.818182H85.7935V11H84.2523V6.56037H79.1763V11H77.6401ZM90.1337 11.169C89.6498 11.169 89.2123 11.0795 88.8212 10.9006C88.4301 10.7183 88.1202 10.4548 87.8915 10.1101C87.6661 9.76539 87.5534 9.3428 87.5534 8.84233C87.5534 8.41146 87.6363 8.05682 87.802 7.77841C87.9677 7.5 88.1915 7.27959 88.4732 7.11719C88.7549 6.95478 89.0698 6.83215 89.4178 6.74929C89.7658 6.66643 90.1204 6.60346 90.4817 6.56037C90.9391 6.50734 91.3103 6.46425 91.5953 6.43111C91.8804 6.39465 92.0875 6.33665 92.2168 6.2571C92.3461 6.17756 92.4107 6.0483 92.4107 5.86932V5.83452C92.4107 5.40033 92.2881 5.06392 92.0428 4.82528C91.8008 4.58665 91.4396 4.46733 90.959 4.46733C90.4585 4.46733 90.0641 4.57836 89.7757 4.80043C89.4907 5.01918 89.2935 5.26278 89.1841 5.53125L87.7871 5.21307C87.9528 4.74905 88.1948 4.37453 88.513 4.08949C88.8345 3.80114 89.204 3.59233 89.6216 3.46307C90.0392 3.33049 90.4784 3.2642 90.9391 3.2642C91.244 3.2642 91.5672 3.30066 91.9086 3.37358C92.2533 3.44318 92.5748 3.57244 92.873 3.76136C93.1747 3.95028 93.4216 4.22041 93.6138 4.57173C93.806 4.91974 93.9022 5.37216 93.9022 5.92898V11H92.4505V9.95597H92.3908C92.2947 10.1482 92.1505 10.3371 91.9583 10.5227C91.766 10.7083 91.5191 10.8625 91.2175 10.9851C90.9159 11.1077 90.5546 11.169 90.1337 11.169ZM90.4569 9.97585C90.8678 9.97585 91.2192 9.89465 91.5108 9.73224C91.8058 9.56984 92.0295 9.35772 92.182 9.09588C92.3378 8.83073 92.4157 8.54735 92.4157 8.24574V7.26136C92.3626 7.31439 92.2599 7.36411 92.1074 7.41051C91.9583 7.4536 91.7876 7.49171 91.5953 7.52486C91.4031 7.55469 91.2159 7.58286 91.0336 7.60938C90.8513 7.63258 90.6988 7.65246 90.5762 7.66903C90.2878 7.70549 90.0243 7.76681 89.7857 7.85298C89.5504 7.93916 89.3614 8.06345 89.2189 8.22585C89.0797 8.38494 89.0101 8.59706 89.0101 8.86222C89.0101 9.23011 89.146 9.50852 89.4178 9.69744C89.6896 9.88305 90.0359 9.97585 90.4569 9.97585ZM97.3686 6.46591V11H95.8821V3.36364H97.3089V4.60653H97.4034C97.5791 4.20218 97.8542 3.87737 98.2287 3.6321C98.6065 3.38684 99.0821 3.2642 99.6555 3.2642C100.176 3.2642 100.632 3.37358 101.023 3.59233C101.414 3.80777 101.717 4.12926 101.933 4.55682C102.148 4.98437 102.256 5.51302 102.256 6.14276V11H100.769V6.32173C100.769 5.76823 100.625 5.3357 100.337 5.02415C100.048 4.70928 99.6522 4.55185 99.1484 4.55185C98.8037 4.55185 98.4972 4.62642 98.2287 4.77557C97.9635 4.92472 97.7531 5.14347 97.5973 5.43182C97.4448 5.71686 97.3686 6.06155 97.3686 6.46591ZM107.108 11.1491C106.491 11.1491 105.941 10.9917 105.457 10.6768C104.977 10.3587 104.599 9.90625 104.324 9.3196C104.052 8.72964 103.916 8.02202 103.916 7.19673C103.916 6.37145 104.054 5.66548 104.329 5.07884C104.607 4.49219 104.988 4.04309 105.472 3.73153C105.956 3.41998 106.505 3.2642 107.118 3.2642C107.592 3.2642 107.973 3.34375 108.261 3.50284C108.553 3.65862 108.778 3.84091 108.938 4.04972C109.1 4.25852 109.226 4.44247 109.315 4.60156H109.405V0.818182H110.891V11H109.44V9.81179H109.315C109.226 9.9742 109.097 10.1598 108.928 10.3686C108.762 10.5774 108.533 10.7597 108.241 10.9155C107.95 11.0713 107.572 11.1491 107.108 11.1491ZM107.436 9.88139C107.864 9.88139 108.225 9.7687 108.52 9.54332C108.818 9.31463 109.044 8.99811 109.196 8.59375C109.352 8.18939 109.43 7.71875 109.43 7.18182C109.43 6.65151 109.353 6.1875 109.201 5.78977C109.049 5.39205 108.825 5.08215 108.53 4.86009C108.235 4.63802 107.87 4.52699 107.436 4.52699C106.989 4.52699 106.616 4.64299 106.317 4.875C106.019 5.10701 105.794 5.42353 105.641 5.82457C105.492 6.22562 105.418 6.67803 105.418 7.18182C105.418 7.69223 105.494 8.15128 105.646 8.55895C105.799 8.96662 106.024 9.28977 106.322 9.52841C106.624 9.76373 106.995 9.88139 107.436 9.88139Z" fill="#444444"/>
</svg>
