<svg width="57" height="12" viewBox="0 0 57 12" fill="none" xmlns="http://www.w3.org/2000/svg">
<path d="M0.118608 11V0.818182H3.74787C4.5367 0.818182 5.19129 0.954072 5.71165 1.22585C6.23532 1.49763 6.62642 1.87382 6.88494 2.3544C7.14347 2.83168 7.27273 3.38352 7.27273 4.00994C7.27273 4.63305 7.14181 5.18158 6.87997 5.65554C6.62145 6.12618 6.23035 6.49242 5.70668 6.75426C5.18632 7.0161 4.53172 7.14702 3.7429 7.14702H0.993608V5.82457H3.60369C4.10085 5.82457 4.50521 5.75331 4.81676 5.6108C5.13163 5.46828 5.36198 5.26113 5.50781 4.98935C5.65365 4.71757 5.72656 4.3911 5.72656 4.00994C5.72656 3.62547 5.65199 3.29238 5.50284 3.01065C5.35701 2.72893 5.12666 2.51349 4.81179 2.36435C4.50024 2.21188 4.09091 2.13565 3.58381 2.13565H1.65483V11H0.118608ZM5.14489 6.40625L7.66051 11H5.91051L3.4446 6.40625H5.14489ZM12.2182 11.1541C11.4658 11.1541 10.8179 10.9934 10.2743 10.6719C9.73408 10.3471 9.31647 9.89134 9.02148 9.30469C8.72982 8.71473 8.58398 8.02367 8.58398 7.23153C8.58398 6.44934 8.72982 5.75994 9.02148 5.16335C9.31647 4.56676 9.72745 4.10109 10.2544 3.76633C10.7847 3.43158 11.4045 3.2642 12.1138 3.2642C12.5447 3.2642 12.9623 3.33546 13.3667 3.47798C13.771 3.6205 14.1339 3.84422 14.4554 4.14915C14.7769 4.45407 15.0305 4.85014 15.2161 5.33736C15.4017 5.82126 15.4945 6.40956 15.4945 7.10227V7.62926H9.42418V6.51562H14.0378C14.0378 6.12453 13.9583 5.77817 13.7992 5.47656C13.6401 5.17164 13.4164 4.93134 13.128 4.75568C12.843 4.58002 12.5082 4.49219 12.1238 4.49219C11.7061 4.49219 11.3416 4.59493 11.03 4.80043C10.7218 5.0026 10.4831 5.26776 10.3141 5.59588C10.1484 5.92069 10.0655 6.27367 10.0655 6.65483V7.52486C10.0655 8.03527 10.155 8.46946 10.334 8.82741C10.5163 9.18537 10.7698 9.45881 11.0946 9.64773C11.4194 9.83333 11.7989 9.92614 12.2331 9.92614C12.5149 9.92614 12.7717 9.88636 13.0037 9.80682C13.2357 9.72396 13.4363 9.60133 13.6053 9.43892C13.7743 9.27652 13.9036 9.07599 13.9931 8.83736L15.4 9.09091C15.2873 9.50521 15.0852 9.86813 14.7935 10.1797C14.5051 10.4879 14.1422 10.7282 13.7047 10.9006C13.2705 11.0696 12.775 11.1541 12.2182 11.1541ZM23.4577 3.36364L20.6886 11H19.0977L16.3235 3.36364H17.9194L19.8533 9.24006H19.9329L21.8619 3.36364H23.4577ZM27.8862 11.1541C27.1338 11.1541 26.4859 10.9934 25.9423 10.6719C25.402 10.3471 24.9844 9.89134 24.6895 9.30469C24.3978 8.71473 24.252 8.02367 24.252 7.23153C24.252 6.44934 24.3978 5.75994 24.6895 5.16335C24.9844 4.56676 25.3954 4.10109 25.9224 3.76633C26.4527 3.43158 27.0725 3.2642 27.7818 3.2642C28.2127 3.2642 28.6303 3.33546 29.0346 3.47798C29.439 3.6205 29.8019 3.84422 30.1234 4.14915C30.4449 4.45407 30.6984 4.85014 30.8841 5.33736C31.0697 5.82126 31.1625 6.40956 31.1625 7.10227V7.62926H25.0922V6.51562H29.7058C29.7058 6.12453 29.6262 5.77817 29.4672 5.47656C29.3081 5.17164 29.0843 4.93134 28.796 4.75568C28.5109 4.58002 28.1762 4.49219 27.7917 4.49219C27.3741 4.49219 27.0095 4.59493 26.698 4.80043C26.3897 5.0026 26.1511 5.26776 25.9821 5.59588C25.8163 5.92069 25.7335 6.27367 25.7335 6.65483V7.52486C25.7335 8.03527 25.823 8.46946 26.002 8.82741C26.1842 9.18537 26.4378 9.45881 26.7626 9.64773C27.0874 9.83333 27.4669 9.92614 27.9011 9.92614C28.1828 9.92614 28.4397 9.88636 28.6717 9.80682C28.9037 9.72396 29.1042 9.60133 29.2733 9.43892C29.4423 9.27652 29.5716 9.07599 29.661 8.83736L31.068 9.09091C30.9553 9.50521 30.7531 9.86813 30.4615 10.1797C30.1731 10.4879 29.8102 10.7282 29.3727 10.9006C28.9385 11.0696 28.443 11.1541 27.8862 11.1541ZM34.2983 6.46591V11H32.8118V3.36364H34.2386V4.60653H34.3331C34.5088 4.20218 34.7839 3.87737 35.1584 3.6321C35.5362 3.38684 36.0118 3.2642 36.5852 3.2642C37.1056 3.2642 37.5613 3.37358 37.9524 3.59233C38.3435 3.80777 38.6468 4.12926 38.8622 4.55682C39.0777 4.98437 39.1854 5.51302 39.1854 6.14276V11H37.6989V6.32173C37.6989 5.76823 37.5547 5.3357 37.2663 5.02415C36.978 4.70928 36.5819 4.55185 36.0781 4.55185C35.7334 4.55185 35.4268 4.62642 35.1584 4.77557C34.8932 4.92472 34.6828 5.14347 34.527 5.43182C34.3745 5.71686 34.2983 6.06155 34.2983 6.46591ZM46.0163 7.8331V3.36364H47.5078V11H46.0462V9.67756H45.9666C45.791 10.0852 45.5092 10.425 45.1214 10.6967C44.737 10.9652 44.258 11.0994 43.6847 11.0994C43.1941 11.0994 42.7599 10.9917 42.3821 10.7763C42.0076 10.5575 41.7126 10.2344 41.4972 9.80682C41.285 9.37926 41.179 8.85062 41.179 8.22088V3.36364H42.6655V8.0419C42.6655 8.56226 42.8097 8.97656 43.098 9.2848C43.3864 9.59304 43.7609 9.74716 44.2216 9.74716C44.5 9.74716 44.7768 9.67756 45.0518 9.53835C45.3303 9.39915 45.5606 9.18868 45.7429 8.90696C45.9285 8.62524 46.0196 8.26728 46.0163 7.8331ZM52.7963 11.1541C52.044 11.1541 51.396 10.9934 50.8525 10.6719C50.3122 10.3471 49.8946 9.89134 49.5996 9.30469C49.3079 8.71473 49.1621 8.02367 49.1621 7.23153C49.1621 6.44934 49.3079 5.75994 49.5996 5.16335C49.8946 4.56676 50.3056 4.10109 50.8326 3.76633C51.3629 3.43158 51.9827 3.2642 52.6919 3.2642C53.1228 3.2642 53.5404 3.33546 53.9448 3.47798C54.3491 3.6205 54.7121 3.84422 55.0336 4.14915C55.3551 4.45407 55.6086 4.85014 55.7942 5.33736C55.9798 5.82126 56.0726 6.40956 56.0726 7.10227V7.62926H50.0023V6.51562H54.6159C54.6159 6.12453 54.5364 5.77817 54.3773 5.47656C54.2182 5.17164 53.9945 4.93134 53.7061 4.75568C53.4211 4.58002 53.0864 4.49219 52.7019 4.49219C52.2843 4.49219 51.9197 4.59493 51.6081 4.80043C51.2999 5.0026 51.0613 5.26776 50.8922 5.59588C50.7265 5.92069 50.6436 6.27367 50.6436 6.65483V7.52486C50.6436 8.03527 50.7331 8.46946 50.9121 8.82741C51.0944 9.18537 51.348 9.45881 51.6728 9.64773C51.9976 9.83333 52.3771 9.92614 52.8113 9.92614C53.093 9.92614 53.3498 9.88636 53.5819 9.80682C53.8139 9.72396 54.0144 9.60133 54.1834 9.43892C54.3525 9.27652 54.4817 9.07599 54.5712 8.83736L55.9782 9.09091C55.8655 9.50521 55.6633 9.86813 55.3716 10.1797C55.0833 10.4879 54.7203 10.7282 54.2828 10.9006C53.8487 11.0696 53.3532 11.1541 52.7963 11.1541Z" fill="#667085"/>
</svg>
