<svg width="31" height="30" viewBox="0 0 31 30" fill="none" xmlns="http://www.w3.org/2000/svg">
<rect x="0.5" width="30" height="30" rx="4" fill="#ECEAFF"/>
<mask id="path-2-outside-1_489_955" maskUnits="userSpaceOnUse" x="2.5" y="2" width="27" height="25" fill="black">
<rect fill="white" x="2.5" y="2" width="27" height="25"/>
<path d="M19.2814 15.2144H12.7181C12.5251 15.2144 12.3683 15.3713 12.3683 15.5643V26.444C12.3683 26.637 12.5251 26.7938 12.7181 26.7938H19.2808C19.4738 26.7938 19.6307 26.637 19.6307 26.444L19.6309 15.5643C19.6309 15.3713 19.4741 15.2144 19.281 15.2144H19.2814ZM13.0685 20.6306V19.5156H18.932V20.6312H13.0685V20.6306ZM18.9315 21.3305V22.4461H13.0685V21.3305H18.9315ZM13.0685 18.8159V17.7003H18.932V18.8159H13.0685ZM13.0685 23.1459H18.932V24.2615H13.0685V23.1459ZM18.9315 15.9141V17.0007L13.0685 17.0004V15.9139L18.9315 15.9141ZM13.0685 26.0935V24.961H18.932L18.9318 26.0935H13.0685ZM28.1502 9.77423H21.5875C21.3944 9.77423 21.2376 9.93105 21.2376 10.1241L21.2374 26.4434C21.2374 26.6364 21.3942 26.7932 21.5873 26.7932H28.15C28.343 26.7932 28.4998 26.6364 28.4998 26.4434L28.5 10.1241C28.5 9.93105 28.3438 9.77423 28.1502 9.77423ZM21.9374 18.8149V17.6993H27.8008V18.8149H21.9374ZM27.8008 19.5146V20.6302H21.9374V19.5146H27.8008ZM21.9374 17V15.8844H27.8008V17H21.9374ZM21.9374 15.1848V14.0691H27.8008V15.1848H21.9374ZM21.9374 21.3299H27.8008V22.4455H21.9374V21.3299ZM27.8008 13.3691H21.9374V12.2535H27.8008V13.3691ZM21.9374 23.1455H27.8008V24.2611H21.9374V23.1455ZM27.8008 10.4736V11.5536H21.9374V10.4736H27.8008ZM21.9374 26.0931V24.9606H27.8008V26.0931H21.9374ZM10.4125 20.6535H3.84984C3.65682 20.6535 3.5 20.8103 3.5 21.0033V26.4435C3.5 26.6365 3.65681 26.7933 3.84984 26.7933H10.4125C10.6056 26.7933 10.7624 26.6365 10.7624 26.4435V21.0039C10.7626 20.8106 10.6056 20.6538 10.4125 20.6538V20.6535ZM4.19974 23.1664H10.0632V24.2796H4.19974V23.1664ZM10.0632 21.3534V22.4666H4.19974V21.3534H10.0632ZM4.19974 26.0933V24.9801H10.0632V26.0933H4.19974ZM17.1634 11.6682L25.132 3.69967H21.4719C21.2789 3.69967 21.1221 3.54286 21.1221 3.34984C21.1221 3.15681 21.2789 3 21.4719 3H25.9769C26.1699 3 26.3267 3.15681 26.3267 3.34984V7.8548C26.3267 8.04781 26.1699 8.20463 25.9769 8.20463C25.7839 8.20463 25.627 8.04782 25.627 7.8548V4.19475L17.4112 12.4106C17.2747 12.5471 17.0532 12.5471 16.9161 12.4106L14.3158 9.81028L6.27172 17.8548C6.20358 17.923 6.11368 17.9576 6.02439 17.9576C5.9351 17.9576 5.84541 17.9232 5.77707 17.8548C5.64059 17.7184 5.64059 17.4969 5.77707 17.3604L14.069 9.0685C14.2054 8.93203 14.4269 8.93203 14.564 9.0685L17.1634 11.6682Z"/>
</mask>
<path d="M19.2814 15.2144H12.7181C12.5251 15.2144 12.3683 15.3713 12.3683 15.5643V26.444C12.3683 26.637 12.5251 26.7938 12.7181 26.7938H19.2808C19.4738 26.7938 19.6307 26.637 19.6307 26.444L19.6309 15.5643C19.6309 15.3713 19.4741 15.2144 19.281 15.2144H19.2814ZM13.0685 20.6306V19.5156H18.932V20.6312H13.0685V20.6306ZM18.9315 21.3305V22.4461H13.0685V21.3305H18.9315ZM13.0685 18.8159V17.7003H18.932V18.8159H13.0685ZM13.0685 23.1459H18.932V24.2615H13.0685V23.1459ZM18.9315 15.9141V17.0007L13.0685 17.0004V15.9139L18.9315 15.9141ZM13.0685 26.0935V24.961H18.932L18.9318 26.0935H13.0685ZM28.1502 9.77423H21.5875C21.3944 9.77423 21.2376 9.93105 21.2376 10.1241L21.2374 26.4434C21.2374 26.6364 21.3942 26.7932 21.5873 26.7932H28.15C28.343 26.7932 28.4998 26.6364 28.4998 26.4434L28.5 10.1241C28.5 9.93105 28.3438 9.77423 28.1502 9.77423ZM21.9374 18.8149V17.6993H27.8008V18.8149H21.9374ZM27.8008 19.5146V20.6302H21.9374V19.5146H27.8008ZM21.9374 17V15.8844H27.8008V17H21.9374ZM21.9374 15.1848V14.0691H27.8008V15.1848H21.9374ZM21.9374 21.3299H27.8008V22.4455H21.9374V21.3299ZM27.8008 13.3691H21.9374V12.2535H27.8008V13.3691ZM21.9374 23.1455H27.8008V24.2611H21.9374V23.1455ZM27.8008 10.4736V11.5536H21.9374V10.4736H27.8008ZM21.9374 26.0931V24.9606H27.8008V26.0931H21.9374ZM10.4125 20.6535H3.84984C3.65682 20.6535 3.5 20.8103 3.5 21.0033V26.4435C3.5 26.6365 3.65681 26.7933 3.84984 26.7933H10.4125C10.6056 26.7933 10.7624 26.6365 10.7624 26.4435V21.0039C10.7626 20.8106 10.6056 20.6538 10.4125 20.6538V20.6535ZM4.19974 23.1664H10.0632V24.2796H4.19974V23.1664ZM10.0632 21.3534V22.4666H4.19974V21.3534H10.0632ZM4.19974 26.0933V24.9801H10.0632V26.0933H4.19974ZM17.1634 11.6682L25.132 3.69967H21.4719C21.2789 3.69967 21.1221 3.54286 21.1221 3.34984C21.1221 3.15681 21.2789 3 21.4719 3H25.9769C26.1699 3 26.3267 3.15681 26.3267 3.34984V7.8548C26.3267 8.04781 26.1699 8.20463 25.9769 8.20463C25.7839 8.20463 25.627 8.04782 25.627 7.8548V4.19475L17.4112 12.4106C17.2747 12.5471 17.0532 12.5471 16.9161 12.4106L14.3158 9.81028L6.27172 17.8548C6.20358 17.923 6.11368 17.9576 6.02439 17.9576C5.9351 17.9576 5.84541 17.9232 5.77707 17.8548C5.64059 17.7184 5.64059 17.4969 5.77707 17.3604L14.069 9.0685C14.2054 8.93203 14.4269 8.93203 14.564 9.0685L17.1634 11.6682Z" fill="#817AF3"/>
<path d="M19.2814 15.2144H12.7181C12.5251 15.2144 12.3683 15.3713 12.3683 15.5643V26.444C12.3683 26.637 12.5251 26.7938 12.7181 26.7938H19.2808C19.4738 26.7938 19.6307 26.637 19.6307 26.444L19.6309 15.5643C19.6309 15.3713 19.4741 15.2144 19.281 15.2144H19.2814ZM13.0685 20.6306V19.5156H18.932V20.6312H13.0685V20.6306ZM18.9315 21.3305V22.4461H13.0685V21.3305H18.9315ZM13.0685 18.8159V17.7003H18.932V18.8159H13.0685ZM13.0685 23.1459H18.932V24.2615H13.0685V23.1459ZM18.9315 15.9141V17.0007L13.0685 17.0004V15.9139L18.9315 15.9141ZM13.0685 26.0935V24.961H18.932L18.9318 26.0935H13.0685ZM28.1502 9.77423H21.5875C21.3944 9.77423 21.2376 9.93105 21.2376 10.1241L21.2374 26.4434C21.2374 26.6364 21.3942 26.7932 21.5873 26.7932H28.15C28.343 26.7932 28.4998 26.6364 28.4998 26.4434L28.5 10.1241C28.5 9.93105 28.3438 9.77423 28.1502 9.77423ZM21.9374 18.8149V17.6993H27.8008V18.8149H21.9374ZM27.8008 19.5146V20.6302H21.9374V19.5146H27.8008ZM21.9374 17V15.8844H27.8008V17H21.9374ZM21.9374 15.1848V14.0691H27.8008V15.1848H21.9374ZM21.9374 21.3299H27.8008V22.4455H21.9374V21.3299ZM27.8008 13.3691H21.9374V12.2535H27.8008V13.3691ZM21.9374 23.1455H27.8008V24.2611H21.9374V23.1455ZM27.8008 10.4736V11.5536H21.9374V10.4736H27.8008ZM21.9374 26.0931V24.9606H27.8008V26.0931H21.9374ZM10.4125 20.6535H3.84984C3.65682 20.6535 3.5 20.8103 3.5 21.0033V26.4435C3.5 26.6365 3.65681 26.7933 3.84984 26.7933H10.4125C10.6056 26.7933 10.7624 26.6365 10.7624 26.4435V21.0039C10.7626 20.8106 10.6056 20.6538 10.4125 20.6538V20.6535ZM4.19974 23.1664H10.0632V24.2796H4.19974V23.1664ZM10.0632 21.3534V22.4666H4.19974V21.3534H10.0632ZM4.19974 26.0933V24.9801H10.0632V26.0933H4.19974ZM17.1634 11.6682L25.132 3.69967H21.4719C21.2789 3.69967 21.1221 3.54286 21.1221 3.34984C21.1221 3.15681 21.2789 3 21.4719 3H25.9769C26.1699 3 26.3267 3.15681 26.3267 3.34984V7.8548C26.3267 8.04781 26.1699 8.20463 25.9769 8.20463C25.7839 8.20463 25.627 8.04782 25.627 7.8548V4.19475L17.4112 12.4106C17.2747 12.5471 17.0532 12.5471 16.9161 12.4106L14.3158 9.81028L6.27172 17.8548C6.20358 17.923 6.11368 17.9576 6.02439 17.9576C5.9351 17.9576 5.84541 17.9232 5.77707 17.8548C5.64059 17.7184 5.64059 17.4969 5.77707 17.3604L14.069 9.0685C14.2054 8.93203 14.4269 8.93203 14.564 9.0685L17.1634 11.6682Z" stroke="#817AF3" stroke-width="0.2" mask="url(#path-2-outside-1_489_955)"/>
</svg>
