<svg width="36" height="12" viewBox="0 0 36 12" fill="none" xmlns="http://www.w3.org/2000/svg">
<path d="M6.67188 3.4929C6.61884 3.02225 6.40009 2.65767 6.01562 2.39915C5.63116 2.13731 5.14725 2.00639 4.56392 2.00639C4.14631 2.00639 3.78504 2.07268 3.48011 2.20526C3.17519 2.33452 2.93821 2.51349 2.76918 2.74219C2.60346 2.96757 2.5206 3.22443 2.5206 3.51278C2.5206 3.75473 2.57694 3.96354 2.68963 4.1392C2.80563 4.31487 2.95644 4.46236 3.14205 4.58168C3.33097 4.69768 3.53314 4.79545 3.74858 4.875C3.96402 4.95123 4.17116 5.0142 4.37003 5.06392L5.36435 5.32244C5.68916 5.40199 6.02225 5.50971 6.36364 5.6456C6.70502 5.78149 7.02154 5.96046 7.31321 6.18253C7.60488 6.40459 7.8402 6.67969 8.01918 7.00781C8.20147 7.33594 8.29261 7.72869 8.29261 8.18608C8.29261 8.76278 8.14347 9.27486 7.84517 9.7223C7.55019 10.1697 7.12098 10.5227 6.55753 10.7812C5.9974 11.0398 5.3196 11.169 4.52415 11.169C3.76184 11.169 3.10227 11.0481 2.54545 10.8061C1.98864 10.5642 1.55279 10.2211 1.23793 9.77699C0.923059 9.32955 0.749053 8.79924 0.715909 8.18608H2.2571C2.28693 8.55398 2.40625 8.86056 2.61506 9.10582C2.82718 9.34777 3.0973 9.52841 3.42543 9.64773C3.75687 9.76373 4.11979 9.82173 4.5142 9.82173C4.94839 9.82173 5.33452 9.75379 5.67259 9.6179C6.01397 9.47869 6.28243 9.28646 6.47798 9.04119C6.67353 8.79261 6.77131 8.5026 6.77131 8.17116C6.77131 7.86955 6.68513 7.62263 6.51278 7.4304C6.34375 7.23816 6.1134 7.07907 5.82173 6.95312C5.53338 6.82718 5.20691 6.71615 4.84233 6.62003L3.6392 6.2919C2.82386 6.06984 2.17756 5.74337 1.70028 5.3125C1.22633 4.88163 0.989347 4.31155 0.989347 3.60227C0.989347 3.01562 1.14844 2.50355 1.46662 2.06605C1.7848 1.62855 2.21567 1.28883 2.75923 1.04688C3.30279 0.80161 3.91596 0.678977 4.59872 0.678977C5.28812 0.678977 5.89631 0.799952 6.4233 1.0419C6.9536 1.28385 7.37121 1.61695 7.67614 2.04119C7.98106 2.46212 8.14015 2.94602 8.15341 3.4929H6.67188ZM12.2314 11.169C11.7475 11.169 11.31 11.0795 10.9189 10.9006C10.5278 10.7183 10.2179 10.4548 9.98917 10.1101C9.76379 9.76539 9.6511 9.3428 9.6511 8.84233C9.6511 8.41146 9.73396 8.05682 9.89968 7.77841C10.0654 7.5 10.2891 7.27959 10.5708 7.11719C10.8526 6.95478 11.1674 6.83215 11.5154 6.74929C11.8635 6.66643 12.2181 6.60346 12.5794 6.56037C13.0368 6.50734 13.408 6.46425 13.693 6.43111C13.978 6.39465 14.1852 6.33665 14.3145 6.2571C14.4437 6.17756 14.5083 6.0483 14.5083 5.86932V5.83452C14.5083 5.40033 14.3857 5.06392 14.1404 4.82528C13.8985 4.58665 13.5372 4.46733 13.0566 4.46733C12.5562 4.46733 12.1618 4.57836 11.8734 4.80043C11.5884 5.01918 11.3912 5.26278 11.2818 5.53125L9.88477 5.21307C10.0505 4.74905 10.2924 4.37453 10.6106 4.08949C10.9321 3.80114 11.3017 3.59233 11.7193 3.46307C12.1369 3.33049 12.5761 3.2642 13.0368 3.2642C13.3417 3.2642 13.6648 3.30066 14.0062 3.37358C14.3509 3.44318 14.6724 3.57244 14.9707 3.76136C15.2723 3.95028 15.5192 4.22041 15.7115 4.57173C15.9037 4.91974 15.9998 5.37216 15.9998 5.92898V11H14.5481V9.95597H14.4885C14.3923 10.1482 14.2482 10.3371 14.0559 10.5227C13.8637 10.7083 13.6168 10.8625 13.3152 10.9851C13.0136 11.1077 12.6523 11.169 12.2314 11.169ZM12.5545 9.97585C12.9655 9.97585 13.3168 9.89465 13.6085 9.73224C13.9035 9.56984 14.1272 9.35772 14.2797 9.09588C14.4354 8.83073 14.5133 8.54735 14.5133 8.24574V7.26136C14.4603 7.31439 14.3575 7.36411 14.2051 7.41051C14.0559 7.4536 13.8852 7.49171 13.693 7.52486C13.5008 7.55469 13.3135 7.58286 13.1312 7.60938C12.9489 7.63258 12.7965 7.65246 12.6738 7.66903C12.3855 7.70549 12.122 7.76681 11.8833 7.85298C11.648 7.93916 11.4591 8.06345 11.3166 8.22585C11.1774 8.38494 11.1078 8.59706 11.1078 8.86222C11.1078 9.23011 11.2437 9.50852 11.5154 9.69744C11.7872 9.88305 12.1336 9.97585 12.5545 9.97585ZM19.4663 0.818182V11H17.9798V0.818182H19.4663ZM24.7573 11.1541C24.0049 11.1541 23.3569 10.9934 22.8134 10.6719C22.2731 10.3471 21.8555 9.89134 21.5605 9.30469C21.2689 8.71473 21.123 8.02367 21.123 7.23153C21.123 6.44934 21.2689 5.75994 21.5605 5.16335C21.8555 4.56676 22.2665 4.10109 22.7935 3.76633C23.3238 3.43158 23.9436 3.2642 24.6529 3.2642C25.0837 3.2642 25.5014 3.33546 25.9057 3.47798C26.3101 3.6205 26.673 3.84422 26.9945 4.14915C27.316 4.45407 27.5695 4.85014 27.7551 5.33736C27.9408 5.82126 28.0336 6.40956 28.0336 7.10227V7.62926H21.9632V6.51562H26.5769C26.5769 6.12453 26.4973 5.77817 26.3382 5.47656C26.1792 5.17164 25.9554 4.93134 25.6671 4.75568C25.382 4.58002 25.0473 4.49219 24.6628 4.49219C24.2452 4.49219 23.8806 4.59493 23.5691 4.80043C23.2608 5.0026 23.0222 5.26776 22.8532 5.59588C22.6874 5.92069 22.6046 6.27367 22.6046 6.65483V7.52486C22.6046 8.03527 22.6941 8.46946 22.873 8.82741C23.0553 9.18537 23.3089 9.45881 23.6337 9.64773C23.9585 9.83333 24.338 9.92614 24.7722 9.92614C25.0539 9.92614 25.3108 9.88636 25.5428 9.80682C25.7748 9.72396 25.9753 9.60133 26.1444 9.43892C26.3134 9.27652 26.4426 9.07599 26.5321 8.83736L27.9391 9.09091C27.8264 9.50521 27.6242 9.86813 27.3326 10.1797C27.0442 10.4879 26.6813 10.7282 26.2438 10.9006C25.8096 11.0696 25.3141 11.1541 24.7573 11.1541ZM35.4052 5.22798L34.0579 5.46662C34.0015 5.29427 33.9121 5.13021 33.7894 4.97443C33.6701 4.81865 33.5077 4.69105 33.3022 4.59162C33.0967 4.49219 32.8398 4.44247 32.5316 4.44247C32.1107 4.44247 31.7594 4.53693 31.4776 4.72585C31.1959 4.91146 31.055 5.15175 31.055 5.44673C31.055 5.70194 31.1495 5.90743 31.3384 6.06321C31.5273 6.21899 31.8323 6.34659 32.2532 6.44602L33.4663 6.72443C34.1689 6.88684 34.6926 7.13707 35.0373 7.47514C35.382 7.81321 35.5543 8.25237 35.5543 8.79261C35.5543 9.25 35.4218 9.65767 35.1566 10.0156C34.8948 10.3703 34.5285 10.6487 34.0579 10.8509C33.5906 11.053 33.0487 11.1541 32.4322 11.1541C31.5771 11.1541 30.8794 10.9718 30.3391 10.6072C29.7989 10.2393 29.4674 9.71733 29.3448 9.04119L30.7816 8.82244C30.8711 9.19697 31.055 9.48035 31.3335 9.67259C31.6119 9.86151 31.9748 9.95597 32.4222 9.95597C32.9094 9.95597 33.2989 9.85488 33.5906 9.6527C33.8822 9.44721 34.0281 9.19697 34.0281 8.90199C34.0281 8.66335 33.9386 8.46283 33.7596 8.30043C33.5839 8.13802 33.3138 8.01539 32.9492 7.93253L31.6566 7.64915C30.944 7.48674 30.417 7.22822 30.0756 6.87358C29.7376 6.51894 29.5685 6.06984 29.5685 5.52628C29.5685 5.07552 29.6945 4.68111 29.9464 4.34304C30.1983 4.00497 30.5463 3.74148 30.9904 3.55256C31.4345 3.36032 31.9433 3.2642 32.5167 3.2642C33.342 3.2642 33.9916 3.44318 34.4656 3.80114C34.9395 4.15578 35.2527 4.63139 35.4052 5.22798Z" fill="#667085"/>
</svg>
