<svg width="30" height="30" viewBox="0 0 30 30" fill="none" xmlns="http://www.w3.org/2000/svg">
<rect width="30" height="30" rx="4" fill="#E7E5FF"/>
<path d="M10.7365 19.3686C10.7365 19.1801 10.5864 19.0277 10.4007 19.0277H5.19572C5.00996 19.0277 4.85986 19.1801 4.85986 19.3686C4.85986 19.5572 5.00997 19.7095 5.19572 19.7095H10.4044C10.5861 19.7095 10.7364 19.5572 10.7364 19.3686H10.7365Z" fill="#817AF3"/>
<path d="M5.19621 20.4636C5.01045 20.4636 4.86035 20.6159 4.86035 20.8045C4.86035 20.993 5.01045 21.1454 5.19621 21.1454H8.02574C8.21151 21.1454 8.3616 20.993 8.3616 20.8045C8.3616 20.6159 8.2115 20.4636 8.02574 20.4636H5.19621Z" fill="#817AF3"/>
<path d="M22.5173 13.1831C19.5454 13.1831 17.127 15.6379 17.127 18.6543C17.127 21.6708 19.5455 24.1256 22.5173 24.1256C25.4891 24.1256 27.9076 21.6707 27.9076 18.6543C27.9076 15.6379 25.489 13.1831 22.5173 13.1831ZM22.5173 23.4438C19.9168 23.4438 17.7986 21.2937 17.7986 18.6543C17.7986 16.0148 19.9169 13.8648 22.5173 13.8648C25.1177 13.8648 27.236 16.0149 27.236 18.6543C27.2361 21.2936 25.1218 23.4438 22.5173 23.4438Z" fill="#817AF3"/>
<path d="M25.7106 16.733C25.7106 16.3801 25.5761 16.0471 25.3312 15.7984C24.8293 15.2889 24.0072 15.2889 23.4975 15.7984L22.5214 16.7891L21.5412 15.7943C21.0393 15.293 20.2173 15.293 19.7115 15.7984C19.4664 16.0471 19.3281 16.3801 19.3281 16.733C19.3281 17.0859 19.4626 17.4189 19.7115 17.6677L20.6836 18.6584L19.7115 19.6451C19.4664 19.8939 19.3281 20.2269 19.3281 20.5798C19.3281 20.9327 19.4626 21.2618 19.7115 21.5144C20.1778 21.9877 21.0827 21.9877 21.5452 21.5144L22.5214 20.5236L23.4975 21.5144C23.7385 21.7591 24.0744 21.8994 24.4143 21.8994C24.7541 21.8994 25.09 21.7591 25.3311 21.5144C25.5762 21.2657 25.7104 20.9327 25.7104 20.5798C25.7104 20.2269 25.576 19.8939 25.3311 19.6451L24.359 18.6584L25.3311 17.6677C25.5723 17.415 25.7106 17.0861 25.7106 16.733L25.7106 16.733ZM24.8531 17.1823L23.6437 18.4137C23.5133 18.5461 23.5133 18.7628 23.6437 18.8952L24.8531 20.1227C24.9717 20.2431 25.0349 20.4034 25.0349 20.572C25.0349 20.7404 24.9715 20.9009 24.8531 21.0213C24.6198 21.2581 24.201 21.2581 23.9678 21.0213L22.7546 19.7899C22.6874 19.7218 22.6045 19.6896 22.5175 19.6896C22.4305 19.6896 22.3436 19.7218 22.2805 19.7899L21.0673 21.0213C20.8498 21.242 20.3994 21.242 20.1859 21.0213C20.0673 20.9009 20.0002 20.7406 20.0002 20.572C20.0002 20.4036 20.0673 20.2431 20.1859 20.1227L21.3991 18.8952C21.4624 18.8309 21.4979 18.7428 21.4979 18.6546C21.4979 18.5622 21.4624 18.478 21.3991 18.4139L20.1859 17.1825C20.0673 17.0621 20.0002 16.9018 20.0002 16.7332C20.0002 16.5648 20.0673 16.4043 20.1819 16.2839C20.427 16.0392 20.8222 16.0392 21.0633 16.2799L22.2805 17.5113C22.4109 17.6437 22.6243 17.6437 22.7548 17.5113L23.9642 16.2837C24.2092 16.039 24.6084 16.035 24.8495 16.2837C24.9681 16.4041 25.0312 16.5644 25.0312 16.733C25.0349 16.9015 24.9716 17.0619 24.8531 17.1824L24.8531 17.1823Z" fill="#817AF3"/>
<path d="M18.2929 23.1833H5.52017C4.44928 23.1833 3.57979 22.3008 3.57979 21.2138V7.65558C3.57979 6.56861 4.44928 5.68607 5.52017 5.68607H9.64202V9.90601C9.64202 10.1788 9.7803 10.4194 10.0135 10.5559C10.1282 10.624 10.2546 10.6561 10.3811 10.6561C10.5075 10.6561 10.638 10.6201 10.7526 10.5518L12.2425 9.66538C12.2623 9.65337 12.29 9.65337 12.3096 9.66538L13.7995 10.5479C14.0288 10.6844 14.3093 10.6883 14.5385 10.552C14.7718 10.4155 14.9101 10.1749 14.9101 9.90213L14.9099 5.682H19.0317C20.1026 5.682 20.9761 6.56455 20.9761 7.65152V12.2766C20.9761 12.4652 21.1262 12.6175 21.312 12.6175C21.4977 12.6175 21.6478 12.4652 21.6478 12.2766L21.648 7.65152C21.648 6.18743 20.4743 5 19.0319 5L5.52001 5.00018C4.07758 5.00018 2.90771 6.19149 2.90771 7.6517V21.21C2.90771 22.674 4.0814 23.8615 5.52001 23.8615L18.2927 23.8613C18.4785 23.8613 18.6286 23.7089 18.6286 23.5204C18.6288 23.3357 18.4785 23.1834 18.2927 23.1834L18.2929 23.1833ZM14.2383 9.90213C14.2383 9.92614 14.2265 9.94627 14.2067 9.95827C14.183 9.97027 14.1632 9.97027 14.1396 9.95827L12.6497 9.07572C12.535 9.00758 12.4046 8.97139 12.2781 8.97139C12.1477 8.97139 12.0212 9.0074 11.9066 9.07572L10.4167 9.96215C10.3969 9.97415 10.3732 9.97415 10.3496 9.96215C10.3259 9.95014 10.3179 9.93001 10.3179 9.90601V5.68219H14.2422V9.90213H14.2383Z" fill="#817AF3"/>
<path d="M13.6852 18.4378H16.1434C16.3291 18.4378 16.4792 18.2854 16.4792 18.0969C16.4792 17.9083 16.3291 17.756 16.1434 17.756H13.6852C13.2109 17.756 12.8237 18.1491 12.8237 18.6345V20.6402C12.8237 21.1216 13.2111 21.5146 13.6852 21.5146H16.6175C16.8033 21.5146 16.9534 21.3622 16.9534 21.1737C16.9534 20.9852 16.8033 20.8328 16.6175 20.8328H13.6852C13.5824 20.8328 13.4995 20.7486 13.4995 20.6443V18.6385C13.4995 18.5261 13.5824 18.4378 13.6852 18.4378Z" fill="#817AF3"/>
</svg>
