<svg width="41" height="41" viewBox="0 0 41 41" fill="none" xmlns="http://www.w3.org/2000/svg">
<path d="M1.2998 0.985458C0.74752 0.985458 0.299805 1.43317 0.299805 1.98546C0.299805 2.53774 0.74752 2.98546 1.2998 2.98546V0.985458ZM5.88488 1.98546L6.8501 1.72404C6.73205 1.28814 6.33648 0.985458 5.88488 0.985458V1.98546ZM13.3356 29.4959L12.3704 29.7573C12.5007 30.2383 12.9652 30.55 13.4597 30.4882L13.3356 29.4959ZM36.261 26.6302L36.385 27.6225C36.8097 27.5694 37.1535 27.252 37.2402 26.8328L36.261 26.6302ZM39.6998 10.0093L40.6791 10.2119C40.74 9.91743 40.6651 9.61113 40.4752 9.37792C40.2853 9.1447 40.0006 9.00934 39.6998 9.00934V10.0093ZM8.05801 10.0093L7.09279 10.2708L8.05801 10.0093ZM1.2998 2.98546H5.88488V0.985458H1.2998V2.98546ZM13.4597 30.4882L36.385 27.6225L36.137 25.638L13.2116 28.5036L13.4597 30.4882ZM37.2402 26.8328L40.6791 10.2119L38.7205 9.80674L35.2817 26.4276L37.2402 26.8328ZM4.91965 2.24687L7.09279 10.2708L9.02324 9.74793L6.8501 1.72404L4.91965 2.24687ZM7.09279 10.2708L12.3704 29.7573L14.3008 29.2345L9.02324 9.74793L7.09279 10.2708ZM39.6998 9.00934H8.05801V11.0093H39.6998V9.00934ZM19.4998 37C19.4998 38.1046 18.6044 39 17.4998 39V41C19.7089 41 21.4998 39.2091 21.4998 37H19.4998ZM17.4998 39C16.3952 39 15.4998 38.1046 15.4998 37H13.4998C13.4998 39.2091 15.2907 41 17.4998 41V39ZM15.4998 37C15.4998 35.8954 16.3952 35 17.4998 35V33C15.2907 33 13.4998 34.7909 13.4998 37H15.4998ZM17.4998 35C18.6044 35 19.4998 35.8954 19.4998 37H21.4998C21.4998 34.7909 19.7089 33 17.4998 33V35ZM35.4998 37C35.4998 38.1046 34.6044 39 33.4998 39V41C35.7089 41 37.4998 39.2091 37.4998 37H35.4998ZM33.4998 39C32.3952 39 31.4998 38.1046 31.4998 37H29.4998C29.4998 39.2091 31.2907 41 33.4998 41V39ZM31.4998 37C31.4998 35.8954 32.3952 35 33.4998 35V33C31.2907 33 29.4998 34.7909 29.4998 37H31.4998ZM33.4998 35C34.6044 35 35.4998 35.8954 35.4998 37H37.4998C37.4998 34.7909 35.7089 33 33.4998 33V35Z" fill="#5D6679"/>
</svg>
