<svg width="17" height="18" viewBox="0 0 17 18" fill="none" xmlns="http://www.w3.org/2000/svg">
<path d="M9.65212 16.5C9.50561 16.7526 9.29532 16.9622 9.0423 17.1079C8.78929 17.2537 8.50243 17.3304 8.21045 17.3304C7.91847 17.3304 7.63161 17.2537 7.37859 17.1079C7.12558 16.9622 6.91529 16.7526 6.76878 16.5M13.2104 5.66666C13.2104 4.34057 12.6837 3.0688 11.746 2.13112C10.8083 1.19344 9.53653 0.666656 8.21045 0.666656C6.88437 0.666656 5.6126 1.19344 4.67492 2.13112C3.73723 3.0688 3.21045 4.34057 3.21045 5.66666C3.21045 11.5 0.710449 13.1667 0.710449 13.1667H15.7104C15.7104 13.1667 13.2104 11.5 13.2104 5.66666Z" stroke="#5D6679" stroke-width="1.2" stroke-linecap="round" stroke-linejoin="round"/>
</svg>
